<?xml version="1.0" encoding="UTF-8"?>
<svg id="Layer_1" xmlns="http://www.w3.org/2000/svg" version="1.1" viewBox="0 0 32 32">
  <!-- Generator: Adobe Illustrator 29.5.0, SVG Export Plug-In . SVG Version: 2.1.0 Build 137)  -->
  <defs>
    <style>
      .st0 {
        fill: #adfefe;
      }

      .st1 {
        fill: #021e41;
      }

      .st2 {
        fill: #10a8df;
      }

      .st3 {
        fill: #08577b;
      }

      .st4 {
        fill: #054c70;
      }

      .st5 {
        fill: #10a9df;
      }

      .st6 {
        fill: #012448;
      }

      .st7 {
        fill: #c3fbfc;
      }

      .st8 {
        fill: #022042;
      }

      .st9 {
        fill: #15d6fe;
      }

      .st10 {
        fill: #093656;
      }

      .st11 {
        fill: #dffdfe;
      }

      .st12 {
        fill: #45f2fe;
      }

      .st13 {
        fill: #054c6f;
      }

      .st14 {
        fill: #7ffdfe;
      }

      .st15 {
        fill: #0a87b7;
      }

      .st16 {
        fill: #012346;
      }

      .st17 {
        fill: #0b6388;
      }

      .st18 {
        fill: #81fdfe;
      }

      .st19 {
        fill: #022245;
      }

      .st20 {
        fill: #c7fefe;
      }

      .st21 {
        fill: #cefefe;
      }

      .st22 {
        fill: #dcfcfd;
      }

      .st23 {
        fill: #7dfcfe;
      }

      .st24 {
        fill: #054b6f;
      }

      .st25 {
        fill: #2ce5fe;
      }

      .st26 {
        fill: #0fa4da;
      }

      .st27 {
        fill: #f8fefe;
      }

      .st28 {
        fill: #17c4f5;
      }

      .st29 {
        fill: #e2fdfe;
      }

      .st30 {
        fill: #49f3fe;
      }

      .st31 {
        fill: #012245;
      }

      .st32 {
        fill: #2ce5fd;
      }

      .st33 {
        fill: #79fbfe;
      }

      .st34 {
        fill: #073656;
      }

      .st35 {
        fill: #7bfbfe;
      }

      .st36 {
        fill: #cffefe;
      }

      .st37 {
        fill: #0fb4ea;
      }

      .st38 {
        fill: #a9fbfc;
      }

      .st39 {
        fill: #c5fdfd;
      }

      .st40 {
        fill: #80fdfe;
      }

      .st41 {
        fill: #acfefe;
      }

      .st42 {
        fill: #0483bf;
      }

      .st43 {
        fill: #b9fefe;
      }

      .st44 {
        fill: #cafdfe;
      }

      .st45 {
        fill: #0b8bc4;
      }

      .st46 {
        fill: #093352;
      }

      .st47 {
        fill: #77f9fd;
      }

      .st48 {
        fill: #01142c;
      }

      .st49 {
        fill: #dafcfe;
      }

      .st50 {
        fill: #b7fafd;
      }

      .st51 {
        fill: #0893ce;
      }

      .st52 {
        fill: #0482bf;
      }

      .st53 {
        fill: #fefefe;
      }

      .st54 {
        fill: #0278b4;
      }

      .st55 {
        fill: #0fa7de;
      }

      .st56 {
        fill: #79fafe;
      }

      .st57 {
        fill: #01132b;
      }

      .st58 {
        fill: #2ae2fd;
      }

      .st59 {
        fill: #0894ce;
      }

      .st60 {
        fill: #022144;
      }
    </style>
  </defs>
  <rect class="st53" x=".01" y=".01" width="31.98" height="31.98"/>
  <path class="st52" d="M24.26,19.15c.1-.12.16.02.09.13-.13.19-.28.37-.43.55-.07.02.13.24.14.25.41.08,1.1.23,1.44.46.05.04.08.06.03.12l.03.06-2.22,2.65c-.1.12-.3.02-.21-.11-.12-.06-.08-.36,0-.46-.02.1-.05.14-.15.16l-.05.23c-.29.66-.51,1.35-.64,2.06-.24.62-.41,1.24-.53,1.88.24.03.12.24.02.38-.09.5-.21.22-.21-.11l-.07-.08c-.01-.25-.09-.49-.21-.7-.15-.21-.26-.43-.33-.66l-.09-.02-.21-.35c0,.12-.04.2-.11.22h-.03c-.13-.05-.25-.07-.37-.06-.24.11-.48.22-.73.31-.28,0-.54,0-.81.07-.52-.12-1.13.06-1.6.31-.19.1-.8.27-.94.1-.05-.06-.07-.36.03-.38,0-.02,0-.06.03-.06.11-.02.45-.03.5.06-.03-.13-.08-.23-.16-.32l-.23.11c-.15.06-.27-.05-.11-.14.01-.03.02-.07.05-.08.56-.27,1.13-.49,1.73-.69.37-.14.72-.32,1.04-.54.54-.15,1.08-.3,1.62-.45,1.13-1.63,2.31-3.22,3.53-4.77l.15-.12Z"/>
  <path class="st28" d="M25.54,20.65c-.04-.15.2-.1.24.02.09.29.27.46.51.63.26,0,.36.18.32.52l.05-.02c.03.06.06.11.06.18.04.81-.04,1.49-.17,2.26.02.13.02.35-.12.24l-.25-1.46c-.12-.52-.22-1.04-.3-1.58-.06-.35-.25-.02-.33.14-.38.75-.77,1.51-1.18,2.26-.24.11-.5.16-.79.15-.31.02-.49.21-.55.58-.51,1.7-.99,3.43-1.42,5.17-.11,0-.12-.18-.12-.27-.24-1.24-.59-2.46-.93-3.67.03-.1.04-.2.06-.3.01-.05-.02-.06.06-.05.07.18.19.35.29.51.06.24.18.46.34.68.13.25.21.51.23.79l.04-.03c.07.04,0,.32.08.32.05,0,.05-.18.07-.22.04-.1.15-.18.11-.32l-.13.1c0-.1,0-.2,0-.3.08-.52.37-1.23.52-1.75.07-.25.1-.55.18-.81.17-.56.5-1.06.54-1.65l.06.13.13-.1v.46s.07.11.08.11l.06-.03,2.25-2.68Z"/>
  <path class="st21" d="M14.51,30.55c-.15-.36-.33-.76-.45-1.13-.06-.2-.09-.56-.18-.72-.01-.03-.05-.06-.08-.07v.42s-.05-.03-.06-.05c-.32-.37-.51-1.31-.9-1.63-.37-.17-2.86-1.53-3.04-1.48-.05.01-.07.12-.09.16-.25.68-.34,1.5-.59,2.19-.02.06-.02.16-.1.13l-.64-3.07c-.35.11-.68.02-1-.13-.16-.07-.74-.49-.81-.5s-.09.1-.1.14c-.3.86-.34,1.96-.61,2.84-.01.04,0,.1-.06.11-.21-.91-.37-1.83-.53-2.74-.2-1.1-.32-2.36-.57-3.43-.09-.38-.36-.82-.61-1.12-.09-.02-.24.45-.29.53-.02.03,0,.06-.07.04-.28-1.95-.5-3.91-.7-5.86.51-1.8.9-3.6,1.12-5.46.5-.64,1.01-1.29,1.54-1.91.19-.23.42-.41.62-.66.37-.47.61-1.1.96-1.53.97-1.19,2.23-1.75,3.58-2.39,1.79-.84,3.61-1.63,5.46-2.33,1.68.69,3.34,1.44,4.99,2.2,1.05.48,2.15.96,3.18,1.48.59.3.65.31,1.04.85.51.71,1.04,1.53,1.49,2.28.48.8.63,1.35.9,2.23.34,1.12.67,2.26.91,3.4-.2,1.36-.58,2.69-.82,4.04-.15.86-.27,1.73-.41,2.59-.33,1.92-.6,3.85-1,5.76-.05,0-.04-.06-.05-.09-.03-.12-.05-.26-.07-.38-.21-1.21-.33-2.46-.56-3.66-.02-.1-.03-.34-.14-.28-.04.02-.35.63-.41.73-.2.38-.37.77-.57,1.15-.08.15-.28.58-.38.67-.2.18-.89.06-1.11.24-.16.13-.54,1.54-.63,1.83-.38,1.31-.7,2.65-1.05,3.97l-.05.03c0-.16-.15-.33-.06-.48l.1.26c.44-1.59.79-3.24,1.3-4.82.06-.2.18-.64.3-.79.18-.25.97-.11,1.17-.3.4-.68.71-1.41,1.09-2.1.05-.1.31-.66.45-.4.11.57.19,1.14.29,1.7l.24,1.43s.05.02.05.03c.05.24.07.48.1.72l.74-4.49c.04-.18.09-.35.15-.52,0-.09,0-.18,0-.27s0-.18.02-.27c.31-1.98.68-3.9,1.13-5.83l.06-.12c-.09-.05-.06-.22.03-.26l-.06-.07c0-.4-.13-.78-.27-1.15l.04-.09-.22-.58c-.25-1.02-.55-2.01-.89-2.98l.02-.12-.09-.05c-.56-1.02-1.2-1.99-1.93-2.92v-.1c.08.03-.04-.15-.09-.16-.07,0-.14-.06-.21-.16-.09-.04-.14-.1-.14-.16-.54-.25-1.11-.51-1.7-.78l-.12-.11-1.28-.52c-1.81-.84-3.63-1.65-5.45-2.45-2.22.86-4.45,1.82-6.57,2.88-1.25.63-2.39,1.44-2.95,2.74l-.24.36c-.78.88-1.55,1.81-2.3,2.79-.05.45-.12.9-.19,1.35-.16.96-.33,1.92-.64,2.84-.17.57-.29,1.03-.28,1.56.01.47.09,1.03.16,1.5,0,0,.01,0,.03,0,.02.06.05.12.06.19s.04.13.04.19c.15,1.06.27,2.15.39,3.16.05-.13.2-.31.3-.15l.1.04c.18.22.59.9.61,1.16l-.04.1c.15.41.25.83.3,1.28.2,1.33.44,2.73.69,3.99.06.01.08.05.06.12l.54-2.47s.04-.07.08-.08c.08-.03.44.21.51.3l.09-.02c.39.32.8.44,1.24.37l.08.04c.06-.05.1.02.11.08.17.82.33,1.64.49,2.47.01.05.06.19.08.21.02-.09.07-.18.12-.26.04-.36.13-.7.29-1.02-.01,0-.03-.01-.03-.03-.04-.06.17-.76.23-.84.11-.13.22-.09.31.04.11-.03.23,0,.37.09.71.31,1.55.69,2.21,1.08.47.27.55.4.78.87l.34.77c0-.11.08-.24.16-.12.05-.04.07-.03.06.03.05.06.09.13.12.2.16.5.32.99.49,1.48.03.07.03.15.03.23.01.04,0,.05-.03.03Z"/>
  <path class="st2" d="M20.52,25.79c-.33.05-.6.43-.86.66-.14.12-.3.22-.45.33-.76.32-1.55.59-2.36.8l-.62.24h-.06c-.34.17-.27-.17-.03-.21.03-.03.17-.16.03-.1-.05.04-.12.06-.22.06-.33.16-.61.16-.96.07l-.2.06c-.16,0-.19-.41-.09-.51-.05-.26-.04-.53.02-.81-.03-.09,0-.47.04-.5.08-.06.49-.05.58.04.01-.02.02-.03.04-.03.1-.02.68-.13.71-.12.02,0,.03.02.05.03-.12.23.31-.04.37-.06.03,0,.17.3.17.34,0,.03-.02.07-.04.07h-.53c.01.31-.1.41.27.38.52-.03.69-.25,1.1-.37.16-.05.64-.15.79-.17.11-.01.21.06.34.06s.21-.06.32-.07c.15-.01.33.02.48,0,.34-.05.78-.56,1.1-.19Z"/>
  <path class="st41" d="M19.21,26.78s.02.04-.02.07c-.05.03-.31.12-.39.15-.77.3-1.6.47-2.36.77-.34.14-.5.18-.64.54-.28.74-.46,1.57-.74,2.32-.03.08-.2.55-.25.55-.17-.17-.21-.42-.3-.64l.03-.03.08.03.17.35c.31-.73.55-1.49.74-2.26.05-.16.11-.32.17-.47.1-.23.23-.31.46-.36.57-.29,1.49-.47,2.13-.69.3-.1.59-.24.9-.33Z"/>
  <path class="st51" d="M25.63,18.06l.05.06c-.08.28.17.28.37.21.28-.17.4-.16.7-.1.03.04-.06.84-.07.96-.02.13-.04.26-.09.38.12-.02.19.1.1.17.11.03.1.43,0,.48h.07c.03.1.06.18.09.27l.04.13c-.07.35-.13.7-.16,1.06l-.07.12-.06.35c-.03-.14-.02-.65-.11-.74-.05-.05-.14-.02-.21-.05-.05-.02-.36-.28-.4-.34-.06-.08-.15-.36-.21-.4-.06-.04-.12.02-.13.02,0,0-.04-.06-.09-.08-.47-.18-.93-.4-1.43-.44,0-.09-.2-.21-.2-.26,0-.06.37-.44.44-.55.02-.03.14-.19,0-.17-.05-.08.13-.32.22-.29l.04-.08c.15-.03.31-.04.48-.02.25-.19.41-.18.5.04.17-.25.1-.41-.23-.48-.15-.14.26-.33.36-.25Z"/>
  <path class="st14" d="M24.42,17.17h.06l.06.09c.04.51.04,1.02.02,1.52l-.08.08c-.09.06-.15.2-.22.29-1.31,1.57-2.44,3.28-3.66,4.92-.52.2-1.15.29-1.68.49-.15.06-.27.18-.42.26-.5.26-.94.37-1.45.57-.3.11-.63.32-.92.41-.24.08-.55.12-.8.13-.14-.03-.02-.15.1-.13.5-.11.98-.29,1.45-.53.56-.18,1.07-.37,1.6-.62.47-.22.58-.57.72-1.07.06-.32.14-.63.23-.93.05-.04.07-.08.06-.11v-.07c.09-.02.56-.24.43-.32-.22-.06-.34-.14-.14-.34-.07-.07.04-.2.13-.16.21-.24.46-.46.73-.64h.1s.05.07.05.07l-.04.54c-.28.69-.49,1.41-.64,2.18-.13.22-.08.22.16.22.2,0,.31-.07.37-.26l.21-.25c1.11-1.61,2.25-3.21,3.49-4.73l.03-.11c-.06-.48-.06-.96,0-1.43l.05-.05Z"/>
  <path class="st58" d="M21.57,27.39c0,.25.03.64,0,.88,0,.05,0,.1-.06.11-.14-.45.01-.96-.11-1.41-.08-.29-.36-.58-.45-.86-.02-.05-.04-.13.02-.16.29.49.58.85.61,1.44Z"/>
  <path class="st25" d="M26.91,16.18c-.01-.12.03-.11.12-.04.06.05.19.87.21,1.02.1.81.17,1.65,0,2.44-.02.17.04.34.18.49-.02.05,0,.08.04.08-.3,1.78-.56,3.56-.89,5.33l-.38-2.49c.09.46.19.92.26,1.39,0,.06-.02.05.06.05-.09-.48.16-.97.16-1.42,0-.4-.02-.82,0-1.23s.11-.89.19-1.31c-.02-.04-.04-.08-.04-.12.46-1.33.28-2.76.07-4.12l.03-.07Z"/>
  <path class="st27" d="M23.04,4s-.1,0-.14,0-.09-.01-.14-.03c-.67-.23-1.34-.46-2-.71-.56-.2-1.07-.45-1.6-.71-.3-.14-1.68-.5-1.15.24.03.09.06.17-.05.19l-.15-.03-1.01-.76c-.4-.44-.66-.39-1.2-.23-1.4.42-2.76.96-3.89,1.9l-.83.46c-.39.21-.69.54-.77.99l-.08.07c-.03.11-.09.14-.17.09-.13.16-.27.25-.44.26l-.08.05c-.41-.08-.9-.11-1.3.03-.43.15-.88,1.28-.86,1.74-.12.19-.28.36-.46.51l-1.26,1.13c-.41.34-.71.75-.9,1.21-.14.88-.31,1.76-.51,2.64l-.09.14c-.03.16-.14.29-.3.38-.21.53-.35,1.08-.42,1.65l-.08.14.06.12c.03.51.08,1.01.13,1.51l-.04.06-.03.29-.22-2.18c.54-1.77.88-3.54,1.11-5.37.5-.65,1.01-1.29,1.54-1.91.35-.42.66-.68.97-1.17.19-.3.36-.71.56-.97.82-1.06,2.07-1.69,3.25-2.25.82-.39,1.65-.76,2.48-1.13,1.1-.48,2.2-.97,3.33-1.36,2.26.97,4.5,1.99,6.72,3.03Z"/>
  <path class="st25" d="M19.5,22.53c.19-.03,0,.09-.02.18-.14.46-.17.91-.38,1.38-.16.36-.28.44-.62.62-.58.32-1.19.42-1.77.69-.49.22-.68.34-1.25.44-.06.01-.13-.04-.11.06-.18,0-.36,0-.54,0-.03.42-.1.86-.1,1.28,0,.07-.04.11-.1.06-.08-.06-.03-.71,0-.85l-.07-.05c-.06-.07,0-.03,0-.03-.42.12-.72.1-1.13.05-.31-.04-.63-.11-.93-.17-.04-.1-.15-.13-.33-.11-.53-.15-1.05-.32-1.56-.52l-.07.02-.05.05-.44-.13-.11.15c.12.11.13.18.05.22-.04-.01-.18-.06-.2-.06-.11.02-.27.75-.31.89-.05.11-.11.03-.16-.04-.15-.02-.24-.08-.27-.19-.08-.72-.07-1.47-.04-2.18.06-.21.28-.29.48-.3-.23-.23-.49-.44-.76-.62l-.05-.12c-.06-.11.19-.26.29-.32.17-.09.53-.22.57.03l.07-.02c.38.48.59,1.03.62,1.63.1.11.17.23.2.36.27-.09.52-.22.77-.39l.24-.08c-.03-.08-.02-.14.04-.17.05-.01.1-.01.14,0,.55.26,1.11.54,1.6.89.01-.02.02-.04.05-.05.89-.31,1.73-.68,2.57-1.12h.08s.16-.01.16-.01c.08.32.18.64.3.95.26-.25.42-.55.57-.88l.09-.04c0-.13.08-.32.16-.42.31-.36,1.73-.99,2.14-1.12h.16Z"/>
  <path class="st12" d="M3.88,14.07c.3-.34.62-.71.72-1.18.08-.45.13-.93.17-1.38.37-.29.6-.63.82-1.05.1-.17.43-.54.39-.16.01.02.02.03.03.05.01.05-.13.86-.16.98-.41,1.71-.78,3.42-1.1,5.14.52,1.43,1.1,2.78,1.74,4.05.02-.02.05-.03.06-.02.04.06.18.47.16.5,0,.01-.02.02-.04.03-.06.03-.14.04-.24,0-.26.04-.52.14-.76.3-.04,0-.1,0-.11-.04-.08.2-.07.41.03.64l.21.57-.05.07c-.08.01-.15-.02-.22-.1h-.07c-.1-.29-.22-.58-.41-.82-.13.15-.21.18-.26.08-.1-.51-.4-.88-.67-1.31l-.02-.07c.23-.22.34-.52.43-.82-.17-.08-.28-.26-.33-.53-.32-.48-.62-.93-.62-1.54l-.04-.98c-.13-.53-.11-1.08,0-1.62l-.04-.06c.11-.23.21-.47.29-.72l.07-.02Z"/>
  <path class="st2" d="M25.7,11.54c.08-.1.14-.04.19.18.89.56,1.84,1.09,2.77,1.6l.04.1c0,.09-.02.17-.03.26l-.08.18c-.24.26-.35.58-.35.97-.05.29-.31.32-.56.27v.46s-.04.05-.09.04h-.04c-.02-.16-.05-1.38,0-1.43.05-.04.08-.04.14-.02.02,0,.16-.35.16-.38s-.21-.35-.23-.37c-.11-.05-.25.46-.26.51-.04.05-.11.07-.21.04-.06.09-.12.18-.18.26-.44.53-.93,1.15-1,1.86-.09,0,0,.1.03.08.03-.5.38-.06.4.19-.16.41-.29.83-.37,1.26-.04.18-.19.49-.39.45-.05.03-.35.15-.35.18.07.08.34.13.38.23.03.08-.1.43-.17.46-.18-.46-.26-.15-.45-.1s-.4-.07-.55.04c.11-.55-.04-1.15,0-1.69-.02-.24.05-.47.22-.7.65-.77.78-1.7.85-2.69-.01-.32.03-.62.12-.89-.02-.02-.04-.04-.04-.07,0-.26,0-.59.07-.83-.02-.15-.03-.3,0-.45Z"/>
  <path class="st28" d="M10.52,25.6h.09c.68.24,1.37.47,2.07.66.54.15,1.29.23,1.83.08l.03.03c.05-.01.1-.04.16-.03-.08.26-.08.54-.06.81,0,.08-.02.1.06.05,0,.16.04.29.03.45.09,0,.15-.06.24-.07.16,0,.33.09.54.07s.45-.21.65-.13c.06.01.02.09-.03.1-.02.03-.17.21-.16.22l.19-.03c-.12.06-.31.19-.37.32-.22.45-.39,1.26-.56,1.77-.09.28-.18.56-.29.83-.05.11-.14.21-.13.34-.13-.15-.21-.36-.29-.54-.27-.62-.48-1.26-.64-1.92l.08-.04c.34.1.4.15.54.48.02.06-.05-1.15-.09-1.23-.16.19-.32.36-.5.53-.01.1-.04.17-.09.22-.19,0-.01.27-.16.26-.24-.4-.47-1.25-.83-1.52-.47-.34-1.47-.77-2.03-1.04-.26-.12-.58-.29-.84-.39.02-.09-.13-.18-.12-.23,0-.03.13-.19.16-.2.05-.02.43.12.51.15Z"/>
  <path class="st14" d="M24.86,4.9c.19.08.24.16.35.32.05.02.12.11.1.16.55.78,1.69,2.24,2.01,3.07-.02.12-.26.08-.26-.03.06-.06-.03-.13-.27-.19-.81-.53-1.6-1.11-2.37-1.73l-.05-.13v-.06c-.83-.92-1.82-1.71-2.84-2.43l-.03-.07h.03l.05-.06c.89.13,1.68.45,2.45.89.12.07.22.07.31.02.18.07.35.15.52.24Z"/>
  <path class="st12" d="M8.67,23.27c.34.24.68.47.96.78l-.23.02c-.46.09-.34.38-.34.74,0,.51-.02,1.05.03,1.56.03.28.07.15.24.24.07.03.06.12.14.1-.1.34-.19.68-.29,1.02l-.05.08c0,.16-.15.19-.11.03-.06-.09-.12-.42,0-.48l-.06-.03c-.25-.86-.49-1.78-.53-2.69,0,.03-.03.05-.08.05-.14.05-.39-.25-.38-.38-.01-.03-.03-.07-.07-.11l-1.07-.92c-.33-.24-.29-.68-.07-.99-.11-.16-.11-.23,0-.21.03,0,.06,0,.09,0s.06.01.08.03c.51.31,1.02.63,1.46,1.03.09.1.19.14.29.12Z"/>
  <path class="st12" d="M27.07,8.41c.09.03.15.05.26.03.14.35.28.79.39,1.16.26.83.46,1.68.69,2.52h-.07s-.15-.35-.15-.35c-.13-.19-.27-.39-.41-.59l-.04.02c-.18-.13-.32-.41-.32-.64-.12-.66-.59-1.19-1.17-1.51-.46-.27-.91-.54-1.35-.81h-.08c-.04.06-.06.05-.1,0-.06.07-.11-.06-.04-.13-.1-.35-.22-.69-.36-1.03-.05-.12-.15-.41.05-.37.13.03.66.31.8.4.49.37.99.72,1.49,1.07.16.06.29.14.39.25Z"/>
  <path class="st28" d="M27.45,20.17c-.09.06-.05.02-.08-.03-.05-.08-.2-.3-.21-.37-.02-.14.09-.54.1-.73.05-.83-.05-1.92-.25-2.73,0-.03-.03-.24-.11-.13-.1.02-.19-.34-.18-.41.04-.17.17-.18.22-.02.14-.17.45-.27.62-.15.07-.02.01-.48.03-.58.66.14.53-.2.62-.65.07-.34.21-.46.44-.7-.2,1.29-.57,2.58-.79,3.86-.15.87-.28,1.75-.42,2.63Z"/>
  <path class="st25" d="M5.76,22.56h.08s.29.23.29.23c.32.2.64.43.92.7l.02.1.03.06c.16.12.22.19.04.35l-.49.5c.07.07.16.13.26.17.08.05.15.12.06.19-.08-.05-.42-.27-.48-.24-.02.01-.03.03-.05.05l-.63,2.87-.09-.25c.06-.1.05-.19.06-.3-.04-.28-.05-.57-.03-.86-.09-1.21-.19-2.41-.27-3.6l.05-.08.02-.06c.07.05.14.1.21.16Z"/>
  <path class="st29" d="M23.04,4c.59.22,1.17.56,1.75.82.02,0,.14.04.07.07-.02,0-.08,0-.13-.02-.08-.03-.27-.17-.31-.17-.07,0-.1.05-.15.06-.25.02-.97-.47-1.25-.57-.24-.09-1.28-.39-1.49-.38-.05-.02-.1-.02-.14,0l-1.23-.69c.18.12.36.25.52.39v.07c.02.09,0,.09-.07.03l-.08.02c-.31-.13-.65-.18-1.03-.15-.37-.04-1.26-.13-1.51-.41-.03-.03-.03-.07-.03-.1.09-.2-.25-.34-.12-.55.15-.27.78-.11,1.03-.04.52.14.9.43,1.39.62.91.35,1.89.67,2.79,1Z"/>
  <path class="st41" d="M4.13,20.42s-.09-.02-.15.03c-.07.05-.08.2-.16.26-.09,0-.13-.87-.15-.97-.12-.89-.25-1.81-.35-2.7-.06-.54-.18-1.16-.16-1.69.09-.16.19-.31.3-.46l.08-.02c.04.36-.06.71-.03,1.07.01.19.08.39.1.57.04.6-.03,1.28.25,1.83.11.22.33.48.43.69.06.14.04.31.17.41.04.03.13.04.14.08.02.07-.19.56-.25.64-.02.04-.21.26-.23.27Z"/>
  <path class="st25" d="M25.7,11.54c0-.09-.03-.13-.08-.14-.04-.09-.06-.49.1-.45.47.36.97.64,1.51.84.12.03.39.08.32,0,.1-.05.22-.04.36.04.21.17.27.17.18,0l.03-.07c0-.09.03-.08.06,0,.03-.01.02-.08.06-.06.01.15.12.29.16.42.14.38.33.92.29,1.31l-.45-.27c-.45-.15-.79-.43-1.19-.67-.23-.13-1.11-.58-1.23-.72-.06-.07-.01-.22-.14-.22Z"/>
  <path class="st14" d="M5.54,22.47c.06.3.03.72.06,1.04.1,1.13.3,2.38.19,3.5-.05-.13-.13-.33-.16-.47-.32-1.59-.51-3.22-.83-4.81.11.04.19-.15.24-.16.13-.02.46.75.49.89Z"/>
  <path class="st37" d="M7.97,24.32c.13.11.23.29.38.38.11.09.13.45.03.54-.56.2-.96-.12-1.41-.38,0-.18-.38-.2-.38-.37,0-.08.55-.54.61-.68.01-.08-.21-.15-.13-.24.33.14.65.46.89.73Z"/>
  <path class="st59" d="M13.84,28.57s0-.18.02-.22c.05-.12.48-.45.52-.57.01-.04,0-.08,0-.12,0-.03-.06-.02-.08-.01-.1.04-.1.22-.21.22.03-.19.31-.51.38-.17.1.51.11,1.08.13,1.59.02.29.05.59.07.88-.08,0-.05,0-.06-.05-.06-.41-.05-.86-.22-1.25-.06-.13-.35-.22-.49-.26-.02,0-.05,0-.06-.03Z"/>
  <path class="st23" d="M8.35,24.71s.03-.09.03-.17c-.02-.18-.13-.38-.15-.57.34.3.25.9.32,1.32.1.61.22,1.34.46,1.9.04.08.02.11.02.18v.48s.05.06.06.05c0-.07.03-.13.1-.16-.03.12-.05.28-.09.4-.02.04.01.05-.07.04-.16-.95-.42-1.88-.58-2.82,0-.05-.06-.1-.06-.11,0-.2-.01-.33-.03-.54Z"/>
  <path class="st53" d="M25.22,5.22s0-.04.03-.02c.06.05.21.28.06.18-.04-.05-.06-.11-.1-.16Z"/>
  <path class="st54" d="M16.18,27.52c.22-.34.94-1.15,1.31-1.26.25-.08.5-.1.74,0,.08.03.16.12.25.14.16.03.36.02.54.07.05.01.06-.02.05.06-.54.15-1.08.31-1.62.47-.13.04-.28.13-.39.15-.14.03-.25,0-.4.04-.22.06-.27.21-.4.37-.01.01-.09.11-.1.05.02-.03.02-.08.03-.1Z"/>
  <path class="st42" d="M25.63,18.06c.38-.25.32-.54.42-.93.04-.14.28-.76.28-.81,0-.04-.2-.4-.25-.33l-.05.35c-.03-.09-.43-.41-.37-.48.05-.06.17.23.26.19,0-.12,0-.22.03-.34.04-.13.33-.69.42-.83.19-.33.5-.6.7-.93.06-.12.15-.03.2-.05.08-.02.05-.44.28-.55.03-.02.05-.03.09-.01s.26.36.26.42c0,.05-.17.45-.2.46-.02.01-.11-.05-.13-.03v1.41c-.09.03-.24,0-.38.05-.12.04-.19.15-.24.17-.08.03-.05-.16-.13-.13-.11.05.06.39.08.48.2,1.02.35,2.33.18,3.36-.06.33-.17.64-.24.96-.08.03-.16-.23-.16-.27v-.48s-.05-.07-.03-.11c-.03-.03-.14.12-.19.05.24-.44.12-.96.26-1.42-.12.09-.25-.03-.3-.03s-.23.12-.3.15c-.3.11-.61.09-.49-.31Z"/>
  <path class="st25" d="M23.01,18.89c.13-.1.18.06.13.18l.34-.14c.07-.24.22-.36.43-.37-.16-.67-.23-1.39-.18-2.08.03-.46.21-.64.48-.17l.14.39c.11.05.14.12.1.22.05.05.02.22-.03.26-.05.41,0,.87,0,1.3,0,.13.07.18-.02.33-1.24,1.51-2.36,3.1-3.47,4.71-.07.1-.16.19-.23.28-.04.05-.06.15-.1.19-.04.04-.25.09-.32.1-.1,0-.25-.04-.31-.03-.05.01-.11.12-.2.16-.09.05-.41.13-.52.15-.03,0-.14.04-.14-.02.34-.1.71-.15.92-.47.15-.53.24-1.08.41-1.61.05-.17.25-.56.27-.69.02-.18-.02-.3.04-.55-.09-.03-.07-.15.03-.16-.01-.01-.03-.02-.03-.04-.05-.14.43-.68.54-.8.44-.48.98-.93,1.63-1.08,0-.09.04-.1.1-.03Z"/>
  <path class="st41" d="M25.28,10.52h.05c.11.17.24.31.37.38.02-.06.05-.06.09-.03l1.16.7c.18.07.38.12.58.15l.02.07.05.06c-.51.06-.7-.14-1.08-.36-.11-.06-.25-.1-.35-.16-.16-.1-.32-.27-.48-.38-.05.19.01.38.02.57,0,.15,0,.3,0,.45-.03,0-.05-.01-.05,0-.02.27-.03.64-.02.91,0,0,.02,0,.05-.01-.05.81-.14,1.89-.37,2.65-.17.58-.76.99-.82,1.63-.04.07-.07.11-.06,0,.01-.08,0-.17.03-.26-.02-.11,0-.22.06-.32.27-.39.5-.8.7-1.22.08-.24.3-1.66.23-1.81,0,0-.04-.01-.05,0-.16.05-.86.82-.98.95-.4.45-.58.82-.74,1.4l-.09.05c-.2,0,0-.52.13-.56l-.06-.04v-.56l.06-.05s-.04-.05-.03-.08c.2-.1.3-.27.32-.5.01-.22.02-.4.09-.62.04-.14.16-.43.29-.48l-.02-.1.49-.83c.22-.42.3-.85.14-1.29-.04-.14,0-.21.11-.2-.02-.13.07-.25.17-.13Z"/>
  <path class="st0" d="M19.79,21.8c-.12.32.08.19.19.3.18.18-.37.39-.48.43-.46.19-.89.35-1.34.59-.21.12-.69.37-.86.51-.07.06-.2.33-.26.43-.1.03-.12-.05-.07-.26-.19.11-.32.12-.41.04-.22.01-.45.08-.68.19-.86.43-1.74.83-2.62,1.15h-.07c-.63-.39-1.3-.78-1.99-1.02-.09.06-.25-.05-.22-.16.09-.03.18-.04.27-.04,1.03.16,2.07.27,3.11.34,1.67-.61,3.3-1.38,4.86-2.19.18-.15.38-.26.58-.32Z"/>
  <path class="st36" d="M21.93,6.88c.07.08.12.16.17.26l.65,1.83c.36.88.67,1.78.91,2.68.05.2.28,1.11.21,1.24,0,.01-.02.02-.04.03l.06.1c-.28.95-.51,1.95-.7,2.97-.05.38-.16.72-.32,1.04.04.08.04.14,0,.25-.96,1.38-1.88,2.72-2.78,4.04-.03.12-.09.23-.17.31-.02,0-.1.14-.13.16-.71.55-1.55.86-2.35,1.24-1.01.48-2.01.97-3.08,1.33-1.14-.06-2.26-.26-3.39-.37-.03,0-.05,0-.08,0-.1-.02-1.1-.91-1.25-1.07l-.07-.14c-.1,0-.21-.04-.33-.13-.76-.33-1.55-.72-2.26-1.19-.14-.07-.14-.23,0-.2.2.02.45.15.58.32h.15c.74.36,2.08,1.02,2.6,1.62.03.04.05.09.06.13l.04-.02c.2.19.41.35.63.49.87.14,1.75.28,2.64.37.72.07,1.15-.1,1.79-.38,1.01-.45,2.03-.93,3.03-1.41.33-.16.67-.34.93-.56,1.08-1.5,2.14-3.02,3.19-4.57.35-1.38.68-2.78.99-4.17.1-.44-.21-1.65-.36-2.11-.34-1.04-.73-2.06-1.15-3.08-.08-.18-.12-.35-.13-.53-.08-.09-.22-.29-.13-.42-.07-.13.05-.19.1-.06Z"/>
  <path class="st41" d="M22.85,17.04c0,.06.13-.08.15-.12l.1-.39c.12-.04.14-.03.13.09.09.04.03.37-.06.4.02,0,.06,0,.06.02.01.2.04,1.09,0,1.22l-.06.04c.21.02.04.63-.16.59-.03.02-.07.02-.1.03-.65.14-1.19.61-1.64,1.09-.1.11-.57.65-.53.76,0,.02.02.05.02.07-.01.04-.02.11-.03.16-.15.12-.32.23-.46.35-.2.18-.09.16-.37.29.08-.47.42-.78.67-1.14.74-1.08,1.49-2.16,2.23-3.24,0-.08.03-.15.05-.22Z"/>
  <path class="st40" d="M17.96,2.98c.44.34,1,.39,1.55.45.36.04.8-.06,1.1.19.27.16.6.41.83.64.32.32.68.7.74,1.16.05.42.12.83.19,1.25,0,.11-.16.2-.19.08-.34-.25-.65-.55-.92-.88-.1-.33-.17-.66-.21-1.02-.07-.2-.64-.08-.81-.04-.04,0-.27.06-.28.07.09.08.27.31.07.31h-.07s-.79-.63-.79-.63c-.93-.83-2.2-.99-3.39-1.11-1.56.58-3.1,1.18-4.62,1.8-.24.29-.43.62-.55.99.09.06-.05.3-.13.29.03.22-.22.13-.19-.06l-.07-.02c-.01-.09-.05-.16-.09-.24-.05-.05-.12-.08-.19-.08-.04-.04,0-.57.02-.68l.08-.08c.16-.99.93-1.12,1.64-1.57.48-.3.8-.64,1.33-.91.63-.31,1.35-.61,2.02-.82.28-.09.83-.29,1.1-.3.38-.03.49.21.76.4.38.27.7.52,1.06.8Z"/>
  <path class="st40" d="M9.44,5.73c.26-.09.19.1.07.24.08.45.15.9.21,1.36-.28.5-.39.14-.44-.24l-.07-.05h-.05c-.03-.17-.1-.28-.21-.32-.06-.03-.03-.02-.03-.02-.65.57-1.18,1.15-1.51,1.97-.22.62-.49,1.21-.79,1.76-.11.11-.18.24-.2.37.03,0,.03.02,0,.03-.1.12-.17-.02-.1-.13-.15-.11-.17-.38-.17-.56l-.05.02c-.05,0-.02-.02-.02-.02-.01.03-.05.13-.06.15,0,0-.02,0-.05,0l-.05-.13c-.34.26-.46.69-.72,1.01-.07.09-.38.33-.4.37s.02.09.01.14c-.12.55-.07,1.21-.35,1.7-.07.13-.34.53-.44.61-.05.04-.11.05-.16.08l-.04-.09c0-.22.06-.6.14-.8.07-.48.22-.98.31-1.46s.13-1,.25-1.44c.1-.36.73-.98,1.02-1.25.23-.22,1.55-1.31,1.58-1.49.02-.08,0-.17.01-.27.08-.43.46-1.38.91-1.52.38-.12,1-.12,1.38,0Z"/>
  <path class="st41" d="M9.44,5.73c.19-.1.32-.23.46-.38l.05.1.1-.06c-.04.25-.02.49-.06.73.14-.12.15-.05.16.1.07.1.09.22.05.37-.11.45-.17.91-.18,1.38l-.07.07c0,.44-.03.89-.07,1.34l-.06.03c.11.05.05.29-.08.27-.17-.02-.44-1.77-.45-1.93.02-.08.02-.15.02-.23-.02,0-.03,0-.05-.02-.02-.01-.12-.43-.05-.46.06-.04.09-.05.12.02s.08.44.1.46c.37-.14.18-.4.14-.66-.03-.21-.04-.42-.08-.62-.05-.24-.15-.2.07-.46-.03-.06-.09-.04-.13-.05Z"/>
  <path class="st20" d="M3.88,14.07c-.05.2-.23.61-.32.8-.09.17-.23.36-.38.48.01-.3.28-1.64.45-1.84.08-.1.29-.17.35-.34-.04.29-.01.59-.1.89Z"/>
  <path class="st41" d="M6.69,21.03c.08-.05.29.14.29.22l-.06.09c.59.4,1.21.73,1.86,1.03.35.17.45.16.79.41.12.2.11.26-.03.19-.28-.22-.66.07-.86.29-.03.03-.05.07-.08.09-.26-.15-.48-.39-.74-.57-.34-.24-.74-.47-1.1-.71h-.08c-.38-.24-.76-.48-1.14-.7-.02-.05,0-.08.04-.09.03-.01.07,0,.12-.02.34-.15.59-.41,1-.23Z"/>
  <path class="st14" d="M10.97,24c.09.07.11.09.22.16.11.01.27.04.29.16l.03.22c-.35.02-.71.39-1.02.47-.17.04-.12-.1-.18-.21-.04-.06-.1-.08-.13-.15-.07-.14-.05-.42-.08-.59-.04-.23-.4-.94-.57-1.08.14.02.02-.09,0-.17l.03-.02c.52.38.92.84,1.41,1.21Z"/>
  <path class="st14" d="M16.56,23.84s.09,0,.13,0c.12-.03.23-.09.34-.12.04.04-.09.29,0,.35-.14.26-.22.47-.4.73-.05.07-.16.14-.2.21-.04.08-.01.2-.1.24.03-.24-.11-.44-.17-.65-.05-.16-.06-.33-.12-.49-.03-.09-.06-.04-.13-.05.12-.14.45-.23.64-.22Z"/>
  <path class="st11" d="M11.19,24.16c.22-.09.49.15.69.25.19.09.39.15.58.25s.6.45.79.45c.1,0,.87-.34,1.03-.41.74-.3,1.41-.74,2.18-.92.06-.01.11-.05.1.05-.2.06-.45.15-.64.22-.47.19-.87.48-1.32.68s-.95.27-1.38.54c-.53-.41-1.15-.65-1.74-.96-.09-.05-.2-.11-.29-.16Z"/>
  <path class="st56" d="M10.52,25.6c-.01-.1.04-.07.1-.05.39.1.79.31,1.17.42.35.1.87.09,1.21.04.09-.01.19,0,.27.05.05.02.08,0,.06.08-.18-.07-.33,0-.49,0-.06,0-.29-.04-.3-.03-.13.11.37.12.4.13.69.14.87.21,1.58.07.09-.02.09-.02.04.06-.09.02-.17.06-.25.08-.37.08-1.15-.04-1.54-.12-.75-.16-1.5-.49-2.23-.73Z"/>
  <path class="st14" d="M5.57,21.29c-.02.08.04.07.08.09.38.21.73.47,1.1.71-.08.06.06.14.06.21,0,.04-.13.22-.15.33-.09.55.21.61.54.92.23.22.5.44.72.65.01.01.11.11.05.13-.28-.25-.61-.5-.89-.73-.2-.17-.35-.34-.58-.49-.35-.23-.41-.25-.73-.54-.08-.27-.42-.98-.28-1.22.03-.06.05-.04.09-.05Z"/>
  <path class="st8" d="M6.11,10.17c.01-.05.02-.19.1-.16,0,.23.06.49.13.7.03.17-.12.15-.17.01-.37,1.75-.75,3.49-1.12,5.22-.08.35-.13.65.08.96l-.04.06.12.19c.57,1.29,1.13,2.56,1.67,3.8.19.14.39.27.6.37.14.06.32.3.07.24-.19-.11-.39-.21-.58-.32-.07-.04-.21-.19-.29-.22-.03-.11-.1-.45-.19-.51-.64-1.31-1.22-2.65-1.74-4.04l.11-.69c.42-1.87.82-3.73,1.19-5.57l.06-.06Z"/>
  <path class="st38" d="M6.11,10.17c-.1.41-.15.86-.23,1.28-.35,1.68-.81,3.33-1.08,5.03.21.52.42,1.05.64,1.57.34.83.73,1.64,1.06,2.47-.17-.12-.29-.42-.39-.65-.49-1.12-.97-2.25-1.4-3.39.26-1.74.75-3.44,1.1-5.16.07-.32.08-.72.17-1.02.03-.08.13-.29.13-.13Z"/>
  <path class="st22" d="M25.7,11.99c0,.31-.01.59-.03.89l-.03.16-.06-.11c.04-.42,0-.86.03-1.28,0-.06.01-.21.06-.24.02.18-.04.4.03.57Z"/>
  <path class="st39" d="M20.04,5.19s.09,0,.13.02l1.32,1.11c.23.16.46.31.69.44.06,0,.12,0,.13-.08-.13-.5-.11-1.23-.33-1.69-.2-.43-.83-.88-1.19-1.17-.07-.06-.12-.14-.18-.19l.06-.03.08-.02c.48.27.87.64,1.18,1.12l-.04-.33s.04-.05.09-.04c.03,0,.07.01.1.02s.06.02.08.04c.75.59,1.5,1.21,2.18,1.89l.04.09c.46.42.85.67,1.33,1.02.31.23.49.44.88.66.17.09.35.18.53.24.07.07.09.16-.05.13-.69-.23-1.3-.94-1.95-1.29-.25-.13-.51-.22-.75-.37-.05,0-.06,0-.05.05.08.32.27.71.37,1.04.01.05.08.29.08.3,0,.02-.07.02-.07.03,0,.04.03.04.03.05.13.09.17.35.1.48,0,.06-.03.11-.06.13l-.08-.07c-.01-.09-.11-.61-.16-.61-.05.14-.12.22-.21.23-.13.07-.07-.23.03-.22-.05-.02-.07-.07-.04-.13-.37-.54-.76-1.09-1.17-1.62-.17.26-.3.56-.4.88l-.08.04c-.09.04-.12-.03-.16-.11-.03-.14-.1-.24-.19-.32-.12.13-.28.07-.39-.02-.05.01-.11-.04-.1.06-.09-.04-.17-.12-.24-.24-.97-.93-2.11-1.79-3.2-2.58-.7-.27-1.56-.5-2.31-.57-.18-.02-.3,0-.47.05-1.49.55-3,1.11-4.42,1.75-.21.27-.38.57-.51.9l-.07-.02c-.06-.02,0-.1,0-.14.07-.17.38-.83.51-.9.09-.05.22-.05.32-.1,1.42-.63,2.87-1.17,4.33-1.71.63.04,1.31.19,1.93.33.93.21,1.59.87,2.33,1.45Z"/>
  <path class="st18" d="M21.54,3.81s-.02,0-.03,0l-.02.05c.19.09.35.23.49.37v.08c-.1.07.13.49-.05.45-.08-.02-.44-.56-.54-.67-.25-.26-.45-.33-.72-.51-.05-.03-.15-.15-.23-.2-.08-.06-.37-.18-.35-.29l.08-.05,1.36.76Z"/>
  <path class="st30" d="M21.51,3.81c.24.17.5.32.73.5.63.48,1.58,1.26,2.08,1.85.01.02.22.23.06.21-.83-.76-1.5-1.35-2.4-2.04-.13-.1-.23-.25-.35-.33-.06-.04-.14-.04-.19-.1-.09-.09,0-.07.07-.08Z"/>
  <path class="st28" d="M24.83,8.22c.23.09.45.21.66.37.86.46,1.73.94,1.92,1.96.11.21.21.43.32.64.02,0,.04,0,.05,0,.06.07.35.47.36.52,0,.02-.01.03-.03.05.03.06.07.11.07.18,0,.23-.23,0-.33-.05-.1-.04-.21-.06-.31-.09-.16-.05-.41-.08-.53-.12-.27-.1-1.18-.75-1.32-.77-.36-.25-.56-.7-.69-1.12-.1-.33-.19-.75-.18-1.08-.03-.16-.05-.32-.1-.48.01-.04.07,0,.1,0Z"/>
  <path class="st50" d="M27.42,10.55c-.45-.88-.41-.99-1.28-1.55-.43-.27-.88-.51-1.31-.79,0,0,.04-.04.08-.03.1,0,.44.29.56.37.77.47,1.49.68,1.89,1.59.04.1.13.31.06.41Z"/>
  <path class="st47" d="M27.74,11.19c-.01-.06.02-.1.07-.04s.1.18.16.25c.12.14.27.16.22.37-.01,0-.04,0-.06,0-.09-.2-.27-.36-.38-.58Z"/>
  <path class="st12" d="M24.45,16.91c.03-.14-.1-.09-.15-.18-.08-.13-.16-.6-.34-.62-.1,0-.13.06-.14.14-.05.4-.02,1.32.04,1.72.02.12.14.54.12.61-.03.08-.18.03-.27.09-.09.06-.09.21-.16.29-.12.12-.44.12-.54.32-.04-.11.24-.34.02-.38.11-.09.2-.33.2-.46,0-.06-.04-.11-.04-.13v-1.28s.05-.35.06-.4l-.04-.08c.1-.2.21-.39.32-.59h.07c.13-.31.21-.71.38-.99.21-.35.54-.65.82-.94.13-.13.44-.55.61-.55.12,0,.12.07.11.18-.01.44-.11,1.21-.22,1.64-.16.64-.67,1.02-.84,1.6Z"/>
  <path class="st49" d="M22.92,18.92c-.24.14-.51.22-.74.36-.43.25-1.24,1.09-1.4,1.56-.2-.03-.04-.23.02-.32.38-.56,1.31-1.43,1.97-1.61.05-.01.12-.05.15,0Z"/>
  <path class="st33" d="M22.53,21.1c-.13.09-.06-.21-.06-.24,0-.12-.02-.22-.02-.33,0-.04-.02-.13.04-.13.06,0,.18.6.05.7Z"/>
  <path class="st12" d="M24.77,8.83l.05.04c.06.57.22,1.1.47,1.6v.06c-.22,0-.06.21-.11.35l-.13-.19c-.03.24.11.42.1.66-.03.7-.47,1.18-.77,1.74-.12.13-.6.07-.54-.16v-.04c.09-.18.1-.41,0-.67-.45-1.26-.3-2.6.37-3.76l.11-.06c.06-.11.15-.2.16-.32.11,0,.15.13.18.22.05.17.08.37.11.54Z"/>
  <path class="st40" d="M24.39,13.08c-.05.09-.23.48-.25.56-.1.31.02.67-.24.97-.05.06-.18.07-.18.14v.64c0,.11-.23.42-.13.56-.08.19-.31.53-.35.67l-.06-.08c-.08.2-.02.41-.24.53-.05.03-.09.06-.08-.03.32-1.18.51-2.41.81-3.59.05-.19.15-.32.15-.53,0-.03.02-.03.03,0,.06.18.38.16.54.16Z"/>
  <path class="st36" d="M25.7,10.9s-.03.03-.05.03c-.04,0-.32-.35-.36-.41-.35-.49-.39-1.12-.51-1.69,0-.06,0-.11.06-.13.15.8.26,1.61.86,2.2Z"/>
  <path class="st13" d="M21.83,6.94c.05.11.09.3.13.42h-.04c.31.91.64,1.79,1.01,2.67.27.72.78,2.36.66,3.08-.31,1.4-.65,2.79-1.01,4.19-1.04,1.52-2.1,3.03-3.17,4.52-.3.22-.56.37-.89.54-.96.5-2.05,1-3.05,1.42-.58.27-1.17.48-1.81.38l-1.79-.23c-.67-.02-1.04-.19-1.47-.63l-.04.02c-.2-.17-.39-.35-.59-.51-.67-.52-1.49-.82-2.22-1.25.09.01.09-.02.03-.08-.19-.19-.68-.34-.81-.56-.06-.1-.08-.27-.13-.38-.53-1.19-1.07-2.37-1.55-3.58.02-.07.07-.13.16-.19.08-.23.11-.49.07-.78.19-.67.32-1.36.39-2.08.02-.29.09-.56.21-.82-.14-.23-.09-.48.15-.74.03-.35.13-.65.3-.9.09-.08.38-.16.48-.12l.05.05c-.55,1.46-.82,3.07-.99,4.66-.06.52-.07,1.01.11,1.51.33.9.78,1.85,1.2,2.72.15.31.32.64.53.9,0,0,.01-.01.03-.03h.07c.45.24.89.52,1.33.82.18.08.36.15.53.23.06-.06.19-.02.21.07.05-.08.22-.03.22.06.37.03.74.03,1.12.01,0,.03-.01.06-.02.09-.01.03-.59.06-.68.07-.01.02.02.5.03.53.02.06.58.25.73.3l.11.09.04.06c1.03.14,2.12.28,3.13.28,1.37-.64,2.76-1.28,4.16-1.91l.35-.2c.94-1.29,1.87-2.59,2.79-3.89.35-.51.48-1.01.63-1.6.27-1.06.54-2.2.66-3.28-.07-.06-.04-.22.06-.22.06.03.04-.17.03-.29-.05-.46-.15-.86-.29-1.3-.42-1.3-.96-2.61-1.49-3.88-.28-.19-.57-.37-.87-.54-.81-.6-1.64-1.15-2.49-1.66-.74-.02-1.52-.07-2.26-.36l-.04-.06c-.02-.06-.04-.09-.07-.1-.42.08-.55.02-.38-.16.29-.26,2.08.12,2.53.26.22-.08.35-.06.57.03.05,0,.41.04.43.03.04-.03-.61-.45-.68-.47-.38-.15-2.14-.6-2.49-.48-1.5.55-2.98,1.15-4.46,1.75-.03.01-.07.07-.1.1-.17.33-.34.67-.51,1-.08.13-.28.18-.18,0,.05-.08.09-.21.13-.29,0-.01.05-.03.07-.07.12-.23.3-.73.51-.87.33-.22,1.21-.51,1.63-.67.96-.38,1.95-.71,2.91-1.12.1-.02.21-.02.3-.01.47.04,1.35.25,1.83.37s.65.26,1.02.54c.65.48,1.35,1.03,1.97,1.55.31.26.82.63.98.99Z"/>
  <path class="st41" d="M22.66,7.33l.04.07c-.12.33-.14.66.08.94.05.24.14.46.27.65.11-.28.16-.58.16-.91,0-.06.02-.11.06-.16.08-.09.92.11,1.07.16v.07c0,.07-.02.14-.05.21l.03.02c-.43.79-.59,1.25-.67,2.16s.26,1.32.32,2.08c.01.14.01.23-.13.3h-.03c0-.46-.23-1.3-.36-1.76-.21-.76-.51-1.43-.77-2.17s-.48-1.41-.75-2.11c.17-.04.14.04.24.03.06,0,.13-.11.18-.08.18.08.17.39.32.5Z"/>
  <path class="st1" d="M10.36,23.33c-.01-.09.04-.08.09-.05.26.14.32.38.67.48.51.14,1.26.18,1.8.24.5.06,1.15.24,1.63.08.87-.27,1.95-.84,2.79-1.23.68-.32,1.44-.63,2.04-1.06l3.16-4.51c.27-.8.4-1.63.58-2.45.12-.55.36-1.24.42-1.78.07-.58-.31-1.95-.5-2.55-.33-1.01-.91-2.11-1.17-3.11-.03-.13.02-.15.08-.03.37,1.12.93,2.26,1.26,3.39.18.6.5,1.74.43,2.34-.35,1.39-.61,2.8-.99,4.18-1.02,1.39-1.95,2.92-2.99,4.3-.26.34-.33.42-.72.63-.97.52-2.16,1.05-3.17,1.49-.73.32-1.19.58-2.02.54-.9-.05-1.84-.26-2.74-.36-.2-.06-.5-.39-.66-.53Z"/>
  <path class="st17" d="M10.49,6.53c-.01.08.02.09.08.03.24-.24.4-1,.68-1.18,1.48-.63,2.98-1.18,4.48-1.75.15,0,.32-.02.47,0,.39.04,1.84.36,2.16.53.13.07.54.37.64.48.04.04.02.06-.02.08-.05.01-.43-.02-.5-.03-.1-.02-.23-.1-.32-.1-.07,0-.11.06-.16.07-.12.02-.26-.07-.38-.09-.42-.08-1.92-.42-2.22-.15-.01.01-.03.03-.03.05.07.05.62-.18.48.13-.08.08-.18.11-.28.15-.6.2-1.21.4-1.82.57-.5.16-1.02.34-1.51.54-.6.25-.95.58-1.37,1.07-.32.24-.58.44-.68.84-.04.07-.1.08-.14,0-.04-.08.11-1.04.15-1.18.01-.03.08-.1.12-.11.08.08.12.21.19.06Z"/>
  <path class="st41" d="M22.18,6.75c-.15,0-.32-.1-.44-.18-.55-.36-1.16-.96-1.7-1.39.08-.07-.04-.2-.1-.24-.04-.03-.2-.03-.02-.12.16-.08.75-.17.93-.15.26.02.25.08.29.31.06.28.02.57.16.83.08.15.35.4.49.53s.31.17.38.4Z"/>
  <path class="st34" d="M15.82,4.58c.5.13.99.32,1.52.35.3.02.49-.05.78.06.05.03.06.05,0,.06l-.06.05c-.37-.04-.75-.07-1.13-.07l-.05-.07s-.1.05-.15.04l-.88-.26c-.5.17-1.01.32-1.52.45l-.05.07c-.72.19-1.42.43-2.11.7h-.07s-.04.09-.04.09c-.44.24-.83.56-1.16.96-.36.25-.46.38-.62.76-.07.19-.13.39-.19.58l-.07.03s-.02.03-.04.04c-.06.03-.03-.33-.02-.39.02-.55.22-1.35.19-1.82.1,0,.16.18.16.26,0,.11-.07.12-.09.18-.11.32-.13.79-.12,1.13.11-.12.12-.3.21-.43.12-.18.4-.34.56-.49.21-.21.39-.46.62-.66.34-.29.9-.47,1.33-.62,1-.36,2.02-.64,3.02-.99Z"/>
  <path class="st3" d="M6.85,11.35c-.11.08-.28.07-.4.13-.27.15-.24.64-.32.89-.06.19-.29.33-.23.55.02.07.1.11.09.19,0,.06-.09.2-.12.3-.15.73-.21,1.54-.37,2.25-.03.12-.1.23-.12.36-.04.34.16.73-.29.94-.05-.11-.13-.26-.16-.37-.06-.22.09-.84.14-1.1.31-1.67.79-3.31,1.07-4.98l.13.27.06-.08c.02.07.03.15.1.13.24-.29.43-.62.58-.98.47-1.19.98-2.34,2.03-3.13.07.02.26.8.21.87-.88,1.18-1.77,2.43-2.34,3.75h-.05Z"/>
  <path class="st60" d="M8.96,6.72s.1-.08.13-.06c.02.13.09.26.13.38.04.14.06.33.1.48.03.16-.04.28-.14.41l-.74.98-.11.05-.02.1c-.33.53-.65,1.07-.94,1.63-.27.4-.44.89-.59,1.35-.39,1.2-.61,2.51-.74,3.75-.06.57-.12,1.17.08,1.72.45,1.12.94,2.21,1.48,3.29v.07c.11,0,.24.19.19.29.02.04.06.07.06.11,0,.03-.04.02-.06,0-.04-.03-.27-.36-.31-.43-.44-.75-.9-1.94-1.26-2.76-.1-.23-.26-.56-.33-.79-.1-.34-.02-1.19.02-1.58.09-.96.34-1.91.49-2.86l.46-1.5c.1-.07.11-.25.16-.36.58-1.22,1.4-2.31,2.19-3.4.02-.07-.13-.7-.17-.78-.02-.04-.04-.03-.06,0-.24.28-.53.52-.77.8-.35.41-.56.9-.79,1.38-.3.65-.52,1.39-1,1.94-.05-.02.02-.08.02-.1,0-.01,0-.02,0-.03,0-.05,0-.09.02-.13.18-.27.32-.49.46-.78.32-.82.62-1.58,1.13-2.31.13-.18.7-.81.87-.89.01,0,.03,0,.04.01Z"/>
  <path class="st7" d="M6.43,10.81s-.03-.04-.04-.08c0-.16.12-.18.19-.29.05-.07.31-.56.33-.63.44-1.22.88-2.32,1.96-3.12.06-.05.09-.06.08.03-.21.18-.56.55-.75.77-.85.95-1.02,2.31-1.77,3.32Z"/>
  <path class="st9" d="M11.89,8.32c-.52.65-1.06,1.29-1.6,1.93-.32.38-.54.78-.57,1.28l-.31,2.49c-.03.33-.36.28-.55.1-.13-.12-1.14-1.44-1.14-1.53,0-.1.08-.12.16-.13.22-.46.63-.82,1.05-1.12-.21-.35-.3-.7-.37-1.1-.05-.05-.1-.1-.13-.15.02-.22.02-.4,0-.56l-.05-.08c.11-.2.09-.34-.05-.42v-.07c.28-.41.69-.87.94-1.28.03-.05.06-.09.05-.16.1.5.14,1.03.26,1.52.02.08.15.53.17.56,0,.02.04.04.05.03l.03-.22s.06-.04.07-.08c.01-.3.04-.6.07-.91,0-.03.02-.04.05-.04.03-.17.28-.92.38-1.04s.34-.28.46-.4c.47-.46.59-.7,1.23-.99l.19-.03c.41-.17.85-.34,1.3-.45.12-.02.19.22.22.31.1.36-.3.87-.55,1.1-.43.32-.79.68-1.08,1.1.14.22-.08.32-.26.33Z"/>
  <path class="st45" d="M9.95,8.03c0,.09-.04.37.06.35-.03.16-.05.42-.06.59-.01.11.07.55-.13.43l.13-1.37Z"/>
  <path class="st40" d="M24.35,8.16c-.13-.07-.99-.24-1.05-.19-.05.23-.04.47-.08.71-.02.14-.13.28-.09.45-.07.07-.06-.03-.1-.06-.24-.25-.2-.4-.32-.7-.03-.08-.09-.13-.12-.2-.11-.26-.04-.58.06-.84.07-.2.18-.48.26-.68.04-.09.12-.34.23-.31.17.05.87,1.21,1.03,1.43.14.19.24.11.17.39Z"/>
  <path class="st54" d="M12.21,21.13c1.29,0,2.58,0,3.86.03l.02.07c-.1.56-.14,1.11-.11,1.65.04.02.01.14-.02.16-.26.18-1.02.53-1.33.59-.72.02-1.43,0-2.13-.07,0,.02,0,.03-.01.04-.03.05-1.04-.08-1.06-.13,0-.01,0-.03-.01-.05-.31-.08-.61-.19-.89-.34l-.03-.65h.34s.43-.06.43-.06c-.33-.02-.68.03-1.01,0-.06,0-.09-.03-.11-.03.24-.06.49-.08.75-.06.39-.03,1.29-.11,1.61-.27.03-.02-.18-.32-.2-.34-.05-.09-.11-.2-.03-.29-.1-.05-.23-.22-.06-.24Z"/>
  <path class="st52" d="M9.44,18.54l.09.03c.67.78,1.36,1.55,2.05,2.31l.03.09c-.02.08-.1.11-.22.1-.51-.03-.68-.02-1.03.35-.05.05-.48.49-.46.52.11.04.12.3.02.34-.27-.06-.47-.09-.72-.22-.5-.25-.91-.66-1.42-.9-.06-.1-.14-.19-.19-.29-.19-.52-.41-1.03-.67-1.54-.01-.05-.01-.1,0-.15-.02-.23.12-.51.23-.72.05-.1.22-.41.25-.2l.04.06c-.06.13-.1.27-.13.42l.45.15.02.08c.15.02.22.14.22.36.15.16.26.33.35.52-.05-.11-.01-.25.12-.2.11.19.72.97.97.82,0,0,.01,0,.02-.01-.02-.17-.02-.21.05-.35.05-.1-.45-.97-.58-1.15-.03-.08-.06-.71-.03-.77.03-.08.06-.14.15-.11.03,0,.41.4.38.47Z"/>
  <path class="st51" d="M12.18,21.13s.02-.03.03,0c-.1.17.24.18.19.35l-.11-.06c-.03.18.21.37.26.54.01.04.03.08-.02.11-.79.21-1.57.32-2.4.27-.12-.02-.16-.05-.22-.06v-.29s-.13.08-.15.1c-.05.05-.06.2-.14.02.31-.22.75-.94,1.09-1.05.29-.1.61,0,.89-.08.05,0,.1.02.16.08.16,0,.3.02.41.08Z"/>
  <path class="st16" d="M11.42,23.43c.26.06.83.17,1.09.13.7.06,1.38.1,2.05.11.52-.16,1-.42,1.49-.7.98-.41,1.95-.85,2.9-1.32h.1s-.02-.08,0-.12c1-1.36,1.99-2.73,2.97-4.11.27-.74.49-1.49.65-2.26l.05-.07c-.04-.2,0-.39.09-.57.05-.31.13-.61.23-.9-.05-.18,0-.43.04-.62.01-.05.05-.08.08-.11.06.03.03.11.02.17-.11.86-.29,1.58-.49,2.42-.23.97-.27,1.55-.85,2.41-.87,1.3-1.85,2.53-2.74,3.81-.72.44-1.58.74-2.35,1.1-.61.28-1.21.6-1.83.85-.1.04-.25.15-.34.17-.14.03-.59-.01-.76-.03-.66-.04-1.41-.11-2.07-.2-.15-.02-.29-.05-.44-.08l.1-.08Z"/>
  <path class="st54" d="M22.69,10.39s.04,0,.05.02c.15.23.35,1,.41,1.3s.14.63.11.92c0,.01-.02.02-.03.03,0,.04-.05.14-.06.22-.04.24-.09.5-.13.73l-.05.05-.21.95s-.33-.07-.28-.16l-.05-.08c.08-.43.2-.97.43-1.34,0-.1,0-.17.13-.19.04-.05-.03-.3-.06-.37l-.33-.89.04-.08c-.07-.02-.11-.1-.11-.24-.2-.34-.3-.64-.1-1.02l.08-.02c.06.02.1.07.12.15h.04Z"/>
  <path class="st48" d="M18.12,4.99c.82.31,1.97,1.29,2.76,1.79.21.13.46.2.64.38.42,1.05.87,2.1,1.25,3.16.24.66.55,1.59.53,2.28,0,.06,0,.13-.06.05.08-.61-.33-1.68-.54-2.27l-.1-.15c-.38-1.02-.76-2.01-1.16-2.97-.86-.55-1.72-1.13-2.59-1.74-.24-.15-.46-.28-.7-.4l-.02-.08v-.06Z"/>
  <path class="st15" d="M9.91,22.79s-.28-.21-.33-.22l-.08-.13c.11.08.24.16.34.25.02.02.11.06.07.1Z"/>
  <path class="st12" d="M14.32,5.19c.36-.07.72-.18,1.06-.31.17-.08.28-.08.34.01l-.04,1.32c-.31.39-.62.78-.93,1.17v.04s.07.02.08-.01l.63-.04c.05-.1.13-.19.25-.27.18-.26.39-.44.64-.55.17,0,.77.66.76.87l.23.08c.08.04.12.08.05.14-.02.02-.04.04-.06.04-.31,0-.65-.03-.96-.07l-.77-.03c-.16.06-.38.05-.54,0l-.11.07c-1.02.14-2.01.39-2.98.75l-.07-.02s-.03-.03,0-.06c.16-.13.36-.11.16-.33.14-.1.2-.28.3-.4.31-.35.86-.7,1.13-1.07.05-.07.25-.46.26-.54,0-.09-.07-.43-.18-.43-.29.09-.58.16-.87.25-.18.06-.47.27-.62.16.36-.16,1.92-.77,2.24-.77Z"/>
  <path class="st9" d="M18.12,5.06c.1.03.37.21.48.27.71.43,1.39.97,2.09,1.42.18.12.64.33.75.46.1.13.18.39.25.55.35.85.69,1.76,1,2.63-.01.03-.04.08-.06.05-.03-.07-.07-.14-.1-.21-.07-.09-.13-.18-.18-.28l-1-2.61-1.2-.76c-.08-.06-.15-.13-.21-.21l-.09.02c-.57-.47-1.19-.85-1.85-1.15-.24-.06-.87-.16-.42.2.48.38.93.8,1.34,1.26.18.42.46.67.8.94.18.22-.06.28-.24.19-.48-.27-1.1-.3-1.65-.28.12.05.19.11.2.19.02,0,.02.02,0,.03-.06.01-.12-.01-.19-.06-.11.07-.35.01-.45-.06,0-.12-.25-.11-.32-.17-.04-.04-.03-.16-.08-.24-.04-.06-.47-.52-.52-.56-.08-.06-.11-.07-.21-.02-.19.11-.44.52-.67.64-.04.02-.04.11-.05.12-.05.04-.64.05-.76.06-.01-.01,0-.05,0-.06v-.07c.54-.65,1.05-1.31,1.54-1.97.17-.2.32-.36.57-.42.36.06.94,0,1.25.1Z"/>
  <path class="st14" d="M16.88,4.96c0,.12-.11.08-.18.13-.36.24-.81.96-1.09,1.31s-.6.65-.84,1.02c0,0-.06.02-.06-.02.25-.43.64-.75.92-1.16l.04-1.38c-.08,0-.16.02-.23.04-.43.12-.66.28-1.11.28l1.52-.51c.35.07.68.23,1.04.29Z"/>
  <path class="st37" d="M8.41,9.53c.07.5-.05,1.03-.24,1.52-.48,1.05-.88,2.11-1,3.25.03.24.03.59-.32.47-.02.21-.12.51-.33.29-.03,0-.05-.02-.07-.04-.1-.15.41-2.08.53-2.39.05-.17.08-.32.08-.49-.15-.44.03-.73.32-1.06.14-.22-.02-.27-.03-.26-.1.17-.2.42-.27.61-.63,1.66-.87,3.45-1,5.21,0,.02-.01.05-.02.07s-.03.05-.04.07c.2.78.5,1.54.9,2.26v.14c.21.48.48,1.01.66,1.49.02.06.07.15,0,.2-.51-.93-1.16-2.35-1.53-3.35-.24-.65-.09-1.56,0-2.26.32-2.53.81-4.22,2.26-6.31.31.16.15.33.1.58Z"/>
  <path class="st25" d="M11.89,8.38s.02.02.03.03c.02.03-.31.43-.37.49h-.08c0,.06-.04.11-.09.17-.27.32-.53.63-.8.95-.47.5-.68.85-.76,1.48-.27,2.11-.53,4.29-.76,6.41l-.05.03c-.14-.01-.14-.39-.03-.45.02-.13,0-.25-.03-.37l.28-2.75c-.08-.12-1.35.4-1.47.52-.25.23-.27.95-.26,1.27-.02.05-.06.05-.12,0h-.09c-.16-.12-.3-.26-.43-.41-.06-.06-.37-.46-.39-.5-.02-.07-.04-.15.04-.17.04,0,.17.02.19,0,.02-.01.09-.35.1-.41.09-.02.07.11.14.1.24-.04.14-.29.15-.43.02-.34.25-1.35.36-1.69.26-.82.7-1.47.88-2.38.05-.23.02-.48.07-.71.1-.02.06.05.06.11,0,.11-.02.36,0,.44.02.05.09.05.13.13.07.16.07.45.15.65.04.09.24.44.23.5-.34.25-.67.53-.92.87-.05.06-.12.24-.15.27-.05.05-.17,0-.14.08.21.23,1.07,1.55,1.27,1.61.37.11.34-.23.38-.5.15-.85.15-1.8.34-2.63.11-.48.98-1.38,1.33-1.8.26-.32.48-.68.8-.94,0,.02,0,.05,0,.06Z"/>
  <path class="st55" d="M19.27,18.06s.03.02.03.04c.02.15-.07.16,0,.06,0,0,.02,0,.04,0,.1.08.04.39-.01.5-.05.13-.21.35-.34.33v.1c-.45.47-.99.96-1.48,1.37-.36.3-.69.51-1.1.71.08.12.13.25.15.39l.42.51c.11.14.12.24.01.31l-.93.29c-.01.12.02.17.1.14l2.59-1.16h0c-.2-.12-.41-.33-.06-.4,0-.01.02-.02.03-.03.07-.04.42.25.32.41-.77.46-1.66.77-2.48,1.14-.44.2-.86.45-1.3.65-.13.06-.61.28-.72.3-.14.02-.72-.04-.91-.05-.38-.03-.76-.09-1.13-.13.33-.05.37-.01.69,0,.49.02,1.27.09,1.7-.06.34-.12.69-.36,1.03-.5l.03-.19c-.13-.53.03-1.08.09-1.61-.52-.01-1.03.02-1.55,0-.76-.02-1.53-.03-2.28-.07-.01,0-.02,0-.03,0-.08-.01-.08-.04,0-.06.49-.02.98-.02,1.47,0l.08-.04,1.26.03c1.01.06,1.58-.05,2.32-.68.63-.54,1.31-1.14,1.83-1.77h.07s.03-.45.03-.45c-.06-.03-.06-.07,0-.1,0-.03.02-.03.03,0Z"/>
  <path class="st2" d="M13.52,23.2c.04-.22-.05-.48-.03-.69s.17-.49.18-.72l1.19.95c.03.12-.17.13-.26.17s-.49.28-.52.28h-.56Z"/>
  <path class="st2" d="M6.02,16.78c0-1.45.42-3.53.85-4.92.12-.39.28-.76.46-1.12.45.14-.03.5-.15.72-.21.38-.02.47-.04.79-.01.27-.27.94-.34,1.26-.09.38-.29,1.19-.27,1.54.02.26.05.16.15.31.29.4.33.46.71.78.03.02.05,0,.08-.02.16.22.28.33.53.44l.56.22c.34.16.49.3.43.7,0,.16-.02.3.03.45.02,0,.04-.01.04,0,.1.09.35.38.44.5,0,0,0,.03,0,.05.07.11.04.14-.06.06-.09-.1-.25-.31-.34-.38-.09-.08-.14-.02-.14.08,0,.14.01.59.03.7,0,.03.27.41.32.51.11.22.25.58.34.81.03.08.07.17.07.26-.12-.08-.11-.28-.21-.38l.02.38c-.51.07-.83-.47-1.09-.83-.14-.03.02.2,0,.29-.1.09-.22-.27-.26-.33-.06-.09-.2-.21-.24-.3-.07-.15.02-.29-.17-.39l.08-.06c.07,0,.89.08.88.04-.04-.03-.03-.06,0-.11v-.07c-.28-.4-.57-.82-.84-1.24.04-1.1-.72-.77-1.19-.18-.07.34-.2.85-.47.24-.08-.26-.15-.52-.21-.79Z"/>
  <path class="st59" d="M6.02,16.78c.14.21.15.5.24.73.03.08.18.4.26.23.09-.18.04-.38.22-.58.09-.1.56-.42.68-.44.16-.03.24.01.36.11.22.18.13.36.17.6.06.4.67.92.83,1.27.02.05.07.14-.04.12l-.08-.02c-.29-.38-.56-.79-.8-1.21-.12.19-.24.39-.36.59l-.1.06c-.02-.07-.08.04-.09.05-.18.26-.27.58-.39.87-.3-.68-.9-1.67-.89-2.4Z"/>
  <path class="st9" d="M8.73,18.83c.02.05.08.09.06.16-.35.07-.68-.03-1.02-.03-.08-.04-.49-.14-.53-.19-.03-.05.11-.43.15-.51.11-.26.27-.5.46-.7.19.24.34.51.51.76.13.19.25.27.36.51Z"/>
  <path class="st26" d="M12.12,21.03l.06.03v.06c-.14,0-.28-.05-.42-.04-.05-.04-.11-.08-.15-.12-.75-.69-1.48-1.66-2.17-2.43.07,0,.07,0,.06-.06l.16.13c.68.77,1.36,1.52,2.02,2.25.11.12.27.13.42.13l.02.04Z"/>
  <path class="st51" d="M21.26,13.24c.18.26.31.54.4.86l.53,1.51v-.23c.13-.29.19-.59.24-.89l.08-.04.26.13c.09-.35.13-.73.26-1.07l.03.11c-.09.5-.21.98-.32,1.47l-.04.02c-.17.78-.39,1.55-.66,2.3l-1.85,2.6-.06.06c-.27-.02-.54-.03-.81-.03-.2,0-.31-.07-.35-.19.04-.19.05-.44.06-.65,0-.08,0-.15-.03-.21.33-.32.32-.38.35-.83-.04-.35-.05-.74.06-1.09.04-.27.36-.06.37.14.03-.03.06-.04.1-.03.07,0,.64.74.6.89.06-.01.33-.22.25-.32-.28-.54-.63-1.05-.97-1.55v-.07c.18-.18.35-.41.4-.68.15-.11.34-.18.56-.19.28-.24.6-.37.94-.41-.2-.48-.36-.99-.5-1.5-.02-.09,0-.14.09-.1Z"/>
  <path class="st37" d="M22.72,15.09c-.18.79-.34,1.6-.66,2.35l-3.01,4.19c-.1-.03-.02-.12-.07-.18-.04-.04-.21-.15-.28-.2-.11.03-.21-.03-.3-.19-.1,0-.15-.05-.14-.12.15-.24.28-.49.4-.74-.18-.14.18-.62.29-.35.29.19.65.12.98.13.09,0,.18.07.24-.01l1.83-2.58c.31-.72.4-1.52.65-2.26.02-.05.03-.12.08-.03Z"/>
  <path class="st5" d="M22.53,10.23c-.07.18-.16.35-.13.56.02.15.16.32.21.46.03.08.02.17.05.26,0,.18-.19.24-.29.06-.41.22-.81.46-1.19.73-.08.2-.19.21-.32.03-.29-.42-.6-.83-.95-1.21-.03-.05-.01-.47.03-.54.04-.32.05-.7,0-1.02-.08-.03-.08-.07,0-.1.17-.07.32.28.26.42l.09.08c.1.4.16.81.19,1.22,0,.12.06.55.24.46l.43-.96h.07s.04-.12.04-.12c.34-.15.41-.28.22-.37-.34-.12-.78-.58-.89-.91-.06-.19-.03-.24.07-.41-.16-.37-.38-.71-.66-1.04-.2-.28-.12-.62,0-.91l-.03-.08c-.1-.13-.3-.47-.04-.48.48.32.97.62,1.45.93.4.97.73,1.97,1.14,2.94Z"/>
  <path class="st9" d="M19.95,9.47s0,.07,0,.1c.04.33.03.69,0,1.02,0,.17-.02.34.02.51.2.22.41.46.59.69.08.1.4.63.5.62.02,0,.06-.11.1-.16.05-.05,1-.65,1.1-.69.23-.11.13-.03.27.08l.14-.13c.11.33.34.84.41,1.14.01.06.03.21-.03.25-.02.02-.08,0-.09.02-.02.02,0,.09-.01.13-.02.06-.08.08-.11.15-.12.33-.25.89-.34,1.25s-.06.47-.19.81c-.11.28-.04.41,0,.68,0,.02.03.14-.03.09-.36-.92-.64-1.88-1.02-2.8h-.07s-.12-.31-.12-.31c-.26.24-.5.5-.72.8-.07.09-.14.11-.2.06l-.08.02c-.14-.2-.23-.43-.28-.69l-.24.11c-.76.19-1.53.32-2.33.39-.09.2-.22.05-.31-.08-.32-.2-.66-.38-1.01-.54-.47-.21-.43-.72-.36-1.15l.06-.05c.03-.06.07-.06.1,0l.06.05c-.02.24-.02.48,0,.72l-.04.06c.44.32.96.65,1.52.78.82-.09,1.62-.23,2.41-.42.06-.05.07-.2.08-.28.05-.84.08-1.7.1-2.54,0-.21.01-.47-.05-.66-.14-.47-1.29-1.46-1.76-1.69v-.04s0-.03,0-.03l.06-.05c.12.02.34.11.45.17.23.13,1.41,1.35,1.45,1.54,0,.02-.02.05-.04.07Z"/>
  <path class="st4" d="M15.6,7.58l.77.03c.33,0,.7,0,1.02.03.15.01.31.03.45.06.65.27,1.16.8,1.62,1.32.37.42.38.51.38,1.09-.05.85-.09,1.74-.11,2.58,0,.09-.02.28-.12.31-.26.07-.52.12-.79.17-.52.09-1.06.16-1.58.23-.3.04-1.27-.6-1.52-.78-.01-.03-.03-.03-.03-.08-.03-.2,0-.54,0-.75-.02-.05-.07-.06-.13-.04-.46.02-1.24.14-1.56.46v.07c-.12.09-.24.2-.31.34h-.07s-.03.02-.03.02c-.01.06-.02.12-.03.18-.13,1.23-.26,2.48-.38,3.67.15.1.32.23.49.4.17.09,1.14-.08,1.29-.2l.19-.22h.04c.08-.05.27.15.22.23.01.02.03.06.01.07-.32.4-.5.49-1.02.55l-1.28.06c-.21-.04-1-.82-1.03-1.03.04-.48.1-.97.18-1.45.1-1.07.25-2.11.45-3.15.12-.25.76-.82,1.05-.88.34-.07.75-.09,1.1-.08.48-.22,1.3.35,1.4.81v.75c.01.14.02.17.16.16.72-.09,1.43-.22,2.13-.37.03-.06.07-.09.11-.07.11.08.24.14.4.19l.06.1c-.02.38.17.17.14-.08l.07-.04c.01-.05.03-.07.03-.04,0-.74.03-1.46.07-2.19l-.04-.1s-.07-.06-.07-.14l-.12-.16c-.04-.21-.12-.39-.25-.54-.23-.19-.4-.37-.49-.66-.29-.12-.57-.27-.83-.44.09-.14-.09-.16-.22-.16-.78-.06-1.56-.1-2.34-.09-.1-.02-.14-.09-.04-.13.18,0,.36,0,.54,0Z"/>
  <path class="st17" d="M15.06,7.58c-.02.1.05.06.11.06.76.03,1.52,0,2.27.1.04,0,.39.07.34.13l-.1.08c.17.08.33.18.5.27.12.06.28.07.36.18.05.08.06.18.11.27.13.2.38.31.51.58.05.11.06.25.11.34.07.14.16.09.13.33.04.29.04.59,0,.91.02.48,0,.96-.06,1.43,0,.14,0,.41-.17.38-.17-.03-.04-.16-.11-.27-.1-.16-.4-.03-.39-.27l-.06-.03c.02-.84.02-1.69,0-2.53-.07-.27-.85-1.12-1.08-1.3-.98-.09-1.97-.15-2.96-.18-.81.15-1.61.41-2.37.71-.6.69-1.2,1.39-1.79,2.11l-.13.2c-.21,1.42-.41,2.84-.58,4.29l-.07.22c-.04.16-.23.3-.26.06l-.02-.21c.13-1.52.33-3.04.6-4.54.48-.69.99-1.33,1.52-1.93v-.07c.07-.07.41-.48.42-.51.23-.07.44-.17.67-.24.75-.23,1.72-.54,2.49-.56Z"/>
  <path class="st17" d="M16.37,7.61c-.25,0-.53.03-.77-.03.25,0,.53-.03.77.03Z"/>
  <path class="st37" d="M19.95,6.37c-.2.16.13.41.13.56,0,.08-.07.16-.08.24-.03.15-.06.34,0,.49.07.21.47.65.61.89.05.09.16.25.13.35-.02.06-.1.15-.11.22-.03.19.42.75.59.87.1.07.2.09.3.15.42.28-.09.35-.28.55l-.06-.06c.02-.15-.01-.3-.18-.35-.27-.06-.49-.14-.67-.36-.05-.05-.09-.06-.12-.03-.04-.13-.12-.37-.26-.42-.05-.22-1.09-1.27-1.31-1.45-.26-.21-.35-.17-.61-.27-.04-.02-.31-.17-.32-.21-.03-.07.05-.04.08-.05.33-.05,1.07.04,1.4.14.18.05.32.2.52.18.03,0,.02-.06.01-.08-.02-.05-.45-.37-.54-.48-.15-.18-.23-.42-.37-.59-.25-.32-.87-.81-1.2-1.1-.29-.27-.43-.45.11-.43.68.03,1.64.86,2.22,1.25Z"/>
  <path class="st31" d="M18.03,7.77c.47.17,1.48,1.14,1.74,1.57.12.19.12.67.12.91,0,.74-.05,1.62-.1,2.36-.01.17,0,.37-.17.44-.66.26-1.64.22-2.34.41-.31-.04-.58-.19-.85-.34-.17-.09-.63-.34-.7-.5.03-.08.09,0,.11.03.23.2,1.12.68,1.41.7.79-.12,1.58-.22,2.36-.39.13-.05.08-.63.08-.78.02-.36.02-.72.03-1.09.01-.43.15-1.19.05-1.58-.04-.14-.34-.45-.45-.57-.23-.25-.63-.68-.88-.88-.19-.15-.43-.21-.61-.37.07.02.13.04.19.06Z"/>
  <path class="st37" d="M8.99,17.49c0-.29,0-.32-.24-.51-.3-.23-.79-.29-1.06-.5-.1-.08-.18-.24-.3-.33.1.02.06-.05.06-.11,0-.15-.01-.3,0-.45.02-.17.15-.64.27-.75.1-.1.82-.39.99-.45.19-.06.39-.13.59-.08l-.32,3.18Z"/>
  <path class="st57" d="M11.48,8.89c.1.04.05.08,0,.14-.48.63-1.06,1.19-1.49,1.86-.27,1.57-.44,3.15-.62,4.74,0,.04.02.07.06.09-.09.73-.17,1.46-.25,2.2.74.82,1.47,1.65,2.2,2.48l.06.12.13.05c.09.12.19.22.32.28,1.19.06,2.39.1,3.6.1.8-.02,1.15-.15,1.75-.66.55-.47,1.1-1,1.61-1.51.1-.1.18-.23.21-.36.04-.76.07-1.52.09-2.28,0-.12-.09-.19-.28-.21l-.02-.08-.11.02c-.52-.3-1.08-.43-1.68-.42-.44.02-.87.02-1.31.02-.17.34-.34.68-.51,1h-.06c-.04.07-.19.27-.25.29-.13.05-.96.2-1.11.2-.23,0-.39-.26-.56-.4-.03-.03-.11-.04-.12-.05-.07-.1.1-.97.12-1.16.09-.88.14-1.78.29-2.65,0-.02.01-.15.06-.08.08.04.06.22-.03.22.02,0,.03.01.03.02.03.15,0,.44,0,.6-.11,1-.22,1.99-.36,2.98,0,0,0-.03.06.01.09.06.3.29.34.38.16,0,.35-.02.53-.05.22-.04.44-.08.65-.15.02.03.04.04.06.04-.01-.05.02-.1.1-.15.21-.34.4-.7.55-1.08.11-.23.23-.21.45-.18l1.24-.02c.26-.16,2.04.55,2.08.65.07.2.06,1.25,0,1.47-.01.04-.03.07-.04.1-.01.19-.02.39-.03.58,0,.03,0,.06,0,.1l-.03.45c-.04.11-.16.21-.24.29-.44.43-.96.92-1.42,1.33-.44.38-.88.79-1.49.85-.76.07-1.64,0-2.41,0-.5,0-1.02-.01-1.53-.03-.13,0-.3.01-.42-.08-.08-.07-.22-.28-.3-.37-.65-.69-1.27-1.4-1.9-2.11-.12-.14-.42-.39-.48-.54.02-.12.05-.25.06-.37.21-1.92.36-3.86.64-5.78.08-.54.09-.83.41-1.28.41-.56.9-1.08,1.34-1.61Z"/>
  <path class="st54" d="M18.99,18.99c.08-.02.07.04.08.09.04.23-.07.51.02.77-.04,0-.09,0-.13,0s-.08-.04-.13-.02c-.06.03-.17.23-.16.29,0,.02.06.02.07.04.03.16-.46.81-.42.84.16-.03.16.09.24.16.04.04.1.06.14.1.03.11-.16.07-.13.14,0,.02.13.13.16.16.07.06.23.04.05.15l-2.61,1.16-.16.02-.03-.27,1.02-.31s-.01-.08-.03-.11c-.1-.2-.42-.47-.5-.65-.03-.06-.01-.13-.03-.19s-.11-.16-.11-.18c-.01-.09.42-.25.52-.3.6-.37,1.6-1.36,2.13-1.88Z"/>
  <path class="st9" d="M18.64,15.54l.06-.05c.18.05.64.27.73.42.05.1.08,1.04.05,1.08-.04,0-.06.03-.07.07-.01.36-.04.73-.06,1.09-.04.03-.01.11-.06.1,0-.06,0-.13,0-.19-.03-.19-.02-.38,0-.58,0-.52.04-1.04.03-1.56-.55-.15-1.06-.54-1.64-.58-.55-.04-1.17.01-1.73,0-.06,0-.14-.04-.18-.03-.19.04-.47.9-.6,1.09-.02.03-.23.26-.25.28-.19.03-.1-.14.03-.21.18-.31.34-.63.47-.97.1-.21.19-.37.44-.39.36-.29.68-.65.94-1.07.09-.1.22-.25.36-.2.2.07.73,1.03.61,1.29l.8.29.09.1Z"/>
  <path class="st51" d="M13.65,21.06c-.47,0-1.01.04-1.47,0-.03,0-.06,0-.06-.03.45.02.91,0,1.36,0,.05,0,.14-.02.18.03Z"/>
  <path class="st51" d="M19.27,18.06h-.03c0-.18-.03-.4.03-.58,0,.19,0,.38,0,.58Z"/>
  <path class="st51" d="M19.21,18.6c.02-.14-.04-.33.03-.45,0,.16.02.3-.03.45Z"/>
  <path class="st2" d="M20.14,13.78c.24-.1.41-.44.59-.64.06-.06.3-.33.37-.29.02.01.14.33.16.38-.06.03-.02.11,0,.15.1.37.23.78.36,1.14.04.13.14.23.13.37-.14,0-.31.03-.45.08-.21.07-.39.28-.56.34-.13.04-.39.04-.48.12-.06.06-.03.13-.06.19-.05.09-.16.29-.21.36-.05.06-.16.12-.16.14,0,.1.38.56.46.69.07.11.12.24.18.36.09.15.38.51.34.67-.04.13-.41.39-.57.37.03-.11.2-.12.19-.23,0-.05-.51-.75-.56-.76-.07-.02-.08.16-.14.1,0,0-.02-.17-.05-.22-.04-.07-.23-.16-.27-.03,0-.22.03-.97-.04-1.13-.02-.05-.06-.09-.11-.11-.13-.08-.46-.23-.62-.29-.33-.3.04-.77.34-.96.41-.22.78-.5,1.1-.83l.07.04Z"/>
  <path class="st9" d="M21.22,10.68l-.45,1c-.12.16-.28-.07-.31-.2-.11-.54-.08-1.05-.26-1.61-.02-.09.04-.07.1-.05.11.05.19.19.32.25.32.15.68.05.6.59Z"/>
  <path class="st37" d="M19.95,10.59c0-.33.03-.7,0-1.02.05.03.03.12.03.18,0,.22,0,.45,0,.67,0,.05.02.14-.03.18Z"/>
  <path class="st37" d="M15.6,11.8c0,.5-.21.81.3,1.12.3.18.76.34,1.02.54.12.09.15.3.26.1.65-.1,1.32-.16,1.96-.31.21-.05.5-.1.65-.24.17.24.07.58.34.77-.14.06-.24.24-.37.35-.44.37-1.45.67-1.13,1.41-.13-.06-.92-.31-.94-.35-.04-.05.02-.17.01-.26-.02-.18-.45-.97-.59-1.01-.1-.03-.24.14-.31.22-.28.32-.53.83-.93,1.05-.07.04-.15.02-.22.07-.22.18-.43.97-.68,1.27-.04.05-.21.1-.08.16-.1.08-1.03.25-1.16.22-.05-.01-.06-.04-.08-.06-.08-.13-.2-.26-.35-.38l-.02-.08c.09-.66.16-1.31.22-1.97,0-.33.14-.48.28-.09.09.41.2.8.34,1.2v.16c.08-.07.55-.72.56-.77.02-.1-.6-1.27-.71-1.35-.17-.06-.28-.15-.33-.27.02-.19,0-.33-.04-.44,0-.08,0-.14.03-.22.05-.15.25-.33.38-.42,0-.01,0-.03,0-.04.08-.18,1.49-.47,1.56-.42.01,0,.02.02.03.04Z"/>
  <path class="st6" d="M15.7,11.8s-.06,0-.1,0c-.42,0-1.24.19-1.6.42-.09-.07.15-.19.19-.21.37-.18.74-.2,1.13-.24.09,0,.37-.13.4-.01,0,.02-.03.04-.03.04Z"/>
  <path class="st3" d="M18.86,15.86l.07.05-.07.29c.03.77.01,1.54-.05,2.31l-2.22,2.1c-.11.07-.32.12-.41.01-.12-.02-.08-.19,0-.26.61-.59,1.22-1.18,1.83-1.77-.03-.16-.03-.31.02-.43l-.04-.09c0-.7.03-1.39.05-2.08,0-.07-.01-.15-.09-.17h-1.98c-.14.24-.26.49-.37.75-.05.1-.11.15-.18.15l-.22-.22c.22-.34.29-.76.54-1.07.83.02,1.74-.14,2.53.15.21.08.4.19.6.28Z"/>
  <path class="st19" d="M14.58,10.78c.09-.02.2-.04.29,0,.03,0,.03.02,0,.03-.3.02-.7.06-1,.1-.41.05-.64.39-.9.67-.19.2-.21.14-.27.47-.16.94-.24,1.9-.36,2.84-.05.42-.17.9-.19,1.31,0,.12-.01.2.05.3.08.13.61.64.75.75.05.04.11.1.18.11.56-.06,1.51.06,1.98-.29.12-.09.21-.24.3-.35.06-.08.12-.12.18-.22.09-.16.24-.68.37-.72h2.01c.11.06.13.18.14.29.02.29-.06.69-.07.99,0,.36,0,.74,0,1.1l-.07.13c-.65.61-1.3,1.22-1.95,1.81-.37.11-.76.14-1.18.12l-2.8-.05c-.27.02-.54.03-.79.02-.53-.73-1.09-1.42-1.67-2.07-.08-.09-.16-.19-.18-.31-.03-.11-.01-.48.09-.54.02-.1.07-.17.08-.02,0,.11,0,.23-.02.34l.04.03c0,.11.03.22.05.32.19.11.43.39.48.61l.1.06c.38.45.75.91,1.12,1.37h4.37c.12,0,.22-.07.31-.15.46-.49.96-.96,1.47-1.42.11-.1.29-.26.42-.28.04-.42.06-.85.06-1.28-.11-.3-.08-.69-.02-.99l-.03.06h-1.88l-.04-.06.03.06c-.13.31-.38.83-.61,1.07s-.67.55-1,.41l-.45.03s-.02.03-.03,0l-.45.03s-.02.03-.03,0c-.12.03-.23.02-.35,0-.03.04-.07.04-.11,0-.39-.29-.77-.64-1.04-1.03.14-1.3.31-2.61.54-3.88.02-.25.06-.5.1-.75.09-.23.82-.93,1.08-.93.01,0,.02.01.03.02.03-.02.05-.04.06-.08.24-.04.48-.06.73-.08l.08.06Z"/>
  <path class="st10" d="M18.67,12.09c-.11.26-.43.19-.68.23-.45.07-.97.21-1.41.25-.29.03-.3.02-.33-.27-.05-.58.16-.7-.34-1.13-.36-.32-.54-.39-1.04-.35v-.03s.06-.02.1-.03c.02-.06.05-.06.06,0,.13-.03.26-.03.38,0l.07-.04c.12.01.67.48.76.61.07.11.1.16.07.29.03.27.03.55,0,.83.72-.11,1.44-.23,2.17-.38.03-.81.04-1.64.01-2.47l.05-.06c-.3-.29-.57-.62-.83-.96l-.28-.26c-.86-.05-1.73-.1-2.59-.16-.87.06-1.79.36-2.56.7-.63.7-1.3,1.46-1.9,2.24-.24,1.68-.47,3.37-.69,5.05-.02.1-.04.21-.03.32.05.22.03.5-.06.7l-.03.35c.08.02.05.09-.03.06,0-.13,0-.26,0-.38h-.03s-.03.06-.03.06c-.06-.56,0-1.16.16-1.69.12-1.2.29-2.38.47-3.57.05-.3.04-.67.13-.96.11-.33,1-1.24,1.28-1.56.14-.17.53-.72.67-.8.32-.16.86-.27,1.22-.38.51-.16.94-.4,1.51-.31l2.64.18c.13.14.27.26.4.4.17.19.66.73.7.96v2.56Z"/>
  <path class="st16" d="M19.4,9.91c.08.04.1.09.1.18,0,.21-.06.51-.07.73-.01.45.01.86-.03,1.31,0,.06.04.13-.06.11.05-.78,0-1.53.06-2.33Z"/>
  <path class="st24" d="M9.47,17.26c0,.12-.04.39-.03.49.01.19.32.45.45.61.43.53.85,1.07,1.28,1.6.05.07.03.15.14.18s.21-.03.32-.03c1.31-.03,2.81.11,4.09,0,.14-.01.26-.04.37-.14.62-.63,1.29-1.21,1.95-1.81,0,.15.06.31.03.46-.59.65-1.3,1.19-1.89,1.85v.15s-.07.07-.12.08c-1.28.03-2.57,0-3.86-.05-.23,0-.53-.05-.75-.13-.82-.82-1.54-1.73-2.33-2.58.03-.66.15-1.32.22-1.97.01-.11.02-.23.03-.34.08.15.16,0,.26-.06-.06.56-.12,1.13-.16,1.69Z"/>
  <path class="st46" d="M11.45,20.52c.25-.02.5.05.75.07.62.03,1.26.02,1.89.03.69.01,1.41.1,2.09,0,.12-.02.26.01.37-.06l2.2-2.08c.07-.33.03-.67.05-1.01.02-.43-.02-.88,0-1.28,0-.13.08-.22.07-.33.09.04.33.07.35.18.04.19,0,.71,0,.93,0,.25-.05.54-.07.8-.03.55.13.71-.3,1.14-.37.37-.81.79-1.2,1.13-.58.52-.98.92-1.8.98-1.01.06-2.24-.02-3.26-.07-.19,0-.42.02-.61,0-.24-.03-.37-.26-.53-.42Z"/>
  <path class="st9" d="M13.59,12.85c.09-.02.06.05.07.11.01.09.02.34.04.37.03.05.28.14.35.22s.57,1,.62,1.14c.03.07.04.15.06.23l-.61.9c-.07-.03-.04-.21-.06-.29-.05-.18-.14-.38-.19-.57-.08-.28-.06-.47-.2-.75-.01-.02-.01-.1-.07-.05-.05.05-.11,1.14-.13,1.32-.03.24-.21.76-.09.96.04.07.21.18.27.27.02.03.08.11.02.13-.16-.1-.26-.29-.45-.37.16-1.12.26-2.25.39-3.38,0-.08,0-.16,0-.24Z"/>
  <path class="st12" d="M18,9.56s.07.05.09.09c.16.28.1,1.34.05,1.7-.05.42-.21.48-.58.61-.25.09-.68.23-.86-.02-.23.24-.33.12-.32-.37l-.05.03s-.02.03-.03,0c-.02-.17-.17-.33-.3-.45-.15-.14-.41-.33-.59-.41-.13-.02-.26-.03-.38,0-.02,0-.04,0-.06,0-.13,0-.25.02-.38.03-.26.01-.61.04-.86.1-.05-.02.01-.07.02-.04-.25.04-.45.2-.62.37-.32.35-.62.61-1.04.82-.25.37-.53.71-.83,1.02-.11.12-.33.41-.12.51l.42-.52s.09-.02.13,0c.07.23.19.39.35.48.03.03.04.05.06.09.04.09.02.58-.09.62.04.11.05.33-.06.38l-.04.08c-.5.15-.94.42-1.31.83-.14.15-.3.21-.47.17v-.16l-.03-.13c.12-1.09.25-2.16.43-3.24.13-.75.44-1.2.92-1.76l.57-.78c.35-.42.51-.49.98-.68.53-.22,1.11-.45,1.7-.4.68.08,1.36.12,2.04.13.42.04.5.05.8.34.17.16.38.36.48.55Z"/>
  <path class="st29" d="M18.54,9.53c-.09.06-.2.01-.32-.14-.16-.27-.36-.41-.61-.43l.44.46c.05.08.05.19-.06.15-.28-.21-.46-.55-.77-.72s-1.19-.12-1.58-.15c-.47-.03-.97-.14-1.44-.1-.27.03-1.56.5-1.77.66-.35.27-.69.82-.96,1.18-.47.62-.71.78-.88,1.61-.23,1.12-.36,2.35-.49,3.49l-.02.3c-.16.19-.16-.5-.11-.56.03-.12.23-1.36.15-1.37-.22,1.15-.35,2.32-.39,3.5-.01.05-.04.1-.08.15.05.02.06.07.03.14.06.18.04.26-.06.24-.11-.18-.09-.14-.1-.35.03-.01.02-.04.03-.06,0-.12.02-.24.03-.35.01-.24.04-.47.06-.7,0-.11,0-.22.03-.32.15-1.7.37-3.39.63-5.07.46-.64,1.01-1.22,1.53-1.83.42-.49.31-.46.96-.67.8-.26,1.48-.52,2.33-.48.76.04,1.53.16,2.3.16.3.19.5.5.72.78.12.15.33.32.38.5Z"/>
  <path class="st32" d="M10.11,18.54c-.02-.13-.09-.24-.18-.35-.07-.16-.03-.28.15-.21l.89,1.03c.07.18.53.67.69.71,0,0,0-.01,0-.03l.06-.06c.75-.05,1.5-.05,2.26.01,1.18.08,2.2-.21,2.94-1.16.22-.2.38-.26.66-.34.07-.06.14-.1.21-.11.04,0,.07,0,.1.03.01,0,.01.03,0,.06-.07.11-.28.24-.38.33-.31.3-.63.58-.94.88-.25.24-.52.67-.86.7h-4.4c-.42-.48-.81-1-1.2-1.5Z"/>
  <path class="st20" d="M12.5,12.53c-.02.49-.12.97-.19,1.46-.01.08-.02.15-.03.22-.1.73-.17,1.47-.26,2.2.02.12.36.46.46.56.14.14.45.43.62.48.12.03.24.03.35,0,.01,0,.02,0,.03,0l.45-.03s.02,0,.03,0l.45-.03c.57-.03.87-.29,1.18-.75.08-.12.34-.78.4-.78h1.95c.09,0,.02.22.01.27,0,.24,0,.48,0,.72,0,.4-.03.81-.06,1.21-.07.05-.11.06-.1-.03-.03-.07-.04-.16-.03-.28-.06-.51-.1-.99.02-1.48l-.19.03c-.45-.03-.89-.01-1.31.06-.36.54-.68.96-1.25,1.33-.12.08-.47.17-.56.04l-.58.03c-.04.06-.09.06-.13,0-.24.02-.49.03-.73,0l-.06.04c-.27-.18-.59-.42-.73-.71-.04-.1.05-.1.12-.06l-.36-.38c.02.1,0,.16-.05.19-.06.06-.1,0-.15-.05-.12-.17-.03-1.12.02-1.36l.07-.03c0-.11,0-.22.03-.32-.09-.07-.1-.41,0-.48,0-.13.05-.27.06-.38.17-.08.14.34.06.42-.02.12-.03.23-.03.35.04.07.02.25-.03.32v.34s0-.04.03-.05c.05-.97.14-1.98.33-2.94.03-.16.08-.26.15-.13Z"/>
  <path class="st14" d="M11.99,14.23c.01-.16.07-.48.03-.62-.02-.07-.12-.08-.18-.14-.08-.08-.15-.29-.2-.4-.05-.01-.05,0-.08.03-.08.08-.38.53-.45.54-.43-.28.29-.81.48-1.05.17-.21.28-.5.51-.67.13-.09.27-.12.41-.22.38-.29.75-.86,1.25-.89l-.05.06c-.11.03-.21.06-.3.13-.09.06-.65.62-.7.7-.04.07-.05.14-.07.22-.02.1-.05.59-.07.61,0,0-.04,0-.06,0s-.04,0-.06,0c-.14,1.02-.33,2.04-.42,3.07-.04-.08-.05-.17-.03-.29,0-.12.02-.21.03-.32,0-.12,0-.24.03-.35,0-.12.04-.35-.06-.42Z"/>
  <path class="st35" d="M9.66,17.55c.08-.21.17-.09.18.07.04.1.14.29.24.28h.08c.46.61.97,1.19,1.53,1.71v.07s.09.02.09.06c-.25.06-.35-.16-.51-.3-.18-.17-.27-.13-.31-.43l-.93-1.02c-.06-.02-.08.08-.07.11.01.11.28.28.15.44-.16-.2-.34-.39-.48-.61.07-.05,0-.16,0-.24,0-.07.03-.11.03-.14Z"/>
  <path class="st9" d="M17.9,18.12v-.06c0-.14,0-.29,0-.43l.07-.78c0,.27.05,1.1-.06,1.28Z"/>
  <path class="st43" d="M13.94,17.42c-.12.06-.31.03-.45.03.12-.06.31-.03.45-.03Z"/>
  <path class="st43" d="M14.42,17.39c-.12.06-.31.03-.45.03.12-.06.3-.03.45-.03Z"/>
  <path class="st4" d="M14.96,10.74s-.06.03-.1.03c-.1,0-.19,0-.29,0,.1-.06.26-.03.38-.03Z"/>
  <path class="st43" d="M13.46,17.45c-.1.07-.24.03-.35,0,.12,0,.23,0,.35,0Z"/>
  <path class="st20" d="M18.54,9.53c.02.06.03.11.03.17.05.58,0,1.21-.03,1.79,0,.11.02.57-.01.63-.74.15-1.49.26-2.22.38,0-.02,0-.04,0-.06.01-.28.03-.56.03-.83,0-.05,0-.11,0-.16.2.04.08.58.18.57l.14-.11c.01-.05-.14-.13-.1-.17.1-.09.22.24.29.27.2.09,1.03-.17,1.15-.35.06-.1.08-.32.1-.45.05-.59.06-1.08-.1-1.64,0,0,.05-.03.02-.09-.04-.08-.5-.47-.5-.53,0-.07.21-.04.26-.03.31.07.45.55.76.62Z"/>
  <path class="st4" d="M16.3,12.44c-.01-.27.02-.57,0-.83h.03c0,.27.03.57-.03.83Z"/>
  <path class="st4" d="M15.41,10.74c-.13,0-.26,0-.38,0,.09-.06.28-.05.38,0Z"/>
  <path class="st44" d="M9.56,17.52c.01-.11-.04-.26.03-.35,0,.13.03.22-.03.35Z"/>
  <path class="st44" d="M9.66,16.46c.01-.1-.04-.24.03-.32,0,.11-.02.22-.03.32Z"/>
  <path class="st9" d="M11.93,14.61c0,.13.01.33,0,.48-.02.1-.03.21-.03.32-.02.29-.14,1.13-.03,1.35.02.05.07.06.09.08.1-.03.24.17.29.26.19.16.37.35.56.51.07.06.15.13.24.16.24.02.5.03.73,0,.04,0,.09,0,.13,0l.58-.03c.25,0,.36,0,.59-.13.34-.22.64-.52.88-.85.09-.12.2-.39.32-.45.08-.04.39-.06.5-.07.28-.02.56,0,.83,0,.07,0,.24-.08.27.02.01.05-.09.43-.09.54-.01.3.05.68.07.99,0,.1.01.15-.03.24-.12.24-.44.2-.64.34-.24.16-.57.57-.82.78-1.06.86-2.81.47-4.09.51-.19,0-.39.06-.59.03-.36-.26-1.3-1.39-1.6-1.79-.12,0-.25-.25-.26-.39.05-.56.12-1.11.21-1.66.05-.03.07-.08.07-.15.04-.1.08-.02.16-.04.24-.07.77-.67,1.06-.82.17-.09.41-.15.6-.22Z"/>
  <path class="st44" d="M9.66,17.55c.1-1.12.14-2.56.4-3.64.01-.06.03-.14.06-.19.06.07.08.22.08.3.01.49-.17,1.09-.19,1.6,0,.05,0,.19.06.21l.03-.29c0,.05,0,.11,0,.16-.02.59-.23,1.29-.22,1.87,0,.1.13.25.19.33.01.09-.03.08-.08.03-.11-.1-.24-.29-.24-.45l-.1.06Z"/>
  <path class="st43" d="M12.25,17.1c-.11-.03-.21-.17-.29-.26l-.03-.29c.07-.07.3.25.35.3.16.15.6.58.77.67.24.12.58,0,.84-.01.38-.02.8.04,1.15-.16.08-.05.39-.32.41-.32s.05.03.02.08c-.08.12-.44.43-.58.48-.28.1-.85.07-1.17.08-.18,0-.5.08-.68,0-.2-.09-.54-.51-.75-.6-.04-.02-.06.02-.06.02Z"/>
  <path class="st43" d="M13.78,17.77c-.03.05-.12.03-.18.03-.18,0-.4.02-.56-.03.24,0,.49,0,.73,0Z"/>
  <path class="st43" d="M14.48,17.74c-.17.06-.39.03-.58.03.17-.06.39-.03.58-.03Z"/>
  <path class="st43" d="M12.02,15.6c0,.06,0,.14-.06.16l.03-.45c0,.12.03.2.03.29Z"/>
  <path class="st43" d="M12.02,14.99c.01-.11-.04-.26.03-.35,0,.13-.02.24-.03.35Z"/>
  <path class="st43" d="M11.89,15.41c.01-.1-.04-.24.03-.32,0,.11-.02.22-.03.32Z"/>
</svg>