<?xml version="1.0" encoding="UTF-8"?>
<svg id="Layer_1" xmlns="http://www.w3.org/2000/svg" version="1.1" viewBox="0 0 400 300">
  <!-- Generator: Adobe Illustrator 29.5.0, SVG Export Plug-In . SVG Version: 2.1.0 Build 137)  -->
  <defs>
    <style>
      .st0 {
        fill: #7b7e7c;
      }

      .st1 {
        fill: #3faab0;
      }

      .st2 {
        fill: #737876;
      }

      .st3 {
        fill: #211d1d;
      }

      .st4 {
        fill: #338f8c;
      }

      .st5 {
        fill: #282222;
      }

      .st6 {
        fill: #636464;
      }

      .st7 {
        fill: #717571;
      }

      .st8 {
        fill: #cfd3d2;
      }

      .st9 {
        fill: #7a7e7b;
      }

      .st10 {
        fill: #626561;
      }

      .st11 {
        fill: #214241;
      }

      .st12 {
        fill: #525654;
      }

      .st13 {
        fill: #0c1918;
      }

      .st14 {
        fill: #29504f;
      }

      .st15 {
        fill: #020302;
      }

      .st16 {
        fill: #7b7f7c;
      }

      .st17 {
        fill: #5a5d5c;
      }

      .st18 {
        fill: #7b7f7d;
      }

      .st19 {
        fill: #23201f;
      }

      .st20 {
        fill: #bbbdbc;
      }

      .st21 {
        fill: #6f7470;
      }

      .st22 {
        fill: #848887;
      }

      .st23 {
        fill: #e0e3e4;
      }

      .st24 {
        fill: #426467;
      }

      .st25 {
        fill: #cdd0d0;
      }

      .st26 {
        fill: #224746;
      }

      .st27 {
        fill: #eff1f2;
      }

      .st28 {
        fill: #141111;
      }

      .st29 {
        fill: #626563;
      }

      .st30 {
        fill: #dddfde;
      }

      .st31 {
        fill: #0a1514;
      }

      .st32 {
        fill: #1b1817;
      }

      .st33 {
        fill: #707571;
      }

      .st34 {
        fill: #183633;
      }

      .st35 {
        fill: #757a79;
      }

      .st36 {
        fill: #224342;
      }

      .st37 {
        fill: #314740;
      }

      .st38 {
        fill: #494f4f;
      }

      .st39 {
        fill: #fefefe;
      }

      .st40 {
        fill: #010302;
      }

      .st41 {
        fill: #1c3835;
      }

      .st42 {
        fill: #6e736f;
      }

      .st43 {
        fill: #131010;
      }

      .st44 {
        fill: #2e2a2a;
      }

      .st45 {
        fill: #babbba;
      }

      .st46 {
        fill: #191616;
      }

      .st47 {
        fill: #898d8b;
      }

      .st48 {
        fill: #1d5155;
      }

      .st49 {
        fill: #4f5350;
      }
    </style>
  </defs>
  <rect class="st39" x="58.34" y="13.74" width="268" height="268"/>
  <path class="st44" d="M225.72,61.56l-.02,2.77c-7,2.45-10.51,5.77-10.53,9.96,2.97-5.18,6.63-2.1,9.94.8,5.59.19,12.66,2.59,7.4,8.73-1.52,1.77-7.12,3.78-7.78.65-2.15,1.84-6.23.12-4.98-2.99,0-1.35-.99-1.68-2.99-1l-1.9,1.31c-4.07-2.25-8.31-4.2-13.04-4.3-1.73,2.05-2.24,1.62-1.99-1-5.85,7.08-11.08,4.58-17.93,1-6.84.54-15.04,4.1-20.75,8-.55.38-.45,1.2-.18,1.96,3.62-1.03,9.93.59,6.97,4.98-.47,2.18-2.87,3.64-7.19,4.38l.22,1.6c4.68.38,9.25,2.17,13.72,5.37,4.17,2.87,7.77,2.78,10.8-.26l2.38.87c-1.42-4.83,8.88-5.13,7.97,0,1.7-.95,4.2-.3,7.52,1.94,2.7-1.83,4.85-2.15,6.43-.94,1.82.26,2.23,1.56,1.22,3.9,3.33.05,8.72.48,4.75,4.07,4.87,1.04,7.86,3.03,8.97,5.98.87.28.86.62,0,1,3.01,4.73-8.75,9.72-11.96,6.97-2.45-.27-5.18-.95-8.16-2.03-9.91,3.26-14.66,4.12-24.06-.95-3.73,2.86-6.94,3.85-9.63,2.98-.31.35-.64.66-1.03.86-1.17.59-22.57-9.13-23.9-10.5-4.37-4.47-1.62-7.57,2.96-9.93-7.12-2.11-26.05-8.32-23.91-17.96,2.87-2.98,2.91-4.96.14-5.94.59,3.69-2.94,6.68-4.08,2.62,1.81-1.87.34-6.68,1.13-7.84.19-.27,4.89-1.6,6.21-2.27,13.05-6.58,26.01-13.37,39.23-19.61,3.06-.69,4.63,3.14,7.51,2.7,3.79-.58,10.96-8.06,17.08-7.79,5.58.24,12.83,7.27,16.25,7.79,2.72.41,4.12-2.8,6.74-2.8,1.88,0,8.21,3.84,10.47,4.92Z"/>
  <path class="st3" d="M121.11,86.47c.49-.17,1.75.27,1.96,0,.51-.67-.3-5.47.04-6.96.5-.68,6.59,5.24,6.7,6.47.2,2.2-6.24,4.58-1.47,9.21,1.83,1.78,9.1,6.76,11.69,7.73,3.89,1.46,8.72.98,11.93,4.98-2.13,3.39-8.35,2.54-5.45,7.47,1.95,3.32,20.46,8.34,24.4,11.96.87.28.86.62,0,1,1.1,4.62-6.89,7.3-10.63,3.93-2.97,5.83-5.49,5.58-10.21,1.67-2.88,5.68-.43,9.47,7.34,11.35l4.04,6.21c4.95,1.72,7.52,4.31,7.73,7.75,6.77.67,2.23,9.85-1.14,7.48l-1.11,1.46c-5.63-.81-11.28-2.56-16.93-5.26.41,6.35.43,8.4-6.38,9.66-.51.09-7.46-2.53-5.58-4.4-2.33,2.22-5.56.11-4.98-2.99-3.65-2.48-2.22-10.38-.26-14.15,5.89-4.96,5.22-6.74-.15-12.11-13.57-6.98-18.15-17.13-7.99-29.83-1.95-2.15-16.4-11.63-17.51-10.52,1.1,3.94-1.68,9.77-3.97,4.85,1.94-2.39.13-7.01,1.45-9.01.51-.76,14.38-7.2,16.48-7.93Z"/>
  <path class="st5" d="M278.52,94.44l-.77,2.23c-7.63,4.67-15.63,9-23.98,12.99l-4.14-.28c-3.84-.47-7.68-2.03-11.5-4.68-3.86,2.84-7.66,4.07-11.41,3.68.39,3.54-8.68,8.16-10.96,4.98-.56-3.67-.77-1.32-4.46-1.99-3.9-.71-1.71-3.15-1.52-5.98l1.27-2.77,11.33-5.79c-10.51-2.08-10.56-9.72.35-10.37.92-.5,1.58-1.17,1.99-1.99,2.4.27,11.03-2.88,6.53-6.04-2.05-1.44-4.43-.65-6.59-1.38s-4.49-4.74-6.79-3.4c-.23.14-1.47,4.62-4.09,2.84-.15-.1-.92-3-.89-3.49.36-7.2,8.87-6.78,12.83-11.45,11.52,5.5,22.74,11.7,34.44,16.87,2.46,1.89.48,5.59,2.41,7.56,2.31,2.35,13.88,6.08,15.96,8.45Z"/>
  <path class="st46" d="M103.18,103.4c.5-.17,1.75.27,1.96-.01.54-.71-.32-6.33.04-7.96,1.16-1.18,21.37,10.8,21.84,13.59.24,1.4-3.96,4.77-4.66,7.09-1.26,4.21-2.16,11.72,1.82,14.61s8.88,4.82,12.4,9.52c6.88,9.21-2.03,7.9-3.27,14.69-.62,3.38-.08,6.84-.24,10.23-2.44,2.38-4.91,1.02-5.98-1.99-.58.67-.91.33-1-1-4.18.14-7.57-1.55-9.96-4.98-3.13,1.89-10.24-1.33-10.96-4.98-.46.44-.79.11-1-1-3.08-1.63-5.55-1.45-6.03-5.42-1.44-11.89,1.19-26.68.05-38.91.32-2.83,2.9-2.8,4.98-3.49Z"/>
  <path class="st13" d="M272.54,205.02c.89.18.85.52,0,1-.24,2.54-2.89,3.05-4.98,1.99-9.59,4.54-3.88,6.88-7.41,10.03-11.74,4.63-22.43,11.66-33.76,17.05-2.69,1.28-10.47,5.13-12.65,4.41-4.08-1.35-3.72-4.11-9.94-.6-.95-3.9-.75-9.01,0-12.95.34-2.61,5.88-6.08,7.97-3.99,2.2-1.82,1.86-4.29,1.09-8.03.14-.97,1.76-8.58,2.02-8.96.34-.49,9.95-5.23,10.83-2.93,3.43.24,7.04-.82,10.82-3.18l2.13,1.19.24-2.32,8.85-4.14c-.25-1.82-.15-2.82,1.87-3.51.55-3.14,5.38-6.4,7.97-3.99,1.75,3,2.47,6.38,2.18,10.16,6.34-1.32,8.56-5.59,6.66-12.82.16-3.62,2.52-8.2,6.11-5.31.31,8.96.31,17.92,0,26.9Z"/>
  <path class="st28" d="M285.5,133.29l-1,1.99c-1.56,2.91-8.5,6-11.96,5.98.08,3.02-2.49,3.46-3.99,1-1.11,6.09-8.36,7.13-7.18.55l-.79-10.52c-.65,3.2-8.56,7.41-10.96,4.98-3.48-1.05-2.76-11.62,0-13.95-3.02-1.15-2.4-12.05,0-13.95,5.47-2.57,11.17-5.01,16.47-7.94,4.13-2.28,6.93-5.95,12.42-7.01,2.18,2.48.05,5.64,1.47,7.99.77,1.28,3.5,1.46,4.52,2.45,1.81,1.76.95,23.84.98,28.41Z"/>
  <path class="st9" d="M157.97,175.14c3.18,2.68,4.1,7.09,2.76,13.25,3.35,1.28,6.08,2.84,8.19,4.68,2.89,5.04,3.04,13.02,0,17.93-2.45,3.42-11.32-1.23-11.96-4.98,4.81,9.88,2.65,18.35-8.96,12.95.84,4.79.18,8.11-2,9.97-3.98-1.99-7.98-3.97-11.96-5.98-5.21-8.72-1.86-21.06,9.88-11.48-1.09-11.45,3.09-13.89,12.68-7.67l.35,2.21-1.84-1.92c1.64-7.25,1.45-13.76-7.2-14.19-.53,10.58-4.49,13.39-11.88,8.42.87,11.15-.97,13.88-11.64,7.76-.79,2.66-1.2,5.56-1.21,8.71l-2.1,1.19c-3.32-1.69-21.2-8.66-21.92-10.96-.16-2.08-.46-13.86.35-14.58,2.48.98,4.95,1.84,7.41,2.6-.59-5.97.47-8.95,3.2-8.94.97-.3,1.77-.09,2.38.69l1.06,11.4,6.32,3.36c-.72-7.63,1.08-10.65,7.43-14.33.52-.3,1.45.93,1.74,1.88.95-.6,2.05-.53,3.31.2.45-7.6,2.67-10.33,6.65-8.17,1.13-.86,2.54-1.12,4.21-.79,0-5.77,2.29-9.12,7.77-8.41,1.82.23,7.96,2.83,6.95,5.22Z"/>
  <path class="st47" d="M168.93,193.07c-3.37-1.18-2.03-11.59.08-12.99,2.38-1.59,19.32,5.85,11.88,9.01l1.78,2.6c-1.43,12.93-1.69,25.96-.76,39.1l-2.01,2.13c1.96,4.29,1.96,8.67,0,12.95-3.85-1.88-7.62-4.33-10.96-5.98-2.97-2.27-3.27-12.15,0-13.95-1.96-4.96-1.97-9.99,0-14.94.03-5.95-.2-11.99,0-17.93Z"/>
  <path class="st6" d="M271.55,210.01c-1.4-1.73-1.29-3.13,1-3.99,0-.33,0-.66,0-1l.55-37.4c1.2-4.26,5.42-6.92,9.68-7.46l-.3-23.45,2.02-1.43c.05-.84.04-1.73,1-1.99.14,23.4-.1,46.83,0,70.24-.4,2.13-10.17,7.65-12.4,7.47-.88-.07-1.32-.94-1.55-1Z"/>
  <path class="st22" d="M156.98,206.02c-11.06-5.1-11.38-7.19-10.96,7.97-4.64.05-6.73-5.33-11.95-3.98v12.96c-4.35-2.2-8.88-4.91-12.95-6.97l1-11.96c4.56-.69,7.66,3.39,11.95,3.98v-11.95c2.6-.87,7.99,3.27,9.44,2.99,3.58-.7-2.58-16.42,10.42-9.39,6.28,3.4,3.31,10.88,3.06,16.37Z"/>
  <path class="st29" d="M203.8,239.89c.59,7.41-3.49,8.47-9.96,10.96-5.87,3.04-5.4-11.48-1.99-12.95-2.98-9.73-2.9-20.15,0-29.89.24-3.64,9.9-4.19,11.46-1.48-.09,11.19.07,22.31.5,33.36Z"/>
  <path class="st22" d="M100.19,162.18c1.56,1.06,1.87,3.25.93,6.57-.79,7.45-.68,8.6,6.71,10.1-.41-7.73,1.76-11.27,6.5-10.62,2.46-2.17,8.7-.84,10.6,1.58,1.59,2.02,2.66,14.96-1.82,15.28.48,2.12-2.15,2.33-3.99,1.99l-1.85,1.26c-2.45-1.38-4.83-2.8-7.12-4.24-2.95,3.24,2.1,12.36-5.26,10.8-2.29-.48-3.32-2.98-5.69-2.82.64,3.41-.89,10.1,0,12.95l-1.04-42.22c.21-1.22,1.62-.41,2.04-.62Z"/>
  <path class="st18" d="M105.17,152.22l1.92,1.74c-.79,6.62.15,7.88,5.95,10.62-.62-4.6.41-7.06,3.09-7.37,3.3,1.7,6.63,3.35,9.96,4.98,1.72,7.49,2.19,15.02,1.4,22.58l-1.4.34c-1.24.9-2.56,1.8-2.99,0,2.48-2.53,2.73-9.14,1.8-12.26-1.23-4.11-11.68-4.98-13.87-2.08-1.76,2.33.33,9.63-2.45,10.3-.47.11-8.95-2.68-9.27-3.05-.52-.6-.49-13.84.88-15.83,5.93-2.88,3.75-4.95,3.99-10.96.63.33.89.94,1,1Z"/>
  <path class="st21" d="M168.93,211c-.02,4.97,0,9.97,0,14.94-2.13,1.86-5.45.97-9.96-2.69l-.9,9.47-2.09,1.19c-3.32-1.64-6.65-3.32-9.96-4.98v-12.95c4.11-.21,6.81,3.79,10.95,2.99.15-4.3-.19-8.66,0-12.95,3.95,1.82,7.68,4.43,11.96,4.98Z"/>
  <path class="st17" d="M204.8,199.05c3.19,7.35,2.17,19.48-1,26.9v13.95c-.02-.19-.99-1.1-1.04-2.41-.16-4.56.95-28.74-.89-30.03-2.27-1.59-7.32.39-10.03.56-3.2-.95-3.06-11.72,0-12.95-1.69-1.46-1.69-2.12,0-1.99,1.2-2.16,4.05-3.3,8.56-3.42.33-2.77,1.47-3.95,3.4-3.56,2.63,3.22,2.97,9.44,1,12.95Z"/>
  <path class="st42" d="M191.84,237.9c.02,2.15-.39,12.44,0,12.96.12.16,1.43-.1,1.99,0-.93.36-.91,1.5-3.21.83-2.02-.59-8.02-4.49-10.74-5.81,0-4.31,0-8.65,0-12.95,1.11-5.74,10.81,1.58,11.96,4.98Z"/>
  <path class="st16" d="M168.93,225.95v13.95c-4.23-2.09-8.67-3.86-12.95-5.98l1-12.95c4.57-.24,7.34,4.53,11.95,4.98Z"/>
  <path class="st38" d="M272.54,206.02c-.03,1.31.5,3.29-1,3.99-1.53-.39-3.08-.4-3.99-1.99,1.62-.77,3.11-1.83,4.98-1.99Z"/>
  <path class="st43" d="M226.71,134.29c3.15.23,2.51,13.24,1.61,15.11-.56,1.18-1.2,2-2.42,2.56-8.46,1.63-11.34,5.54-8.66,11.73,10.43-7.02,11.78,2.16,7.48,12.43l-1.01,2.19c-3.11,1.19-6.09,2.45-8.95,3.78-.28.87-.62.86-1,0-.57,2.64-7.04,5-8.97,2.99-2.15-.72-3.06-3.12-2.72-7.18-4.47,3.31-7.88,4.04-10.23,2.2-1.68,2.34-2.56,1.82-1.99-1l-1.86-1.72c1.16-7.74,1.47-15.48.91-23.19-7.29-8.78-6.72-15.75,5.63-17.66l4.28-2.27c-.46-1.76,11.04-8.19,11.75-8.01.8.21,1.55.49,2.19,1.03,1.6-.81,4.12-1.05,6.3-2.17,1.53-.79,6-2.64,5.66-4.8,5.46-.88,5.75,11.69,1.99,13.95Z"/>
  <path class="st23" d="M199.82,76.5c1.65.66,1.6,2.34-.15,5.05,3.84.92,5.88,2.55,6.13,4.92l-1.29,1.85c-8.85.66-8.46,3.23,1.2,7.7l.09,2.41c.46,3.47-7.03,5.31-9.96,5.98-1.32-.66-2.85-1.88-4.33-1.76-1,.08-2.58,1.24-3.64,1.76-1.45.79-3.04.4-4.77-1.2-5.05-1.6-15.14-6.56-14.83-12.78,4.42-3.74,9.68-6.61,15.78-8.59-1.2-.87-1.92-1.99-2.15-3.33-.87-.28-.86-.62,0-1,3.3.19,9.76,1.81,10.29,1.76,1.92-.16,4.96-2.86,7.64-2.76Z"/>
  <path class="st48" d="M237.67,115.36l1.99,1.08.16,9.6,7.81-3.88,1.99,1.17v13.95c-.37,1.84-1.86,3.55-4.47,5.1.53,17-15.65,13.4-8.38-1.96l-.13-8.05-8.46,3.71-1.47-1.79c-.04-4.21,1.42-11.55-1.99-13.95v-1c2.02-1.22,10.09-5.45,12.09-4.74.34.12.61.41.87.75Z"/>
  <path class="st8" d="M201.81,77.5c7.12.41,15.6,5.05,20.92,8.97-1.17.64-4.07,2.72-5.7,3.74-4.89,3.09,8.41,3.92,9.67,7.2-5.92,2.03-11.2,5.51-16.93,7.98-1.87.81-4.69,2.91-6.48,2.92-2.68,0-5.3-2.83-7.47-3.91,1.99-3.52,6.19-4.05,9.96-5.98v-2.18c6.55-2.24,7.11-5.05.17-7.39l-.17-2.38-8.97-4,2.99-5.96c.5.02,1.38.78,1.99,1Z"/>
  <path class="st19" d="M212.77,127.31c-5.08,2.57-7.82,5.05-13.95,6.97-5.2,4.06-9.71,4.51-13.54,1.33-4.77-.36-13.35-2.44-14.36-7.31v-1c3.07-.76,6.62-4.75,9.52-4.96,4.22-.3,6.97,3.88,10.93,4.04,6.36.26,14.13-7.72,21.4.92Z"/>
  <path class="st25" d="M181.88,78.5c1.34.11,6.44,2.04,4.51,4.01-2.15,2.2-8.7,3.98-11.54,5.4-1.2.6-5.29,2.5-4.95,4.04.16.73,1.28.38,1.59.87.78,1.21.7,2.32,2,3.51,3.22,2.97,11.28,4.04,14.36,8.07-1.7.85-3.84,3.05-5.99,3.57-3.95.96-16.66-7.23-20.91-9.55l-.02-1.33c3.34-.95,5.67-2.49,7-4.65-.97-3.36-3.66-3.12-6.97-4.98-.16-.47-.26-.93-.18-1.35.22-1.14,18.18-10.93,21.1-7.61Z"/>
  <path class="st4" d="M237.67,114.36c.85.33.85.66,0,1-4.52,1.71-8.15,5.56-12.95,3.99-1-.33-8.5-3.79-8.8-4.17-.44-.56-.08-1.26-.16-1.8,4.12-.69,7.4-3.18,10.96-4.98,3.55-1.07,11.09,2.14,10.96,5.98Z"/>
  <path class="st45" d="M216.75,80.49c1.5-1.71,3.1-1.42,2.99,1,1.54.7,2.07,2.67,4.98,2.99l.99.51v1.48c-.83.2-2.5-.26-2.98,0-7.7-.51-13.9-6.45-20.92-8.97,6.95-2.16,9.22.39,14.94,2.99Z"/>
  <path class="st20" d="M181.88,77.5v1c-4.1-.34-16.32,7.25-20.92,8.97-1.63-.92-3.63-.42-2.99-2.98,5.24-.47,12.1-7.08,16.69-7.82,2.08-.34,4.79.69,7.22.83Z"/>
  <path class="st30" d="M167.93,92.44c.23.81,1,2.48.58,3.03-.47.62-6.43,2.89-7.55,2.94-.63.03-4.25-.6-3.98-1.98l10.95-4Z"/>
  <path class="st5" d="M219.74,81.48c-.81-.37-1.94-.52-2.99-1,1.74-3.49,4.07-3.84,3.93.44l-.94.55Z"/>
  <path class="st32" d="M198.82,134.29c-2.62,4.21-12.02,4.52-12.79,9.69-.6,4.05,4.24,6.83,4.8,9.76,1.33,6.94-.47,18.18-.98,25.39l-2.37,1.38c-2.95-.19-15.27-5.91-15.57-9.35-3.04,1.07-5.02.64-4.98-2.99-2.36-3.05,1.08-1.22,2.88-3.59.72-.95,1.23-2.14,1.1-3.38-5.13.67-3.17-3.45-4.19-4.79-.23-.31-4.89-1.75-6.81-3.65s-2.56-4.81-3.89-6.08c-2.52-2.4-9.07-1.69-9.08-6.85,0-2.31,1.09-5.94,1.05-8.52,2.07-.66,7.03,3.9,7.47,3.89,1.23,0,2.63-4.37,4.13-4.82,2.11-.63,3.96,2.02,5.64,1.72,1.22-.22,5.2-3.73,5.66-3.79.77-.1,7.12,3.87,8.94,4.51s4.04.35,6.05.93c1.5.43,2.6,2.28,4.51,2.55,2.17.3,6.1-1.28,8.4-2Z"/>
  <path class="st10" d="M166.94,168.16c1.65.81,3.56,2.3,4.98,2.99,1.35,11.16-8.34,11.61-13.95,3.99-9.94-3.88-12.27-8.46-12.96,6.97-1.83-1.16-4.22-1.76-5.97-2.99-6.48,1.12-7.69-12.14-1-10.96,2.17.98,4.57,1.45,6.5,2.97l.47-1.97,2.99.99.02-10.96c6.47,2.64,12.67,5.89,18.92,8.97Z"/>
  <path class="st33" d="M133.06,165.17c1.36.64,2.69,1.96,4.98,2.99-3.83,2.53-2.8,8.29,1,10.96-5.21-.23-3.94,8.86-4.93,9.5-3.29,2.11-4.4-1.26-5.03-1.53-1.11-.1-2.06-.61-2-1.56.58-8.1.73-14.44,0-22.35,1.62.8,4.32,1.21,5.98,1.99Z"/>
  <path class="st1" d="M249.63,109.38c-.19,3.49-9.26,7.02-11.96,4.98l-10.96-5.98c2-1.01,10.38-5.61,11.46-5.61,1.29,0,11.1,5.41,11.46,6.61Z"/>
  <path class="st33" d="M127.09,163.18c.64,4.08,1.82,9.47,1.99,13.47.17,3.79-1.48,7.15,0,10.44-1.67-.72-5.66,2.75-6.46,4.01-1.34,2.1-.14,6.8-.51,9.46-.17,1.22.48,1.88-1.51,1.49-.69-.13-8.27-4.26-8.53-4.67-2.01-3.13.02-9.59-1.91-13.28,2.13-2.34,6.93,2.07,8.97,2.99,2.45-.08,4.78-.75,6.97-1.99,2.78-4.35-1.11-17.43,0-22.91.36.18.66.83,1,1Z"/>
  <path class="st7" d="M116.13,157.2c-1.74,2.62-.66,5.76-.99,8.49-.14,1.11.35,2.04-1.48,1.46-.76-.24-7.76-4.47-8.01-4.95-1.28-2.55-.11-7.08-.48-9.98,3.14,1.63,7.44,3.17,10.96,4.98Z"/>
  <path class="st26" d="M226.71,134.29c3.41-.28,6.3-2.72,9.46-4.01.88-.36.71-1.7,2.01.01.78,1.48.81,8.61.53,10.53-.24,1.68-4.17,9.65-.45,10.47,6.42,1.41,3.42-6.13,5.11-9.79,1.07-2.31,4.1-3.1,6.24-4.22,1.5-.78,10.36-5,10.96-4.98.44,4.52.83,8.9,1.18,13.14-.48,1.17-13.36,7.88-15.13,5.79-.94,8.81-1.08,17.67-.43,26.59,2.28-.32,2.34,1.54,1.43,3.3,1.73,2.38.22,3.48-2.21,4.3-7.1.23-6.35,7.36-5.37,12.61l-1.39,2.02c-3.84,1.95-8.18,3.08-11.46,5.97-.15-1.15-1.36-3-1.49-3.98-4.19-1.88-2.38-10.56.43-13.87,4.55-1.96,6.02-11.7-.24-10.13l-1.19-1.91c.05-4.64-.03-9.31,0-13.94l-9.95,4.98c.56-3.53-.8-9.16-.06-12.3.23-.98,10.41-3.96,11.54-5.6,1.02-1.49.49-12.12.47-14.98Z"/>
  <path class="st11" d="M272.54,141.26c3.53,7.64,3.08,18.36.8,26.29l-.8,10.58c-8.15,1.99-.88,13.19-5.58,16.83-.83.64-8.97,4.51-9.36,4.08-.04-4.3.04-8.64,0-12.95-2.51-4.38-2.49-8.56,0-12.95-.89-.18-.85-.52,0-1,1.14-2.82,4.09-4.61,8.84-5.39-.31-4.65.06-8.83,1.12-12.54-1.55-4.41-1.22-8.39,1-11.96,1.14-.48,3-.48,3.99-1Z"/>
  <path class="st12" d="M284.5,135.28c-.23,3.98.91,25.91-.04,26.86-.17.17-3.23.1-4.68.79-2.01.96-4.08,3.72-6.26,4.94l-.98,37.16c.11-8.95-.04-17.95,0-26.9.06-12.41.59-24.57,0-36.86.26-.14.72-1.38,1.62-1.83,3.28-1.62,6.66-3.97,10.33-4.15Z"/>
  <path class="st41" d="M224.72,176.13c2.18-.27,4.73.19,6.98,0-.31,2.88.59,6.56-.21,9.27-.68,2.31-4.89,4.08-5.57,6.39-.55,1.88-.49,8.11-.2,10.26-1.44,1.34-10.36,4.61-10.8,5.12-.95,1.09.57,10.46-.3,13.19-.58,1.84-2.17,1.21-2.85,1.61-2.88-4.09-3.91-8.93.05-12.94v-12.28s1.94-1.69,1.94-1.69c-1.96-4.29-1.96-8.67,0-12.95h1c1.83,1.84,2.57,4.81,2.22,8.91,5.53-1.55,7.45-5.98,5.78-13.29l1.96-1.6Z"/>
  <path class="st36" d="M213.76,195.06c0,4.01.68,10.97-.01,14.43-.44,2.22-2.57,3-2.79,4.13-.31,1.58,2.5,5.67.81,8.34-2.53,1.5-4.98,3.44-7.97,3.99,0-8.91.99-18.28,1-26.9-.78-3.06,7.04-6.38,8.97-3.99Z"/>
  <path class="st14" d="M247.64,181.11c3.32-6.1,6.73,6.19,1.99,8.97-.05,1.29.38,4.09-.13,4.84-.33.5-9,4.19-10.83,5.12-1.65-3.65-1.94-12.54,1.44-15,2.25-1.64,6.13-.64,7.53-3.93Z"/>
  <path class="st34" d="M246.64,164.18c1.18,3.52,2.15,7.16,1.91,10.89,3.7-2.57,6.71-3.21,9.05-1.93,0,4.31-.05,8.65,0,12.95l-7.97,3.99c.08-2.16.44-6.71.05-8.39-.28-1.2-1.79-.37-2.05-.58-1.71-1.4-1.79-2.39-2.01-4.47-.58-5.36-.61-17.69-.04-23.03.15-1.42.05-1.41,1.05-2.39,3.23,1.01,3.01,11.26,0,12.95Z"/>
  <path class="st37" d="M245.64,206.02l-.96,5.5-19.95,9.43c-.02-1.95-.51-3.81.98-5.49.73-.83,19.2-10.27,19.93-9.45Z"/>
  <path class="st31" d="M260.59,132.3c2.12.05-.78,14.38,4.48,12.95.39-.1.8-1.86,3.49-2.99-.55,3.15.55,6.6.52,9.52,0,.86-1.51,1.97-1.52,2.44-.51,2.98-7.39,6.98-9.96,4.98-.79,3.82-7.66,7.41-10.96,4.98v-12.95c1.92-1.88,12.74-5.46,13.74-7.18,1.08-1.85-.32-9.03.21-11.75Z"/>
  <path class="st24" d="M249.63,109.38c.67,2.24,0,10.73,0,13.95-1.82,1.02-10.81,6.16-11.95,4.98v-12.95c.08-.33-.14-.86,0-1,.44-.47,10.07-4.09,11.96-4.98Z"/>
  <path class="st42" d="M171.92,171.15c5.51,2.67,12.18,6.47,17.93,7.97.37.1.95,1,1.99,1,3.2.95,3.06,11.72,0,12.95v1.99c-2.52,2.41-11.2-2.04-10.96-5.98-.21-.52.43-1.96-.17-2.78-.51-.7-9.17-4.22-10.78-5.19-1.16,4.07-.87,7.85-1.01,11.96-1.37,1.33-9.52-2.71-9.8-3.15-1.37-2.19,1.32-11.55-1.16-14.79,2.81,1.1,7.72,3.75,10.32,2.88,3.57-1.2-.62-7.43,3.63-6.87Z"/>
  <path class="st0" d="M191.84,195.06v12.95c0,9.95-.11,19.94,0,29.89-4.13-.16-7.98-7.13-11.96-4.98,0-6.8.58-13.77-1-20.42l1.99-23.41c.74,1.79,8.94,4.48,10.96,5.98Z"/>
  <path class="st9" d="M126.09,185.1c-1.83,2.86-4.06,3.31-6.97,1.99,1.65.11,2.88-1.62,3.99-1.99.71-.24,2.1.16,2.99,0Z"/>
  <path class="st49" d="M191.84,180.12c4.46,0,7.61-4.58,11.95-4.98l1,9.96c1.37,1.34.77,1.89-1,1-1.62,2.21-.67,4.51-1.06,4.93s-9.38,2.19-10.9,2.05v-12.95Z"/>
  <path class="st35" d="M213.76,182.11c0,4.31,0,8.64,0,12.95l-8.97,3.99c0-.13-1.01-1.14-1.03-2.42-.05-3.51.09-7.03.03-10.53.16-.22.82-.89,1-1,1.61-.95,7.63-3.52,8.97-2.99Z"/>
  <path class="st15" d="M224.72,176.13c-.04,3.74,1.12,11.76-1.6,13.85-.58.45-8.05,4.43-8.36,4.08.37-3.76-.54-8.34,0-11.95s6.73-5.57,9.96-5.98Z"/>
  <path class="st27" d="M205.79,86.47c2.15,1.5,11.97,4.58,5.97,6.48,5.3,1.06-4.74,4.85-5.97,5.48l-11.94-7.47c3.56-2.7,7.22-5.33,11.94-4.48Z"/>
  <path class="st2" d="M267.56,154.21c0,.13,1.05,1.06,1.03,2.42-.04,1.94.29,10.92-.15,11.42-.38.44-9.26,3.15-10.84,4.1-3.37-1.21-2.81-10.83,0-12.95,3.32-1.7,6.4-4.01,9.96-4.98Z"/>
  <path class="st40" d="M257.6,172.15c0,.33,0,.66,0,1l-10.95,4.98c-.02-4.64,0-9.31,0-13.95,3.88-1.19,7.38-3.15,10.96-4.98v12.95Z"/>
</svg>