<?xml version="1.0" encoding="UTF-8"?>
<svg id="Layer_1" xmlns="http://www.w3.org/2000/svg" version="1.1" viewBox="0 0 400 300">
  <!-- Generator: Adobe Illustrator 29.5.0, SVG Export Plug-In . SVG Version: 2.1.0 Build 137)  -->
  <defs>
    <style>
      .st0 {
        fill: #7b7e7c;
      }

      .st1 {
        fill: #3faab0;
      }

      .st2 {
        fill: #737876;
      }

      .st3 {
        fill: #211d1d;
      }

      .st4 {
        fill: #338f8c;
      }

      .st5 {
        fill: #282222;
      }

      .st6 {
        fill: #636464;
      }

      .st7 {
        fill: #717571;
      }

      .st8 {
        fill: #cfd3d2;
      }

      .st9 {
        fill: #7a7e7b;
      }

      .st10 {
        fill: #626561;
      }

      .st11 {
        fill: #214241;
      }

      .st12 {
        fill: #525654;
      }

      .st13 {
        fill: #0c1918;
      }

      .st14 {
        fill: #29504f;
      }

      .st15 {
        fill: #020302;
      }

      .st16 {
        fill: #7b7f7c;
      }

      .st17 {
        fill: #5a5d5c;
      }

      .st18 {
        fill: #7b7f7d;
      }

      .st19 {
        fill: #23201f;
      }

      .st20 {
        fill: #bbbdbc;
      }

      .st21 {
        fill: #6f7470;
      }

      .st22 {
        fill: #848887;
      }

      .st23 {
        fill: #e0e3e4;
      }

      .st24 {
        fill: #426467;
      }

      .st25 {
        fill: #cdd0d0;
      }

      .st26 {
        fill: #224746;
      }

      .st27 {
        fill: #eff1f2;
      }

      .st28 {
        fill: #141111;
      }

      .st29 {
        fill: #626563;
      }

      .st30 {
        fill: #dddfde;
      }

      .st31 {
        fill: #0a1514;
      }

      .st32 {
        fill: #1b1817;
      }

      .st33 {
        fill: #707571;
      }

      .st34 {
        fill: #183633;
      }

      .st35 {
        fill: #757a79;
      }

      .st36 {
        fill: #224342;
      }

      .st37 {
        fill: #314740;
      }

      .st38 {
        fill: #494f4f;
      }

      .st39 {
        fill: #010302;
      }

      .st40 {
        fill: #1c3835;
      }

      .st41 {
        fill: #6e736f;
      }

      .st42 {
        fill: #131010;
      }

      .st43 {
        fill: #2e2a2a;
      }

      .st44 {
        fill: #babbba;
      }

      .st45 {
        fill: #191616;
      }

      .st46 {
        fill: #898d8b;
      }

      .st47 {
        fill: #1d5155;
      }

      .st48 {
        fill: #4f5350;
      }
    </style>
  </defs>
  <path class="st43" d="M163.34,57.13l.02,2.86c7.54,2.52,11.32,5.94,11.34,10.25-3.2-5.33-7.14-2.16-10.71.82-6.02.2-13.64,2.67-7.97,8.99,1.64,1.83,7.67,3.9,8.39.67,2.32,1.89,6.71.12,5.37-3.08,0-1.39,1.07-1.73,3.22-1.03l2.05,1.35c4.39-2.32,8.96-4.32,14.05-4.42,1.87,2.11,2.41,1.66,2.15-1.03,6.3,7.28,11.94,4.72,19.32,1.03,7.36.56,16.2,4.22,22.35,8.24.6.39.49,1.23.19,2.02-3.9-1.06-10.7.61-7.51,5.13.51,2.24,3.09,3.75,7.75,4.51l-.24,1.65c-5.04.39-9.96,2.23-14.78,5.53-4.49,2.95-8.37,2.86-11.63-.27l-2.57.89c1.53-4.97-9.56-5.28-8.59,0-1.83-.98-4.53-.31-8.1,2-2.91-1.89-5.22-2.21-6.93-.97-1.96.27-2.4,1.61-1.32,4.01-3.59.05-9.39.5-5.12,4.19-5.24,1.07-8.46,3.12-9.66,6.15-.94.29-.92.63,0,1.03-3.24,4.87,9.43,10,12.88,7.18,2.64-.28,5.58-.97,8.79-2.09,10.68,3.36,15.8,4.24,25.91-.98,4.02,2.94,7.48,3.96,10.37,3.07.34.36.69.68,1.11.88,1.26.61,24.31-9.4,25.75-10.81,4.71-4.6,1.74-7.79-3.19-10.22,7.67-2.17,28.06-8.57,25.75-18.49-3.09-3.06-3.14-5.1-.15-6.11-.63,3.8,3.17,6.87,4.39,2.7-1.95-1.93-.36-6.87-1.21-8.07-.2-.28-5.26-1.65-6.68-2.33-14.06-6.78-28.01-13.76-42.26-20.19-3.3-.71-4.99,3.23-8.09,2.78-4.09-.6-11.8-8.29-18.4-8.02-6.01.25-13.82,7.48-17.51,8.02-2.93.42-4.44-2.88-7.26-2.88-2.02,0-8.84,3.95-11.28,5.06Z"/>
  <path class="st3" d="M276.03,82.77c-.53-.17-1.88.28-2.11-.01-.55-.69.32-5.63-.04-7.17-.54-.7-7.1,5.4-7.22,6.66-.22,2.27,6.73,4.72,1.58,9.48-1.98,1.83-9.8,6.96-12.6,7.96-4.19,1.5-9.4,1.01-12.85,5.13,2.3,3.49,8.99,2.61,5.87,7.69-2.1,3.41-22.04,8.59-26.28,12.32-.94.29-.92.63,0,1.03-1.19,4.76,7.42,7.51,11.45,4.05,3.2,6.01,5.91,5.74,11,1.72,3.1,5.85.46,9.75-7.91,11.68l-4.35,6.39c-5.33,1.77-8.1,4.43-8.32,7.98-7.3.69-2.4,10.14,1.23,7.7l1.2,1.5c6.07-.83,12.15-2.64,18.24-5.41-.45,6.54-.46,8.64,6.87,9.94.55.1,8.03-2.6,6.01-4.53,2.51,2.28,5.99.12,5.37-3.08,3.93-2.55,2.39-10.68.28-14.57-6.35-5.11-5.62-6.94.16-12.47,14.62-7.19,19.55-17.64,8.61-30.71,2.1-2.22,17.66-11.97,18.87-10.83-1.18,4.06,1.81,10.06,4.28,4.99-2.09-2.46-.14-7.22-1.56-9.28-.54-.78-15.49-7.42-17.76-8.16Z"/>
  <path class="st5" d="M106.45,90.98l.83,2.29c8.22,4.81,16.83,9.27,25.83,13.37l4.46-.28c4.14-.49,8.27-2.09,12.39-4.81,4.16,2.93,8.26,4.19,12.3,3.79-.42,3.64,9.35,8.4,11.81,5.13.6-3.78.83-1.36,4.81-2.05,4.2-.73,1.84-3.24,1.63-6.15l-1.37-2.85-12.2-5.96c11.32-2.14,11.38-10.01-.38-10.67-.99-.52-1.7-1.2-2.15-2.05-2.59.27-11.89-2.97-7.04-6.21,2.21-1.48,4.77-.67,7.1-1.42s4.83-4.88,7.32-3.5c.25.14,1.58,4.76,4.41,2.92.16-.1.99-3.09.96-3.6-.39-7.41-9.56-6.98-13.83-11.79-12.41,5.66-24.5,12.04-37.1,17.37-2.65,1.94-.51,5.76-2.59,7.78-2.49,2.42-14.95,6.26-17.19,8.7Z"/>
  <path class="st45" d="M295.34,100.21c-.54-.17-1.88.28-2.11-.01-.59-.74.35-6.51-.04-8.19-1.25-1.21-23.02,11.11-23.53,13.99-.26,1.44,4.27,4.91,5.01,7.3,1.36,4.34,2.33,12.06-1.96,15.05s-9.57,4.96-13.35,9.8c-7.41,9.48,2.18,8.13,3.52,15.13.66,3.48.09,7.04.26,10.53,2.62,2.45,5.29,1.05,6.44-2.05.62.69.98.34,1.07-1.03,4.5.14,8.15-1.6,10.73-5.13,3.38,1.95,11.03-1.37,11.81-5.13.49.46.85.11,1.07-1.03,3.32-1.68,5.98-1.5,6.5-5.58,1.55-12.24-1.28-27.47-.06-40.06-.34-2.91-3.12-2.88-5.37-3.59Z"/>
  <path class="st13" d="M112.89,204.83c-.96.19-.92.54,0,1.03.25,2.61,3.11,3.14,5.37,2.05,10.33,4.68,4.18,7.09,7.98,10.32,12.64,4.77,24.17,12.01,36.37,17.55,2.9,1.32,11.28,5.28,13.63,4.54,4.4-1.39,4-4.23,10.71-.62,1.02-4.02.81-9.27,0-13.33-.37-2.68-6.34-6.25-8.59-4.1-2.37-1.87-2.01-4.42-1.18-8.27-.15-1-1.9-8.83-2.18-9.22-.37-.51-10.72-5.39-11.67-3.02-3.7.25-7.58-.84-11.66-3.27l-2.29,1.22-.26-2.39-9.54-4.26c.27-1.87.16-2.9-2.01-3.61-.59-3.23-5.79-6.59-8.59-4.1-1.88,3.08-2.66,6.57-2.35,10.46-6.83-1.36-9.22-5.76-7.18-13.2-.17-3.72-2.71-8.44-6.58-5.47-.33,9.22-.33,18.45,0,27.69Z"/>
  <path class="st28" d="M98.94,130.98l1.07,2.05c1.68,3,9.16,6.17,12.88,6.15-.09,3.11,2.69,3.57,4.29,1.03,1.2,6.27,9.01,7.35,7.74.57l.85-10.83c.7,3.3,9.22,7.63,11.81,5.13,3.74-1.08,2.97-11.96,0-14.36,3.26-1.19,2.59-12.41,0-14.36-5.9-2.65-12.03-5.16-17.74-8.17-4.45-2.35-7.46-6.13-13.38-7.21-2.35,2.56-.06,5.8-1.59,8.23-.83,1.32-3.77,1.5-4.87,2.52-1.95,1.81-1.02,24.54-1.05,29.25Z"/>
  <path class="st9" d="M236.32,174.06c-3.42,2.76-4.42,7.3-2.98,13.64-3.61,1.32-6.55,2.92-8.83,4.82-3.12,5.19-3.27,13.4,0,18.46,2.64,3.52,12.19-1.26,12.88-5.13-5.19,10.17-2.85,18.89,9.65,13.33-.91,4.93-.19,8.35,2.15,10.26,4.29-2.05,8.6-4.09,12.88-6.15,5.62-8.98,2-21.68-10.64-11.81,1.17-11.78-3.33-14.3-13.66-7.9l-.38,2.28,1.98-1.97c-1.76-7.46-1.56-14.16,7.76-14.61.57,10.9,4.83,13.79,12.8,8.67-.94,11.48,1.04,14.29,12.53,7.99.85,2.74,1.29,5.72,1.31,8.96l2.26,1.22c3.58-1.74,22.84-8.91,23.61-11.28.17-2.14.49-14.27-.38-15.01-2.67,1.01-5.33,1.9-7.98,2.67.64-6.14-.51-9.21-3.45-9.2-1.04-.31-1.9-.09-2.56.71l-1.14,11.73-6.81,3.46c.77-7.86-1.17-10.97-8.01-14.76-.56-.31-1.56.96-1.87,1.93-1.02-.61-2.21-.55-3.56.2-.49-7.83-2.88-10.63-7.17-8.41-1.22-.88-2.73-1.16-4.53-.82,0-5.94-2.46-9.39-8.37-8.66-1.96.24-8.58,2.92-7.48,5.37Z"/>
  <path class="st46" d="M224.51,192.52c3.63-1.22,2.19-11.93-.08-13.38-2.57-1.63-20.81,6.02-12.8,9.27l-1.92,2.68c1.54,13.31,1.82,26.73.82,40.26l2.17,2.19c-2.11,4.41-2.11,8.92,0,13.33,4.14-1.93,8.21-4.46,11.81-6.15,3.2-2.34,3.52-12.5,0-14.36,2.11-5.1,2.13-10.29,0-15.39-.03-6.13.21-12.34,0-18.46Z"/>
  <path class="st6" d="M113.97,209.95c1.51-1.79,1.39-3.23-1.07-4.1,0-.34,0-.68,0-1.03l-.6-38.51c-1.29-4.38-5.84-7.12-10.43-7.68l.32-24.14-2.18-1.47c-.05-.87-.04-1.78-1.07-2.05-.15,24.09.11,48.21,0,72.31.43,2.19,10.96,7.87,13.36,7.69.95-.07,1.42-.97,1.67-1.03Z"/>
  <path class="st22" d="M237.39,205.85c11.92-5.25,12.26-7.41,11.81,8.2,5,.05,7.25-5.49,12.87-4.1v13.34c4.69-2.26,9.57-5.05,13.95-7.18l-1.08-12.31c-4.91-.71-8.25,3.49-12.87,4.1v-12.3c-2.8-.9-8.61,3.36-10.17,3.07-3.86-.72,2.78-16.9-11.22-9.67-6.77,3.5-3.57,11.21-3.3,16.85Z"/>
  <path class="st29" d="M186.95,240.72c-.63,7.62,3.75,8.72,10.73,11.28,6.32,3.13,5.81-11.82,2.15-13.33,3.21-10.01,3.13-20.74,0-30.77-.26-3.75-10.66-4.31-12.34-1.53.1,11.52-.08,22.97-.53,34.35Z"/>
  <path class="st22" d="M298.56,160.72c-1.68,1.09-2.01,3.35-1,6.76.85,7.67.73,8.86-7.23,10.4.44-7.96-1.89-11.6-7-10.93-2.65-2.24-9.37-.86-11.42,1.63-1.71,2.08-2.87,15.4,1.96,15.73-.52,2.19,2.31,2.4,4.29,2.05l1.99,1.29c2.64-1.42,5.2-2.88,7.67-4.37,3.18,3.34-2.26,12.72,5.67,11.12,2.46-.5,3.57-3.07,6.13-2.9-.69,3.51.96,10.4,0,13.33l1.12-43.47c-.23-1.25-1.74-.43-2.2-.64Z"/>
  <path class="st18" d="M293.2,150.47l-2.06,1.79c.85,6.81-.16,8.11-6.41,10.93.67-4.74-.44-7.27-3.33-7.59-3.55,1.75-7.14,3.45-10.73,5.13-1.86,7.71-2.36,15.46-1.51,23.24l1.51.35c1.33.92,2.76,1.85,3.22,0-2.67-2.6-2.95-9.41-1.94-12.62,1.33-4.23,12.58-5.13,14.94-2.14,1.89,2.4-.36,9.91,2.64,10.61.51.12,9.64-2.76,9.99-3.14.57-.62.53-14.25-.94-16.29-6.38-2.96-4.04-5.1-4.29-11.28-.68.34-.96.97-1.07,1.03Z"/>
  <path class="st21" d="M224.51,210.98c.02,5.12,0,10.27,0,15.39,2.29,1.92,5.87.99,10.73-2.77l.97,9.75,2.25,1.23c3.57-1.69,7.17-3.42,10.73-5.13v-13.33c-4.42-.21-7.33,3.9-11.8,3.08-.16-4.42.2-8.92,0-13.34-4.26,1.88-8.27,4.56-12.88,5.13Z"/>
  <path class="st17" d="M185.87,198.67c-3.43,7.57-2.34,20.05,1.07,27.69v14.36c.02-.2,1.07-1.14,1.12-2.48.18-4.69-1.02-29.59.96-30.91,2.45-1.64,7.88.4,10.8.57,3.44-.98,3.3-12.07,0-13.33,1.82-1.5,1.82-2.19,0-2.05-1.29-2.22-4.36-3.4-9.22-3.52-.36-2.85-1.58-4.07-3.66-3.66-2.83,3.31-3.2,9.72-1.07,13.33Z"/>
  <path class="st41" d="M199.83,238.67c-.02,2.21.42,12.81,0,13.34-.13.17-1.54-.1-2.14,0,1.01.37.98,1.55,3.45.86,2.17-.6,8.64-4.62,11.57-5.99,0-4.43,0-8.9,0-13.33-1.19-5.91-11.65,1.63-12.88,5.13Z"/>
  <path class="st16" d="M224.51,226.37v14.36c4.56-2.15,9.34-3.97,13.95-6.15l-1.08-13.33c-4.92-.25-7.9,4.66-12.87,5.12Z"/>
  <path class="st38" d="M112.89,205.85c.04,1.35-.54,3.39,1.07,4.1,1.64-.4,3.32-.41,4.29-2.05-1.75-.79-3.35-1.89-5.37-2.05Z"/>
  <path class="st42" d="M162.26,132c-3.4.24-2.7,13.64-1.73,15.56.61,1.21,1.29,2.06,2.61,2.64,9.11,1.68,12.22,5.7,9.33,12.08-11.24-7.23-12.69,2.23-8.06,12.8l1.09,2.26c3.35,1.23,6.56,2.52,9.64,3.9.3.9.66.88,1.07,0,.61,2.71,7.58,5.14,9.66,3.08,2.32-.75,3.3-3.21,2.94-7.39,4.82,3.41,8.49,4.16,11.02,2.26,1.81,2.41,2.75,1.87,2.15-1.03l2.01-1.77c-1.25-7.97-1.58-15.93-.98-23.88,7.86-9.03,7.24-16.21-6.07-18.18l-4.62-2.33c.49-1.82-11.89-8.44-12.66-8.24-.86.22-1.67.51-2.36,1.06-1.73-.84-4.44-1.08-6.78-2.24-1.65-.81-6.47-2.72-6.1-4.94-5.89-.9-6.2,12.04-2.15,14.36Z"/>
  <path class="st23" d="M191.24,72.51c-1.78.67-1.72,2.41.16,5.2-4.14.94-6.34,2.63-6.6,5.06l1.38,1.9c9.54.68,9.11,3.33-1.29,7.93l-.09,2.48c-.5,3.58,7.57,5.46,10.73,6.15,1.42-.68,3.07-1.93,4.67-1.82,1.07.08,2.78,1.27,3.92,1.82,1.57.82,3.28.41,5.14-1.23,5.44-1.65,16.31-6.76,15.97-13.16-4.76-3.85-10.43-6.8-16.99-8.84,1.29-.9,2.07-2.04,2.32-3.43.94-.29.92-.63,0-1.03-3.56.2-10.51,1.86-11.09,1.82-2.07-.17-5.35-2.94-8.23-2.84Z"/>
  <path class="st47" d="M150.46,112.52l-2.15,1.11-.17,9.88-8.41-3.99-2.14,1.2v14.36c.4,1.9,2,3.65,4.82,5.26-.57,17.51,16.86,13.79,9.03-2.02l.14-8.29,9.12,3.82,1.58-1.85c.05-4.33-1.53-11.9,2.15-14.36v-1.03c-2.18-1.25-10.87-5.61-13.02-4.88-.36.12-.66.42-.93.77Z"/>
  <path class="st8" d="M189.09,73.54c-7.68.42-16.81,5.19-22.54,9.23,1.26.66,4.39,2.8,6.14,3.85,5.27,3.18-9.06,4.03-10.42,7.42,6.38,2.09,12.07,5.67,18.24,8.22,2.02.83,5.05,3,6.98,3,2.88,0,5.71-2.92,8.05-4.03-2.15-3.62-6.67-4.17-10.73-6.15v-2.25c-7.06-2.3-7.66-5.2-.19-7.6l.19-2.45,9.66-4.12-3.22-6.14c-.54.02-1.48.8-2.15,1.03Z"/>
  <path class="st19" d="M177.29,124.82c5.47,2.65,8.42,5.2,15.03,7.18,5.6,4.18,10.46,4.64,14.58,1.37,5.14-.37,14.38-2.51,15.47-7.53v-1.03c-3.31-.78-7.13-4.89-10.25-5.1-4.54-.31-7.51,3.99-11.77,4.16-6.86.27-15.23-7.95-23.05.95Z"/>
  <path class="st25" d="M210.56,74.57c-1.44.11-6.94,2.1-4.86,4.13,2.31,2.27,9.37,4.1,12.43,5.55,1.3.62,5.7,2.57,5.33,4.16-.18.75-1.38.39-1.72.89-.83,1.25-.75,2.38-2.15,3.62-3.47,3.06-12.15,4.16-15.47,8.31,1.83.87,4.13,3.13,6.45,3.67,4.25.99,17.95-7.44,22.53-9.83l.03-1.37c-3.6-.97-6.11-2.57-7.54-4.78,1.05-3.45,3.95-3.21,7.51-5.13.17-.48.28-.96.2-1.39-.24-1.18-19.59-11.25-22.73-7.84Z"/>
  <path class="st4" d="M150.46,111.49c-.92.34-.91.68,0,1.03,4.87,1.76,8.78,5.72,13.95,4.1,1.07-.34,9.16-3.9,9.48-4.3.47-.57.09-1.3.17-1.86-4.44-.71-7.97-3.28-11.81-5.13-3.82-1.1-11.95,2.2-11.81,6.15Z"/>
  <path class="st44" d="M173,76.62c-1.61-1.76-3.34-1.47-3.22,1.03-1.66.72-2.23,2.74-5.37,3.08l-1.06.52v1.52c.89.2,2.69-.27,3.21,0,8.3-.53,14.97-6.64,22.54-9.23-7.49-2.22-9.93.4-16.1,3.08Z"/>
  <path class="st20" d="M210.56,73.54v1.03c4.42-.35,17.58,7.46,22.54,9.23,1.76-.94,3.92-.43,3.22-3.06-5.64-.48-13.04-7.29-17.98-8.05-2.24-.35-5.16.71-7.78.86Z"/>
  <path class="st30" d="M225.58,88.93c-.25.83-1.07,2.56-.62,3.12.51.64,6.93,2.97,8.14,3.03.67.03,4.58-.62,4.29-2.04l-11.8-4.12Z"/>
  <path class="st5" d="M169.78,77.64c.88-.38,2.09-.54,3.22-1.03-1.87-3.59-4.38-3.95-4.23.46l1.01.57Z"/>
  <path class="st32" d="M192.31,132c2.83,4.34,12.95,4.65,13.78,9.98.65,4.17-4.57,7.03-5.17,10.04-1.43,7.14.51,18.71,1.05,26.13l2.55,1.42c3.18-.19,16.45-6.08,16.77-9.62,3.28,1.1,5.41.65,5.37-3.08,2.55-3.14-1.16-1.26-3.11-3.69-.78-.97-1.33-2.21-1.19-3.48,5.52.69,3.42-3.55,4.52-4.93.25-.32,5.26-1.8,7.33-3.76s2.76-4.95,4.19-6.26c2.71-2.47,9.77-1.74,9.78-7.05,0-2.38-1.17-6.12-1.13-8.77-2.23-.68-7.57,4.01-8.05,4.01-1.32,0-2.83-4.5-4.45-4.96-2.27-.65-4.27,2.08-6.08,1.77-1.32-.22-5.6-3.84-6.1-3.9-.83-.1-7.67,3.98-9.63,4.64s-4.36.36-6.52.95c-1.62.44-2.8,2.35-4.86,2.62-2.33.31-6.57-1.32-9.05-2.06Z"/>
  <path class="st10" d="M226.66,166.88c-1.77.84-3.83,2.37-5.37,3.08-1.46,11.49,8.98,11.95,15.03,4.1,10.71-4,13.21-8.71,13.96,7.18,1.97-1.19,4.54-1.81,6.43-3.08,6.98,1.16,8.29-12.5,1.07-11.28-2.33,1-4.93,1.49-7,3.06l-.51-2.03-3.22,1.02-.02-11.28c-6.97,2.72-13.64,6.06-20.38,9.23Z"/>
  <path class="st33" d="M263.15,163.8c-1.46.66-2.9,2.02-5.37,3.08,4.13,2.61,3.01,8.53-1.07,11.28,5.61-.24,4.24,9.12,5.32,9.78,3.54,2.17,4.74-1.29,5.42-1.57,1.19-.11,2.22-.63,2.15-1.61-.63-8.33-.78-14.87,0-23.01-1.75.82-4.65,1.25-6.44,2.05Z"/>
  <path class="st1" d="M137.58,106.36c.2,3.59,9.97,7.23,12.88,5.13l11.81-6.15c-2.16-1.04-11.18-5.77-12.34-5.77-1.39,0-11.96,5.57-12.34,6.8Z"/>
  <path class="st33" d="M269.59,161.75c-.69,4.2-1.96,9.74-2.15,13.87-.18,3.9,1.6,7.36,0,10.75,1.79-.74,6.1,2.83,6.96,4.12,1.44,2.17.15,7,.55,9.74.19,1.26-.52,1.93,1.63,1.54.74-.14,8.91-4.38,9.19-4.81,2.16-3.22-.02-9.87,2.06-13.68-2.29-2.41-7.47,2.13-9.66,3.08-2.64-.08-5.14-.77-7.51-2.05-2.99-4.48,1.2-17.95,0-23.59-.39.18-.71.85-1.07,1.03Z"/>
  <path class="st7" d="M281.39,155.59c1.87,2.69.71,5.92,1.07,8.74.15,1.14-.38,2.1,1.59,1.5.82-.25,8.36-4.6,8.63-5.09,1.38-2.62.12-7.29.52-10.28-3.38,1.68-8.01,3.26-11.81,5.13Z"/>
  <path class="st26" d="M162.26,132c-3.67-.29-6.79-2.8-10.19-4.13-.95-.37-.76-1.75-2.17.01-.84,1.52-.87,8.86-.58,10.84.26,1.73,4.49,9.94.49,10.78-6.91,1.45-3.69-6.31-5.51-10.08-1.15-2.37-4.41-3.2-6.72-4.34-1.62-.8-11.16-5.14-11.81-5.13-.47,4.65-.89,9.16-1.27,13.53.52,1.2,14.39,8.11,16.3,5.96,1.01,9.07,1.16,18.2.46,27.37-2.46-.33-2.52,1.59-1.54,3.4-1.87,2.45-.24,3.58,2.38,4.42,7.65.24,6.84,7.58,5.78,12.98l1.5,2.08c4.13,2.01,8.81,3.17,12.35,6.15.17-1.19,1.46-3.09,1.6-4.1,4.51-1.93,2.56-10.88-.46-14.28-4.9-2.02-6.48-12.05.26-10.42l1.28-1.96c-.06-4.77.04-9.58,0-14.35l10.72,5.12c-.61-3.63.86-9.43.06-12.66-.25-1.01-11.22-4.08-12.43-5.77-1.09-1.53-.53-12.48-.5-15.42Z"/>
  <path class="st11" d="M112.89,139.18c-3.8,7.86-3.31,18.9-.86,27.06l.86,10.89c8.78,2.04.95,13.58,6.01,17.33.9.66,9.67,4.64,10.08,4.2.05-4.43-.04-8.9,0-13.33,2.71-4.51,2.68-8.81,0-13.33.96-.19.92-.54,0-1.03-1.23-2.9-4.4-4.75-9.52-5.55.34-4.79-.07-9.1-1.21-12.91,1.67-4.54,1.31-8.64-1.07-12.31-1.23-.49-3.24-.49-4.29-1.03Z"/>
  <path class="st12" d="M100.02,133.03c.24,4.1-.98,26.68.04,27.65.18.17,3.48.1,5.04.81,2.16.98,4.39,3.83,6.74,5.08l1.05,38.25c-.12-9.21.04-18.48,0-27.69-.06-12.78-.63-25.3,0-37.95-.28-.14-.77-1.42-1.75-1.88-3.54-1.67-7.17-4.09-11.13-4.27Z"/>
  <path class="st40" d="M164.41,175.08c-2.35-.28-5.1.19-7.52,0,.34,2.96-.64,6.75.23,9.54.74,2.38,5.27,4.2,6,6.57.6,1.93.53,8.35.22,10.56,1.55,1.38,11.16,4.75,11.64,5.28,1.03,1.12-.61,10.77.32,13.58.63,1.89,2.34,1.25,3.07,1.66,3.1-4.21,4.21-9.19-.06-13.32v-12.64s-2.09-1.74-2.09-1.74c2.11-4.41,2.11-8.92,0-13.33h-1.07c-1.97,1.89-2.77,4.95-2.4,9.18-5.95-1.6-8.03-6.16-6.22-13.68l-2.11-1.64Z"/>
  <path class="st36" d="M176.22,194.57c0,4.13-.73,11.3.01,14.85.48,2.29,2.77,3.09,3.01,4.25.33,1.62-2.69,5.83-.87,8.59,2.72,1.54,5.37,3.54,8.59,4.1,0-9.18-1.07-18.82-1.07-27.69.84-3.15-7.58-6.57-9.66-4.1Z"/>
  <path class="st14" d="M139.73,180.21c-3.58-6.28-7.25,6.38-2.15,9.23.05,1.33-.41,4.21.14,4.99.36.51,9.7,4.32,11.66,5.27,1.78-3.76,2.09-12.91-1.55-15.44-2.43-1.69-6.6-.66-8.11-4.05Z"/>
  <path class="st34" d="M140.8,162.77c-1.27,3.63-2.32,7.37-2.06,11.21-3.98-2.64-7.23-3.3-9.75-1.98,0,4.43.05,8.9,0,13.33l8.59,4.1c-.08-2.22-.47-6.91-.06-8.63.3-1.24,1.92-.38,2.2-.6,1.84-1.44,1.93-2.46,2.17-4.6.62-5.52.66-18.21.04-23.71-.16-1.46-.06-1.45-1.14-2.46-3.48,1.04-3.24,11.6,0,13.33Z"/>
  <path class="st37" d="M141.88,205.86l1.04,5.67,21.49,9.71c.02-2.01.54-3.93-1.05-5.65-.79-.85-20.68-10.58-21.47-9.73Z"/>
  <path class="st31" d="M125.77,129.95c-2.29.06.85,14.8-4.82,13.33-.42-.11-.86-1.91-3.76-3.08.59,3.25-.59,6.8-.56,9.8,0,.89,1.63,2.03,1.64,2.51.54,3.06,7.96,7.18,10.73,5.13.86,3.93,8.25,7.62,11.81,5.13v-13.33c-2.07-1.94-13.72-5.63-14.8-7.39-1.16-1.91.35-9.29-.23-12.1Z"/>
  <path class="st24" d="M137.58,106.36c-.72,2.3,0,11.05,0,14.36,1.96,1.05,11.64,6.34,12.87,5.12v-13.33c-.08-.34.15-.88,0-1.03-.48-.49-10.85-4.21-12.88-5.13Z"/>
  <path class="st41" d="M221.29,169.95c-5.94,2.75-13.12,6.66-19.32,8.21-.4.1-1.03,1.03-2.15,1.03-3.44.98-3.3,12.07,0,13.33v2.05c2.71,2.48,12.07-2.1,11.81-6.15.23-.53-.46-2.01.19-2.86.55-.72,9.88-4.34,11.61-5.34,1.24,4.19.94,8.08,1.09,12.31,1.47,1.37,10.26-2.79,10.56-3.24,1.48-2.26-1.42-11.9,1.25-15.22-3.03,1.13-8.32,3.86-11.12,2.97-3.84-1.23.66-7.65-3.91-7.07Z"/>
  <path class="st0" d="M199.83,194.57v13.33c0,10.24.11,20.53,0,30.77,4.44-.16,8.6-7.35,12.88-5.13,0-7.01-.62-14.18,1.07-21.03l-2.15-24.1c-.8,1.84-9.63,4.61-11.81,6.15Z"/>
  <path class="st9" d="M270.66,184.31c1.97,2.95,4.38,3.41,7.51,2.05-1.77.11-3.1-1.67-4.29-2.05-.77-.25-2.26.17-3.22,0Z"/>
  <path class="st48" d="M199.83,179.18c-4.8,0-8.2-4.72-12.87-5.12l-1.08,10.25c-1.48,1.38-.83,1.94,1.07,1.03,1.74,2.28.73,4.64,1.14,5.07s10.11,2.25,11.74,2.11v-13.33Z"/>
  <path class="st35" d="M176.22,181.24c0,4.43,0,8.9,0,13.33l9.66,4.1c0-.14,1.09-1.18,1.11-2.49.05-3.62-.09-7.24-.03-10.84-.17-.23-.89-.92-1.07-1.03-1.74-.97-8.22-3.63-9.66-3.08Z"/>
  <path class="st15" d="M164.41,175.08c.05,3.85-1.21,12.11,1.72,14.26.63.46,8.68,4.56,9.01,4.2-.4-3.87.58-8.59,0-12.3s-7.25-5.74-10.73-6.15Z"/>
  <path class="st27" d="M184.8,82.77c-2.31,1.54-12.89,4.72-6.43,6.67-5.71,1.09,5.11,5,6.43,5.64l12.86-7.69c-3.83-2.78-7.78-5.49-12.86-4.62Z"/>
  <path class="st2" d="M118.26,152.52c0,.14-1.14,1.09-1.11,2.49.04,2-.31,11.25.16,11.76.41.45,9.98,3.24,11.68,4.22,3.63-1.25,3.03-11.15,0-13.33-3.58-1.75-6.9-4.13-10.73-5.13Z"/>
  <path class="st39" d="M128.99,170.98c0,.34,0,.68,0,1.03l11.79,5.13c.02-4.78.01-9.58.01-14.36-4.18-1.22-7.95-3.24-11.81-5.13v13.33Z"/>
</svg>