<?xml version="1.0" encoding="UTF-8"?>
<svg id="Layer_1" xmlns="http://www.w3.org/2000/svg" version="1.1" viewBox="0 0 32 32">
  <!-- Generator: Adobe Illustrator 29.5.0, SVG Export Plug-In . SVG Version: 2.1.0 Build 137)  -->
  <defs>
    <style>
      .st0 {
        fill: #adfefe;
      }

      .st1 {
        fill: #10a8df;
      }

      .st2 {
        fill: #08577b;
      }

      .st3 {
        fill: #054c70;
      }

      .st4 {
        fill: #012448;
      }

      .st5 {
        fill: #c3fbfc;
      }

      .st6 {
        fill: #e0fdfd;
      }

      .st7 {
        fill: #15d6fe;
      }

      .st8 {
        fill: #093656;
      }

      .st9 {
        fill: #dffdfe;
      }

      .st10 {
        fill: #01142b;
      }

      .st11 {
        fill: #45f2fe;
      }

      .st12 {
        fill: #054c6f;
      }

      .st13 {
        fill: #cafefe;
      }

      .st14 {
        fill: #7ffdfe;
      }

      .st15 {
        fill: #021f42;
      }

      .st16 {
        fill: #012346;
      }

      .st17 {
        fill: #0b6388;
      }

      .st18 {
        fill: #81fdfe;
      }

      .st19 {
        fill: #c7fefe;
      }

      .st20 {
        fill: #cefefe;
      }

      .st21 {
        fill: #dcfcfd;
      }

      .st22 {
        fill: #7dfcfe;
      }

      .st23 {
        fill: #054b6f;
      }

      .st24 {
        fill: #2ce5fe;
      }

      .st25 {
        fill: #0fa4da;
      }

      .st26 {
        fill: #f8fefe;
      }

      .st27 {
        fill: #022244;
      }

      .st28 {
        fill: #17c4f5;
      }

      .st29 {
        fill: #e2fdfe;
      }

      .st30 {
        fill: #49f3fe;
      }

      .st31 {
        fill: #012245;
      }

      .st32 {
        fill: #79fbfe;
      }

      .st33 {
        fill: #073656;
      }

      .st34 {
        fill: #7bfbfe;
      }

      .st35 {
        fill: #0fb4ea;
      }

      .st36 {
        fill: #c4fdfd;
      }

      .st37 {
        fill: #a9fbfc;
      }

      .st38 {
        fill: #80fdfe;
      }

      .st39 {
        fill: #acfefe;
      }

      .st40 {
        fill: #0483bf;
      }

      .st41 {
        fill: #bafefe;
      }

      .st42 {
        fill: #0b8bc4;
      }

      .st43 {
        fill: #093352;
      }

      .st44 {
        fill: #77f9fd;
      }

      .st45 {
        fill: #dafcfe;
      }

      .st46 {
        fill: #b7fafd;
      }

      .st47 {
        fill: #0b6288;
      }

      .st48 {
        fill: #0893ce;
      }

      .st49 {
        fill: #14d1f9;
      }

      .st50 {
        fill: #0482bf;
      }

      .st51 {
        fill: #fefefe;
      }

      .st52 {
        fill: #0278b4;
      }

      .st53 {
        fill: #0fa7de;
      }

      .st54 {
        fill: #2ce6fd;
      }

      .st55 {
        fill: #79fafe;
      }

      .st56 {
        fill: #01132b;
      }

      .st57 {
        fill: #2ae2fd;
      }

      .st58 {
        fill: #0894ce;
      }

      .st59 {
        fill: #022144;
      }
    </style>
  </defs>
  <rect class="st51" x="-104.49" y="-103.74" width="240" height="240"/>
  <rect class="st51" x="-104.2" y="-103.42" width="240" height="240"/>
  <path class="st50" d="M77.78,40.43c.74-.87,1.18.16.7.98-1,1.43-2.08,2.79-3.25,4.09-.53.16.95,1.81,1.05,1.86,3.08.56,8.26,1.71,10.84,3.42.41.27.58.46.25.91l.26.43-16.69,19.9c-.77.93-2.26.18-1.55-.8-.86-.41-.62-2.73,0-3.48-.18.73-.34,1.02-1.14,1.22l-.39,1.72c-2.19,4.99-3.8,10.13-4.83,15.43-1.77,4.64-3.09,9.34-3.96,14.1,1.76.26.87,1.82.16,2.85-.71,3.73-1.56,1.63-1.59-.79l-.49-.59c-.09-1.86-.65-3.64-1.6-5.23-1.16-1.59-1.98-3.25-2.46-4.96l-.68-.18-1.6-2.64c.01.93-.27,1.47-.84,1.63h-.24c-.94-.36-1.86-.51-2.75-.44-1.8.84-3.62,1.62-5.47,2.33-2.12-.01-4.02-.01-6.04.53-3.93-.92-8.47.41-11.98,2.32-1.4.78-5.98,2.02-7.09.77-.38-.43-.53-2.74.24-2.86-.15-.72,3.45-.58,3.62-.48.18.1.28.29.34.48-.24-.95-.64-1.76-1.21-2.44l-1.69.83c-1.09.44-2.03-.39-.82-1.03.08-.24.17-.51.39-.61,4.19-1.99,8.49-3.71,12.96-5.15,2.79-1.06,5.38-2.42,7.77-4.07,4.04-1.13,8.08-2.25,12.12-3.35,8.49-12.2,17.33-24.14,26.52-35.81l1.14-.87Z"/>
  <path class="st28" d="M87.37,51.7c-.29-1.13,1.52-.78,1.78.19.71,2.17,2,3.47,3.86,4.72,1.93.07,2.73,1.36,2.39,3.87l.37-.15c.21.42.42.86.44,1.33.31,6.1-.27,11.18-1.3,16.95.13.96.15,2.62-.89,1.8l-1.85-10.98c-.9-3.89-1.64-7.83-2.23-11.83-.48-2.61-1.86-.14-2.5,1.04-2.85,5.66-5.8,11.31-8.85,16.95-1.77.84-3.76,1.22-5.97,1.15-2.3.13-3.69,1.58-4.15,4.34-3.85,12.77-7.41,25.72-10.68,38.84-.8-.03-.88-1.35-.87-2.06-1.77-9.32-4.46-18.44-6.95-27.57.25-.73.31-1.53.48-2.28.08-.37-.16-.42.47-.36.49,1.37,1.42,2.6,2.16,3.84.49,1.76,1.34,3.47,2.55,5.11.99,1.89,1.56,3.86,1.69,5.89l.31-.22c.52.3-.05,2.4.6,2.39.4,0,.36-1.33.49-1.66.29-.74,1.13-1.34.83-2.41l-.96.72c0-.74-.05-1.48.06-2.22.56-3.87,2.81-9.19,3.91-13.12.52-1.85.73-4.13,1.32-6.11,1.25-4.17,3.74-7.95,4.06-12.36l.48.96.96-.72v3.48c0,.08.49.81.6.84l.48-.23,16.9-20.15Z"/>
  <path class="st20" d="M4.66,126.03c-1.13-2.71-2.5-5.72-3.36-8.5-.47-1.5-.7-4.17-1.33-5.38-.1-.19-.35-.46-.58-.5v3.12c-.2,0-.36-.22-.48-.36-2.39-2.76-3.83-9.84-6.74-12.21-2.76-1.3-21.43-11.47-22.85-11.14-.38.09-.56.87-.69,1.22-1.91,5.11-2.56,11.25-4.43,16.44-.16.45-.16,1.19-.78,1.01l-4.8-23.02c-2.63.81-5.1.14-7.51-1-1.17-.55-5.53-3.68-6.08-3.77s-.66.72-.79,1.07c-2.29,6.44-2.58,14.72-4.56,21.33-.1.32-.02.74-.49.83-1.54-6.81-2.76-13.7-4-20.57-1.49-8.26-2.41-17.71-4.26-25.71-.65-2.83-2.72-6.18-4.58-8.37-.7-.15-1.78,3.36-2.2,4-.15.23.03.43-.54.31-2.09-14.62-3.73-29.31-5.29-44,3.81-13.5,6.76-27.03,8.39-41.01,3.77-4.82,7.57-9.7,11.53-14.37,1.46-1.72,3.19-3.09,4.64-4.95,2.8-3.56,4.57-8.26,7.21-11.49,7.31-8.92,16.75-13.16,26.89-17.95,13.42-6.34,27.12-12.23,40.98-17.52,12.61,5.15,25.04,10.81,37.42,16.49,7.91,3.63,16.14,7.22,23.9,11.11,4.42,2.22,4.85,2.3,7.78,6.36,3.83,5.31,7.81,11.49,11.17,17.12,3.61,6.03,4.74,10.12,6.73,16.76,2.52,8.41,5.06,16.98,6.83,25.53-1.49,10.19-4.35,20.17-6.16,30.28-1.15,6.44-2.01,12.97-3.11,19.43-2.46,14.4-4.53,28.9-7.51,43.2-.35.06-.33-.42-.4-.67-.25-.9-.36-1.92-.51-2.85-1.55-9.07-2.45-18.46-4.19-27.46-.15-.76-.21-2.57-1.08-2.07-.27.16-2.65,4.73-3.04,5.46-1.52,2.83-2.79,5.81-4.31,8.64-.61,1.13-2.12,4.34-2.87,5.04-1.47,1.37-6.66.44-8.3,1.77-1.23.99-4.07,11.53-4.71,13.75-2.84,9.86-5.23,19.86-7.86,29.78l-.36.24c-.03-1.18-1.1-2.44-.48-3.6l.72,1.92c3.32-11.96,5.95-24.34,9.77-36.15.49-1.5,1.38-4.78,2.22-5.94,1.38-1.9,7.31-.83,8.77-2.26,3.03-5.09,5.36-10.58,8.21-15.76.39-.71,2.36-4.93,3.35-3.03.84,4.24,1.42,8.53,2.21,12.78l1.8,10.74c.19.05.35.12.37.2.35,1.77.56,3.6.76,5.38l5.52-33.73c.28-1.34.66-2.65,1.14-3.92-.01-.67-.01-1.35.02-2.02s.06-1.34.17-2c2.31-14.86,5.08-29.29,8.46-43.73l.47-.92c-.64-.41-.48-1.68.24-1.92l-.42-.51c-.05-2.99-1.01-5.87-2.01-8.66l.27-.66-1.63-4.33c-1.91-7.65-4.14-15.1-6.69-22.34l.16-.9-.66-.34c-4.2-7.66-9.03-14.95-14.48-21.89l.03-.78c.54.22-.33-1.13-.72-1.2-.55,0-1.05-.38-1.52-1.15-.68-.34-1.06-.76-1.12-1.24-1.36-.63-2.72-1.35-4.08-2.16-.21.04-.41.06-.62.05-.67-.02-7.05-3.14-8.16-3.78-.34-.2-.59-.5-.81-.83l-9.05-3.7c-13.75-6.35-27.58-12.54-41.46-18.6-15,5.76-29.9,12.43-44.26,19.2-11.2,5.27-22.16,11.17-27.16,22.96l-1.83,2.68c-5.86,6.64-11.62,13.61-17.28,20.91-1.38,10.45-2.87,20.99-6.1,31.03-1.34,4.47-2.33,8.14-2.2,12.34.12,3.55.68,7.82,1.19,11.33,0,.01.1-.03.22-.09.17.42.34.85.47,1.29s.26.87.32,1.31c1.12,7.95,2.09,16.09,2.98,23.71.36-.96,1.49-2.32,2.23-1.14l.77.3c1.33,1.65,4.42,6.75,4.58,8.74l-.31.79c1.15,3.05,1.9,6.25,2.25,9.6,1.52,9.97,3.33,20.48,5.18,29.96.42.1.57.4.44.91l4.06-18.57c.14-.25.31-.51.59-.63.58-.24,3.29,1.57,3.79,2.23l.64-.17c2.92,2.37,6.02,3.29,9.29,2.75l.62.31c.48-.37.73.12.83.6,1.25,6.15,2.5,12.34,3.69,18.5.08.4.38,1.3.57,1.58.21-.68.51-1.34.9-1.98.27-2.68.99-5.25,2.16-7.67-.11-.05-.21-.11-.26-.2-.28-.44,1.27-5.73,1.75-6.31.84-1,1.68-.69,2.34.28.84-.25,1.76-.03,2.78.66,5.33,2.33,11.6,5.19,16.6,8.08,3.5,2.03,4.11,3.01,5.88,6.56l2.56,5.76c-.05-.85.6-1.8,1.19-.92.35-.32.5-.24.48.24.35.47.7.95.88,1.51,1.19,3.75,2.4,7.41,3.7,11.13.19.56.21,1.15.21,1.74.08.31.07.39-.24.24Z"/>
  <path class="st1" d="M49.73,90.3c-2.5.36-4.53,3.26-6.47,4.92-1.06.91-2.26,1.67-3.36,2.51-5.71,2.42-11.61,4.43-17.69,6.01l-4.65,1.76-.43-.1c-2.56,1.4-2-1.18-.24-1.44.24-.19,1.28-1.23.24-.72-.38.31-.92.45-1.64.44-2.49,1.18-4.57,1.18-7.21.5l-1.49.47c-1.19,0-1.45-3.11-.69-3.81-.36-1.97-.31-4,.15-6.09-.23-.68-.06-3.53.28-3.77.6-.42,3.71-.36,4.36.27.09-.13.18-.23.29-.26.75-.15,5.07-1,5.33-.92.14.04.26.13.38.22-.92,1.75,2.34-.28,2.74-.48.25.05,1.27,2.28,1.3,2.56.02.2-.17.56-.32.56h-3.96c.08,2.34-.71,3.04,2.04,2.87,3.92-.24,5.17-1.87,8.27-2.75,1.2-.34,4.78-1.14,5.94-1.27.83-.09,1.58.46,2.57.45s1.57-.44,2.4-.5c1.15-.09,2.45.14,3.58-.02,2.55-.35,5.82-4.2,8.29-1.42Z"/>
  <path class="st39" d="M39.9,97.74s.13.31-.14.5c-.36.25-2.29.87-2.91,1.12-5.74,2.28-12.04,3.56-17.69,5.81-2.58,1.03-3.74,1.37-4.78,4.09-2.13,5.58-3.48,11.76-5.58,17.44-.22.6-1.47,4.12-1.86,4.13-1.24-1.29-1.61-3.19-2.28-4.79l.24-.24.63.25,1.28,2.61c2.3-5.51,4.17-11.17,5.59-17,.37-1.21.79-2.4,1.3-3.55.75-1.71,1.72-2.3,3.43-2.68,4.3-2.15,11.22-3.55,16.01-5.21,2.27-.79,4.46-1.81,6.77-2.46Z"/>
  <path class="st48" d="M88.09,32.28l.37.44c-.6,2.13,1.25,2.07,2.76,1.57,2.07-1.3,3-1.21,5.24-.76.25.27-.42,6.27-.55,7.2-.14.98-.32,1.95-.69,2.87.88-.12,1.43.72.79,1.27l.48.27c.14.79.22,3.22-.48,3.56.63.24,1.03.84,1.2,1.8l.29,1c-.53,2.63-1,5.27-1.2,7.94l-.53.89-.48,2.64c-.26-1.06-.18-4.89-.83-5.52-.37-.35-1.04-.17-1.56-.36-.4-.15-2.7-2.12-2.99-2.52-.44-.61-1.12-2.7-1.57-3-.41-.27-.87.16-.96.14-.05,0-.29-.45-.7-.61-3.5-1.37-6.96-3.01-10.76-3.27,0-.7-1.51-1.61-1.46-1.95.07-.48,2.78-3.32,3.29-4.16.13-.22,1.04-1.45.04-1.27-.38-.6.97-2.38,1.68-2.16l.29-.58c1.14-.22,2.36-.27,3.64-.15,1.85-1.43,3.1-1.33,3.75.29,1.3-1.86.73-3.07-1.72-3.64-1.13-1.05,1.94-2.49,2.67-1.91Z"/>
  <path class="st14" d="M78.98,25.57h.48l.44.69c.27,3.81.32,7.62.16,11.42l-.6.6c-.64.46-1.14,1.51-1.68,2.16-9.83,11.78-18.33,24.59-27.45,36.93-3.94,1.52-8.64,2.18-12.59,3.71-1.15.45-2.03,1.37-3.12,1.92-3.77,1.92-7.02,2.79-10.85,4.25-2.25.86-4.74,2.37-6.89,3.06-1.82.58-4.09.87-5.99.96-1.06-.26-.14-1.15.78-.95,3.75-.82,7.37-2.15,10.86-3.98,4.18-1.33,8.02-2.81,11.98-4.67,3.55-1.67,4.34-4.29,5.37-8.01.46-2.37,1.04-4.69,1.74-6.98.37-.32.51-.59.44-.82l.02-.53c.65-.24,4.36-1.8,3.06-2.51-2.13-.42-2.11-1.56-.69-2.96-.42-.53.16-1.08.72-.72,1.64-1.7,3.47-3.3,5.49-4.82l.74.02.39.47-.27,4.06c-2.1,5.16-3.71,10.62-4.82,16.38-.96,1.65-.57,1.67,1.19,1.63,1.49-.04,2.34-.5,2.77-1.94l1.61-1.91c8.33-12.1,16.85-24.12,26.16-35.52l.24-.8c-.46-3.59-.48-7.17-.07-10.76l.37-.37Z"/>
  <path class="st57" d="M57.64,102.29c.07,1.87.21,4.81,0,6.6-.04.36-.05.74-.49.83-1.08-3.38.08-7.19-.83-10.56-.59-2.19-2.7-4.38-3.38-6.46-.12-.36-.3-.98.13-1.21,2.21,3.69,4.38,6.38,4.56,10.79Z"/>
  <path class="st24" d="M97.68,18.14c-.09-.89.26-.8.91-.3.45.35,1.43,6.56,1.57,7.67.77,6.05,1.24,12.39,0,18.28-.18,1.29.27,2.52,1.33,3.7-.14.37-.05.58.27.62-2.27,13.34-4.2,26.75-6.72,40.04l-2.87-18.7c.65,3.48,1.4,6.9,1.92,10.43.06.42-.13.4.47.36-.64-3.57,1.18-7.3,1.21-10.68.03-3.03-.13-6.14,0-9.22.12-3.19.8-6.69,1.44-9.83-.19-.28-.29-.58-.29-.91,3.49-9.97,2.09-20.68.55-30.89l.22-.56Z"/>
  <path class="st26" d="M68.67-73.21c-.36,0-.72-.01-1.07-.05s-.7-.09-1.03-.2c-5.02-1.72-10.04-3.47-15.02-5.3-4.15-1.52-7.93-3.37-11.85-5.36-2.3-1.05-12.82-3.66-8.77,1.82.25.65.48,1.29-.38,1.42l-1.11-.26-7.58-5.71c-3.03-3.3-4.95-2.9-9-1.69-10.49,3.12-20.71,7.19-29.21,14.25l-6.21,3.43c-2.93,1.59-5.17,4.07-5.77,7.44l-.58.52c-.23.82-.66,1.04-1.27.66-.95,1.24-2.05,1.9-3.29,1.98l-.6.34c-3.05-.58-6.77-.81-9.74.23-3.26,1.14-6.64,9.58-6.46,13.09-.92,1.44-2.07,2.71-3.44,3.82l-9.49,8.46c-3.09,2.58-5.34,5.6-6.77,9.04-1.07,6.63-2.34,13.24-3.83,19.83l-.66,1.06c-.26,1.2-1.01,2.14-2.26,2.84-1.58,3.97-2.63,8.11-3.16,12.41l-.58,1.05.46.85c.25,3.9.58,7.78,1,11.63l-.27.46-.24,1.92-1.68-16.18c3.98-13.38,6.65-26.67,8.38-40.54,3.72-4.86,7.57-9.69,11.53-14.37,2.65-3.13,4.95-5.13,7.29-8.78,1.42-2.22,2.68-5.3,4.22-7.29,8.16-10.57,21.55-15.38,33.21-20.73s22.85-10.7,34.76-14.85c16.95,7.28,33.75,14.95,50.46,22.75Z"/>
  <path class="st24" d="M42.06,65.85c1.39-.2.04.64-.18,1.38-1.04,3.48-1.26,6.83-2.82,10.37-1.2,2.73-2.12,3.27-4.67,4.68-4.36,2.42-8.9,3.19-13.28,5.18-3.69,1.68-5.1,2.56-9.38,3.34-.44.08-.97-.31-.84.47-1.35.07-2.73-.05-4.08,0-.22,3.15-.73,6.43-.72,9.59-.05.51-.28.81-.72.47-.61-.48-.19-5.32.04-6.35l-.52-.35c-.45-.52.07-.25.03-.24-3.14.91-5.37.74-8.51.38-2.31-.26-4.73-.79-6.98-1.3-.27-.72-1.11-.99-2.51-.82-3.96-1.1-7.88-2.41-11.74-3.91l-.5.14-.39.38-3.27-1-.82,1.11c.86.81,1,1.37.4,1.68-.29-.1-1.36-.47-1.53-.44-.84.15-2.02,5.63-2.31,6.67-.4.8-.82.21-1.2-.34-1.16-.16-1.83-.63-2.02-1.44-.6-5.42-.54-11.06-.28-16.39.47-1.59,2.13-2.15,3.62-2.23-1.75-1.73-3.65-3.27-5.71-4.62l-.41-.88c-.42-.8,1.45-1.99,2.17-2.39,1.24-.69,3.97-1.63,4.31.23l.56-.14c2.84,3.6,4.46,7.7,4.66,12.26.77.81,1.27,1.7,1.5,2.68,1.99-.7,3.93-1.67,5.81-2.9l1.79-.6c-.22-.62-.12-1.04.31-1.24.36-.08.74-.1,1.08.06,4.15,1.96,8.31,4.03,12.02,6.69.08-.14.18-.29.34-.35,6.71-2.36,12.97-5.13,19.32-8.44l.57.11,1.2-.22c.61,2.42,1.36,4.79,2.24,7.1,1.95-1.87,3.13-4.16,4.27-6.62l.68-.27c-.05-.98.57-2.38,1.21-3.12,2.31-2.69,13-7.41,16.08-8.43l1.17.05Z"/>
  <path class="st11" d="M-75.18,2.31c2.27-2.53,4.64-5.37,5.39-8.89.6-3.41.98-6.99,1.29-10.35,2.78-2.14,4.52-4.74,6.18-7.85.74-1.27,3.23-4.04,2.95-1.2.1.11.18.23.22.36.11.36-.99,6.45-1.19,7.39-3.07,12.81-5.83,25.68-8.27,38.6,3.9,10.73,8.26,20.85,13.07,30.37.15-.16.39-.25.48-.11.27.41,1.37,3.53,1.23,3.72-.07.09-.17.16-.27.23-.47.26-1.08.27-1.82.02-1.97.3-3.88,1.05-5.73,2.23-.29.03-.76-.06-.85-.34-.62,1.49-.54,3.08.23,4.77l1.56,4.31-.35.5c-.57.1-1.13-.14-1.68-.72l-.51-.05c-.78-2.13-1.65-4.31-3.07-6.09-.96,1.13-1.61,1.33-1.94.62-.78-3.85-2.98-6.6-5.03-9.83l-.15-.52c1.76-1.64,2.58-3.91,3.24-6.15-1.29-.62-2.12-1.94-2.47-3.98-2.41-3.58-4.64-6.99-4.66-11.53l-.31-7.39c-1.01-4.01-.85-8.14.02-12.15l-.31-.46c.82-1.75,1.57-3.56,2.17-5.4l.54-.13Z"/>
  <path class="st1" d="M88.57-16.63c.57-.73,1.05-.27,1.46,1.38,6.71,4.2,13.79,8.15,20.77,12.01l.31.75c-.07.69-.14,1.24-.24,1.92l-.63,1.34c-1.77,1.94-2.65,4.37-2.65,7.29-.37,2.18-2.36,2.39-4.18,2.01l-.02,3.42c-.03.35-.32.41-.68.32l-.32-.02c-.15-1.21-.39-10.36.01-10.72.36-.32.63-.27,1.04-.15.14-.07,1.22-2.66,1.21-2.88s-1.54-2.66-1.71-2.74c-.84-.4-1.86,3.42-1.95,3.86-.33.4-.86.51-1.57.33-.43.67-.88,1.35-1.39,1.98-3.29,4.01-6.98,8.67-7.48,13.92-.47.09-.4.36.2.8.21-3.94,2.77-.85,3.03,1.27-1.22,3.08-2.15,6.23-2.78,9.47-.33,1.32-1.41,3.68-2.93,3.35-.36.24-2.63,1.13-2.63,1.32.52.6,2.59.97,2.84,1.72.21.63-.73,3.19-1.29,3.43-1.39-3.45-1.93-1.1-3.41-.77s-2.98-.54-4.15.29c.86-4.11-.33-8.62,0-12.71-.16-1.78.39-3.53,1.64-5.24,4.89-5.76,5.85-12.73,6.36-20.18-.09-2.4.2-4.64.87-6.71-.16-.17-.28-.34-.29-.51-.06-1.96-.06-4.44.53-6.2-.17-1.11-.22-2.26,0-3.36Z"/>
  <path class="st28" d="M-25.31,88.87l.66-.09c5.13,1.91,10.28,3.65,15.57,5.08,4.08,1.1,9.67,1.71,13.73.58l.25.19c.39-.1.78-.27,1.2-.24-.61,1.95-.58,4.08-.48,6.12.03.59-.17.78.48.36,0,1.18.27,2.2.24,3.36.68.07,1.12-.46,1.8-.5,1.19-.06,2.44.67,4.08.5s3.35-1.57,4.91-.96c.46.1.14.64-.24.72-.13.21-1.29,1.61-1.2,1.68l1.44-.24c-.93.46-2.29,1.45-2.76,2.4-1.67,3.35-2.91,9.49-4.19,13.31-.7,2.07-1.33,4.21-2.16,6.23-.34.83-1.04,1.56-.96,2.51-.95-1.12-1.56-2.71-2.16-4.08-2.03-4.65-3.57-9.46-4.8-14.39l.56-.32c2.57.73,2.99,1.16,4.07,3.63.19.42-.41-8.65-.68-9.21-1.18,1.4-2.43,2.73-3.76,4-.11.73-.33,1.28-.68,1.66-1.41.02-.09,2.05-1.2,1.92-1.81-2.98-3.51-9.39-6.25-11.37-3.52-2.54-11.06-5.8-15.24-7.77-1.95-.92-4.35-2.2-6.32-2.91.12-.66-.99-1.36-.93-1.75.03-.19.97-1.41,1.17-1.49.34-.14,3.22.89,3.83,1.09Z"/>
  <path class="st14" d="M78.98-67.94c1.09.29,2.4.84,3.36,1.44,1.4.6,1.8,1.19,2.64,2.4.4.12.88.8.72,1.2,4.13,5.85,12.66,16.85,15.1,23.02-.13.89-1.95.62-1.92-.24.45-.48-.23-.95-2.04-1.42-6.11-3.99-12.03-8.32-17.76-12.97l-.34-.96v-.42c-6.19-6.94-13.71-12.8-21.34-18.21l-.24-.55h.24c.09-.19.2-.42.39-.46,1.17-.23,10.06,2.46,11.64,3.17,2.66,1.66,5.42,2.98,8.28,3.98.49-.22.91-.21,1.27.02Z"/>
  <path class="st11" d="M-39.22,71.36c2.52,1.8,5.11,3.55,7.19,5.88l-1.74.17c-3.42.69-2.52,2.87-2.56,5.59-.07,3.81-.18,7.86.26,11.71.24,2.07.55,1.11,1.83,1.77.49.25.42.87,1.01.78-.71,2.56-1.43,5.12-2.16,7.67l-.32.46c-.15.76-.42,1.87-.88.73-.34-.85-.93-3.36,0-3.96l-.47-.24c-1.89-6.49-3.69-13.39-3.98-20.18-.05.24-.24.37-.58.4-1.01.39-2.95-1.91-2.88-2.88-.09-.23-.2-.5-.53-.79l-8.07-6.94c-2.45-1.78-2.17-5.14-.55-7.44-.81-1.17-.79-1.7.04-1.61.23,0,.46.02.68.06s.42.09.6.19c3.84,2.32,7.64,4.76,10.97,7.69.69.73,1.4,1.04,2.14.92Z"/>
  <path class="st11" d="M98.88-40.13c.68.23,1.12.34,1.92.24,1.04,2.63,2.1,5.96,2.95,8.68,1.93,6.22,3.45,12.62,5.21,18.89l-.55-.08-1.13-2.56c-.97-1.44-1.99-2.92-3.08-4.43l-.28.12c-1.38-.99-2.37-3.09-2.4-4.8-.93-4.93-4.4-8.96-8.75-11.37-3.44-2-6.81-4.03-10.1-6.09l-.57-.05c-.3.52-.44.4-.72,0-.43.54-.86-.48-.31-.95-.74-2.61-1.64-5.2-2.7-7.76-.4-.86-1.1-3.13.4-2.76,1.21.3,4.77,2.24,6.03,2.97,3.68,2.75,7.41,5.44,11.17,8.05,1.23.45,2.2,1.08,2.92,1.88Z"/>
  <path class="st28" d="M101.76,48.11c-.69.48-.35.12-.59-.24-.37-.57-1.5-2.24-1.57-2.78-.13-1.06.65-4.09.73-5.48.36-6.21-.34-14.44-1.85-20.47-.06-.24-.25-1.79-.8-1-.77.17-1.45-2.58-1.34-3.07.29-1.29,1.3-1.36,1.69-.15,1.06-1.25,3.35-2,4.69-1.1.52-.16.11-3.58.24-4.32,4.94,1.06,3.95-1.51,4.62-4.85.52-2.56,1.57-3.42,3.29-5.22-1.47,9.71-4.31,19.35-5.92,28.96-1.1,6.57-2.07,13.14-3.19,19.71Z"/>
  <path class="st24" d="M-61.04,66.09l.63-.08,2.18,1.8c2.43,1.52,4.77,3.21,6.88,5.23l.13.72.19.48c1.22.93,1.64,1.41.32,2.62l-3.66,3.78c.53.54,1.19.97,1.98,1.31.58.4,1.14.9.45,1.41-.61-.36-3.15-2.05-3.6-1.82-.15.08-.25.25-.34.39l-4.69,21.56-.66-1.84c.46-.74.35-1.44.42-2.23-.29-2.13-.37-4.28-.24-6.45-.71-9.09-1.39-18.09-2.06-27.01l.38-.59.12-.48c.54.36,1.08.77,1.56,1.2Z"/>
  <path class="st29" d="M68.67-73.21c3.32,1.23,6.43,3.02,9.59,4.56.36.2.6.44.72.72-.4.01-.68.43-1.07.46-1.96.12-7.1-3.42-9.17-4.24-1.78-.7-9.8-2.98-11.34-2.93-.38-.15-.73-.16-1.06-.04l-9.15-5.13c1.33.88,2.6,1.86,3.82,2.94l-.08.55c.26.57,0,.47-.48.24l-.61.14c-2.33-.99-4.89-1.36-7.71-1.1-2.81-.29-9.44-1-11.35-3.06-.19-.21-.22-.5-.24-.77.7-1.48-1.87-2.55-.93-4.16,1.3-2.24,7.51-.49,9.55.22,2.96,1.03,5.58,2.96,8.58,4.13,6.85,2.66,14.19,5,20.92,7.49Z"/>
  <path class="st39" d="M-73.27,50.02c-.22.09-.65-.11-1.09.22-.51.38-.62,1.5-1.18,1.93-.67,0-1-6.51-1.1-7.29-.86-6.6-1.87-13.41-2.62-20.04-.46-4.1-1.35-8.91-1.2-12.95.66-1.2,1.41-2.35,2.26-3.46l.61-.13c.32,2.69-.44,5.33-.25,8.04.1,1.4.62,2.89.72,4.31.33,4.48-.23,9.59,1.88,13.7.86,1.68,2.47,3.57,3.2,5.19.47,1.04.31,2.29,1.27,3.04.29.23.97.27,1.06.61.13.5-1.44,4.2-1.84,4.83-.18.28-1.6,1.94-1.73,1.99Z"/>
  <path class="st24" d="M88.57-16.63c-.03-.65-.22-1.01-.57-1.07-.27-.7-.49-3.67.72-3.38,3.52,2.69,7.31,4.8,11.35,6.33.91.19,2.95.57,2.4.04.73-.41,1.63-.3,2.7.33,1.59,1.25,2.05,1.25,1.36,0l.25-.56c.06-.65.26-.6.48,0,.23-.1.13-.57.48-.48.11,1.11.86,2.2,1.2,3.12,1.06,2.89,2.45,6.92,2.16,9.83l-3.35-2.04c-3.37-1.12-5.91-3.26-8.9-5.01-1.7-1-8.34-4.39-9.21-5.42-.47-.56-.11-1.67-1.08-1.67Z"/>
  <path class="st14" d="M-62.72,65.37c.45,2.24.26,5.41.48,7.79.79,8.48,2.27,17.84,1.44,26.26-.4-.99-.98-2.47-1.19-3.49-2.41-11.9-3.82-24.16-6.25-36.07.84.27,1.41-1.11,1.83-1.18.95-.17,3.48,5.66,3.68,6.7Z"/>
  <path class="st35" d="M-44.49,79.28c.94.84,1.75,2.17,2.88,2.88.83.64,1.01,3.36.24,4.08-4.19,1.47-7.21-.89-10.55-2.88-.06-1.36-2.88-1.53-2.89-2.76,0-.59,4.12-4.08,4.55-5.07.08-.62-1.58-1.13-.94-1.77,2.49,1.09,4.91,3.44,6.71,5.51Z"/>
  <path class="st58" d="M-.38,111.16c-.1-.35-.03-1.32.12-1.67.39-.88,3.59-3.38,3.9-4.25.1-.28.05-.61.05-.91,0-.22-.43-.15-.57-.09-.77.3-.73,1.65-1.59,1.65.21-1.46,2.29-3.84,2.82-1.26.77,3.8.79,8.09,1.01,11.94.12,2.18.37,4.4.49,6.58-.6.04-.41.06-.47-.36-.45-3.08-.34-6.45-1.63-9.41-.44-1.01-2.6-1.63-3.65-1.98-.17-.06-.4.03-.48-.24Z"/>
  <path class="st22" d="M-41.62,82.15c-.03-.25.25-.71.19-1.25-.15-1.35-.97-2.89-1.15-4.27,2.54,2.27,1.91,6.76,2.41,9.93.74,4.6,1.65,10.07,3.46,14.28.27.62.12.82.12,1.32v3.96s.46.02.48,0c.05-.05.05-1.13.72-1.2-.26.91-.35,2.08-.69,3.02-.12.33.08.41-.5.34-1.22-7.11-3.15-14.09-4.34-21.2-.06-.35-.46-.76-.46-.86-.03-1.49-.08-2.5-.24-4.08Z"/>
  <path class="st51" d="M78.26-68.66c1.21.59,2.46,1.14,3.67,1.72.18.09,1,.21.4.43-1.15-.49-2.09-.61-3.36-1.44-.27-.18-.54-.44-.72-.72Z"/>
  <path class="st51" d="M84.98-64.1c0-.27.03-.3.24-.13.48.37,1.55,2.08.48,1.33-.27-.39-.47-.85-.72-1.2Z"/>
  <path class="st52" d="M17.12,103.25c1.63-2.54,7.06-8.62,9.83-9.47,1.85-.57,3.72-.73,5.52,0,.62.25,1.17.88,1.85,1.03,1.22.26,2.73.13,4.03.53.35.1.42-.13.35.48-4.07,1.13-8.13,2.32-12.17,3.54-.97.29-2.07.98-2.92,1.16-1.04.21-1.91.02-3.02.33-1.63.45-1.99,1.6-2.98,2.77-.08.1-.64.83-.73.35.15-.24.16-.59.24-.72Z"/>
  <path class="st40" d="M88.09,32.28c2.87-1.9,2.37-4.03,3.18-7,.28-1.02,2.09-5.71,2.07-6.07-.01-.28-1.49-3-1.9-2.51l-.36,2.63c-.33-.6-3.19-3.1-2.76-3.59.39-.45,1.25,1.72,1.92,1.44-.05-.91-.02-1.64.23-2.53.28-.99,2.49-5.15,3.12-6.23,1.46-2.51,3.74-4.49,5.27-6.95.47-.91,1.13-.26,1.54-.37.6-.17.35-3.28,2.14-4.12.24-.11.37-.25.65-.08s1.91,2.67,1.93,3.14c.02.37-1.31,3.36-1.47,3.47-.13.1-.85-.35-.95-.24v10.55c-.65.2-1.8-.03-2.87.37-.92.34-1.4,1.14-1.81,1.31-.61.26-.35-1.23-.95-.95-.81.37.46,2.9.6,3.59,1.53,7.64,2.62,17.52,1.32,25.18-.42,2.47-1.31,4.77-1.8,7.19-.54.26-1.2-1.6-1.2-1.8v-3.84c0-.13-.35-.53-.24-.84-.25-.24-1.07.86-1.44.36,1.82-3.31.87-7.17,1.92-10.67-.91.66-1.87-.22-2.24-.2s-1.69.89-2.26,1.1c-2.26.85-4.61.65-3.66-2.34Z"/>
  <path class="st24" d="M68.43,38.52c.97-.72,1.34.42.97,1.33l2.55-1.08c.55-1.78,1.62-2.7,3.19-2.75-1.19-5.02-1.72-10.4-1.35-15.62.25-3.43,1.61-4.81,3.61-1.25l1.07,2.89c.82.34,1.07.88.75,1.62.36.35.14,1.62-.24,1.92-.39,3.09-.01,6.5-.01,9.72,0,1.01.52,1.35-.13,2.49-9.28,11.36-17.71,23.24-26.04,35.34-.53.77-1.2,1.39-1.74,2.09-.31.41-.44,1.12-.74,1.42-.33.33-1.88.69-2.4.73-.77.05-1.9-.32-2.34-.21-.36.09-.85.87-1.48,1.18-.71.34-3.04.95-3.91,1.13-.24.05-1.06.27-1.02-.18,2.53-.79,5.35-1.1,6.9-3.53,1.12-3.98,1.83-8.1,3.05-12.06.4-1.31,1.86-4.19,1.99-5.21.17-1.37-.14-2.27.29-4.14-.67-.24-.49-1.16.24-1.2-.11-.08-.2-.17-.24-.28-.35-1.02,3.25-5.1,4.07-5.99,3.33-3.6,7.38-6.99,12.23-8.11-.05-.67.34-.75.72-.24Z"/>
  <path class="st39" d="M85.46-24.3l.29-.15c.9,1.37,1.85,2.38,2.83,3.03.14-.43.34-.48.69-.24l8.68,5.28c1.39.54,2.83.92,4.35,1.13l.19.55.36.48c-3.79.44-5.28-1.07-8.11-2.68-.84-.48-1.89-.75-2.64-1.2-1.23-.72-2.43-2.02-3.63-2.84-.37,1.44.08,2.87.12,4.31.03,1.11,0,2.24,0,3.36-.22-.07-.4-.08-.41,0-.17,2.01-.23,4.77-.18,6.8,0,.02.15-.02.34-.08-.38,6.04-1.05,14.16-2.75,19.9-1.3,4.39-5.73,7.43-6.12,12.22-.27.51-.53.81-.48,0,.08-.63.06-1.3.24-1.92-.19-.86-.04-1.65.43-2.38,2.03-2.92,3.78-5.99,5.24-9.18.59-1.77,2.28-12.42,1.75-13.57-.02-.04-.3-.08-.36-.06-1.18.36-6.45,6.13-7.34,7.13-3,3.39-4.36,6.18-5.54,10.53l-.66.34c-1.48-.05.03-3.88.96-4.2l-.48-.27v-4.18l.48-.34c-.2-.17-.29-.37-.24-.61,1.54-.77,2.23-2.05,2.41-3.74.09-1.64.19-3.04.67-4.62.33-1.07,1.24-3.24,2.19-3.61l-.13-.76,3.68-6.25c1.67-3.12,2.24-6.35,1.05-9.66-.26-1.08,0-1.58.81-1.51-.12-.97.54-1.86,1.3-.99Z"/>
  <path class="st0" d="M44.46,59.85c-1.35,3.03.21,1.79,1.2,2.75,1.37,1.32-2.8,2.92-3.6,3.24-3.49,1.42-6.69,2.61-10.08,4.43-1.61.87-5.19,2.78-6.46,3.85-.53.45-1.52,2.47-1.93,3.23-.75.25-.94-.41-.55-1.96-1.42.82-2.43.92-3.05.28-1.69.09-3.4.57-5.13,1.42-6.47,3.25-13.02,6.22-19.69,8.65l-.53-.07c-4.73-2.87-9.75-5.82-14.94-7.61-.7.43-1.87-.41-1.68-1.2l.82-.36c4.85.45,9.7,1.08,14.57,1.89,7.47.88,9.85,1.11,16.52-1.6,10.22-4.16,20.56-9.11,30.34-14.46,1.27-1.19,2.66-2.02,4.16-2.48Z"/>
  <path class="st6" d="M60.28-51.39c.36.6.71,1.2,1.03,1.81s.64,1.23.88,1.87c2.25,5.96,4.46,11.93,6.58,17.88,2.34,6.56,3.89,12.59,5.58,19.31.4,1.58.37,3.61.08,5.16l-.02,1.5c-2.31,8.18-4.24,16.47-5.8,24.85-.15,1.32-.61,2.45-1.37,3.38l-.09.47c.73.67.08,1.88-.56,2.68-6.83,9.79-13.6,19.63-20.31,29.5-.09,1.03-.46,1.74-1.1,2.11-.08.05-.42.49-.72.72-8.38,6.33-19.31,10.58-28.94,14.81-4.13,1.81-9.62,4.98-14.09,4.85-6.03-.18-12.06-1.45-18.01-2.13-1.78-.2-3.6-.21-5.37-.51-.21,0-.41-.02-.6-.07-.76-.18-8.24-6.86-9.38-8.03l-.56-1.02-.65.13-2.04-1.26c-5.57-2.41-11.37-5.34-16.63-8.78-1.12-.51-1.23-1.8-.11-1.6,1.53.13,3.42,1.16,4.32,2.4l1.15.11c5.58,2.61,15.65,7.54,19.53,12.08.24.28.35.64.42,1l.31-.15c1.49,1.42,3.08,2.65,4.77,3.69,6.56,1.09,13.17,2.06,19.78,2.75,3.9.41,6.61-.03,10.16-1.51,9.87-4.09,20.24-8.95,29.7-13.88,1.19-.62,2.3-1.42,3.3-2.32,8.1-11.26,16.06-22.67,23.88-34.23,2.65-10.38,5.12-20.83,7.42-31.3.73-3.3-1.59-12.35-2.69-15.8-2.55-7.76-5.42-15.44-8.61-23.05-.63-1.35-.96-2.72-.99-4.09-.64-.82-1.64-2.18-1.2-3.36-.13-.83.94-.8.96,0Z"/>
  <path class="st39" d="M67.23,24.37c.12.49.52.06,1.14-.64l.72-2.81c.77-.57,1.2-.34,1.01.57.7.31.26,2.78-.48,3,.19,0,.47.04.48.16.09,1.48.28,8.15,0,9.15l-.48.28c1.6.14.28,4.76-1.2,4.44-.22.17-.56.15-.72.24-4.85,1.07-8.9,4.57-12.27,8.15-.76.81-4.32,4.87-3.95,5.7.07.17.12.35.15.53-.1.29-.16.83-.24,1.2-1.09.9-2.43,1.7-3.48,2.64-.52.47-1.02,1.54-1.67,1.93-.46.28-1.03.19-1.09.23l.67-2.32c6.68-10.45,14.32-20.3,21.09-30.7-.03-.69.12-1.12.3-1.74Z"/>
  <path class="st38" d="M30.55-80.88c3.27,2.55,7.49,2.92,11.63,3.35,2.76.29,5.91-.5,8.27,1.44,4.42,2.25,8.32,6.54,10.81,10.8,1.1,3.95,1.85,7.97,2.27,12.07l-.37.38c.08.6-.66.83-.96.24-2.58-1.91-4.88-4.12-6.92-6.63-.78-2.44-1.29-4.99-1.54-7.65-.5-1.49-4.81-.6-6.07-.34-.27.06-2.04.43-2.07.55.7.61,2.05,2.34.53,2.33l-.53-.02-5.93-4.69c-6.94-6.19-16.48-7.42-25.48-8.34-11.73,4.32-23.28,8.83-34.64,13.51-1.81,2.17-3.2,4.65-4.16,7.45.64.43-.34,2.22-.96,2.16.22,1.64-1.66.95-1.44-.48l-.49-.12c-.1-.65-.4-1.23-.71-1.8-.39-.41-.87-.6-1.41-.58-.3-.32,0-4.3.13-5.08l.56-.57c1.23-7.46,6.98-8.39,12.3-11.79,3.57-2.28,5.97-4.79,9.99-6.79,4.7-2.34,10.16-4.58,15.17-6.17,2.11-.67,6.25-2.15,8.29-2.28,2.87-.19,3.7,1.58,5.72,3.02,2.88,2.04,5.23,3.88,7.99,6.04Z"/>
  <path class="st38" d="M-33.47-60.27c1.92-.68,1.42.72.51,1.78.58,3.36,1.11,6.75,1.6,10.18-2.13,3.76-2.93,1.05-3.27-1.77l-.52-.35-.36-.07c-.25-1.23-.77-2-1.56-2.32-.48-.21-.21-.14-.22-.13-4.86,4.31-8.89,8.6-11.32,14.81-1.68,4.64-3.65,9.05-5.91,13.23-.82.84-1.32,1.77-1.49,2.78.21.04.21.13,0,.24-.76.87-1.27-.13-.72-.96-1.11-.8-1.25-2.83-1.29-4.2l-.39.12c-.41.03-.12-.18-.13-.16-.08.21-.38.96-.49,1.1-.04.06-.18.05-.35.02l-.36-.96c-2.56,1.95-3.45,5.15-5.4,7.55-.56.69-2.84,2.48-3.01,2.76s.15.7.09,1.02c-.87,4.16-.51,9.11-2.63,12.72-.56.96-2.58,4.01-3.33,4.58-.35.27-.8.41-1.18.62l-.33-.68c-.06-1.66.45-4.48,1.05-6.04.55-3.62,1.64-7.39,2.33-10.97s.97-7.5,1.9-10.8c.76-2.69,5.47-7.35,7.63-9.4,1.72-1.63,11.63-9.82,11.87-11.15.11-.62-.04-1.3.11-2.05.64-3.19,3.48-10.36,6.79-11.43,2.87-.93,7.48-.87,10.36-.07Z"/>
  <path class="st39" d="M-33.47-60.27c1.4-.75,2.4-1.72,3.48-2.88l.36.72.72-.48c-.31,1.88-.16,3.65-.48,5.51,1.07-.88,1.12-.41,1.2.72.54.71.67,1.64.39,2.78-.8,3.39-1.24,6.84-1.33,10.34l-.51.55c.01,3.33-.23,6.68-.51,10.07l-.45.24c.8.38.37,2.15-.63,2.05-1.27-.13-3.29-13.31-3.37-14.49.13-.57.19-1.14.16-1.71-.13-.03-.26-.07-.36-.15-.14-.11-.86-3.19-.36-3.45.43-.3.65-.38.91.17s.62,3.31.77,3.42c2.78-1.08,1.33-2.98,1.02-4.98-.24-1.54-.31-3.12-.61-4.66-.35-1.77-1.09-1.49.54-3.42-.25-.46-.65-.28-.96-.36Z"/>
  <path class="st19" d="M-75.18,2.31c-.4,1.47-1.7,4.6-2.4,5.99-.64,1.28-1.76,2.68-2.88,3.6.08-2.24,2.13-12.28,3.37-13.77.61-.73,2.16-1.28,2.62-2.53-.33,2.18-.09,4.4-.72,6.71Z"/>
  <path class="st39" d="M-54.09,54.58c.58-.39,2.19,1.04,2.16,1.68l-.43.68c4.3,2.82,8.8,5.32,13.46,7.51,2.86,1.35,3.64,1.32,6.4,3.31.94,1.51.86,1.99-.24,1.44-2.08-1.66-4.96.56-6.47,2.16-.21.23-.34.53-.63.7-1.98-1.13-3.63-2.9-5.53-4.25-2.58-1.83-5.54-3.56-8.23-5.32l-.63-.03c-2.83-1.8-5.68-3.55-8.54-5.25-.16-.34-.06-.59.3-.71.22-.08.53-.03.88-.18,2.58-1.14,4.41-3.1,7.51-1.73Z"/>
  <path class="st14" d="M-21.96,76.88c.71.55.8.67,1.68,1.2.85.1,2.05.26,2.16,1.2l.24,1.68c-2.65.15-5.34,2.92-7.67,3.5-1.24.31-.87-.78-1.34-1.56-.27-.44-.76-.63-1-1.16-.49-1.09-.36-3.18-.61-4.43-.34-1.71-2.99-7.09-4.25-8.09,1.02.12.12-.68,0-1.31l.24-.13c3.91,2.83,6.89,6.3,10.55,9.11Z"/>
  <path class="st14" d="M20,75.68c.23-.07.66.04,1.01-.06.89-.25,1.7-.66,2.58-.9.3.33-.69,2.17,0,2.64-1.06,1.98-1.63,3.56-3.02,5.49-.4.56-1.23,1.07-1.51,1.61-.33.63-.1,1.48-.75,1.77.23-1.82-.8-3.29-1.27-4.85-.36-1.2-.49-2.49-.88-3.67-.22-.66-.43-.29-.97-.35.93-1.07,3.39-1.76,4.8-1.68Z"/>
  <path class="st9" d="M-20.28,78.08c1.68-.66,3.65,1.16,5.19,1.88,1.43.67,2.92,1.11,4.33,1.91s4.53,3.4,5.94,3.41c.73,0,6.51-2.57,7.74-3.07,5.54-2.23,10.61-5.59,16.35-6.91.46-.11.84-.36.73.37-1.5.43-3.34,1.09-4.8,1.68-3.52,1.42-6.56,3.61-9.91,5.08s-7.14,1.99-10.35,4.02c-4.01-3.06-8.65-4.88-13.06-7.18-.7-.36-1.48-.8-2.16-1.2Z"/>
  <path class="st55" d="M-25.31,88.87c-.11-.72.28-.5.74-.38,2.96.78,5.95,2.35,8.8,3.19,2.61.76,6.51.69,9.06.32.7-.1,1.4.07,2.02.36.36.17.59-.04.48.59-1.34-.51-2.45,0-3.71.02-.47,0-2.19-.33-2.28-.26-1,.85,2.78.94,2.98.98,5.17,1.02,6.53,1.55,11.82.51.65-.13.66-.12.31.43-.65.16-1.31.48-1.91.61-2.76.59-8.65-.31-11.56-.92-5.61-1.18-11.28-3.65-16.73-5.44Z"/>
  <path class="st14" d="M-62.48,56.5c-.13.58.3.5.63.68,2.89,1.55,5.51,3.53,8.24,5.32-.59.47.48,1.07.48,1.56,0,.32-1,1.63-1.14,2.45-.7,4.13,1.56,4.55,4.02,6.89,1.76,1.67,3.72,3.29,5.4,4.91.11.1.8.86.35.97-2.1-1.89-4.59-3.72-6.71-5.51-1.49-1.25-2.63-2.53-4.38-3.65-2.65-1.7-3.05-1.86-5.45-4.02-.57-2.06-3.16-7.33-2.11-9.19.25-.45.36-.29.68-.4Z"/>
  <path class="st15" d="M-58.4-26.94c.1-.39.16-1.4.72-1.2-.03,1.7.48,3.63.96,5.27.26,1.29-.88,1.14-1.25.1-2.78,13.14-5.58,26.17-8.41,39.09-.59,2.66-.98,4.95.62,7.31l-.31.49.9,1.39c4.29,9.7,8.46,19.23,12.52,28.59,1.38,1.04,2.86,1.96,4.44,2.74,1.04.45,2.5,2.26.6,1.8-1.41-.83-2.92-1.56-4.32-2.4-.55-.33-1.55-1.41-2.16-1.68-.24-.83-.79-3.37-1.44-3.84-4.81-9.83-9.17-19.93-13.07-30.29l.86-5.18c3.18-14.05,6.15-27.98,8.91-41.79l.41-.42Z"/>
  <path class="st37" d="M-58.4-26.94c-.79,3.1-1.1,6.47-1.75,9.64-2.6,12.59-6.04,25-8.09,37.71,1.57,3.94,3.14,7.88,4.77,11.79,2.59,6.2,5.5,12.28,7.95,18.54-1.27-.9-2.16-3.16-2.92-4.87-3.71-8.37-7.26-16.92-10.52-25.45,1.94-13.05,5.61-25.8,8.29-38.72.5-2.4.58-5.4,1.31-7.68.19-.59.99-2.16.96-.96Z"/>
  <path class="st21" d="M88.57-13.27c0,2.33-.1,4.41-.24,6.71l-.24,1.2-.49-.83c.29-3.18.03-6.44.24-9.61.03-.42.09-1.57.49-1.79.15,1.37-.31,3.03.24,4.31Z"/>
  <path class="st19" d="M60.76-70.81c.27.05.53.11.79.2s.49.18.69.33c3.94,2.86,7.79,5.85,11.39,9.12,1.83,1.67,3.9,3.62,5.11,5.7,3.45,3.18,6.34,5,9.95,7.67,2.36,1.75,3.71,3.32,6.59,4.92,1.26.7,2.6,1.32,3.98,1.78.52.52.64,1.17-.38.97-5.14-1.75-9.74-7.06-14.62-9.72-1.84-1-3.83-1.7-5.64-2.75-.35-.05-.43-.03-.34.34.58,2.44,2.01,5.3,2.75,7.81.1.34.62,2.15.61,2.27,0,.13-.5.12-.51.26-.02.27.25.33.25.35l.64.58,1.65,8.61c.7,3.83,2.22,7.29,4.87,10.16l.04.8s-.21.24-.37.23c-.39-.04-2.35-2.56-2.74-3.11l-.77-.28c-2.16-4.42-3.45-9.19-3.88-14.3.05-.34-.78-3.44-1.03-3.24-.29,1.04-.8,1.63-1.5,1.77-1.2.18-.41-1.79.48-1.68-.33-.19-.53-.59-.59-1.21l-1.37-1.47c-2.27-3.65-4.72-7.17-7.35-10.56-.53-.19-2.16,4.54-2.31,5.27l-.6.29c-.35.52-.7.75-1.06.68-.45-1.7-1.27-2.76-2.47-3.18l.17-.62c-.58-1.41-.7-5.19-1.03-7-.9-4.88-1.3-6.48-4.71-10.15-1.81-1.95-4.85-4.37-6.96-6.11l.48-.24.63-.16c3.6,2,6.54,4.81,8.83,8.44l-.29-2.45c.02-.35.31-.4.66-.31Z"/>
  <path class="st18" d="M57.4-74.65c-.08,0-.16,0-.24,0l-.11.41c1.41.67,2.62,1.7,3.71,2.81v.62c-.76.53.97,3.65-.36,3.35-.62-.14-3.29-4.23-4.07-5.04-1.9-1.97-3.38-2.48-5.4-3.83-.36-.24-1.14-1.13-1.7-1.54-.76-.56-3.73-1.68-2.05-2.51l10.22,5.73Z"/>
  <path class="st30" d="M57.16-74.65c1.81,1.24,3.75,2.4,5.49,3.74,4.73,3.62,11.84,9.42,15.6,13.89.1.12,1.63,1.75.49,1.55-2.16-1.99-4.03-4.15-6.23-6.12-3.77-3.37-7.8-6.17-11.75-9.23-.96-.74-1.75-1.85-2.65-2.51-.43-.32-1.07-.32-1.44-.72-.67-.71-.03-.56.49-.61Z"/>
  <path class="st28" d="M82.1-41.56c1.73.65,3.39,1.59,4.98,2.81,6.45,3.43,13.01,7.08,14.44,14.69.81,1.58,1.56,3.24,2.4,4.8.18-.02.33-.02.39.06.44.51,2.66,3.55,2.67,3.91,0,.11-.08.23-.19.35.2.44.5.8.5,1.32,0,1.74-1.72-.07-2.49-.41-.72-.32-1.57-.46-2.32-.67-1.21-.35-3.1-.56-4.01-.91-1.98-.74-8.86-5.64-9.9-5.81-1.01-1.22-2.12-2.54-2.93-3.9-2.7-4.54-2.91-11.11-4.26-16.24.08-.33.56.01.72,0Z"/>
  <path class="st46" d="M101.52-24.06c-3.4-6.61-3.04-7.44-9.61-11.61-3.22-2.04-6.62-3.8-9.81-5.89.05,0,.27-.26.59-.26.75,0,3.3,2.19,4.22,2.76,5.75,3.54,11.17,5.12,14.17,11.96.32.74.96,2.31.44,3.04Z"/>
  <path class="st44" d="M103.92-19.27c-.11-.43.13-.75.5-.33s.73,1.34,1.18,1.88c.89,1.05,2.05,1.2,1.67,2.76-.1.05-.34-.03-.48,0-.67-1.47-2.01-2.7-2.88-4.32Z"/>
  <path class="st11" d="M79.22,23.65c.24-1.04-.73-.64-1.15-1.36-.57-.97-1.17-4.51-2.57-4.64-.74-.07-.99.45-1.08,1.08-.4,2.97-.13,9.87.28,12.93.12.89,1.06,4.09.91,4.55-.19.6-1.36.26-2,.66-.68.42-.67,1.6-1.21,2.14-.87.88-3.31.93-4.09,2.39-.31-.82,1.8-2.58.12-2.88.84-.64,1.48-2.45,1.46-3.48,0-.43-.27-.84-.27-.95v-9.59c0-.24.39-2.66.48-3l-.31-.57c.78-1.49,1.58-2.96,2.4-4.43l.54-.04c.97-2.28,1.6-5.29,2.83-7.36,1.58-2.65,4.06-4.88,6.17-7.02.99-1,3.33-4.1,4.55-4.1.94,0,.88.55.85,1.34-.11,3.33-.82,9.07-1.63,12.29-1.2,4.77-5.06,7.65-6.3,12.04Z"/>
  <path class="st45" d="M67.71,38.76c-1.79,1.03-3.85,1.66-5.59,2.68-3.25,1.91-9.27,8.15-10.48,11.7-1.52-.26-.3-1.73.14-2.38,2.84-4.21,9.84-10.76,14.77-12.08.35-.09.91-.39,1.15.07Z"/>
  <path class="st32" d="M64.83,55.06c-.94.7-.47-1.6-.46-1.79.01-.91-.14-1.65-.19-2.48-.01-.27-.11-1.02.3-1,.46.01,1.36,4.53.36,5.27Z"/>
  <path class="st11" d="M85.46-24.3c-1.57-.05-.4,1.57-.72,2.64l-.95-1.44c-.19,1.78.81,3.14.73,4.92-.25,5.25-3.54,8.88-5.77,13.06-.95.95-4.47.52-4.08-1.2-.23-.34-.06-.76.49-1.24-.21-3.18-.82-6.31-1.84-9.4-1.77-7.83.39-16.05,4.18-22.96l.76-.45c.4-.78,1.09-1.45.96-2.4,1.33-.12,1.63,1.78,1.85,2.82,1.09,5.06,1.28,11.37,4.38,15.64Z"/>
  <path class="st38" d="M78.74-5.12c-.34.64-1.71,3.57-1.91,4.21-.73,2.32.17,4.99-1.81,7.3-.39.45-1.32.51-1.32,1.08v4.8c0,.8-1.71,3.13-.96,4.2-.61,1.43-2.36,3.98-2.64,5.03l-.48-.6c-.64,1.46-.16,3.36-1.98,4.02-.79.29-.35-.05-.42-.54,2.7-9.67,3.75-20.38,7.19-29.73-.11-.54-.03-.86.24-.96.5,1.41,2.89,1.18,4.08,1.2Z"/>
  <path class="st12" d="M59.32-51.39c.49,1.05.98,2.22,1.2,3.36l-.32.09c2.31,6.72,4.84,13.37,7.6,19.95,2.05,5.44,5.88,17.69,4.97,23.14-2.32,10.49-4.85,20.98-7.58,31.45l-21.32,30.7c-1.7,2.85-3.63,4.33-6.65,5.99-7.06,3.89-15.42,7.6-22.85,10.84-5.73,2.79-9.85,4.46-16.11,4l-13.41-1.72c-5.03-.16-7.78-1.42-11.06-4.7l-.3.14c-1.48-1.28-2.89-2.62-4.45-3.83-4.99-3.86-11.22-6.17-16.65-9.36.65.08.65-.18.23-.59-1.5-1.45-5.06-2.5-6.08-4.23-.44-.75-.6-2-.98-2.85-3.94-8.92-8.02-17.79-11.62-26.86l.11-.59c1.21-.6,1.74-1.72,1.69-3.02-.4-2.66.11-4.9,1.02-7.44.6-6.3,1.74-12.4,3.4-18.29-1.08-1.38-.72-3.12,1.08-5.24.21-2.61.96-4.86,2.25-6.74.68-.58,2.88-1.23,3.63-.87l.38.35c-4.05,10.72-6.1,22.57-7.35,34.34-.47,4.43-.64,7.83.79,11.9,2.77,7.93,6.98,16.62,10.89,24.12.54,1.04,1.33,2.16,2.04,3.09,0,.01.09-.08.2-.19l.51-.11c3.39,1.9,6.72,3.99,9.98,6.26,1.36.57,2.68,1.14,3.97,1.71.48-.44,1.41-.14,1.61.54.34-.61,1.68-.2,1.68.48,2.78.21.41,1.02,3.26.86-.01.23,5.1-.33,5-.11-.11.23-4.42.49-5.11.52-.09.17.13,3.77.19,3.96.16.48,4.32,1.86,5.45,2.22l.8.71.27.43c7.75,1.06,15.94,2.09,23.47,2.11,10.3-4.79,20.71-9.57,31.22-14.33l2.62-1.5c7.73-10.5,15.26-21.08,22.57-31.73,4.08-10.67,6.51-22.75,8.09-34.1-.55-.47-.3-1.63.48-1.68.49.23.34-1.31.24-2.15-.39-3.44-1.11-6.47-2.18-9.76-3.17-9.77-7.2-19.55-11.19-29.14-2.08-1.44-4.26-2.78-6.53-4.04-6.08-4.48-12.31-8.63-18.7-12.45-5.58-.14-11.44-.56-16.93-2.7l-.34-.42c-.14-.45-.31-.7-.5-.74-3.15.56-4.1.16-2.83-1.2,2.2-1.97,15.65.87,18.96,1.94,1.66-.58,2.61-.47,4.26.23.36.06,3.11.33,3.24.24.29-.21-4.59-3.34-5.13-3.56-2.84-1.12-16.08-4.52-18.66-3.58-11.26,4.12-22.39,8.62-33.49,13.12-.22.09-.55.51-.71.72-1.29,2.49-2.56,4.99-3.82,7.51-.58,1-2.07,1.34-1.36-.05.36-.62.65-1.59.96-2.16.93-2.8,2.34-5.3,4.26-7.51,11.06-4.56,22.5-9.09,34-13.3,2.42-.89,15.43,2.26,18.36,3.37,1.93.73,4.06,2.08,5.69,3.35,7.05,5.49,14.1,11.07,20.71,16.87.84.78,1.14,1.53.9,2.25Z"/>
  <path class="st39" d="M65.79-48.28l.32.53c-.88,2.49-1.09,4.94.61,7.08.36,1.84,1.04,3.46,2.05,4.87.53.12,1.32-6.84,1.32-7.49.15-.33.19-.38.42-.6.65-.59,6.92.97,8.09,1.31l.13.54c-.09.48-1.05,1.36-.48,1.68-3.15,6.22-4.4,9.03-5.03,16.19-.59,6.67,1.97,9.91,2.39,15.58.14,1.84-.19,1.31-.96,2.28-.39.5-.15.7-.24.96l-.55-5.08c-1.83-9.56-5.23-18.36-8.55-27.41-1.66-4.52-3.33-9.05-5.05-13.54-1.02-.24-.13-1.2.73-.93.65.54,1.31.53,1.98-.05,1.15.55,1.93,1.58,2.33,3.1.52.05.64.52.48,1Z"/>
  <path class="st15" d="M-26.51,71.84c-.11-.67.27-.58.71-.35,1.94,1.02,2.37,2.86,5.04,3.59,3.83,1.05,9.46,1.33,13.52,1.83,3.76.46,8.59,1.76,12.2.64,6.52-2.04,14.64-6.27,20.95-9.26,5.11-2.41,10.78-4.72,15.28-7.98l23.68-33.86c1.99-6,3.01-12.24,4.38-18.39.92-4.14,2.67-9.28,3.18-13.36.55-4.35-2.32-14.67-3.77-19.12-2.46-7.56-6.85-15.82-8.77-23.35-.25-.97.16-1.11.62-.26,2.8,8.38,6.95,16.96,9.47,25.42,1.37,4.59,3.69,13.02,3.21,17.6-2.66,10.43-4.54,21.05-7.43,31.41-7.9,10.55-14.86,22.61-22.89,32.97-2.13,2.75-3.92,3.52-6.97,5.02-7.67,3.79-16.04,7.75-23.9,11.11-4.92,2.1-7.41,3.37-12.99,3.07-6.73-.36-13.83-1.96-20.55-2.7-1.49-.46-3.72-2.92-4.98-4.01Z"/>
  <path class="st36" d="M46.13-64.34c.35-.03.68.03,1,.18l9.88,8.3,5.19,3.27c.26.02.67-.21.96-.24.25.6.92.72,1.31,1.21.52.65.56,1.63,1.08,2.28l.97-.37c.67.44.01,1.51-.72,1.44-1.14-.83-1.02-3.1-2.39-3.73-.38-.17-.86.58-1.34.62-.56.05-.99-.65-1.63-.5-.24.06-.12.46-.15.49-.03.04-.7-.25-.96,0-1.29-2.73-4.68-5.2-7.08-7.19-4.65-3.87-9.9-8.03-14.76-11.61-2.83-2.08-4.18-3.16-7.69-4.06s-10.21-2.52-13.75-2.8c-.73-.06-1.56-.07-2.28.11-7.15,3.1-14.57,5.53-21.81,8.4-3.1,1.23-9.74,3.42-12.21,5.05-1.57,1.04-2.89,4.78-3.81,6.51-.16.3-.48.46-.53.54-.42-.15-.05-.76.06-1.02.5-1.24,2.88-6.21,3.8-6.76.65-.38,1.63-.41,2.38-.74,10.66-4.71,21.57-8.75,32.51-12.81,4.74.32,9.82,1.45,14.49,2.5,6.99,1.57,11.97,6.54,17.5,10.91Z"/>
  <path class="st17" d="M-25.55-54.27c-.09.59.13.68.58.23,1.77-1.77,3-7.51,5.08-8.82,11.07-4.7,22.37-8.84,33.59-13.16,1.14-.07,2.37-.15,3.5-.03,2.94.3,13.78,2.7,16.19,3.95,1,.52,4.09,2.76,4.83,3.57.29.31.18.48-.16.57-.36.1-3.25-.15-3.79-.23-.77-.12-1.73-.74-2.43-.72-.54.02-.8.42-1.21.49-.88.15-1.97-.5-2.89-.69-3.13-.62-14.44-3.17-16.64-1.12-.11.1-.26.21-.23.36.51.37,4.68-1.35,3.6.96-.61.58-1.35.86-2.14,1.12-4.53,1.51-9.06,3-13.67,4.28-3.79,1.23-7.69,2.55-11.3,4.07-4.49,1.89-7.12,4.33-10.28,8.01-2.39,1.81-4.34,3.29-5.1,6.28-.27.52-.77.61-1.02.03-.27-.62.79-7.77,1.14-8.84.08-.24.61-.77.88-.81.57.6.92,1.54,1.44.48Z"/>
  <path class="st39" d="M62.2-52.59c-1.18-.07-2.38-.7-3.33-1.34-4.09-2.73-8.7-7.23-12.73-10.41.62-.55-.33-1.5-.74-1.78-.3-.21-1.54-.19-.15-.91,1.2-.62,5.63-1.27,7-1.14,1.94.18,1.84.6,2.21,2.34.45,2.13.12,4.26,1.18,6.25.62,1.16,2.65,3.03,3.68,3.99s2.34,1.29,2.88,2.99Z"/>
  <path class="st33" d="M14.49-68.9c3.78,1,7.44,2.37,11.39,2.64,2.25.15,3.7-.34,5.87.48.36.24.47.41,0,.48l-.48.37c-2.81-.32-5.63-.51-8.48-.55l-.38-.54c-.33.29-.71.4-1.14.27l-6.64-1.95c-3.75,1.3-7.55,2.42-11.4,3.36l-.36.51c-5.38,1.44-10.67,3.19-15.87,5.25h-.55s-.33.67-.33.67c-3.31,1.78-6.21,4.19-8.68,7.21-2.7,1.85-3.47,2.82-4.63,5.74-.56,1.42-1,2.9-1.41,4.36l-.54.23c-.09.12-.19.22-.3.27-.47.21-.23-2.46-.17-2.91.14-4.12,1.67-10.15,1.44-13.67.74-.06,1.18,1.35,1.2,1.92.02.86-.49.87-.66,1.38-.81,2.43-.99,5.9-.9,8.45.8-.94.86-2.24,1.56-3.24.93-1.34,3.01-2.54,4.2-3.71,1.61-1.58,2.94-3.46,4.67-4.92,2.58-2.19,6.73-3.52,9.95-4.68,7.47-2.67,15.18-4.78,22.66-7.43Z"/>
  <path class="st2" d="M-52.89-18.07c-.82.62-2.11.51-2.97.99-2.04,1.15-1.79,4.8-2.43,6.68-.52,1.53-2.23,2.46-1.69,4.34.13.47.6.44.63.61.09.56-.72,2.07-.9,2.9-1.11,5.11-1.72,10.35-2.49,15.49-.22,1.47-1,2.83-1.14,4.13-.28,2.57,1.22,5.48-2.19,7.05-.34-.87-.98-1.94-1.21-2.74-.47-1.67.71-6.29,1.08-8.29,2.36-12.54,5.93-24.81,8.04-37.4l1.44,1.44h0c.15.5.23,1.15.72.96,1.8-2.18,3.24-4.63,4.32-7.34,3.5-8.93,7.32-17.59,15.21-23.47.53.13,1.95,5.98,1.59,6.55-6.57,8.92-13.29,18.07-17.6,28.16l-.4-.06Z"/>
  <path class="st59" d="M-37.06-52.83c.17-.15.76-.62.96-.48.17.97.71,1.96.96,2.88.29,1.04.49,2.49.72,3.6.2,1.2-.27,2.13-1.03,3.08l-5.56,7.35-.84.36-.15.78c-2.49,3.99-4.86,8.03-7.06,12.2-2.05,2.97-3.28,6.68-4.4,10.15-2.91,9-4.56,18.83-5.57,28.17-.46,4.28-.88,8.76.57,12.88,3.39,8.37,7.09,16.61,11.1,24.71v.53c.8,0,1.83,1.42,1.43,2.16.17.28.49.5.48.84-.07.26-.32.14-.49,0-.27-.22-2.05-2.72-2.32-3.19-3.32-5.66-6.79-14.53-9.46-20.75-1.67-3.88-3-6.19-2.83-10.59.37-9.69,2.4-19.18,4.18-28.66l3.49-11.26c.73-.55.76-1.71,1.16-2.56,4.28-9.25,10.62-17.43,16.55-25.66.11-.5-.96-5.28-1.27-5.83-.17-.3-.3-.26-.48,0-1.77,2.1-3.97,3.93-5.76,5.99-2.64,3.04-4.23,6.77-5.91,10.39-2.27,4.89-3.93,10.42-7.51,14.55-.39-.18.12-.62.12-.72,0-.08,0-.16,0-.24-.04-.35-.01-.69.18-.99,1.33-1.99,2.41-3.64,3.44-5.85,2.38-6.15,4.63-11.88,8.47-17.3.96-1.35,5.25-6.07,6.52-6.64.08-.04.2.01.33.09Z"/>
  <path class="st5" d="M-56-22.14s-.26-.27-.26-.59c-.02-1.2.87-1.34,1.42-2.2.34-.54,2.32-4.2,2.49-4.7,3.27-9.17,6.57-17.43,14.69-23.43.46-.34.67-.45.6.24-1.6,1.35-4.19,4.13-5.64,5.75-6.39,7.13-7.64,17.33-13.3,24.94Z"/>
  <path class="st7" d="M-15-40.84c-3.93,4.88-7.94,9.71-12.03,14.48-2.38,2.82-4.08,5.83-4.3,9.64l-2.32,18.68c-.22,2.51-2.73,2.07-4.16.74-.98-.9-8.59-10.79-8.57-11.51-.05-.77.56-.87,1.2-.96,1.64-3.48,4.76-6.12,7.85-8.39-1.55-2.65-2.22-5.23-2.75-8.24-.39-.36-.72-.73-.99-1.12.13-1.62.11-3.02-.05-4.22l-.34-.58c.81-1.49.7-2.55-.35-3.18l-.03-.56c2.14-3.08,5.22-6.53,7.06-9.61.23-.39.42-.69.38-1.18.79,3.77,1.05,7.7,1.93,11.38.14.57,1.14,3.96,1.3,4.21.07.11.31.31.36.24l.24-1.68c.29-.14.46-.33.51-.57.08-2.27.29-4.54.53-6.81.02-.21.16-.3.4-.29.23-1.31,2.12-6.88,2.87-7.8s2.56-2.07,3.49-2.99c3.51-3.46,4.46-5.26,9.22-7.44l1.39-.21c3.1-1.29,6.37-2.54,9.74-3.36.91-.17,1.45,1.62,1.63,2.3.72,2.72-2.22,6.55-4.14,8.28-3.23,2.37-5.94,5.12-8.13,8.25,1.03,1.65-.57,2.4-1.93,2.48Z"/>
  <path class="st42" d="M-29.63-43c-.02.7-.32,2.78.48,2.64-.21,1.21-.36,3.15-.48,4.44-.08.86.53,4.09-.96,3.23l.96-10.31Z"/>
  <path class="st38" d="M78.74-42.04c-1.07-.4-7.6-1.86-8.13-1.41-.39,1.74-.28,3.55-.56,5.31-.17,1.08-.99,2.14-.66,3.41-.5.5-.48-.23-.71-.47-1.83-1.9-1.54-3-2.4-5.29-.22-.57-.68-.97-.9-1.49-.83-1.93-.26-4.37.42-6.29.14-.41.5-.81.72-1.44.73-2.1,1.22-4.59,2.76-6.23.97,0,6.88,9.56,7.93,11,.78,1.08,1.85,1.2,1.54,2.9Z"/>
  <path class="st52" d="M-12.61,55.3c9.69-.06,19.35,0,28.99.2l.11.5c-.75,4.17-1.03,8.31-.85,12.42.3.17.08,1.02-.16,1.18-1.94,1.36-7.6,3.99-9.92,4.43-5.39.18-10.73.01-16.02-.5-.01.2-.07.43-.21.43-.94.06-7.72-.69-7.88-1.05-.05-.1-.06-.22-.06-.34-2.35-.57-4.57-1.46-6.72-2.57l-.24-4.87h2.52s-2.31.28-2.31.28c-2.47-.15.41-.56-2.03-.74-.45-.03-.67-.23-.81-.26,1.79-.41,3.67-.57,5.65-.46,2.95-.21,9.69-.8,12.08-2.04.22-.12-1.34-2.37-1.49-2.58-.39-.68-.84-1.51-.21-2.19-.78-.4-1.71-1.63-.45-1.83Z"/>
  <path class="st50" d="M-33.47,35.88l.66.26c5.05,5.85,10.19,11.62,15.41,17.31l.23.66c-.19.58-.73.82-1.63.73-3.83-.2-5.1-.13-7.76,2.6-.39.41-3.57,3.7-3.44,3.93.79.31.92,2.27.12,2.57-2-.46-3.51-.66-5.44-1.63-3.75-1.89-6.85-4.98-10.63-6.76-.44-.72-1.04-1.43-1.44-2.16-1.42-3.87-3.1-7.72-5.04-11.57-.09-.38-.09-.76,0-1.14-.14-1.74.87-3.84,1.69-5.43.4-.78,1.64-3.05,1.91-1.52.21.05.34.16.37.36l-1.05,3.17,3.46,1.17.09.57c1.1.14,1.66,1.06,1.69,2.74,1.09,1.16,1.97,2.46,2.63,3.89-.41-.83-.09-1.84.93-1.49.82,1.46,5.44,7.29,7.32,6.18.04-.02.08-.06.12-.09-.16-1.25-.12-1.56.37-2.6.27-.57-3.45-7.58-4.3-8.64-.14-.28-.31-6.05-.11-6.3.23-.3.46-.46.86-.41.24.03,3.21,3.07,2.97,3.61Z"/>
  <path class="st48" d="M-12.85,55.3c.04-.21.13-.2.24,0-.74,1.31,1.77,1.36,1.44,2.64l-.84-.48c-.21,1.38,1.61,2.8,1.93,4.07.08.33.24.6-.13.85-5.95,1.57-11.8,2.42-17.98,2.04-.88-.14-1.21-.37-1.68-.48v-2.16c-.04-.05-.95.6-1.09.72-.4.35-.46,1.51-1.07.12,2.34-1.69,5.63-7.03,8.15-7.91,2.17-.76,4.54.03,6.71-.6.38-.02.79.17,1.23.58,1.2-.02,2.23.19,3.08.62Z"/>
  <path class="st16" d="M-18.6,72.56c1.84.44,6.42,1.27,8.15.96,5.25.45,10.39.73,15.42.84,3.87-1.21,7.54-3.17,11.21-5.26,7.37-3.07,14.63-6.37,21.78-9.9l.74-.06c-.26-.16-.13-.54,0-.81,7.51-10.22,14.94-20.5,22.29-30.83,2.03-5.52,3.66-11.17,4.88-16.95l.41-.56c-.27-1.12-.13-2.33.44-3.66.54-2.14,1.03-4.22,1.49-6.41.07-.31.17-.56.47-.72.22-.67.16-1.14-.19-1.4-.1-1.04.95-6.25,2.01-6.61.44.25-.64,3.12-.69,3.51-.81,6.45-2.21,11.89-3.7,18.13-1.73,7.25-2.05,11.67-6.35,18.11-6.5,9.72-13.9,18.96-20.57,28.58-5.43,3.34-11.82,5.56-17.67,8.22-4.61,2.1-9.05,4.54-13.74,6.4-.77.31-1.87,1.11-2.58,1.26-1.05.22-4.41-.1-5.7-.19-4.98-.34-10.62-.82-15.56-1.47-1.09-.14-2.19-.34-3.27-.56l.72-.6Z"/>
  <path class="st52" d="M65.08-26.22l.29-.04c.08.63.3.96.67,1,.18.01.33.04.39.13,1.1,1.75,2.59,7.51,3.11,9.74s1.04,4.74.83,6.93c0,.08-.12.15-.25.22-.04.32-.38,1.07-.48,1.68-.07.4-.36,1.03-.45,1.59-.21,1.31-.06,2.91-.51,4.16l-.33-.02c-.38,2.46-.92,4.87-1.62,7.25-.26.31-2.46-.52-2.13-1.23l-.35-.6c.64-3.26,1.51-7.28,3.21-10.05-.04-.78.07-1.3.96-1.43-.42-3.09-1.37-6.15-2.85-9.19-.05-.32-.05-.58.23-.8-.56-.23-.87-.86-.92-1.91-1.26-2.64-2.32-5.6-.26-8.06l.46.61Z"/>
  <path class="st10" d="M31.75-65.78c6.16,2.34,14.75,9.67,20.73,13.43,1.59,1,3.44,1.52,4.79,2.88,3.12,7.89,6.51,15.75,9.35,23.74,1.77,4.98,4.13,11.9,3.97,17.14-.01.42.07.97-.48.36.58-4.56-2.5-12.63-4.08-17.02l-.71-1.13c-2.73-7.84-5.73-15.38-9.02-22.63-8.03-5.31-16.17-10.55-24.42-15.72l-.13-.56v-.48Z"/>
  <path class="st11" d="M3.22-64.34c2.72-.55,5.38-1.33,7.98-2.33,1.27-.63,2.12-.6,2.56.11l-.28,9.93c-2.32,2.91-4.64,5.82-6.97,8.75l.07.33c.28.18.46.15.55-.1l4.75-.3c.37-.77.98-1.44,1.84-2,1.35-1.92,2.94-3.28,4.78-4.1,1.24.02,5.79,4.95,5.67,6.55l1.72.58c.57.28.92.61.34,1.05-.16.16-.32.28-.48.28-2.36,0-4.91-.22-7.19-.52l-5.75-.24c-1.23.45-2.82.36-4.08,0l-.83.51c-7.66,1.06-15.12,2.94-22.38,5.64l-.53-.16c-.25-.04-.25-.2,0-.48,1.19-.95,2.66-.79,1.21-2.49,1.03-.78,1.5-2.13,2.28-3.01,2.33-2.61,6.49-5.25,8.49-8.05.4-.56,1.89-3.48,1.93-4.08.05-.68-.54-3.21-1.32-3.23-2.16.65-4.35,1.19-6.49,1.91-1.34.45-3.49,2.01-4.67,1.2,2.68-1.22,14.4-5.76,16.78-5.75Z"/>
  <path class="st7" d="M31.75-65.3c.75.22,2.76,1.57,3.58,2.06,5.32,3.22,10.46,7.26,15.72,10.65,1.39.89,4.83,2.46,5.64,3.47.76.95,1.37,2.94,1.86,4.14,2.63,6.41,5.15,13.19,7.49,19.72-.63,1.13-.72-.35-.96-.96l-.72-.96c-2.84-7.1-5.73-14.2-8.67-21.27l-22.72-14.78c-1.88-.94-4.21-1.48-6.27-.99-.78.19.87,1.69,1.19,1.97,3.57,2.81,6.85,5.89,9.84,9.25,1.36,3.04,3.24,4.96,5.88,6.84,1.52,1.76-.03,2.42-1.69,1.66-3.61-2.03-8.26-2.22-12.36-2.1.93.37,1.42.85,1.48,1.44.21.07.21.15,0,.24-.42.08-.9-.08-1.44-.48-.84.55-2.6.08-3.36-.48-.07-.89-1.91-.81-2.41-1.31-.31-.32-.21-1.17-.6-1.8-.28-.46-3.5-3.92-3.93-4.22-.62-.42-.86-.54-1.59-.12-1.43.84-3.31,3.88-5.04,4.79-.29.17-.27.83-.38.93-.39.33-4.8.34-5.67.47-.11-.1-.01-.39-.04-.42l.05-.52c3.97-4.86,7.79-9.8,11.47-14.81,1.29-1.47,2.41-2.74,4.3-3.13,2.71.42,7.06.06,9.35.72Z"/>
  <path class="st14" d="M22.4-66.02c.02.88-.84.62-1.33.95-2.69,1.83-6.06,7.21-8.16,9.82s-4.48,4.91-6.34,7.69c-.05-.05-.45.12-.48-.12,1.89-3.26,4.79-5.63,6.9-8.69l.3-10.37c-.6-.03-1.16.15-1.73.31-3.23.93-4.95,2.09-8.34,2.09l11.41-3.82c2.63.55,5.11,1.73,7.77,2.15Z"/>
  <path class="st35" d="M-41.14-31.73c.14,1.13.24,3.13.08,4.34-.32,2.41-.99,4.76-1.85,7.04-3.63,7.92-6.65,15.8-7.55,24.4.22,1.83.2,4.44-2.37,3.53-.16,1.56-.92,3.8-2.46,2.17-.2-.06-.37-.16-.49-.33-.74-1.1,3.06-15.6,3.97-17.91.4-1.26.62-2.38.56-3.67-1.14-3.28.25-5.5,2.39-7.92,1.06-1.62-.15-2.04-.21-1.94-.79,1.26-1.5,3.12-2.05,4.55-4.76,12.45-6.5,25.93-7.52,39.12-.01.18-.09.36-.17.53s-.2.36-.32.53c1.46,5.89,3.72,11.53,6.76,16.94l-.05,1.04c1.6,3.57,3.62,7.61,4.98,11.2.16.42.56,1.15.06,1.5-3.81-6.96-8.72-17.67-11.45-25.11-1.81-4.91-.68-11.7-.03-16.94,2.38-18.96,6.09-31.7,16.99-47.38,2.32,1.16,1.14,2.5.72,4.32Z"/>
  <path class="st24" d="M-15-40.37c.09.08.17.16.22.25.14.25-2.34,3.25-2.77,3.65l-.57-.07-.21.75-6.47,7.67c-3.55,3.79-5.1,6.34-5.72,11.09-2.06,15.84-4,32.19-5.7,48.09l-.37.24c-1.03-.1-1.03-2.95-.24-3.36.12-.96.05-1.89-.2-2.8l2.09-20.67c-.58-.93-10.13,3.04-11.04,3.9-1.84,1.76-2.01,7.16-1.92,9.51-.19.47-.54.24-.92-.01l-.65.06c-1.17-1-2.24-2.08-3.24-3.23-.44-.51-2.78-3.36-2.89-3.71-.17-.52-.3-1.12.31-1.27.33-.07,1.24.12,1.42-.02.12-.1.67-2.66.74-3.09.71-.17.49.82,1.07.73,1.77-.27,1.04-2.16,1.11-3.21.16-2.56,1.85-10.12,2.68-12.68,1.97-6.09,5.31-11.06,6.59-17.86.32-1.7.14-3.6.54-5.33.73-.13.46.37.48.83.03.84-.18,2.71.04,3.33.12.34.69.4.95.97.55,1.23.51,3.35,1.1,4.89.26.69,1.84,3.28,1.73,3.74-2.54,1.88-5.02,3.97-6.89,6.54-.35.47-.92,1.83-1.11,2-.41.37-1.29.03-1.08.59,1.55,1.73,8,11.61,9.52,12.06,2.75.81,2.53-1.7,2.88-3.74,1.1-6.35,1.1-13.47,2.53-19.76.83-3.62,7.39-10.37,10-13.5,1.98-2.37,3.57-5.12,6-7.07-.02.15.04.35,0,.48Z"/>
  <path class="st53" d="M40.38,32.28c.52.39.08,1.74.21.96h.27c.78.6.22,2.85-.17,3.71s-1.53,2.46-2.47,2.28l-.07.74c-3.29,3.5-7.33,7.17-11.02,10.28-2.69,2.27-5.16,3.85-8.24,5.32.58.86.95,1.85,1.11,2.95l3.14,3.86c.86,1.05.89,1.82.09,2.32l-6.99,2.16c-.08.94.18,1.29.79,1.04l19.46-8.67.06-.05c-1.5-.85-3.04-2.4-.48-2.94.07-.09.15-.16.24-.21.5-.27,3.19,1.85,2.39,3.09-5.79,3.44-12.46,5.78-18.62,8.59-3.31,1.51-6.47,3.35-9.75,4.88-1,.47-4.61,2.13-5.43,2.26-1.07.17-5.41-.28-6.84-.39-2.83-.21-5.7-.64-8.51-.96,2.48-.44,2.71-.1,5.14.01,3.63.17,9.51.69,12.76-.44,2.58-.9,5.2-2.7,7.75-3.76l.25-1.45c-1-4,.2-8.1.71-12.1-3.87-.09-7.77.11-11.64,0-5.67-.15-11.48-.22-17.13-.49-.08,0-.16,0-.24,0-.64-.08-.61-.3,0-.48,3.68-.12,7.35-.12,11.03,0l.61-.28,9.43.24c7.56.47,11.87-.38,17.42-5.13,4.72-4.03,9.85-8.59,13.73-13.27l.53-.03.24-3.36c-.46-.22-.46-.5,0-.72.07-.21.15-.21.24,0Z"/>
  <path class="st1" d="M-2.78,70.88c.3-1.65-.37-3.61-.24-5.15s1.26-3.7,1.32-5.4l8.96,7.12c.24.87-1.31.99-1.97,1.31s-3.65,2.12-3.87,2.12H-2.78Z"/>
  <path class="st1" d="M-59.12,22.69c0-10.9,3.12-26.5,6.35-36.92.9-2.9,2.09-5.7,3.48-8.39,3.37,1.05-.24,3.74-1.16,5.44-1.54,2.85-.18,3.49-.3,5.91-.1,2.03-2.01,7.07-2.55,9.46-.65,2.84-2.16,8.91-1.99,11.56.13,1.97.35,1.2,1.16,2.31,2.2,3.03,2.62,3.41,5.31,5.84.2.12.39.07.59-.1,1.29,1.65,2.24,2.51,4.15,3.37l4.13,1.6c2.49,1.23,3.58,2.3,3.12,5.19.04,1.19-.18,2.24.24,3.36.15-.06.27-.09.32-.05.76.67,2.62,2.86,3.32,3.74.06.07.01.21-.05.38.51.81.31,1.07-.48.48-.68-.76-1.9-2.33-2.52-2.87-.29-.25-.43-.31-.83-.25-.46.31.32,5.12.06,6.08,2.51,3.49,4.17,7.82,5.45,11.9-.93-.6-.82-2.08-1.56-2.88l.12,2.88c-3.84.5-6.26-3.5-8.16-6.23-1.06-.19.19,1.48,0,2.15-.73.69-1.65-2.03-1.96-2.48-.46-.68-1.5-1.58-1.83-2.25-.56-1.16.17-2.2-1.25-2.94l.58-.47c.51.06,6.68.61,6.58.3-.27-.26-.19-.47.04-.8l.11-.51c-2.21-3.04-4.36-6.14-6.43-9.29.28-8.26-5.43-5.77-8.9-1.37-.55,2.54-1.52,6.38-3.55,1.78-.63-1.95-1.16-3.94-1.6-5.95Z"/>
  <path class="st48" d="M-59.12,22.69c1.04,1.58,1.1,3.76,1.8,5.51.24.6,1.37,3.01,1.98,1.75.67-1.37.28-2.83,1.63-4.36.64-.72,4.19-3.17,5.07-3.32,1.17-.2,1.8.08,2.68.81,1.68,1.38.98,2.68,1.24,4.51.42,2.98,5.05,6.94,6.26,9.56.18.39.52,1.01-.29.89l-.61-.14c-2.19-2.89-4.2-5.91-6.02-9.08-.91,1.44-1.81,2.92-2.7,4.44l-.74.47c-.14-.51-.6.28-.68.4-1.38,1.99-2,4.35-2.92,6.55-2.29-5.1-6.72-12.52-6.71-17.98Z"/>
  <path class="st7" d="M-38.74,38.04c.18.38.62.64.48,1.2-2.59.5-5.07-.22-7.67-.24-1.06-.55-2.93-.81-4.06-1.46-.15-.21.97-3.32,1.18-3.81.83-1.94,2.03-3.72,3.48-5.27,1.41,1.82,2.55,3.83,3.86,5.73,1,1.46,1.88,2.06,2.74,3.86Z"/>
  <path class="st25" d="M-13.33,54.58l.48.24v.48c-1.06-.06-2.11-.34-3.19-.29-.37-.28-.79-.6-1.13-.91-5.6-5.2-11.11-12.45-16.3-18.22.51.06.54.03.48-.48l1.23.95c5.11,5.78,10.17,11.42,15.17,16.93.8.92,2.02.96,3.14.98l.11.32Z"/>
  <path class="st48" d="M55.49-3.68c.46.45.83.96,1.12,1.53l5.65,16.2.06-1.68c.82-2.26,1.34-4.52,1.72-6.88l.56-.31,1.92.96c.67-2.34.87-5.1,1.61-7.38.1-.31.16-.7.55-.77-.02.39.04.81,0,1.2-.31,3.44-1.61,7.41-2.4,10.79l-.28.14c-1.28,5.87-2.93,11.61-4.94,17.25l-13.87,19.49-.43.45c-2.01-.14-4.05-.2-6.11-.2-1.48-.04-2.36-.52-2.66-1.41.31-1.44.41-3.33.43-4.89,0-.56-.06-1.15-.19-1.58,2.37-2.3,2.35-2.7,2.64-5.99-.23-2.82-.36-5.92.48-8.63.44-1.78,2.35-.42,2.73.87l.71-.07c1.84,1.84,3.41,3.93,4.71,6.28-.81,1.61,1.84-.68,1.85-1.19-.52-1.69-1.33-3.26-2.43-4.73-2.01-2.53-3.64-5.16-4.89-7.9,1.01-1.17,1.92-2.23,2.44-3.8-.25-1.32.57-2.02,1.81-2.33l3.11-.7c1.94-1.68,4.16-2.81,6.82-3.01-1.35-3.76-2.57-7.55-3.69-11.37-.04-.98.5-1.3.97-.34Z"/>
  <path class="st35" d="M66.27,9.98c-1.38,5.96-2.58,12.02-4.99,17.67l-22.58,31.48c-.73-.24-.17-.92-.54-1.37-.27-.32-1.61-1.12-2.1-1.51-.82.25-1.56-.21-2.22-1.41-.75-.05-1.11-.35-1.07-.92,1.12-1.82,2.13-3.68,3.04-5.59-1.35-1.08,1.35-4.68,2.17-2.63,2.15,1.43,4.87.92,7.32.95.66,0,1.33.54,1.79-.1l13.7-19.38c2.36-5.43,3-11.38,4.88-16.94.11-.34.21-.88.59-.24Z"/>
  <path class="st35" d="M65.08-26.22c-.55-.37-.42-.32-.59.24-1.26,4.1-.28,3.69.85,7.06.22.67.25,1.39.47,2.05-.25,1.56-1.25,2.3-2.12.5-2.88,1.93-5.84,3.71-8.9,5.35-.83,2.06-1.93,1.34-2.91-.15-2.08-3.01-4.33-5.95-6.74-8.83.17-4.04.1-8.06-.21-12.06-3-5.2-8.41-10.66-13.89-13.09-.33-.13-2.29-1.31-2.4-1.56-.21-.52.36-.31.6-.35,2.45-.34,8.03.31,10.47,1.02,1.38.4,2.47,1.57,4.02,1.37.05-.37,0-.56-.22-.85-.71-.93-2.82-2.1-3.85-3.35-1.1-1.34-1.74-3.14-2.76-4.44-1.9-2.41-6.57-6.06-9-8.26-1.04-.94-3.4-2.97-.61-3.25,2.04-.21,4.57.33,6.29,1.41l22.5,14.66c3.3,7.35,6,15.03,8.99,22.54Z"/>
  <path class="st7" d="M31.03-45.16c.56.22,1.59.24,2.4.6,2.12.95,10.29,9.23,11.42,11.35.31.58.49.9.57,1.59.41,3.58-.34,7.81.05,11.46,1.4,1.7,2.9,3.38,4.26,5.09.69.88,2.96,4.47,3.6,4.8.74.38.72-.77,1.13-1.1.86-.67,2.75-1.3,3.75-1.94,1.12-.72,4.57-3.72,5.79-3.57.1.01.3,1.47,1.08.97.12-.08-.01-1.17.72-.96.81,2.44,2.58,6.29,3.06,8.56.1.48.22,1.57-.19,1.87-.16.12-.59.05-.67.15-.13.15.03.69-.09.99-.16.41-.6.63-.79,1.13-.92,2.46-1.87,6.68-2.52,9.35s-.44,3.54-1.45,6.1c-.83,2.11-.29,3.08-.02,5.08.02.17.2,1.04-.21.69-2.73-6.8-4.7-13.96-7.43-20.74-.62-.25-1.07-.87-1.37-1.85-.28-1.01-.93-.79-1.97.66L48.29-.19c-1.52,1.78-2.75.15-3.19-1.53l-.9-3.16-1.83.85c-5.7,1.4-11.52,2.38-17.46,2.94-.7,1.47-1.69.36-2.31-.57-2.43-1.51-4.96-2.86-7.6-4.07-3.52-1.63-3.22-5.37-2.68-8.6l.48-.37c.22-.46.5-.46.72,0l.47.4c-.14,1.81-.13,3.61.05,5.39l-.28.44c3.27,2.38,7.2,4.86,11.39,5.86,6.15-.67,12.19-1.74,18.11-3.19.47-.35.55-1.5.58-2.08.38-6.28.6-12.78.79-19.08.05-1.55.09-3.49-.34-4.98-1.04-3.55-9.67-10.96-13.2-12.72l-.06-.27v-.24Z"/>
  <path class="st3" d="M12.81-46.36l5.75.24c2.47.04,5.23.04,7.67.24,1.12.09,2.32.24,3.36.48,4.89,2.05,8.74,5.98,12.18,9.89,2.76,3.13,2.88,3.84,2.87,8.2-.38,6.39-.64,13.04-.79,19.4-.02.68-.16,2.12-.89,2.31-1.97.53-3.9.93-5.9,1.26-3.93.64-7.94,1.23-11.89,1.73-2.25.28-9.54-4.5-11.4-5.86-.09-.19-.21-.2-.25-.57-.19-1.52-.02-4.03.01-5.66-.19-.35-.52-.46-.99-.32-3.43.16-9.29,1.08-11.71,3.44l.07.53c-.95.69-1.88,1.49-2.42,2.55l-.53.03c-.08-.02-.22.11-.22.13-.08.44-.16.88-.21,1.36-.98,9.22-1.97,18.62-2.89,27.56,1.15.76,2.37,1.75,3.65,2.99,1.31.71,8.59-.57,9.67-1.49l1.4-1.62.33.08c.61-.44,2.04,1.02,1.68,1.68.11.18.21.41.11.55-2.41,2.98-3.74,3.68-7.64,4.16l-9.63.44c-1.57-.31-7.51-6.16-7.74-7.75,1.21-10.9,2.69-22.04,4.35-33,.31-2.06,3.13-4.76,4.73-6.14,2.11-1.82,3.02-1.96,5.77-2.3,1.97-.24,4.04-.47,5.99-.31,3.61-1.66,9.79,2.66,10.51,6.07l.06,5.6c.03,1.08.07,1.27,1.12,1.23,5.44-.7,10.76-1.62,15.98-2.75.21-.48.5-.66.86-.55.48.02.54.33.59.73,1.81-.12,3.38-1.22,3.17.68.74.28.87,1.7.78.08l.49-.3c.1-.4.19-.5.26-.31.07-5.52.24-10.99.51-16.42l-.3-.78c-.37-.1-.55-.46-.53-1.05l-.91-1.2c-.31-1.56-.94-2.91-1.87-4.06-1.72-1.45-2.97-2.8-3.66-4.94-2.19-.9-4.27-2.01-6.23-3.34.65-1.04-.68-1.17-1.61-1.24-5.84-.43-11.69-.76-17.53-.69-.74-.16-1.02-.71-.27-.98,1.35-.03,2.72,0,4.08,0Z"/>
  <path class="st47" d="M8.73-46.36c-.13.72.37.46.83.48,5.68.19,11.38.04,17.03.72.28.03,2.92.5,2.52.95l-.72.6c1.3.57,2.49,1.36,3.75,2.01.88.45,2.13.5,2.73,1.35.41.58.42,1.38.84,2.03.99,1.54,2.87,2.36,3.8,4.35.39.83.47,1.84.81,2.54.52,1.07,1.89,1.18,1.73,2.97.31,2.19-.04,3.97-.36,6.32.14,3.61.81,6.92.37,10.44-.07,1.03,1.11,2.95-.26,2.74-1.53-.24-2.06-1.09-4.3-2.39-1.1-.64-1.54.46-1.69-1.31-.57-1.36-.75-2.88-.56-4.58.37-4.89.38-9.76.03-14.61-.16-1.59-6.73-8.68-8.09-9.78-7.38-.67-14.78-1.13-22.2-1.36-6.02,1.09-12.1,3.07-17.77,5.31-4.53,5.17-9.01,10.44-13.45,15.82l-.94,1.5c-1.59,10.61-3.05,21.34-4.37,32.18l-.49,1.65c-.3,1.21-1.71,2.29-1.92.48l-.14-1.59c.95-11.43,2.46-22.78,4.52-34.04,3.52-5.08,7.34-9.91,11.46-14.48l-.02-.48c.45-.55,3.05-3.6,3.12-3.84,1.71-.54,3.32-1.26,5.04-1.8,5.66-1.76,12.9-4.06,18.7-4.2Z"/>
  <path class="st47" d="M18.56-46.12c-1.87-.03-3.97.23-5.75-.24,1.86,0,3.97-.2,5.75.24Z"/>
  <path class="st31" d="M31.03-44.92c3.5,1.28,11.11,8.54,13.05,11.77.88,1.46.88,5,.87,6.83-.03,5.57-.36,12.15-.72,17.74-.08,1.3.02,2.8-1.26,3.3-4.93,1.94-12.32,1.62-17.56,3.05-2.29-.3-4.36-1.44-6.37-2.52-1.28-.69-4.69-2.53-5.27-3.72.21-.58.64.07.84.24,1.72,1.49,8.37,5.1,10.55,5.28,5.92-.9,11.85-1.68,17.7-2.92,1-.34.58-4.75.63-5.85.12-2.71.15-5.43.24-8.15.11-3.19,1.15-8.93.38-11.87-.27-1.03-2.52-3.39-3.36-4.31-1.69-1.86-4.7-5.1-6.59-6.6-1.41-1.12-3.24-1.57-4.56-2.75.53.12.94.3,1.44.48Z"/>
  <path class="st35" d="M-36.82,27.97c-.07-2.14,0-2.44-1.8-3.83-2.15-1.67-5.21-2.01-7.39-3.4-1.04-.66-1.87-2-2.8-2.84.73.13.46-.37.48-.83.04-1.1-.09-2.28,0-3.36.12-1.29,1.15-4.77,2.02-5.65.72-.72,6.16-2.92,7.44-3.35,1.42-.48,2.93-1,4.45-.61l-2.41,23.87Z"/>
  <path class="st56" d="M-18.12-36.53c.8.3.21.72-.14,1.18-3.61,4.68-7.82,8.91-11.06,13.87-2.04,11.8-3.28,23.66-4.62,35.54.04.27.18.49.41.66-.67,5.47-1.29,10.98-1.86,16.51,5.33,5.96,10.69,11.92,16.05,17.86.43.48.71,1.07.98,1.65l.98.35c.65.92,1.45,1.64,2.39,2.14,8.92.47,17.92.72,27.01.76,6-.14,8.65-1.12,13.15-4.93,4.14-3.51,8.28-7.47,12.1-11.34.74-.76,1.36-1.69,1.59-2.72.32-5.69.54-11.4.67-17.12.04-.89-.66-1.42-2.1-1.57l-.15-.56-.85.14c-3.89-2.27-8.14-3.22-12.64-3.12-3.28.13-6.56.18-9.83.14-1.24,2.57-2.52,5.09-3.83,7.54l-.43.09c-.29.46-1.42,1.92-1.86,2.1-.99.4-7.22,1.53-8.33,1.52-1.71-.02-2.96-1.97-4.21-3.01-.25-.21-.85-.31-.91-.4-.5-.78.76-7.28.92-8.72C-3.99,5.39-3.65-1.31-2.54-7.88c.03-.17.11-1.12.48-.6.6.3.47,1.63-.24,1.68.12.05.23.1.24.17.24,1.16.06,3.33-.07,4.5-.81,7.47-1.64,14.94-2.68,22.38,0,.03-.06-.25.46.08.67.42,2.22,2.14,2.53,2.84,1.21-.04,2.63-.15,3.99-.38,1.65-.27,3.3-.59,4.88-1.11.11.19.27.3.48.29l-.13-.29c1.92-2.05,3.34-4.51,4.26-7.39.76-2.42,2.09-3.37,4.01-2.86,4.63-.26,9.24-.18,13.84.24,3.6.98,7.29,2.35,10.39,4.3.61-.45,1.39-.12.85.45.06.98.02,1.95-.13,2.91.54,2.69.49,5.99-.24,8.63-.1,1.46-.18,2.9-.24,4.32,0,.24,0,.48,0,.72l-.24,3.36c-.32.81-1.17,1.55-1.79,2.16-3.27,3.24-7.22,6.9-10.67,9.95-3.28,2.89-6.59,5.93-11.16,6.35-5.74.53-12.27.06-18.1,0-3.78-.03-7.62-.11-11.51-.24-1.01-.04-2.28.11-3.14-.58-.61-.49-1.62-2.1-2.26-2.78-4.89-5.17-9.54-10.5-14.27-15.82-.91-1.02-3.17-2.93-3.6-4.08.18-.9.38-1.85.48-2.76,1.55-14.44,2.67-29.01,4.83-43.36.61-4.04.64-6.25,3.09-9.61,3.08-4.23,6.75-8.07,10.06-12.11Z"/>
  <path class="st52" d="M38.22,39.24c.57-.14.53.3.6.7.31,1.76-.52,3.86.12,5.77-.32-.01-.64.02-.96,0s-.57-.3-.95-.13c-.46.2-1.25,1.7-1.22,2.15,0,.14.49.13.51.27.19,1.23-3.42,6.06-3.13,6.33,1.22-.26,1.21.71,1.8,1.2.33.28.74.45,1.08.72.19.86-1.18.51-.96,1.08.07.17.98,1,1.21,1.19.55.45,1.7.32.4,1.14l-19.58,8.71-1.21.11-.21-2.02,7.65-2.3c.08-.36-.08-.56-.22-.86-.72-1.49-3.16-3.52-3.72-4.91-.2-.48-.08-.99-.24-1.44s-.8-1.21-.82-1.35c-.1-.69,3.17-1.84,3.89-2.28,4.48-2.74,11.98-10.22,15.99-14.1Z"/>
  <path class="st49" d="M41.34,24.61c-.08,2.86-.23,5.79-.48,8.63l-.24.48h-.23c-.01-.48,0-.96,0-1.44-.26-1.42-.18-2.89,0-4.32,0-2.87,0-5.77.24-8.63.19-1.08.23-2.24.03-3.34.28-.12.52-.05.78.05.65.25.53,6.94.41,8.02l-.5.55Z"/>
  <path class="st48" d="M-1.82,54.82c-3.55-.03-7.56.27-11.03,0-.2-.02-.41,0-.48-.24,3.34.15,6.83-.05,10.19,0,.41,0,1.07-.15,1.32.24Z"/>
  <path class="st48" d="M40.38,32.28h-.24c.01-1.38-.21-3.04.24-4.32,0,1.43-.03,2.88,0,4.32Z"/>
  <path class="st48" d="M39.9,36.36c.13-1.06-.3-2.44.24-3.36-.03,1.18.18,2.27-.24,3.36Z"/>
  <path class="st35" d="M12.81-14.71c.07,3.78-1.57,6.1,2.24,8.43,2.23,1.37,5.72,2.58,7.68,4.07.92.7,1.12,2.25,1.98.72,4.87-.76,9.92-1.21,14.73-2.3,1.57-.36,3.74-.74,4.91-1.8.72-.02,1.02,6.1,2.84,5.7.93-.2,5.31-6.92,6.51-6.92.52,0,1.57,2.57,1.8,3.13-.77-.51-.53.12-.42.54,1.02,3.95,2.62,7.78,3.78,11.69-1.87-.06-3.75.54-5.35,1.48-.62.37-1.29,1.16-1.91,1.45-1.13.52-4.06.43-4.61,1.64-.17.38.08.75-.06,1.11-.19.51-.99,2.16-1.29,2.55-.98,1.3-1.74.47-.5,2.49,1.74,2.83,3.93,5.56,5.61,8.53.37.64,1.33,2.4,1.04,3.03-.22.5-2.22,2.29-2.88,2.17-.75-.14.56-1.26,0-1.67-.89-.63-3.59-5.62-4.27-5.49-.27.05-.45.58-.88.45.02-1.14-1.34-2.79-2.4-1.68.06-2.2.2-5.15-.03-7.28-.03-.25-.1-1.13-.45-1.11-.06.84.07,1.7,0,2.54-.02.31-.25.54-.25.58-.15-.81.2-2.28.01-2.97-.03-.09-.57-.32-.73-.39-3.16-1.98-6.87-3.35-10.47-4.32-1.39-.27-1.82-1.22-1.3-2.84-.19-1.32-3.29-7.31-4.43-7.15-1.89,1.75-3.57,3.78-5.03,6.09-.97,1.23-2.06,2.38-3.41,3.18-2.08.39-2.39.96-3.31,2.78-1.12,3.21-2.57,5.81-4.34,7.78l-.07.48c-.77.58-7.7,1.85-8.71,1.63-.38-.08-.44-.31-.64-.43-.59-.99-1.47-1.95-2.65-2.88l-.18-.59c.66-4.92,1.22-9.85,1.67-14.8,0-2.48,1.07-3.61,2.09-.69C-.24,7.25.62,10.25,1.66,13.21l.1,1.18c.48-.52,4-5.4,4.08-5.75C6.01,7.86,1.29-.87.48-1.48c-1.24-.46-2.07-1.12-2.49-1.99.15-1.4.05-2.51-.29-3.32.06-.61.03-1.05.24-1.68.37-1.13,1.88-2.48,2.88-3.12,0-.11.01-.21.05-.3.63-1.34,11.2-3.52,11.73-3.13.09.07.16.19.21.32Z"/>
  <path class="st7" d="M47.33-29.57c1.45,0,2,1.55,3.3,2.1s3.9.53,4.32,2.39c.45,2.01-.23,2.35-.88,3.81-.39.89-2.35,5.91-2.82,6.06-.9.29-1.8-1.09-1.94-1.83-.35-1.73-.3-4.19-.6-6.11-.34-2.16-1-4.27-1.37-6.42Z"/>
  <path class="st4" d="M13.53-14.71c-.24,0-.48,0-.72,0-3.16.02-9.33,1.42-11.99,3.12-.65-.55,1.13-1.41,1.44-1.56,2.8-1.33,5.54-1.53,8.51-1.8.68-.06,2.76-.96,2.99-.09.04.16-.23.3-.23.33Z"/>
  <path class="st2" d="M37.26,15.74l.49.37-.5,2.17c.22,5.82.08,11.59-.41,17.31l-16.66,15.78c-.84.5-2.39.91-3.06.1-1.13.04-.69-1.27-.12-1.88l13.66-12.9c.24-.91.22-1.86-.04-2.85l.4-.83-.33-.67c.14-5.49.24-10.91.3-16.28l-.3-.45c-5.01-.37-10.07-.41-15.17-.1-1.06,1.76-1.98,3.62-2.76,5.57-.35.77-.81,1.15-1.38,1.15l-1.68-1.68c1.63-2.54,2.2-5.69,4.08-8.03,6.21.12,13.08-1.08,19,1.13,1.55.58,2.98,1.45,4.49,2.1Z"/>
  <path class="st27" d="M5.14-22.38c.7-.15,1.5-.26,2.16,0,.21.07.21.15,0,.24-2.25.16-5.27.48-7.53.75-3.07.36-4.8,2.96-6.73,5.02-1.43,1.52-1.61,1.03-2.01,3.5-1.16,7.02-1.8,14.24-2.67,21.31-.38,3.12-1.26,6.79-1.43,9.84-.05.86-.11,1.51.37,2.26.61.97,4.59,4.82,5.62,5.65.38.3.85.74,1.33.83,4.22-.43,11.36.46,14.85-2.15.88-.66,1.61-1.77,2.28-2.64.47-.61.87-.88,1.32-1.67.67-1.17,1.77-5.1,2.74-5.41,4.41.12,9.47-.52,13.81-.12,1.72.16,2.14.55,2.28,2.28.18,2.18-.44,5.18-.5,7.43-.07,2.7-.05,5.58,0,8.28l-.56.94c-4.85,4.6-9.72,9.14-14.61,13.6-2.74.79-5.7,1.08-8.89.87l-21.02-.35c-2.05.17-4.03.21-5.91.12-3.96-5.48-8.15-10.66-12.57-15.56-.57-.68-1.17-1.41-1.38-2.3-.19-.83-.08-3.6.69-4.03.15-.78.54-1.31.61-.18.05.84.02,1.76-.13,2.57l.33.23c.07.82.2,1.62.39,2.41,1.45.85,3.23,2.91,3.6,4.56l.77.47c2.82,3.41,5.63,6.83,8.44,10.27l32.83.05c.94-.12,1.75-.66,2.45-1.27,3.48-3.7,7.29-7.26,11.13-10.79.72-.66,2.01-1.78,2.87-1.84.29-3.18.45-6.38.48-9.59-.81-2.22-.64-5.15-.12-7.43l-.22.48h-14.12l-.29-.48.19.44c-1.62,3.95-4.2,9.09-8.38,10.77-1.05.42-2.81,1.03-3.68.3l-3.36.24c-.04.21-.13.21-.24,0l-3.36.24c-.04.21-.13.21-.24,0-.87.23-1.76.15-2.64,0-.23.28-.5.27-.83-.02-2.94-2.18-5.77-4.77-7.78-7.77.98-8.91,2.01-17.84,3.51-26.57.06-.35.31-.64.55-.89.17-.46.26-1.21-.07-1.54l.31-.13-.44-.35c.08-1.29.74-5.11,1.36-6.13.87-1.43,6.06-6.14,7.72-6.17.08,0,.16.08.23.18.24-.12.38-.32.44-.58,1.8-.34,3.63-.48,5.45-.59l.58.45Z"/>
  <path class="st8" d="M35.82-12.55c-.84,1.92-3.21,1.42-5.12,1.72-3.39.53-7.29,1.54-10.62,1.85-2.15.2-2.29.14-2.48-2.01-.4-4.32,1.19-5.22-2.53-8.5-2.71-2.4-4.09-2.91-7.79-2.64v-.24c.19-.1.43-.18.72-.24.14-.46.34-.46.48,0,.95-.21,1.92-.19,2.88,0l.53-.27c.91.09,5.04,3.57,5.69,4.56.53.8.75,1.22.49,2.19.23,2.06.23,4.13,0,6.23,5.37-.81,10.81-1.75,16.3-2.82.26-6.1.3-12.29.11-18.55l.37-.44c-2.22-2.21-4.31-4.62-6.26-7.21l-2.14-1.92c-6.48-.37-12.95-.78-19.4-1.21-6.55.48-13.41,2.67-19.2,5.27-4.74,5.24-9.79,10.97-14.26,16.78-1.83,12.63-3.54,25.27-5.16,37.92-.19.78-.27,1.58-.24,2.4.37,1.61.2,3.75-.48,5.27l-.24,2.64c.58.16.34.69-.24.48-.04-.95.03-1.92,0-2.88h-.23s-.24.48-.24.48c-.42-4.18.03-8.67,1.2-12.71.91-8.97,2.21-17.89,3.56-26.77.34-2.24.3-5.04.98-7.17.8-2.47,7.53-9.31,9.6-11.74,1.08-1.26,3.95-5.44,5.04-5.99,2.4-1.22,6.49-2,9.16-2.82,3.81-1.17,7.05-2.99,11.33-2.33l19.78,1.32c.98,1.02,2.05,1.96,3,2.99,1.31,1.41,4.97,5.51,5.28,7.19.59,6.24-.41,13.02.11,19.19Z"/>
  <path class="st23" d="M-33.23,26.29c-.07.92-.3,2.94-.26,3.71.09,1.48,2.63,3.58,3.61,4.8,3.13,3.9,6.21,7.84,9.36,11.74.4.5.22,1.14,1.09,1.32s1.59-.23,2.38-.25c9.85-.23,21.11.84,30.71.02,1.06-.09,1.97-.33,2.75-1.09,4.66-4.74,9.72-9.07,14.62-13.55.03,1.19.64,2.88.01,3.97l-13.56,12.81c-.46.47-.81,1.06-.36,1.68-.26.29-.57.49-.94.61-9.58.22-19.27-.05-28.95-.36-1.74-.06-4-.4-5.6-.97-6.21-6.08-11.54-13.01-17.45-19.35.2-4.97,1.1-9.89,1.63-14.82.09-.84.15-1.72.24-2.52.6,1.15,1.23-.05,1.92-.48-.43,4.2-.86,8.51-1.2,12.71Z"/>
  <path class="st43" d="M-18.36,50.74c1.89-.19,3.77.39,5.62.49,4.69.26,9.47.12,14.17.22,5.17.11,10.59.77,15.69,0,.87-.13,1.93.11,2.76-.47l16.53-15.59c.55-2.49.26-5.03.35-7.56.11-3.21-.14-6.59,0-9.59.05-.99.61-1.66.49-2.51.71.31,2.49.55,2.64,1.32.27,1.41.06,5.31,0,6.97-.06,1.9-.39,4.06-.5,5.97-.24,4.11.95,5.33-2.26,8.53-2.76,2.75-6.1,5.91-8.99,8.51-4.37,3.92-7.35,6.92-13.54,7.32-7.59.49-16.79-.17-24.46-.5-1.46-.06-3.16.17-4.57,0-1.84-.21-2.75-1.94-3.96-3.12Z"/>
  <path class="st7" d="M7.53,21.97c-1.02-.45.28-.87.57-1.22,1.86-2.25,3.44-8.23,5.07-9.56.47-.39,1.11-.27,1.62-.54,3.01-1.63,4.9-5.42,7.01-7.86.95-1.1,1.77-2.34,3-1.07,1.12,1.15,3.74,5.66,3.83,7.22.04.58-.43,1.35-.13,1.78.19.27,5.25,1.91,6.12,2.28,1.93.8,3.78,1.93,5.76,2.63l-.48.36c-2.34-.97-5.06-2.23-7.37-3.06-4.91-1.77-11.89-.93-17.22-1-.46,0-1.03-.29-1.38-.21-1.42.32-3.51,6.74-4.53,8.2-.13.19-1.76,1.98-1.88,2.07Z"/>
  <path class="st7" d="M-2.3-6.8c.71-.14.44.35.51.79.11.65.17,2.56.32,2.81.23.38,2.08,1.02,2.63,1.68S5.43,6.02,5.83,7.01c.23.56.31,1.13.45,1.71L1.66,15.5c-.55-.26-.3-1.55-.47-2.17-.36-1.36-1.06-2.83-1.45-4.3-.57-2.13-.44-3.52-1.54-5.65-.09-.18-.09-.76-.5-.34-.39.4-.83,8.59-.99,9.93-.21,1.77-1.6,5.68-.71,7.23.31.55,1.55,1.38,2.04,2.04.15.21.62.81.13.95-1.18-.73-1.99-2.21-3.37-2.8C-3.98,11.96-3.22,3.46-2.3-5c.06-.59-.06-1.22,0-1.8Z"/>
  <path class="st11" d="M30.79-31.49c.3.17.51.41.68.71,1.19,2.12.73,10.08.41,12.72-.38,3.15-1.57,3.62-4.39,4.6-1.89.66-5.12,1.74-6.43-.14-1.7,1.82-2.49.89-2.37-2.8l-.37.25c-.07.21-.15.21-.24,0-.12-1.3-1.31-2.46-2.27-3.36-1.11-1.05-3.07-2.46-4.44-3.11-.95-.18-1.93-.22-2.88,0-.16,0-.32,0-.48,0-.95.07-1.91.15-2.88.24-1.97.1-4.57.29-6.47.72-.36-.18.08-.52.17-.28-1.86.29-3.34,1.48-4.65,2.78-2.37,2.64-4.69,4.61-7.82,6.19-1.86,2.75-3.95,5.29-6.25,7.63-.85.93-2.49,3.07-.93,3.85l3.18-3.92c.3-.23.64-.19.96-.03.51,1.69,1.4,2.9,2.65,3.63.22.25.29.39.42.69.29.69.16,4.32-.69,4.65.28.83.37,2.5-.48,2.88l-.3.62c-3.76,1.09-7.03,3.17-9.81,6.24-1.09,1.16-2.27,1.59-3.56,1.3v-1.2l-.21-.99c.89-8.17,1.85-16.24,3.22-24.35.95-5.6,3.27-9.04,6.91-13.2l4.29-5.86c2.59-3.13,3.81-3.67,7.34-5.12,3.98-1.63,8.36-3.41,12.74-3.02,5.11.6,10.2.93,15.29,1.01,3.15.31,3.76.41,6.04,2.58,1.24,1.19,2.83,2.72,3.6,4.11Z"/>
  <path class="st29" d="M34.87-31.73c-.71.44-1.52.09-2.42-1.07-1.19-2.03-2.7-3.11-4.55-3.25l3.33,3.44c.4.61.37,1.4-.44,1.11-2.07-1.6-3.42-4.1-5.77-5.38s-8.9-.91-11.85-1.1c-3.52-.23-7.27-1.07-10.79-.71-2.03.2-11.68,3.72-13.29,4.93-2.66,2.01-5.16,6.12-7.22,8.84-3.55,4.69-5.36,5.84-6.63,12.07-1.72,8.4-2.7,17.64-3.67,26.18l-.16,2.28c-1.21,1.41-1.22-3.74-.8-4.24.22-.93,1.7-10.24,1.12-10.27-1.62,8.64-2.6,17.39-2.94,26.24-.1.41-.3.78-.58,1.1.37.16.44.52.22,1.08.45,1.35.3,1.95-.46,1.79-.86-1.34-.65-1.02-.72-2.64.2-.11.17-.33.24-.48.06-.89.14-1.77.24-2.64.11-1.77.34-3.52.48-5.27-.02-.82.06-1.62.24-2.4,1.12-12.74,2.78-25.43,4.72-38.08,3.46-4.82,7.6-9.19,11.47-13.7,3.13-3.65,2.29-3.45,7.18-5.04,6.03-1.96,11.11-3.93,17.52-3.6,5.73.29,11.48,1.22,17.25,1.21,2.27,1.45,3.76,3.78,5.4,5.86.88,1.11,2.45,2.37,2.87,3.72Z"/>
  <path class="st54" d="M-28.43,35.88c-.18-.96-.64-1.83-1.38-2.6-.51-1.23-.2-2.08,1.15-1.59l6.71,7.74c.5,1.34,3.98,5,5.21,5.35.01,0,.03-.11.05-.26l.46-.43c5.73-.37,11.5-.35,17.31.07,8.45.59,15.47-1.29,21.1-7.66,1.43-2.21,3.12-2.99,5.57-3.61.55-.47,1.08-.75,1.59-.83.28-.01.52.07.72.24.11.07.11.23,0,.48-.5.8-1.94,1.6-2.64,2.27-2.42,2.33-4.88,4.54-7.32,6.83-1.86,1.74-3.97,5.02-6.47,5.28l-33.03-.05c-3.18-3.55-6.1-7.44-9.04-11.22Z"/>
  <path class="st19" d="M-10.45-7.52c-.27,3.58-1.21,7.44-1.66,10.92-.71,5.5-1.28,11.02-1.92,16.52.14.9,2.67,3.45,3.46,4.22,1.06,1.04,3.4,3.23,4.68,3.59.89.19,1.77.19,2.64,0,.08,0,.16,0,.24,0l3.36-.24c.08,0,.16,0,.24,0l3.36-.24c4.25-.19,6.54-2.19,8.88-5.63.61-.9,2.54-5.88,2.99-5.88h14.63c.65,0,.12,1.62.11,2.03-.05,1.79.01,3.61.01,5.4-.04,3.01-.2,6.05-.48,9.11-.5.35-.83.43-.72-.24-.26-.54-.34-1.23-.25-2.07-.48-3.83-.72-7.4.18-11.1l-1.45.24c-3.39-.25-6.67-.1-9.85.47-2.7,4.04-5.11,7.18-9.4,9.99-.9.59-3.51,1.26-4.17.31l-4.32.24c-.3.47-.66.47-.96,0-1.84.18-3.68.21-5.51,0l-.49.31c-2.01-1.38-4.45-3.19-5.51-5.35-.28-.74.35-.74.9-.48l-2.69-2.85c.16.72.04,1.19-.38,1.41-.48.48-.79.06-1.1-.39-.87-1.24-.2-8.44.13-10.19l.5-.21c-.02-.81.06-1.61.24-2.4-.69-.56-.79-3.07,0-3.6.06-.97.4-2,.48-2.88.09-.08.19-.15.29-.18.8-.22.7,2.88.19,3.3-.17.87-.25,1.74-.24,2.64.28.58.13,1.87-.24,2.4l.04,2.54c-.02-.19-.02-.33.2-.38.11-3.34.29-6.76.58-10.04.15-1.64,1.36-11.54,1.94-12.18.16-.18.36-.28.6-.31.72-1.11.74.45.48,1.2Z"/>
  <path class="st14" d="M-14.28,3.51c.1-1.18.5-3.63.19-4.63-.17-.56-.93-.58-1.37-1.03-.59-.61-1.16-2.14-1.47-2.97-.37-.09-.38.06-.58.25-.61.61-2.88,3.95-3.41,4.04-3.25-2.13,2.15-6.1,3.61-7.91,1.28-1.59,2.12-3.76,3.86-5.01.97-.7,2.06-.87,3.11-1.69,2.87-2.21,5.62-6.46,9.36-6.71l-.36.48c-.84.19-1.57.45-2.28.96-.67.48-4.89,4.68-5.27,5.28-.54.87-1.15,4.96-1.33,6.22-.29.1-.53.26-.72.48-1.14,3.55-1.82,11-2.38,15.01-.35,2.49-.48,5.03-.74,7.53-.26-.58-.34-1.3-.24-2.16,0-.91.18-1.58.24-2.4,0-.89.07-1.77.24-2.64,0-.92.32-2.63-.48-3.12Z"/>
  <path class="st34" d="M-31.79,28.45c.58-1.55,1.24-.64,1.34.55.33.72,1.02,2.17,1.78,2.08l.58-.03c3.48,4.62,7.3,8.92,11.46,12.89l-.06.56c.3.22.75.13.72.48-1.85.42-2.65-1.17-3.83-2.28-1.37-1.28-1.99-.99-2.29-3.22l-6.95-7.68c-.42-.18-.56.57-.54.8.1.8,2.12,2.12,1.14,3.27-1.18-1.52-2.55-2.93-3.6-4.56.52-.39-.02-1.19-.02-1.8,0-.49.24-.82.26-1.07Z"/>
  <path class="st7" d="M30.07,32.76v-.48c0-1.08,0-2.16,0-3.25l.49-5.86c0,2,.37,8.24-.48,9.59Z"/>
  <path class="st41" d="M.34,27.49c-.9.44-2.3.24-3.36.24.9-.44,2.3-.24,3.36-.24Z"/>
  <path class="st41" d="M3.94,27.25c-.9.45-2.3.23-3.36.24.92-.48,2.28-.19,3.36-.24Z"/>
  <path class="st41" d="M-10.21-9.2c-.07.52.23,1.34-.24,1.68.04-.47-.02-.96,0-1.44l-.48.24c.12-.37.29-1.14.72-.48Z"/>
  <path class="st3" d="M8.01-22.62c-.12.31-.46.23-.72.24-.72.03-1.44-.03-2.16,0,.71-.44,1.97-.24,2.88-.24Z"/>
  <path class="st41" d="M-3.26,27.73c-.74.55-1.83.23-2.64,0,.88,0,1.76,0,2.64,0Z"/>
  <path class="st19" d="M34.87-31.73c.14.44.21.84.25,1.31.35,4.33-.06,9.11-.26,13.43-.04.84.18,4.32-.09,4.7-5.52,1.15-11.16,1.93-16.68,2.86-.01-.16,0-.32,0-.48.11-2.09.15-4.24,0-6.29-.04-.47.49.07.5-.33,1.49.32.33,3.51,1.06,3.5l1.08-.84c.1-.4-1.05-1.01-.72-1.31.74-.68,1.66,1.81,2.16,2.03,1.49.67,7.73-1.27,8.63-2.63.48-.73.63-2.42.72-3.36.41-4.44.44-8.07-.72-12.35,0-.03.37-.23.13-.7-.32-.63-3.72-3.52-3.73-3.97-.01-.55,1.58-.33,1.93-.25,2.34.51,3.36,4.13,5.74,4.69Z"/>
  <path class="st3" d="M11.37-22.62c-.96,0-1.92,0-2.88,0,.7-.44,2.11-.36,2.88,0Z"/>
  <path class="st7" d="M-14.76,6.39c-.06.98.08,2.45,0,3.6-.18.78-.26,1.58-.24,2.4-.17,2.19-1.08,8.48-.21,10.17.19.36.54.45.69.62.77-.2,1.82,1.25,2.16,1.92,1.4,1.23,2.77,2.64,4.2,3.83.54.44,1.13.97,1.79,1.21,1.82.18,3.73.26,5.51,0,.32,0,.64,0,.96,0l4.32-.24c1.87-.07,2.72.05,4.4-1,2.59-1.62,4.78-3.92,6.59-6.36.67-.91,1.53-2.96,2.38-3.38.63-.31,2.94-.48,3.78-.53,2.07-.12,4.17.07,6.24,0,.55-.02,1.83-.59,2,.13.09.4-.66,3.2-.7,4.05-.11,2.26.39,5.12.5,7.43.03.76.09,1.15-.25,1.81-.91,1.8-3.28,1.51-4.78,2.53-.88.6-1.38,1.65-2.05,2.26-1.8,1.62-4.73,4.36-6.75,5.47-7.12,3.91-19.9,1.66-28.02,1.95-1.4.05-2.94.46-4.43.25-2.72-1.98-9.74-10.44-11.99-13.43-.92-.05-1.88-1.89-1.92-2.9.4-4.18.93-8.34,1.6-12.49.36-.21.55-.59.56-1.15.31-.76.63-.16,1.2-.33,1.78-.55,5.74-5.03,7.99-6.18,1.3-.67,3.08-1.11,4.48-1.64Z"/>
  <path class="st13" d="M-31.79,28.45c.75-8.44,1.06-19.25,2.99-27.34.11-.46.2-1.05.48-1.43.42.54.6,1.62.62,2.27.08,3.66-1.31,8.2-1.46,12-.02.4-.02,1.44.49,1.55l.24-2.16c-.04.39.03.81,0,1.2-.19,4.43-1.69,9.69-1.68,14.03,0,.72.97,1.88,1.45,2.51.09.65-.19.63-.61.25-.85-.78-1.82-2.17-1.79-3.36l-.72.48Z"/>
  <path class="st41" d="M-14.52,23.17l-.24-2.16c.5-.51,2.26,1.93,2.63,2.28,1.17,1.14,4.53,4.39,5.79,5,1.82.89,4.37.03,6.33-.09,3.24-.2,6.11.33,9.07-1.48.49-.3,2.51-2.1,2.68-2.11.29-.01.33.28.12.59-.59.9-3.3,3.24-4.32,3.59-2.02.71-6.22.51-8.51.6-1.42.06-4,.63-5.34.06-1.5-.64-4.1-3.78-5.6-4.51-.31-.15-.44.14-.46.14-.85-.2-1.6-1.24-2.16-1.92Z"/>
  <path class="st41" d="M-.86,30.12c-.25.4-.91.24-1.32.24-1.32.01-3.02.18-4.2-.24,1.83,0,3.68,0,5.51,0Z"/>
  <path class="st41" d="M-14.05,13.82c.03.45.08,1.04-.48,1.2l.24-3.36c0,.88.2,1.54.24,2.16Z"/>
  <path class="st41" d="M4.42,29.88c-1.28.44-2.94.24-4.32.24,1.29-.48,2.93-.19,4.32-.24Z"/>
  <path class="st41" d="M-14.05,9.27c.11-.83-.28-1.99.24-2.64,0,1-.18,1.82-.24,2.64Z"/>
  <path class="st41" d="M-15,12.38c.1-.75-.27-1.83.24-2.4-.05.82-.18,1.67-.24,2.4Z"/>
</svg>