<?xml version="1.0" encoding="UTF-8"?>
<svg id="Layer_1" xmlns="http://www.w3.org/2000/svg" version="1.1" viewBox="0 0 32 32">
  <!-- Generator: Adobe Illustrator 29.5.0, SVG Export Plug-In . SVG Version: 2.1.0 Build 137)  -->
  <defs>
    <style>
      .st0 {
        fill: #adfefe;
      }

      .st1 {
        fill: #10a8df;
      }

      .st2 {
        fill: #08577b;
      }

      .st3 {
        fill: #054c70;
      }

      .st4 {
        fill: #012448;
      }

      .st5 {
        fill: #c3fbfc;
      }

      .st6 {
        fill: #e0fdfd;
      }

      .st7 {
        fill: #15d6fe;
      }

      .st8 {
        fill: #093656;
      }

      .st9 {
        fill: #dffdfe;
      }

      .st10 {
        fill: #01142b;
      }

      .st11 {
        fill: #45f2fe;
      }

      .st12 {
        fill: #054c6f;
      }

      .st13 {
        fill: #cafefe;
      }

      .st14 {
        fill: #7ffdfe;
      }

      .st15 {
        fill: #021f42;
      }

      .st16 {
        fill: #012346;
      }

      .st17 {
        fill: #0b6388;
      }

      .st18 {
        fill: #81fdfe;
      }

      .st19 {
        fill: #c7fefe;
      }

      .st20 {
        fill: #cefefe;
      }

      .st21 {
        fill: #dcfcfd;
      }

      .st22 {
        fill: #7dfcfe;
      }

      .st23 {
        fill: #054b6f;
      }

      .st24 {
        fill: #2ce5fe;
      }

      .st25 {
        fill: #0fa4da;
      }

      .st26 {
        fill: #f8fefe;
      }

      .st27 {
        fill: #022244;
      }

      .st28 {
        fill: #17c4f5;
      }

      .st29 {
        fill: #e2fdfe;
      }

      .st30 {
        fill: #49f3fe;
      }

      .st31 {
        fill: #012245;
      }

      .st32 {
        fill: #79fbfe;
      }

      .st33 {
        fill: #073656;
      }

      .st34 {
        fill: #7bfbfe;
      }

      .st35 {
        fill: #0fb4ea;
      }

      .st36 {
        fill: #c4fdfd;
      }

      .st37 {
        fill: #a9fbfc;
      }

      .st38 {
        fill: #80fdfe;
      }

      .st39 {
        fill: #acfefe;
      }

      .st40 {
        fill: #0483bf;
      }

      .st41 {
        fill: #bafefe;
      }

      .st42 {
        fill: #0b8bc4;
      }

      .st43 {
        fill: #093352;
      }

      .st44 {
        fill: #77f9fd;
      }

      .st45 {
        fill: #dafcfe;
      }

      .st46 {
        fill: #b7fafd;
      }

      .st47 {
        fill: #0b6288;
      }

      .st48 {
        fill: #0893ce;
      }

      .st49 {
        fill: #14d1f9;
      }

      .st50 {
        fill: #0482bf;
      }

      .st51 {
        fill: #fefefe;
      }

      .st52 {
        fill: #0278b4;
      }

      .st53 {
        fill: #0fa7de;
      }

      .st54 {
        fill: #2ce6fd;
      }

      .st55 {
        fill: #79fafe;
      }

      .st56 {
        fill: #01132b;
      }

      .st57 {
        fill: #2ae2fd;
      }

      .st58 {
        fill: #0894ce;
      }

      .st59 {
        fill: #022144;
      }
    </style>
  </defs>
  <rect class="st51" x=".02" width="31.96" height="31.96"/>
  <rect class="st51" x=".06" y=".04" width="31.96" height="31.96"/>
  <path class="st50" d="M24.29,19.2c.1-.12.16.02.09.13-.13.19-.28.37-.43.55-.07.02.13.24.14.25.41.07,1.1.23,1.44.46.05.04.08.06.03.12l.03.06-2.22,2.65c-.1.12-.3.02-.21-.11-.11-.06-.08-.36,0-.46-.02.1-.05.14-.15.16l-.05.23c-.29.66-.51,1.35-.64,2.05-.24.62-.41,1.24-.53,1.88.23.03.12.24.02.38-.09.5-.21.22-.21-.11l-.07-.08c-.01-.25-.09-.49-.21-.7-.15-.21-.26-.43-.33-.66l-.09-.02-.21-.35c0,.12-.04.2-.11.22h-.03c-.13-.05-.25-.07-.37-.06-.24.11-.48.22-.73.31-.28,0-.53,0-.8.07-.52-.12-1.13.05-1.59.31-.19.1-.8.27-.94.1-.05-.06-.07-.36.03-.38-.02-.1.46-.08.48-.06.02.01.04.04.05.06-.03-.13-.08-.23-.16-.32l-.23.11c-.15.06-.27-.05-.11-.14.01-.03.02-.07.05-.08.56-.27,1.13-.49,1.73-.69.37-.14.72-.32,1.03-.54.54-.15,1.08-.3,1.61-.45,1.13-1.62,2.31-3.21,3.53-4.77l.15-.12Z"/>
  <path class="st28" d="M25.56,20.7c-.04-.15.2-.1.24.02.09.29.27.46.51.63.26,0,.36.18.32.52l.05-.02c.03.06.06.11.06.18.04.81-.04,1.49-.17,2.26.02.13.02.35-.12.24l-.25-1.46c-.12-.52-.22-1.04-.3-1.58-.06-.35-.25-.02-.33.14-.38.75-.77,1.51-1.18,2.26-.24.11-.5.16-.79.15-.31.02-.49.21-.55.58-.51,1.7-.99,3.42-1.42,5.17-.11,0-.12-.18-.12-.27-.24-1.24-.59-2.46-.93-3.67.03-.1.04-.2.06-.3.01-.05-.02-.06.06-.05.07.18.19.35.29.51.06.23.18.46.34.68.13.25.21.51.23.78l.04-.03c.07.04,0,.32.08.32.05,0,.05-.18.07-.22.04-.1.15-.18.11-.32l-.13.1c0-.1,0-.2,0-.3.08-.51.37-1.22.52-1.75.07-.25.1-.55.18-.81.17-.56.5-1.06.54-1.65l.06.13.13-.1v.46s.07.11.08.11l.06-.03,2.25-2.68Z"/>
  <path class="st20" d="M14.55,30.6c-.15-.36-.33-.76-.45-1.13-.06-.2-.09-.56-.18-.72-.01-.03-.05-.06-.08-.07v.42s-.05-.03-.06-.05c-.32-.37-.51-1.31-.9-1.63-.37-.17-2.85-1.53-3.04-1.48-.05.01-.07.12-.09.16-.25.68-.34,1.5-.59,2.19-.02.06-.02.16-.1.13l-.64-3.07c-.35.11-.68.02-1-.13-.16-.07-.74-.49-.81-.5s-.09.1-.1.14c-.3.86-.34,1.96-.61,2.84-.01.04,0,.1-.06.11-.2-.91-.37-1.82-.53-2.74-.2-1.1-.32-2.36-.57-3.42-.09-.38-.36-.82-.61-1.11-.09-.02-.24.45-.29.53-.02.03,0,.06-.07.04-.28-1.95-.5-3.9-.7-5.86.51-1.8.9-3.6,1.12-5.46.5-.64,1.01-1.29,1.54-1.91.19-.23.42-.41.62-.66.37-.47.61-1.1.96-1.53.97-1.19,2.23-1.75,3.58-2.39,1.79-.84,3.61-1.63,5.46-2.33,1.68.69,3.33,1.44,4.98,2.2,1.05.48,2.15.96,3.18,1.48.59.3.65.31,1.04.85.51.71,1.04,1.53,1.49,2.28.48.8.63,1.35.9,2.23.34,1.12.67,2.26.91,3.4-.2,1.36-.58,2.69-.82,4.03-.15.86-.27,1.73-.41,2.59-.33,1.92-.6,3.85-1,5.75-.05,0-.04-.06-.05-.09-.03-.12-.05-.26-.07-.38-.21-1.21-.33-2.46-.56-3.66-.02-.1-.03-.34-.14-.28-.04.02-.35.63-.41.73-.2.38-.37.77-.57,1.15-.08.15-.28.58-.38.67-.2.18-.89.06-1.11.24-.16.13-.54,1.54-.63,1.83-.38,1.31-.7,2.64-1.05,3.97l-.05.03c0-.16-.15-.32-.06-.48l.1.26c.44-1.59.79-3.24,1.3-4.81.06-.2.18-.64.3-.79.18-.25.97-.11,1.17-.3.4-.68.71-1.41,1.09-2.1.05-.1.31-.66.45-.4.11.56.19,1.14.29,1.7l.24,1.43s.05.02.05.03c.05.24.07.48.1.72l.74-4.49c.04-.18.09-.35.15-.52,0-.09,0-.18,0-.27s0-.18.02-.27c.31-1.98.68-3.9,1.13-5.82l.06-.12c-.09-.05-.06-.22.03-.26l-.06-.07c0-.4-.13-.78-.27-1.15l.04-.09-.22-.58c-.25-1.02-.55-2.01-.89-2.97l.02-.12-.09-.05c-.56-1.02-1.2-1.99-1.93-2.91v-.1c.08.03-.04-.15-.09-.16-.07,0-.14-.05-.2-.15-.09-.05-.14-.1-.15-.17-.18-.08-.36-.18-.54-.29-.03,0-.05,0-.08,0-.09,0-.94-.42-1.09-.5-.05-.03-.08-.07-.11-.11l-1.21-.49c-1.83-.85-3.67-1.67-5.52-2.48-2,.77-3.98,1.66-5.89,2.56-1.49.7-2.95,1.49-3.62,3.06l-.24.36c-.78.88-1.55,1.81-2.3,2.78-.18,1.39-.38,2.79-.81,4.13-.18.6-.31,1.08-.29,1.64.02.47.09,1.04.16,1.51,0,0,.01,0,.03-.01.02.06.05.11.06.17s.03.12.04.17c.15,1.06.28,2.14.4,3.16.05-.13.2-.31.3-.15l.1.04c.18.22.59.9.61,1.16l-.04.1c.15.41.25.83.3,1.28.2,1.33.44,2.73.69,3.99.06.01.08.05.06.12l.54-2.47s.04-.07.08-.08c.08-.03.44.21.51.3l.09-.02c.39.32.8.44,1.24.37l.08.04c.06-.05.1.02.11.08.17.82.33,1.64.49,2.46.01.05.05.17.08.21.03-.09.07-.18.12-.26.04-.36.13-.7.29-1.02-.01,0-.03-.01-.03-.03-.04-.06.17-.76.23-.84.11-.13.22-.09.31.04.11-.03.23,0,.37.09.71.31,1.54.69,2.21,1.08.47.27.55.4.78.87l.34.77c0-.11.08-.24.16-.12.05-.04.07-.03.06.03.05.06.09.13.12.2.16.5.32.99.49,1.48.03.07.03.15.03.23.01.04,0,.05-.03.03Z"/>
  <path class="st1" d="M20.55,25.84c-.33.05-.6.43-.86.65-.14.12-.3.22-.45.33-.76.32-1.55.59-2.36.8l-.62.23h-.06c-.34.17-.27-.17-.03-.21.03-.03.17-.16.03-.1-.05.04-.12.06-.22.06-.33.16-.61.16-.96.07l-.2.06c-.16,0-.19-.41-.09-.51-.05-.26-.04-.53.02-.81-.03-.09,0-.47.04-.5.08-.06.49-.05.58.04.01-.02.02-.03.04-.03.1-.02.68-.13.71-.12.02,0,.03.02.05.03-.12.23.31-.04.37-.06.03,0,.17.3.17.34,0,.03-.02.07-.04.07h-.53c.01.31-.1.41.27.38.52-.03.69-.25,1.1-.37.16-.05.64-.15.79-.17.11-.01.21.06.34.06s.21-.06.32-.07c.15-.01.33.02.48,0,.34-.05.78-.56,1.1-.19Z"/>
  <path class="st39" d="M19.24,26.83s.02.04-.02.07c-.05.03-.3.12-.39.15-.76.3-1.6.47-2.36.77-.34.14-.5.18-.64.54-.28.74-.46,1.57-.74,2.32-.03.08-.2.55-.25.55-.17-.17-.21-.42-.3-.64l.03-.03.08.03.17.35c.31-.73.55-1.49.74-2.26.05-.16.11-.32.17-.47.1-.23.23-.31.46-.36.57-.29,1.49-.47,2.13-.69.3-.1.59-.24.9-.33Z"/>
  <path class="st48" d="M25.66,18.11l.05.06c-.08.28.17.28.37.21.28-.17.4-.16.7-.1.03.04-.06.83-.07.96-.02.13-.04.26-.09.38.12-.02.19.1.1.17l.06.04c.02.11.03.43-.06.47.08.03.14.11.16.24l.04.13c-.07.35-.13.7-.16,1.06l-.07.12-.06.35c-.03-.14-.02-.65-.11-.74-.05-.05-.14-.02-.21-.05-.05-.02-.36-.28-.4-.34-.06-.08-.15-.36-.21-.4-.05-.04-.12.02-.13.02,0,0-.04-.06-.09-.08-.47-.18-.93-.4-1.43-.44,0-.09-.2-.21-.19-.26,0-.06.37-.44.44-.55.02-.03.14-.19,0-.17-.05-.08.13-.32.22-.29l.04-.08c.15-.03.31-.04.48-.02.25-.19.41-.18.5.04.17-.25.1-.41-.23-.48-.15-.14.26-.33.36-.25Z"/>
  <path class="st14" d="M24.45,17.22h.06l.06.09c.04.51.04,1.01.02,1.52l-.08.08c-.09.06-.15.2-.22.29-1.31,1.57-2.44,3.27-3.65,4.92-.52.2-1.15.29-1.68.49-.15.06-.27.18-.42.26-.5.26-.94.37-1.45.57-.3.11-.63.32-.92.41-.24.08-.55.12-.8.13-.14-.03-.02-.15.1-.13.5-.11.98-.29,1.45-.53.56-.18,1.07-.37,1.59-.62.47-.22.58-.57.71-1.07.06-.32.14-.63.23-.93.05-.04.07-.08.06-.11v-.07c.09-.03.58-.24.41-.33-.28-.06-.28-.21-.09-.39-.06-.07.02-.14.1-.1.22-.23.46-.44.73-.64h.1s.05.07.05.07l-.04.54c-.28.69-.49,1.41-.64,2.18-.13.22-.08.22.16.22.2,0,.31-.07.37-.26l.21-.25c1.11-1.61,2.24-3.21,3.48-4.73l.03-.11c-.06-.48-.06-.96,0-1.43l.05-.05Z"/>
  <path class="st57" d="M21.61,27.43c0,.25.03.64,0,.88,0,.05,0,.1-.06.11-.14-.45.01-.96-.11-1.41-.08-.29-.36-.58-.45-.86-.02-.05-.04-.13.02-.16.29.49.58.85.61,1.44Z"/>
  <path class="st24" d="M26.94,16.23c-.01-.12.03-.11.12-.04.06.05.19.87.21,1.02.1.81.17,1.65,0,2.43-.02.17.04.34.18.49-.02.05,0,.08.04.08-.3,1.78-.56,3.56-.89,5.33l-.38-2.49c.09.46.19.92.26,1.39,0,.06-.02.05.06.05-.09-.48.16-.97.16-1.42,0-.4-.02-.82,0-1.23s.11-.89.19-1.31c-.02-.04-.04-.08-.04-.12.46-1.33.28-2.75.07-4.11l.03-.07Z"/>
  <path class="st26" d="M23.07,4.06s-.1,0-.14,0-.09-.01-.14-.03c-.67-.23-1.34-.46-2-.71-.55-.2-1.06-.45-1.58-.71-.31-.14-1.71-.49-1.17.24.03.09.06.17-.05.19l-.15-.03-1.01-.76c-.4-.44-.66-.39-1.2-.23-1.4.42-2.76.96-3.89,1.9l-.83.46c-.39.21-.69.54-.77.99l-.08.07c-.03.11-.09.14-.17.09-.13.16-.27.25-.44.26l-.08.05c-.41-.08-.9-.11-1.3.03-.43.15-.88,1.28-.86,1.74-.12.19-.28.36-.46.51l-1.26,1.13c-.41.34-.71.75-.9,1.2-.14.88-.31,1.76-.51,2.64l-.09.14c-.03.16-.14.29-.3.38-.21.53-.35,1.08-.42,1.65l-.08.14.06.11c.03.52.08,1.04.13,1.55l-.04.06-.03.26-.22-2.15c.53-1.78.88-3.55,1.12-5.4.5-.65,1.01-1.29,1.54-1.91.35-.42.66-.68.97-1.17.19-.3.36-.71.56-.97,1.09-1.41,2.87-2.05,4.42-2.76s3.04-1.43,4.63-1.98c2.26.97,4.49,1.99,6.72,3.03Z"/>
  <path class="st24" d="M19.53,22.58c.18-.03,0,.09-.02.18-.14.46-.17.91-.38,1.38-.16.36-.28.43-.62.62-.58.32-1.18.42-1.77.69-.49.22-.68.34-1.25.44-.06.01-.13-.04-.11.06-.18,0-.36,0-.54,0-.03.42-.1.86-.1,1.28,0,.07-.04.11-.1.06-.08-.06-.03-.71,0-.85l-.07-.05c-.06-.07,0-.03,0-.03-.42.12-.71.1-1.13.05-.31-.04-.63-.11-.93-.17-.04-.1-.15-.13-.33-.11-.53-.15-1.05-.32-1.56-.52l-.07.02-.05.05-.43-.13-.11.15c.12.11.13.18.05.22-.04-.01-.18-.06-.2-.06-.11.02-.27.75-.31.89-.05.11-.11.03-.16-.04-.15-.02-.24-.08-.27-.19-.08-.72-.07-1.47-.04-2.18.06-.21.28-.29.48-.3-.23-.23-.49-.43-.76-.62l-.05-.12c-.06-.11.19-.26.29-.32.17-.09.53-.22.57.03l.07-.02c.38.48.59,1.03.62,1.63.1.11.17.23.2.36.26-.09.52-.22.77-.39l.24-.08c-.03-.08-.02-.14.04-.17.05-.01.1-.01.14,0,.55.26,1.11.54,1.6.89.01-.02.02-.04.05-.05.89-.31,1.73-.68,2.57-1.12h.08s.16-.01.16-.01c.08.32.18.64.3.95.26-.25.42-.55.57-.88l.09-.04c0-.13.08-.32.16-.42.31-.36,1.73-.99,2.14-1.12h.16Z"/>
  <path class="st11" d="M3.92,14.12c.3-.34.62-.71.72-1.18.08-.45.13-.93.17-1.38.37-.29.6-.63.82-1.05.1-.17.43-.54.39-.16.01.02.02.03.03.05.01.05-.13.86-.16.98-.41,1.71-.78,3.42-1.1,5.14.52,1.43,1.1,2.78,1.74,4.04.02-.02.05-.03.06-.02.04.06.18.47.16.5,0,.01-.02.02-.04.03-.06.03-.14.04-.24,0-.26.04-.52.14-.76.3-.04,0-.1,0-.11-.04-.08.2-.07.41.03.64l.21.57-.05.07c-.08.01-.15-.02-.22-.1h-.07c-.1-.29-.22-.58-.41-.82-.13.15-.21.18-.26.08-.1-.51-.4-.88-.67-1.31l-.02-.07c.23-.22.34-.52.43-.82-.17-.08-.28-.26-.33-.53-.32-.48-.62-.93-.62-1.54l-.04-.98c-.13-.53-.11-1.08,0-1.62l-.04-.06c.11-.23.21-.47.29-.72l.07-.02Z"/>
  <path class="st1" d="M25.72,11.6c.08-.1.14-.04.19.18.89.56,1.84,1.09,2.77,1.6l.04.1c0,.09-.02.17-.03.26l-.08.18c-.24.26-.35.58-.35.97-.05.29-.31.32-.56.27v.46s-.04.05-.09.04h-.04c-.02-.16-.05-1.38,0-1.43.05-.04.08-.04.14-.02.02,0,.16-.35.16-.38s-.21-.35-.23-.37c-.11-.05-.25.46-.26.51-.04.05-.11.07-.21.04-.06.09-.12.18-.18.26-.44.53-.93,1.15-1,1.85-.06.01-.05.05.03.11.03-.52.37-.11.4.17-.16.41-.29.83-.37,1.26-.04.18-.19.49-.39.45-.05.03-.35.15-.35.18.07.08.34.13.38.23.03.08-.1.42-.17.46-.18-.46-.26-.15-.45-.1s-.4-.07-.55.04c.11-.55-.04-1.15,0-1.69-.02-.24.05-.47.22-.7.65-.77.78-1.7.85-2.69-.01-.32.03-.62.12-.89-.02-.02-.04-.04-.04-.07,0-.26,0-.59.07-.83-.02-.15-.03-.3,0-.45Z"/>
  <path class="st28" d="M10.56,25.65h.09c.68.24,1.37.47,2.07.66.54.15,1.29.23,1.83.08l.03.03c.05-.01.1-.04.16-.03-.08.26-.08.54-.06.81,0,.08-.02.1.06.05,0,.16.04.29.03.45.09,0,.15-.06.24-.07.16,0,.32.09.54.07s.45-.21.65-.13c.06.01.02.09-.03.1-.02.03-.17.21-.16.22l.19-.03c-.12.06-.31.19-.37.32-.22.45-.39,1.26-.56,1.77-.09.28-.18.56-.29.83-.05.11-.14.21-.13.33-.13-.15-.21-.36-.29-.54-.27-.62-.48-1.26-.64-1.92l.07-.04c.34.1.4.15.54.48.02.06-.05-1.15-.09-1.23-.16.19-.32.36-.5.53-.01.1-.04.17-.09.22-.19,0-.01.27-.16.26-.24-.4-.47-1.25-.83-1.51-.47-.34-1.47-.77-2.03-1.04-.26-.12-.58-.29-.84-.39.02-.09-.13-.18-.12-.23,0-.03.13-.19.16-.2.05-.02.43.12.51.15Z"/>
  <path class="st14" d="M24.45,4.77c.15.04.32.11.45.19.19.08.24.16.35.32.05.02.12.11.1.16.55.78,1.69,2.24,2.01,3.06-.02.12-.26.08-.26-.03.06-.06-.03-.13-.27-.19-.81-.53-1.6-1.11-2.37-1.73l-.05-.13v-.06c-.82-.92-1.83-1.71-2.84-2.42l-.03-.07h.03s.03-.06.05-.06c.16-.03,1.34.33,1.55.42.35.22.72.4,1.1.53.07-.03.12-.03.17,0Z"/>
  <path class="st11" d="M8.71,23.32c.34.24.68.47.96.78l-.23.02c-.46.09-.34.38-.34.74,0,.51-.02,1.05.03,1.56.03.28.07.15.24.24.07.03.06.12.14.1-.1.34-.19.68-.29,1.02l-.04.06c-.02.1-.06.25-.12.1-.05-.11-.12-.45,0-.53l-.06-.03c-.25-.86-.49-1.78-.53-2.69,0,.03-.03.05-.08.05-.14.05-.39-.25-.38-.38-.01-.03-.03-.07-.07-.11l-1.07-.92c-.33-.24-.29-.68-.07-.99-.11-.16-.11-.23,0-.21.03,0,.06,0,.09,0s.06.01.08.03c.51.31,1.02.63,1.46,1.02.09.1.19.14.29.12Z"/>
  <path class="st11" d="M27.1,8.47c.09.03.15.05.26.03.14.35.28.79.39,1.16.26.83.46,1.68.69,2.52h-.07s-.15-.35-.15-.35c-.13-.19-.27-.39-.41-.59l-.04.02c-.18-.13-.32-.41-.32-.64-.12-.66-.59-1.19-1.16-1.51-.46-.27-.91-.54-1.35-.81h-.08c-.04.06-.06.05-.1,0-.06.07-.11-.06-.04-.13-.1-.35-.22-.69-.36-1.03-.05-.11-.15-.42.05-.37.16.04.64.3.8.4.49.37.99.72,1.49,1.07.16.06.29.14.39.25Z"/>
  <path class="st28" d="M27.48,20.22c-.09.06-.05.02-.08-.03-.05-.08-.2-.3-.21-.37-.02-.14.09-.54.1-.73.05-.83-.05-1.92-.25-2.73,0-.03-.03-.24-.11-.13-.1.02-.19-.34-.18-.41.04-.17.17-.18.22-.02.14-.17.45-.27.62-.15.07-.02.01-.48.03-.57.66.14.53-.2.62-.65.07-.34.21-.46.44-.7-.2,1.29-.57,2.58-.79,3.86-.15.87-.28,1.75-.42,2.62Z"/>
  <path class="st24" d="M5.8,22.61h.08s.29.23.29.23c.32.2.64.43.92.7l.02.1.03.06c.16.12.22.19.04.35l-.49.5c.07.07.16.13.26.17.08.05.15.12.06.19-.08-.05-.42-.27-.48-.24-.02.01-.03.03-.05.05l-.62,2.87-.09-.25c.06-.1.05-.19.06-.3-.04-.28-.05-.57-.03-.86-.09-1.21-.19-2.41-.27-3.6l.05-.08.02-.06c.07.05.14.1.21.16Z"/>
  <path class="st29" d="M23.07,4.06c.44.16.86.4,1.28.61.05.03.08.06.1.1-.05,0-.09.06-.14.06-.26.02-.94-.46-1.22-.56-.24-.09-1.31-.4-1.51-.39-.05-.02-.1-.02-.14,0l-1.22-.68c.18.12.35.25.51.39v.07c.02.08-.01.06-.07.03l-.08.02c-.31-.13-.65-.18-1.03-.15-.37-.04-1.26-.13-1.51-.41-.03-.03-.03-.07-.03-.1.09-.2-.25-.34-.12-.55.17-.3,1-.07,1.27.03.39.14.74.39,1.14.55.91.35,1.89.67,2.79,1Z"/>
  <path class="st39" d="M4.17,20.47s-.09-.02-.15.03c-.07.05-.08.2-.16.26-.09,0-.13-.87-.15-.97-.11-.88-.25-1.79-.35-2.67-.06-.55-.18-1.19-.16-1.72.09-.16.19-.31.3-.46l.08-.02c.04.36-.06.71-.03,1.07.01.19.08.39.1.57.04.6-.03,1.28.25,1.82.11.22.33.48.43.69.06.14.04.31.17.41.04.03.13.04.14.08.02.07-.19.56-.25.64-.02.04-.21.26-.23.27Z"/>
  <path class="st24" d="M25.72,11.6c0-.09-.03-.13-.08-.14-.04-.09-.06-.49.1-.45.47.36.97.64,1.51.84.12.03.39.08.32,0,.1-.05.22-.04.36.04.21.17.27.17.18,0l.03-.07c0-.09.03-.08.06,0,.03-.01.02-.08.06-.06.01.15.12.29.16.41.14.38.33.92.29,1.31l-.45-.27c-.45-.15-.79-.43-1.18-.67-.23-.13-1.11-.58-1.23-.72-.06-.07-.01-.22-.14-.22Z"/>
  <path class="st14" d="M5.58,22.52c.06.3.03.72.06,1.04.1,1.13.3,2.38.19,3.5-.05-.13-.13-.33-.16-.46-.32-1.58-.51-3.22-.83-4.8.11.04.19-.15.24-.16.13-.02.46.75.49.89Z"/>
  <path class="st35" d="M8.01,24.37c.13.11.23.29.38.38.11.09.13.45.03.54-.56.2-.96-.12-1.4-.38,0-.18-.38-.2-.38-.37,0-.08.55-.54.61-.67.01-.08-.21-.15-.13-.24.33.14.65.46.89.73Z"/>
  <path class="st58" d="M13.88,28.62s0-.18.02-.22c.05-.12.48-.45.52-.57.01-.04,0-.08,0-.12,0-.03-.06-.02-.08-.01-.1.04-.1.22-.21.22.03-.19.31-.51.38-.17.1.51.11,1.08.13,1.59.02.29.05.59.06.88-.08,0-.05,0-.06-.05-.06-.41-.05-.86-.22-1.25-.06-.13-.35-.22-.49-.26-.02,0-.05,0-.06-.03Z"/>
  <path class="st22" d="M8.39,24.75s.03-.09.03-.17c-.02-.18-.13-.38-.15-.57.34.3.25.9.32,1.32.1.61.22,1.34.46,1.9.04.08.02.11.02.18v.53s.06,0,.06,0c0,0,0-.15.1-.16-.03.12-.05.28-.09.4-.02.04.01.05-.07.04-.16-.95-.42-1.88-.58-2.82,0-.05-.06-.1-.06-.11,0-.2-.01-.33-.03-.54Z"/>
  <path class="st51" d="M24.35,4.67c.16.08.33.15.49.23.02.01.13.03.05.06-.15-.07-.28-.08-.45-.19-.04-.02-.07-.06-.1-.1Z"/>
  <path class="st51" d="M25.25,5.28s0-.04.03-.02c.06.05.21.28.06.18-.04-.05-.06-.11-.1-.16Z"/>
  <path class="st52" d="M16.21,27.56c.22-.34.94-1.15,1.31-1.26.25-.08.49-.1.73,0,.08.03.16.12.25.14.16.03.36.02.54.07.05.01.06-.02.05.06-.54.15-1.08.31-1.62.47-.13.04-.28.13-.39.15-.14.03-.25,0-.4.04-.22.06-.27.21-.4.37-.01.01-.09.11-.1.05.02-.03.02-.08.03-.1Z"/>
  <path class="st40" d="M25.66,18.11c.38-.25.32-.54.42-.93.04-.14.28-.76.28-.81,0-.04-.2-.4-.25-.33l-.05.35c-.04-.08-.43-.41-.37-.48.05-.06.17.23.26.19,0-.12,0-.22.03-.34.04-.13.33-.69.42-.83.19-.33.5-.6.7-.93.06-.12.15-.03.2-.05.08-.02.05-.44.28-.55.03-.02.05-.03.09-.01s.25.36.26.42c0,.05-.17.45-.2.46-.02.01-.11-.05-.13-.03v1.4c-.09.03-.24,0-.38.05-.12.04-.19.15-.24.17-.08.03-.05-.16-.13-.13-.11.05.06.39.08.48.2,1.02.35,2.33.18,3.35-.06.33-.17.63-.24.96-.07.03-.16-.21-.16-.24v-.51s-.05-.07-.03-.11c-.03-.03-.14.12-.19.05.24-.44.12-.96.26-1.42-.12.09-.25-.03-.3-.03s-.22.12-.3.15c-.3.11-.61.09-.49-.31Z"/>
  <path class="st24" d="M23.04,18.94c.13-.1.18.06.13.18l.34-.14c.07-.24.22-.36.43-.37-.16-.67-.23-1.38-.18-2.08.03-.46.21-.64.48-.17l.14.38c.11.05.14.12.1.22.05.05.02.22-.03.26-.05.41,0,.87,0,1.29,0,.13.07.18-.02.33-1.24,1.51-2.36,3.09-3.47,4.71-.07.1-.16.19-.23.28-.04.05-.06.15-.1.19-.04.04-.25.09-.32.1-.1,0-.25-.04-.31-.03-.05.01-.11.12-.2.16-.09.05-.41.13-.52.15-.03,0-.14.04-.14-.02.34-.1.71-.15.92-.47.15-.53.24-1.08.41-1.61.05-.17.25-.56.27-.69.02-.18-.02-.3.04-.55-.09-.03-.06-.15.03-.16-.01-.01-.03-.02-.03-.04-.05-.14.43-.68.54-.8.44-.48.98-.93,1.63-1.08,0-.09.04-.1.1-.03Z"/>
  <path class="st39" d="M25.31,10.58l.04-.02c.12.18.25.32.38.4.02-.06.04-.06.09-.03l1.16.7c.18.07.38.12.58.15l.02.07.05.06c-.5.06-.7-.14-1.08-.36-.11-.06-.25-.1-.35-.16-.16-.1-.32-.27-.48-.38-.05.19.01.38.02.57,0,.15,0,.3,0,.45-.03,0-.05-.01-.05,0-.02.27-.03.64-.02.9,0,0,.02,0,.05-.01-.05.8-.14,1.89-.37,2.65-.17.58-.76.99-.81,1.63-.04.07-.07.11-.06,0,.01-.08,0-.17.03-.26-.02-.11,0-.22.06-.32.27-.39.5-.8.7-1.22.08-.24.3-1.65.23-1.81,0,0-.04-.01-.05,0-.16.05-.86.82-.98.95-.4.45-.58.82-.74,1.4l-.09.05c-.2,0,0-.52.13-.56l-.06-.04v-.56l.06-.05s-.04-.05-.03-.08c.2-.1.3-.27.32-.5.01-.22.02-.4.09-.62.04-.14.16-.43.29-.48l-.02-.1.49-.83c.22-.42.3-.85.14-1.29-.04-.14,0-.21.11-.2-.02-.13.07-.25.17-.13Z"/>
  <path class="st0" d="M19.85,21.78c-.18.4.03.24.16.37.18.18-.37.39-.48.43-.46.19-.89.35-1.34.59-.21.12-.69.37-.86.51-.07.06-.2.33-.26.43-.1.03-.12-.05-.07-.26-.19.11-.32.12-.41.04-.22.01-.45.08-.68.19-.86.43-1.73.83-2.62,1.15h-.07c-.63-.39-1.3-.78-1.99-1.02-.09.06-.25-.05-.22-.16l.11-.05c.65.06,1.29.14,1.94.25.99.12,1.31.15,2.2-.21,1.36-.55,2.74-1.21,4.04-1.93.17-.16.35-.27.55-.33Z"/>
  <path class="st6" d="M21.96,6.97c.05.08.09.16.14.24s.08.16.12.25c.3.79.59,1.59.88,2.38.31.87.52,1.68.74,2.57.05.21.05.48.01.69v.2c-.31,1.09-.57,2.19-.78,3.31-.02.18-.08.33-.18.45v.06c.09.09,0,.25-.09.36-.91,1.3-1.81,2.61-2.7,3.93-.01.14-.06.23-.15.28-.01,0-.06.07-.1.1-1.12.84-2.57,1.41-3.85,1.97-.55.24-1.28.66-1.88.65-.8-.02-1.61-.19-2.4-.28-.24-.03-.48-.03-.71-.07-.03,0-.05,0-.08,0-.1-.02-1.1-.91-1.25-1.07l-.07-.14-.09.02-.27-.17c-.74-.32-1.51-.71-2.21-1.17-.15-.07-.16-.24-.01-.21.2.02.46.15.57.32h.15c.74.36,2.08,1.02,2.6,1.62.03.04.05.09.06.13l.04-.02c.2.19.41.35.63.49.87.15,1.75.27,2.63.37.52.05.88,0,1.35-.2,1.31-.55,2.7-1.19,3.95-1.85.16-.08.31-.19.44-.31,1.08-1.5,2.14-3.02,3.18-4.56.35-1.38.68-2.77.99-4.17.1-.44-.21-1.64-.36-2.1-.34-1.03-.72-2.06-1.15-3.07-.08-.18-.13-.36-.13-.55-.09-.11-.22-.29-.16-.45-.02-.11.13-.11.13,0Z"/>
  <path class="st39" d="M22.88,17.06c.02.07.07,0,.15-.09l.1-.37c.1-.08.16-.05.13.08.09.04.03.37-.06.4.02,0,.06,0,.06.02.01.2.04,1.09,0,1.22l-.06.04c.21.02.04.63-.16.59-.03.02-.07.02-.1.03-.65.14-1.19.61-1.63,1.09-.1.11-.57.65-.53.76,0,.02.02.05.02.07-.01.04-.02.11-.03.16-.14.12-.32.23-.46.35-.07.06-.14.2-.22.26-.06.04-.14.03-.14.03l.09-.31c.89-1.39,1.91-2.7,2.81-4.09,0-.09.02-.15.04-.23Z"/>
  <path class="st38" d="M18,3.04c.44.34,1,.39,1.55.45.37.04.79-.07,1.1.19.59.3,1.11.87,1.44,1.44.15.53.25,1.06.3,1.61l-.05.05c.01.08-.09.11-.13.03-.34-.25-.65-.55-.92-.88-.1-.32-.17-.66-.21-1.02-.07-.2-.64-.08-.81-.04-.04,0-.27.06-.28.07.09.08.27.31.07.31h-.07s-.79-.63-.79-.63c-.92-.82-2.19-.99-3.39-1.11-1.56.58-3.1,1.18-4.61,1.8-.24.29-.43.62-.55.99.09.06-.05.3-.13.29.03.22-.22.13-.19-.06l-.07-.02c-.01-.09-.05-.16-.09-.24-.05-.05-.12-.08-.19-.08-.04-.04,0-.57.02-.68l.08-.08c.16-.99.93-1.12,1.64-1.57.47-.3.8-.64,1.33-.9.63-.31,1.35-.61,2.02-.82.28-.09.83-.29,1.1-.3.38-.03.49.21.76.4.38.27.7.52,1.06.8Z"/>
  <path class="st38" d="M9.47,5.79c.26-.09.19.1.07.24.08.45.15.9.21,1.36-.28.5-.39.14-.43-.24l-.07-.05h-.05c-.03-.17-.1-.28-.21-.32-.06-.03-.03-.02-.03-.02-.65.57-1.18,1.14-1.51,1.97-.22.62-.49,1.21-.79,1.76-.11.11-.18.24-.2.37.03,0,.03.02,0,.03-.1.12-.17-.02-.1-.13-.15-.11-.17-.38-.17-.56l-.05.02c-.05,0-.02-.02-.02-.02-.01.03-.05.13-.06.15,0,0-.02,0-.05,0l-.05-.13c-.34.26-.46.69-.72,1-.07.09-.38.33-.4.37s.02.09.01.14c-.12.55-.07,1.21-.35,1.69-.07.13-.34.53-.44.61-.05.04-.11.05-.16.08l-.04-.09c0-.22.06-.6.14-.8.07-.48.22-.98.31-1.46s.13-1,.25-1.44c.1-.36.73-.98,1.02-1.25.23-.22,1.55-1.31,1.58-1.48.02-.08,0-.17.01-.27.08-.43.46-1.38.9-1.52.38-.12,1-.12,1.38,0Z"/>
  <path class="st39" d="M9.47,5.79c.19-.1.32-.23.46-.38l.05.1.1-.06c-.04.25-.02.49-.06.73.14-.12.15-.05.16.1.07.1.09.22.05.37-.11.45-.16.91-.18,1.38l-.07.07c0,.44-.03.89-.07,1.34l-.06.03c.11.05.05.29-.08.27-.17-.02-.44-1.77-.45-1.93.02-.08.02-.15.02-.23-.02,0-.03,0-.05-.02-.02-.01-.11-.43-.05-.46.06-.04.09-.05.12.02s.08.44.1.46c.37-.14.18-.4.14-.66-.03-.21-.04-.42-.08-.62-.05-.24-.15-.2.07-.46-.03-.06-.09-.04-.13-.05Z"/>
  <path class="st19" d="M3.92,14.12c-.05.2-.23.61-.32.8-.09.17-.23.36-.38.48.01-.3.28-1.64.45-1.83.08-.1.29-.17.35-.34-.04.29-.01.59-.1.89Z"/>
  <path class="st39" d="M6.73,21.08c.08-.05.29.14.29.22l-.06.09c.57.38,1.17.71,1.79,1,.38.18.49.18.85.44.12.2.11.26-.03.19-.28-.22-.66.07-.86.29-.03.03-.05.07-.08.09-.26-.15-.48-.39-.74-.57-.34-.24-.74-.47-1.1-.71h-.08c-.38-.24-.76-.48-1.14-.7-.02-.05,0-.08.04-.09.03-.01.07,0,.12-.02.34-.15.59-.41,1-.23Z"/>
  <path class="st14" d="M11.01,24.05c.1.07.11.09.22.16.11.01.27.04.29.16l.03.22c-.35.02-.71.39-1.02.47-.17.04-.12-.1-.18-.21-.04-.06-.1-.08-.13-.15-.07-.14-.05-.42-.08-.59-.04-.23-.4-.94-.57-1.08.14.02.02-.09,0-.17l.03-.02c.52.38.92.84,1.4,1.21Z"/>
  <path class="st14" d="M16.59,23.89s.09,0,.13,0c.12-.03.23-.09.34-.12.04.04-.09.29,0,.35-.14.26-.22.47-.4.73-.05.07-.16.14-.2.21-.04.08-.01.2-.1.24.03-.24-.11-.44-.17-.65-.05-.16-.06-.33-.12-.49-.03-.09-.06-.04-.13-.05.12-.14.45-.23.64-.22Z"/>
  <path class="st9" d="M11.23,24.21c.22-.09.49.15.69.25.19.09.39.15.58.25s.6.45.79.45c.1,0,.87-.34,1.03-.41.74-.3,1.41-.74,2.18-.92.06-.01.11-.05.1.05-.2.06-.45.15-.64.22-.47.19-.87.48-1.32.68s-.95.27-1.38.54c-.53-.41-1.15-.65-1.74-.96-.09-.05-.2-.11-.29-.16Z"/>
  <path class="st55" d="M10.56,25.65c-.01-.1.04-.07.1-.05.39.1.79.31,1.17.42.35.1.87.09,1.21.04.09-.01.19,0,.27.05.05.02.08,0,.06.08-.18-.07-.33,0-.49,0-.06,0-.29-.04-.3-.03-.13.11.37.12.4.13.69.14.87.21,1.57.07.09-.02.09-.02.04.06-.09.02-.17.06-.25.08-.37.08-1.15-.04-1.54-.12-.75-.16-1.5-.49-2.23-.72Z"/>
  <path class="st14" d="M5.61,21.34c-.02.08.04.07.08.09.38.21.73.47,1.1.71-.08.06.06.14.06.21,0,.04-.13.22-.15.33-.09.55.21.61.54.92.23.22.5.44.72.65.01.01.11.11.05.13-.28-.25-.61-.5-.89-.73-.2-.17-.35-.34-.58-.49-.35-.23-.41-.25-.73-.53-.08-.27-.42-.98-.28-1.22.03-.06.05-.04.09-.05Z"/>
  <path class="st15" d="M6.15,10.23c.01-.05.02-.19.1-.16,0,.23.06.48.13.7.03.17-.12.15-.17.01-.37,1.75-.74,3.48-1.12,5.2-.08.35-.13.66.08.97l-.04.07.12.18c.57,1.29,1.13,2.56,1.67,3.81.18.14.38.26.59.37.14.06.33.3.08.24-.19-.11-.39-.21-.57-.32-.07-.04-.21-.19-.29-.22-.03-.11-.1-.45-.19-.51-.64-1.31-1.22-2.65-1.74-4.03l.11-.69c.42-1.87.82-3.73,1.19-5.56l.06-.06Z"/>
  <path class="st37" d="M6.15,10.23c-.1.41-.15.86-.23,1.28-.35,1.68-.8,3.33-1.08,5.02.21.52.42,1.05.64,1.57.34.83.73,1.64,1.06,2.47-.17-.12-.29-.42-.39-.65-.49-1.12-.97-2.25-1.4-3.39.26-1.74.75-3.44,1.1-5.16.07-.32.08-.72.17-1.02.03-.08.13-.29.13-.13Z"/>
  <path class="st21" d="M25.72,12.05c0,.31-.01.59-.03.89l-.03.16-.06-.11c.04-.42,0-.86.03-1.28,0-.06.01-.21.06-.24.02.18-.04.4.03.57Z"/>
  <path class="st19" d="M22.02,4.38s.07.01.1.03.07.02.09.04c.52.38,1.04.78,1.52,1.21.24.22.52.48.68.76.46.42.84.67,1.32,1.02.31.23.49.44.88.66.17.09.35.18.53.24.07.07.09.16-.05.13-.68-.23-1.3-.94-1.95-1.29-.25-.13-.51-.23-.75-.37-.05,0-.06,0-.05.05.08.32.27.71.37,1.04.01.05.08.29.08.3,0,.02-.07.02-.07.03,0,.04.03.04.03.05l.09.08.22,1.15c.09.51.3.97.65,1.35v.11s-.02.03-.04.03c-.05,0-.31-.34-.37-.41l-.1-.04c-.29-.59-.46-1.22-.52-1.9,0-.05-.1-.46-.14-.43-.04.14-.11.22-.2.24-.16.02-.06-.24.06-.22-.04-.03-.07-.08-.08-.16l-.18-.2c-.3-.49-.63-.96-.98-1.41-.07-.03-.29.6-.31.7l-.08.04c-.05.07-.09.1-.14.09-.06-.23-.17-.37-.33-.42l.02-.08c-.08-.19-.09-.69-.14-.93-.12-.65-.17-.86-.63-1.35-.24-.26-.65-.58-.93-.81l.06-.03.08-.02c.48.27.87.64,1.18,1.12l-.04-.33s.04-.05.09-.04Z"/>
  <path class="st18" d="M21.57,3.87s-.02,0-.03,0l-.02.05c.19.09.35.23.49.37v.08c-.1.07.13.49-.05.45-.08-.02-.44-.56-.54-.67-.25-.26-.45-.33-.72-.51-.05-.03-.15-.15-.23-.2-.1-.07-.5-.22-.27-.33l1.36.76Z"/>
  <path class="st30" d="M21.54,3.87c.24.17.5.32.73.5.63.48,1.58,1.25,2.08,1.85.01.02.22.23.06.21-.29-.26-.54-.55-.83-.81-.5-.45-1.04-.82-1.56-1.23-.13-.1-.23-.25-.35-.33-.06-.04-.14-.04-.19-.1-.09-.09,0-.07.07-.08Z"/>
  <path class="st28" d="M24.86,8.28c.23.09.45.21.66.37.86.46,1.73.94,1.92,1.96.11.21.21.43.32.64.02,0,.04,0,.05,0,.06.07.35.47.36.52,0,.02-.01.03-.03.05.03.06.07.11.07.18,0,.23-.23,0-.33-.05-.1-.04-.21-.06-.31-.09-.16-.05-.41-.08-.53-.12-.26-.1-1.18-.75-1.32-.77-.13-.16-.28-.34-.39-.52-.36-.6-.39-1.48-.57-2.16.01-.04.07,0,.1,0Z"/>
  <path class="st46" d="M27.45,10.61c-.45-.88-.4-.99-1.28-1.55-.43-.27-.88-.51-1.31-.78,0,0,.04-.04.08-.03.1,0,.44.29.56.37.77.47,1.49.68,1.89,1.59.04.1.13.31.06.4Z"/>
  <path class="st44" d="M27.77,11.25c-.01-.06.02-.1.07-.04s.1.18.16.25c.12.14.27.16.22.37-.01,0-.04,0-.06,0-.09-.2-.27-.36-.38-.57Z"/>
  <path class="st11" d="M24.48,16.96c.03-.14-.1-.09-.15-.18-.08-.13-.16-.6-.34-.62-.1,0-.13.06-.14.14-.05.4-.02,1.31.04,1.72.02.12.14.54.12.61-.03.08-.18.03-.27.09-.09.06-.09.21-.16.29-.12.12-.44.12-.54.32-.04-.11.24-.34.02-.38.11-.09.2-.33.19-.46,0-.06-.04-.11-.04-.13v-1.28s.05-.35.06-.4l-.04-.08c.1-.2.21-.39.32-.59h.07c.13-.31.21-.71.38-.99.21-.35.54-.65.82-.93.13-.13.44-.55.61-.55.12,0,.12.07.11.18-.01.44-.11,1.21-.22,1.64-.16.64-.67,1.02-.84,1.6Z"/>
  <path class="st45" d="M22.95,18.97c-.24.14-.51.22-.74.36-.43.25-1.23,1.09-1.4,1.56-.2-.03-.04-.23.02-.32.38-.56,1.31-1.43,1.97-1.61.05-.01.12-.05.15,0Z"/>
  <path class="st32" d="M22.56,21.15c-.13.09-.06-.21-.06-.24,0-.12-.02-.22-.02-.33,0-.04-.01-.14.04-.13.06,0,.18.6.05.7Z"/>
  <path class="st11" d="M25.31,10.58c-.21,0-.05.21-.1.35l-.13-.19c-.03.24.11.42.1.66-.03.7-.47,1.18-.77,1.74-.13.13-.59.07-.54-.16-.03-.05,0-.1.06-.17-.03-.42-.11-.84-.24-1.25-.24-1.04.05-2.14.56-3.06l.1-.06c.05-.1.14-.19.13-.32.18-.02.22.24.25.38.15.67.17,1.51.58,2.08Z"/>
  <path class="st38" d="M24.42,13.13c-.05.09-.23.48-.25.56-.1.31.02.67-.24.97-.05.06-.18.07-.18.14v.64c0,.11-.23.42-.13.56-.08.19-.31.53-.35.67l-.06-.08c-.09.19-.02.45-.26.54-.11.04-.05,0-.06-.07.36-1.29.5-2.71.96-3.96-.01-.07,0-.12.03-.13.07.19.39.16.54.16Z"/>
  <path class="st12" d="M21.83,6.97c.07.14.13.29.16.45h-.04c.31.91.64,1.79,1.01,2.67.27.72.78,2.36.66,3.08-.31,1.4-.65,2.79-1.01,4.19l-2.84,4.09c-.23.38-.48.58-.89.8-.94.52-2.05,1.01-3.04,1.44-.76.37-1.31.59-2.15.53l-1.79-.23c-.67-.02-1.04-.19-1.47-.63l-.04.02c-.2-.17-.38-.35-.59-.51-.66-.51-1.49-.82-2.22-1.25.09.01.09-.02.03-.08-.2-.19-.67-.33-.81-.56-.06-.1-.08-.27-.13-.38-.52-1.19-1.07-2.37-1.55-3.58l.02-.08c.16-.08.23-.23.22-.4-.05-.35.02-.65.14-.99.08-.84.23-1.65.45-2.44-.14-.18-.1-.42.14-.7.03-.35.13-.65.3-.9.09-.08.38-.16.48-.12l.05.05c-.54,1.43-.81,3.01-.98,4.57-.06.59-.09,1.04.1,1.58.37,1.06.93,2.21,1.45,3.21.07.14.18.29.27.41,0,0,.01-.01.03-.03h.07c.45.24.89.52,1.33.82.18.08.36.15.53.23.06-.06.19-.02.21.07.05-.08.22-.03.22.06.37.03.05.14.43.11,0,.03.68-.04.67-.02-.01.03-.59.06-.68.07-.01.02.02.5.03.53.02.06.58.25.73.3l.11.09.04.06c1.03.14,2.12.28,3.12.28,1.37-.64,2.76-1.27,4.16-1.91l.35-.2c1.03-1.4,2.03-2.81,3-4.23.54-1.42.87-3.03,1.08-4.54-.07-.06-.04-.22.06-.22.06.03.04-.17.03-.29-.05-.46-.15-.86-.29-1.3-.42-1.3-.96-2.6-1.49-3.88-.28-.19-.57-.37-.87-.54-.81-.6-1.64-1.15-2.49-1.66-.74-.02-1.52-.07-2.25-.36l-.04-.06c-.02-.06-.04-.09-.07-.1-.42.08-.55.02-.38-.16.29-.26,2.08.12,2.52.26.22-.08.35-.06.57.03.05,0,.41.04.43.03.04-.03-.61-.45-.68-.47-.38-.15-2.14-.6-2.48-.48-1.5.55-2.98,1.15-4.46,1.75-.03.01-.07.07-.1.1-.17.33-.34.66-.51,1-.08.13-.28.18-.18,0,.05-.08.09-.21.13-.29.12-.37.31-.71.57-1,1.47-.61,3-1.21,4.53-1.77.32-.12,2.05.3,2.44.45.26.1.54.28.76.45.94.73,1.88,1.47,2.76,2.25.11.1.15.2.12.3Z"/>
  <path class="st39" d="M22.69,7.39l.04.07c-.12.33-.14.66.08.94.05.24.14.46.27.65.07.02.18-.91.18-1,.02-.04.03-.05.06-.08.09-.08.92.13,1.08.17l.02.07c-.01.06-.14.18-.06.22-.42.83-.59,1.2-.67,2.16-.08.89.26,1.32.32,2.08.02.24-.03.17-.13.3-.05.07-.02.09-.03.13l-.07-.68c-.24-1.27-.7-2.44-1.14-3.65-.22-.6-.44-1.2-.67-1.8-.14-.03-.02-.16.1-.12.09.07.17.07.26,0,.15.07.26.21.31.41.07,0,.09.07.06.13Z"/>
  <path class="st15" d="M10.4,23.38c-.01-.09.04-.08.09-.05.26.14.32.38.67.48.51.14,1.26.18,1.8.24.5.06,1.14.23,1.63.08.87-.27,1.95-.84,2.79-1.23.68-.32,1.44-.63,2.03-1.06l3.15-4.51c.27-.8.4-1.63.58-2.45.12-.55.36-1.24.42-1.78.07-.58-.31-1.95-.5-2.55-.33-1.01-.91-2.11-1.17-3.11-.03-.13.02-.15.08-.03.37,1.12.92,2.26,1.26,3.38.18.61.49,1.73.43,2.34-.35,1.39-.6,2.8-.99,4.18-1.05,1.41-1.98,3.01-3.05,4.39-.28.37-.52.47-.93.67-1.02.5-2.14,1.03-3.18,1.48-.66.28-.99.45-1.73.41-.9-.05-1.84-.26-2.74-.36-.2-.06-.5-.39-.66-.53Z"/>
  <path class="st36" d="M20.07,5.25s.09,0,.13.02l1.32,1.1.69.43s.09-.03.13-.03c.03.08.12.1.17.16.07.09.07.22.14.3l.13-.05c.09.06,0,.2-.1.19-.15-.11-.14-.41-.32-.5-.05-.02-.11.08-.18.08-.07,0-.13-.09-.22-.07-.03,0-.02.06-.02.07,0,0-.09-.03-.13,0-.17-.36-.62-.69-.94-.96-.62-.52-1.32-1.07-1.97-1.55-.38-.28-.56-.42-1.02-.54s-1.36-.34-1.83-.37c-.1,0-.21,0-.3.01-.95.41-1.94.74-2.9,1.12-.41.16-1.3.46-1.63.67-.21.14-.38.64-.51.87-.02.04-.06.06-.07.07-.06-.02,0-.1,0-.14.07-.17.38-.83.51-.9.09-.05.22-.05.32-.1,1.42-.63,2.87-1.16,4.33-1.71.63.04,1.31.19,1.93.33.93.21,1.59.87,2.33,1.45Z"/>
  <path class="st17" d="M10.53,6.59c-.01.08.02.09.08.03.24-.24.4-1,.68-1.17,1.47-.63,2.98-1.18,4.47-1.75.15,0,.32-.02.47,0,.39.04,1.83.36,2.16.53.13.07.54.37.64.47.04.04.02.06-.02.08-.05.01-.43-.02-.5-.03-.1-.02-.23-.1-.32-.1-.07,0-.11.06-.16.07-.12.02-.26-.07-.38-.09-.42-.08-1.92-.42-2.22-.15-.01.01-.03.03-.03.05.07.05.62-.18.48.13-.08.08-.18.11-.28.15-.6.2-1.21.4-1.82.57-.5.16-1.02.34-1.5.54-.6.25-.95.58-1.37,1.07-.32.24-.58.44-.68.84-.04.07-.1.08-.14,0-.04-.08.11-1.03.15-1.18.01-.03.08-.1.12-.11.08.08.12.21.19.06Z"/>
  <path class="st39" d="M22.21,6.81c-.16,0-.32-.09-.44-.18-.54-.36-1.16-.96-1.69-1.39.08-.07-.04-.2-.1-.24-.04-.03-.2-.03-.02-.12.16-.08.75-.17.93-.15.26.02.25.08.29.31.06.28.02.57.16.83.08.15.35.4.49.53s.31.17.38.4Z"/>
  <path class="st33" d="M15.86,4.64c.5.13.99.31,1.52.35.3.02.49-.05.78.06.05.03.06.05,0,.06l-.06.05c-.37-.04-.75-.07-1.13-.07l-.05-.07s-.09.05-.15.04l-.88-.26c-.5.17-1.01.32-1.52.45l-.05.07c-.72.19-1.42.43-2.11.7h-.07s-.04.09-.04.09c-.44.24-.83.56-1.16.96-.36.25-.46.38-.62.76-.07.19-.13.39-.19.58l-.07.03s-.02.03-.04.04c-.06.03-.03-.33-.02-.39.02-.55.22-1.35.19-1.82.1,0,.16.18.16.26,0,.11-.06.12-.09.18-.11.32-.13.79-.12,1.12.11-.12.12-.3.21-.43.12-.18.4-.34.56-.49.21-.21.39-.46.62-.66.34-.29.9-.47,1.32-.62.99-.36,2.02-.64,3.02-.99Z"/>
  <path class="st2" d="M6.89,11.41c-.11.08-.28.07-.39.13-.27.15-.24.64-.32.89-.07.2-.3.33-.23.58.02.06.08.06.08.08.01.07-.1.28-.12.39-.15.68-.23,1.38-.33,2.06-.03.2-.13.38-.15.55-.04.34.16.73-.29.94-.05-.12-.13-.26-.16-.37-.06-.22.09-.84.14-1.1.31-1.67.79-3.3,1.07-4.98l.19.19h0c.02.07.03.15.1.13.24-.29.43-.62.57-.98.47-1.19.98-2.34,2.03-3.12.07.02.26.8.21.87-.88,1.19-1.77,2.41-2.34,3.75h-.05Z"/>
  <path class="st59" d="M9,6.78s.1-.08.13-.06c.02.13.09.26.13.38.04.14.06.33.1.48.03.16-.04.28-.14.41l-.74.98-.11.05-.02.1c-.33.53-.65,1.07-.94,1.63-.27.39-.44.89-.59,1.35-.39,1.2-.61,2.51-.74,3.75-.06.57-.12,1.17.08,1.72.45,1.11.94,2.21,1.48,3.29v.07c.11,0,.24.19.19.29.02.04.06.07.06.11,0,.03-.04.02-.06,0-.04-.03-.27-.36-.31-.42-.44-.75-.9-1.93-1.26-2.76-.22-.52-.4-.82-.38-1.41.05-1.29.32-2.55.56-3.82l.46-1.5c.1-.07.1-.23.15-.34.57-1.23,1.41-2.32,2.2-3.42.02-.07-.13-.7-.17-.78-.02-.04-.04-.03-.06,0-.24.28-.53.52-.77.8-.35.4-.56.9-.79,1.38-.3.65-.52,1.39-1,1.94-.05-.02.02-.08.02-.1,0-.01,0-.02,0-.03,0-.05,0-.09.02-.13.18-.27.32-.49.46-.78.32-.82.62-1.58,1.13-2.3.13-.18.7-.81.87-.88.01,0,.03,0,.04.01Z"/>
  <path class="st5" d="M6.47,10.87s-.03-.04-.04-.08c0-.16.12-.18.19-.29.05-.07.31-.56.33-.63.44-1.22.88-2.32,1.96-3.12.06-.05.09-.06.08.03-.21.18-.56.55-.75.77-.85.95-1.02,2.31-1.77,3.32Z"/>
  <path class="st7" d="M11.93,8.37c-.52.65-1.06,1.29-1.6,1.93-.32.38-.54.78-.57,1.28l-.31,2.49c-.03.33-.36.28-.55.1-.13-.12-1.14-1.44-1.14-1.53,0-.1.08-.12.16-.13.22-.46.63-.82,1.04-1.12-.21-.35-.3-.7-.37-1.1-.05-.05-.1-.1-.13-.15.02-.22.01-.4,0-.56l-.05-.08c.11-.2.09-.34-.05-.42v-.07c.28-.41.69-.87.94-1.28.03-.05.06-.09.05-.16.1.5.14,1.03.26,1.51.02.08.15.53.17.56,0,.02.04.04.05.03l.03-.22s.06-.04.07-.08c.01-.3.04-.6.07-.91,0-.03.02-.04.05-.04.03-.17.28-.92.38-1.04s.34-.28.46-.4c.47-.46.59-.7,1.23-.99l.19-.03c.41-.17.85-.34,1.3-.45.12-.02.19.22.22.31.1.36-.3.87-.55,1.1-.43.32-.79.68-1.08,1.1.14.22-.08.32-.26.33Z"/>
  <path class="st42" d="M9.98,8.09c0,.09-.04.37.06.35-.03.16-.05.42-.06.59-.01.11.07.55-.13.43l.13-1.37Z"/>
  <path class="st38" d="M24.42,8.22c-.14-.05-1.01-.25-1.08-.19-.05.23-.04.47-.07.71-.02.14-.13.28-.09.45-.07.07-.06-.03-.1-.06-.24-.25-.2-.4-.32-.7-.03-.08-.09-.13-.12-.2-.11-.26-.04-.58.06-.84.02-.05.07-.11.1-.19.1-.28.16-.61.37-.83.13,0,.92,1.27,1.06,1.47.1.14.25.16.2.39Z"/>
  <path class="st52" d="M12.25,21.18c1.29,0,2.58,0,3.86.03l.02.07c-.1.55-.14,1.11-.11,1.65.04.02.01.14-.02.16-.26.18-1.01.53-1.32.59-.72.02-1.43,0-2.13-.07,0,.03,0,.06-.03.06-.13,0-1.03-.09-1.05-.14,0-.01,0-.03,0-.05-.31-.08-.61-.19-.89-.34l-.03-.65h.34s-.31.04-.31.04c-.33-.02.05-.08-.27-.1-.06,0-.09-.03-.11-.03.24-.06.49-.08.75-.06.39-.03,1.29-.11,1.61-.27.03-.02-.18-.32-.2-.34-.05-.09-.11-.2-.03-.29-.1-.05-.23-.22-.06-.24Z"/>
  <path class="st50" d="M9.47,18.59l.09.03c.67.78,1.36,1.55,2.05,2.3l.03.09c-.02.08-.1.11-.22.1-.51-.03-.68-.02-1.03.35-.05.05-.48.49-.46.52.11.04.12.3.02.34-.27-.06-.47-.09-.72-.22-.5-.25-.91-.66-1.41-.9-.06-.1-.14-.19-.19-.29-.19-.51-.41-1.03-.67-1.54-.01-.05-.01-.1,0-.15-.02-.23.12-.51.23-.72.05-.1.22-.41.25-.2.03,0,.04.02.05.05l-.14.42.46.16v.08c.16.02.23.14.24.36.15.15.26.33.35.52-.05-.11-.01-.25.12-.2.11.19.72.97.97.82,0,0,.01,0,.02-.01-.02-.17-.02-.21.05-.35.04-.08-.46-1.01-.57-1.15-.02-.04-.04-.81-.02-.84.03-.04.06-.06.12-.06.03,0,.43.41.4.48Z"/>
  <path class="st48" d="M12.22,21.18s.02-.03.03,0c-.1.17.24.18.19.35l-.11-.06c-.03.18.21.37.26.54.01.04.03.08-.02.11-.79.21-1.57.32-2.39.27-.12-.02-.16-.05-.22-.06v-.29s-.13.08-.15.1c-.05.05-.06.2-.14.02.31-.22.75-.94,1.09-1.05.29-.1.61,0,.89-.08.05,0,.1.02.16.08.16,0,.3.02.41.08Z"/>
  <path class="st16" d="M11.45,23.48c.25.06.86.17,1.09.13.7.06,1.38.1,2.05.11.52-.16,1-.42,1.49-.7.98-.41,1.95-.85,2.9-1.32h.1s-.02-.08,0-.12c1-1.36,1.99-2.73,2.97-4.11.27-.74.49-1.49.65-2.26l.05-.07c-.04-.15-.02-.31.06-.49.07-.28.14-.56.2-.85,0-.04.02-.07.06-.1.03-.09.02-.15-.03-.19-.01-.14.13-.83.27-.88.06.03-.08.42-.09.47-.11.86-.29,1.58-.49,2.41-.23.97-.27,1.55-.85,2.41-.87,1.29-1.85,2.53-2.74,3.81-.72.44-1.57.74-2.35,1.09-.61.28-1.2.6-1.83.85-.1.04-.25.15-.34.17-.14.03-.59-.01-.76-.03-.66-.04-1.41-.11-2.07-.2-.15-.02-.29-.05-.44-.08l.1-.08Z"/>
  <path class="st52" d="M22.6,10.32h.04c.01.08.04.12.09.13.02,0,.04,0,.05.02.15.23.35,1,.41,1.3s.14.63.11.92c0,.01-.02.02-.03.03,0,.04-.05.14-.06.22,0,.05-.05.14-.06.21-.03.17,0,.39-.07.55h-.04c-.05.32-.12.65-.22.96-.03.04-.33-.07-.28-.16l-.05-.08c.08-.43.2-.97.43-1.34,0-.1,0-.17.13-.19-.06-.41-.18-.82-.38-1.22,0-.04,0-.08.03-.11-.07-.03-.12-.11-.12-.25-.17-.35-.31-.75-.03-1.07l.06.08Z"/>
  <path class="st10" d="M18.16,5.05c.82.31,1.96,1.29,2.76,1.79.21.13.46.2.64.38.42,1.05.87,2.1,1.24,3.16.24.66.55,1.58.53,2.28,0,.06,0,.13-.06.05.08-.61-.33-1.68-.54-2.27l-.1-.15c-.36-1.04-.76-2.05-1.2-3.01-1.07-.71-2.15-1.41-3.25-2.09l-.02-.07v-.06Z"/>
  <path class="st11" d="M14.36,5.25c.36-.07.72-.18,1.06-.31.17-.08.28-.08.34.01l-.04,1.32c-.31.39-.62.78-.93,1.16v.04s.07.02.08-.01l.63-.04c.05-.1.13-.19.25-.27.18-.26.39-.44.64-.55.16,0,.77.66.76.87l.23.08c.08.04.12.08.05.14-.02.02-.04.04-.06.04-.31,0-.65-.03-.96-.07l-.77-.03c-.16.06-.38.05-.54,0l-.11.07c-1.02.14-2.01.39-2.98.75l-.07-.02s-.03-.03,0-.06c.16-.13.35-.11.16-.33.14-.1.2-.28.3-.4.31-.35.86-.7,1.13-1.07.05-.07.25-.46.26-.54,0-.09-.07-.43-.18-.43-.29.09-.58.16-.86.25-.18.06-.46.27-.62.16.36-.16,1.92-.77,2.23-.77Z"/>
  <path class="st7" d="M18.16,5.12c.1.03.37.21.48.27.71.43,1.39.97,2.09,1.42.18.12.64.33.75.46.1.13.18.39.25.55.35.85.69,1.76,1,2.63-.08.15-.1-.05-.13-.13l-.1-.13c-.38-.95-.76-1.89-1.15-2.83l-3.03-1.97c-.25-.12-.56-.2-.83-.13-.1.02.12.22.16.26.48.37.91.78,1.31,1.23.18.4.43.66.78.91.2.23,0,.32-.22.22-.48-.27-1.1-.3-1.65-.28.12.05.19.11.2.19.03,0,.03.02,0,.03-.06.01-.12-.01-.19-.06-.11.07-.35.01-.45-.06,0-.12-.25-.11-.32-.17-.04-.04-.03-.16-.08-.24-.04-.06-.47-.52-.52-.56-.08-.06-.11-.07-.21-.02-.19.11-.44.52-.67.64-.04.02-.04.11-.05.12-.05.04-.64.05-.75.06-.01-.01,0-.05,0-.06v-.07c.54-.65,1.04-1.3,1.53-1.97.17-.2.32-.36.57-.42.36.06.94,0,1.25.1Z"/>
  <path class="st14" d="M16.91,5.02c0,.12-.11.08-.18.13-.36.24-.81.96-1.09,1.31s-.6.65-.84,1.02c0,0-.06.02-.06-.02.25-.43.64-.75.92-1.16l.04-1.38c-.08,0-.15.02-.23.04-.43.12-.66.28-1.11.28l1.52-.51c.35.07.68.23,1.03.29Z"/>
  <path class="st35" d="M8.45,9.59c.02.15.03.42.01.58-.04.32-.13.63-.25.94-.48,1.05-.89,2.1-1.01,3.25.03.24.03.59-.32.47-.02.21-.12.51-.33.29-.03,0-.05-.02-.07-.04-.1-.15.41-2.08.53-2.39.05-.17.08-.32.08-.49-.15-.44.03-.73.32-1.05.14-.22-.02-.27-.03-.26-.1.17-.2.41-.27.61-.63,1.66-.87,3.45-1,5.21,0,.02-.01.05-.02.07s-.03.05-.04.07c.19.78.5,1.54.9,2.26v.14c.21.48.48,1.01.66,1.49.02.06.07.15,0,.2-.51-.93-1.16-2.35-1.52-3.34-.24-.65-.09-1.56,0-2.26.32-2.52.81-4.22,2.26-6.31.31.15.15.33.1.57Z"/>
  <path class="st24" d="M11.93,8.44s.02.02.03.03c.02.03-.31.43-.37.49h-.08s-.03.09-.03.09l-.86,1.02c-.47.5-.68.84-.76,1.48-.27,2.11-.53,4.29-.76,6.4l-.05.03c-.14-.01-.14-.39-.03-.45.02-.13,0-.25-.03-.37l.28-2.75c-.08-.12-1.35.4-1.47.52-.25.23-.27.95-.26,1.27-.02.06-.07.03-.12,0h-.09c-.16-.13-.3-.27-.43-.42-.06-.07-.37-.45-.39-.49-.02-.07-.04-.15.04-.17.04,0,.17.02.19,0,.02-.01.09-.35.1-.41.09-.02.07.11.14.1.24-.04.14-.29.15-.43.02-.34.25-1.35.36-1.69.26-.81.71-1.47.88-2.38.04-.23.02-.48.07-.71.1-.02.06.05.06.11,0,.11-.02.36,0,.44.02.05.09.05.13.13.07.16.07.45.15.65.04.09.24.44.23.5-.34.25-.67.53-.92.87-.05.06-.12.24-.15.27-.05.05-.17,0-.14.08.21.23,1.06,1.55,1.27,1.61.37.11.34-.23.38-.5.15-.85.15-1.79.34-2.63.11-.48.98-1.38,1.33-1.8.26-.32.48-.68.8-.94,0,.02,0,.05,0,.06Z"/>
  <path class="st53" d="M19.31,18.11c.07.05.01.23.03.13h.04c.1.08.03.38-.02.49s-.2.33-.33.3v.1c-.45.47-.99.95-1.48,1.37-.36.3-.69.51-1.1.71.08.12.13.25.15.39l.42.51c.11.14.12.24.01.31l-.93.29c-.01.12.02.17.1.14l2.59-1.15h0c-.2-.12-.41-.33-.06-.4,0-.01.02-.02.03-.03.07-.04.42.25.32.41-.77.46-1.66.77-2.48,1.14-.44.2-.86.45-1.3.65-.13.06-.61.28-.72.3-.14.02-.72-.04-.91-.05-.38-.03-.76-.09-1.13-.13.33-.06.36-.01.69,0,.48.02,1.27.09,1.7-.06.34-.12.69-.36,1.03-.5l.03-.19c-.13-.53.03-1.08.09-1.61-.52-.01-1.03.02-1.55,0-.75-.02-1.53-.03-2.28-.07-.01,0-.02,0-.03,0-.08-.01-.08-.04,0-.06.49-.02.98-.02,1.47,0l.08-.04,1.26.03c1.01.06,1.58-.05,2.32-.68.63-.54,1.31-1.14,1.83-1.77h.07s.03-.45.03-.45c-.06-.03-.06-.07,0-.1,0-.03.02-.03.03,0Z"/>
  <path class="st1" d="M13.56,23.25c.04-.22-.05-.48-.03-.69s.17-.49.18-.72l1.19.95c.03.12-.17.13-.26.17s-.49.28-.52.28h-.56Z"/>
  <path class="st1" d="M6.06,16.84c0-1.45.42-3.53.85-4.92.12-.39.28-.76.46-1.12.45.14-.03.5-.15.72-.21.38-.02.47-.04.79-.01.27-.27.94-.34,1.26-.09.38-.29,1.19-.26,1.54.02.26.05.16.15.31.29.4.35.45.71.78.03.02.05,0,.08-.01.17.22.3.33.55.45l.55.21c.33.16.48.31.42.69,0,.16-.02.3.03.45.02,0,.04-.01.04,0,.1.09.35.38.44.5,0,0,0,.03,0,.05.07.11.04.14-.06.06-.09-.1-.25-.31-.34-.38-.04-.03-.06-.04-.11-.03-.06.04.04.68,0,.81.33.46.56,1.04.73,1.58-.12-.08-.11-.28-.21-.38l.02.38c-.51.07-.83-.47-1.09-.83-.14-.03.02.2,0,.29-.1.09-.22-.27-.26-.33-.06-.09-.2-.21-.24-.3-.07-.15.02-.29-.17-.39l.08-.06c.07,0,.89.08.88.04-.04-.03-.03-.06,0-.11v-.07c-.28-.4-.57-.82-.84-1.24.04-1.1-.72-.77-1.19-.18-.07.34-.2.85-.47.24-.08-.26-.15-.52-.21-.79Z"/>
  <path class="st48" d="M6.06,16.84c.14.21.15.5.24.73.03.08.18.4.26.23.09-.18.04-.38.22-.58.09-.1.56-.42.67-.44.16-.03.24.01.36.11.22.18.13.36.17.6.06.4.67.92.83,1.27.02.05.07.14-.04.12l-.08-.02c-.29-.38-.56-.79-.8-1.21-.12.19-.24.39-.36.59l-.1.06c-.02-.07-.08.04-.09.05-.18.26-.27.58-.39.87-.3-.68-.89-1.67-.89-2.39Z"/>
  <path class="st7" d="M8.77,18.88c.02.05.08.09.06.16-.35.07-.67-.03-1.02-.03-.14-.07-.39-.11-.54-.19-.02-.03.13-.44.16-.51.11-.26.27-.5.46-.7.19.24.34.51.51.76.13.19.25.27.36.51Z"/>
  <path class="st25" d="M12.16,21.08l.06.03v.06c-.14,0-.28-.05-.42-.04-.05-.04-.11-.08-.15-.12-.75-.69-1.48-1.66-2.17-2.43.07,0,.07,0,.06-.06l.16.13c.68.77,1.35,1.52,2.02,2.25.11.12.27.13.42.13l.02.04Z"/>
  <path class="st48" d="M21.32,13.32c.06.06.11.13.15.2l.75,2.16v-.22c.12-.3.19-.6.24-.92l.08-.04.26.13c.09-.31.12-.68.21-.98.01-.04.02-.09.07-.1,0,.05,0,.11,0,.16-.04.46-.21.99-.32,1.44l-.04.02c-.17.78-.39,1.55-.66,2.3l-1.85,2.6-.06.06c-.27-.02-.54-.03-.81-.03-.2,0-.31-.07-.35-.19.04-.19.05-.44.06-.65,0-.07,0-.15-.03-.21.32-.31.31-.36.35-.8-.03-.38-.05-.79.06-1.15.06-.24.31-.06.36.12h.1c.24.24.45.51.63.83-.11.21.25-.09.25-.16-.07-.22-.18-.43-.32-.63-.27-.34-.48-.69-.65-1.05.13-.16.26-.3.33-.51-.03-.18.08-.27.24-.31l.41-.09c.26-.22.55-.37.91-.4-.18-.5-.34-1.01-.49-1.51,0-.13.07-.17.13-.05Z"/>
  <path class="st35" d="M22.76,15.14c-.18.79-.34,1.6-.66,2.35l-3.01,4.19c-.1-.03-.02-.12-.07-.18-.04-.04-.21-.15-.28-.2-.11.03-.21-.03-.3-.19-.1,0-.15-.05-.14-.12.15-.24.28-.49.4-.74-.18-.14.18-.62.29-.35.29.19.65.12.98.13.09,0,.18.07.24-.01l1.82-2.58c.31-.72.4-1.51.65-2.26.02-.04.03-.12.08-.03Z"/>
  <path class="st35" d="M22.6,10.32c-.07-.05-.06-.04-.08.03-.17.55-.04.49.11.94.03.09.03.18.06.27-.03.21-.17.31-.28.07-.38.26-.78.49-1.18.71-.11.27-.26.18-.39-.02-.28-.4-.58-.79-.9-1.18.02-.54.01-1.07-.03-1.61-.4-.69-1.12-1.42-1.85-1.74-.04-.02-.31-.17-.32-.21-.03-.07.05-.04.08-.05.33-.05,1.07.04,1.39.14.18.05.33.21.54.18,0-.05,0-.07-.03-.11-.09-.12-.38-.28-.51-.45-.15-.18-.23-.42-.37-.59-.25-.32-.87-.81-1.2-1.1-.14-.12-.45-.4-.08-.43.27-.03.61.04.84.19l3,1.95c.44.98.8,2,1.2,3Z"/>
  <path class="st7" d="M18.06,7.8c.07.03.21.03.32.08.28.13,1.37,1.23,1.52,1.51.04.08.06.12.08.21.05.48-.05,1.04,0,1.53.19.23.39.45.57.68.09.12.39.6.48.64.1.05.1-.1.15-.15.11-.09.37-.17.5-.26.15-.1.61-.5.77-.47.01,0,.04.2.14.13.02-.01,0-.16.1-.13.11.32.34.84.41,1.14.01.06.03.21-.03.25-.02.02-.08,0-.09.02-.02.02,0,.09-.01.13-.02.06-.08.08-.11.15-.12.33-.25.89-.33,1.25s-.06.47-.19.81c-.11.28-.04.41,0,.68,0,.02.03.14-.03.09-.36-.91-.63-1.86-.99-2.76-.08-.03-.14-.12-.18-.25-.04-.13-.12-.11-.26.09l-.51.62c-.2.24-.37.02-.43-.2l-.12-.42-.24.11c-.76.19-1.53.32-2.32.39-.09.2-.22.05-.31-.08-.32-.2-.66-.38-1.01-.54-.47-.22-.43-.72-.36-1.15l.06-.05c.03-.06.07-.06.1,0l.06.05c-.02.24-.02.48,0,.72l-.04.06c.44.32.96.65,1.52.78.82-.09,1.62-.23,2.41-.42.06-.05.07-.2.08-.28.05-.84.08-1.7.1-2.54,0-.21.01-.46-.05-.66-.14-.47-1.29-1.46-1.76-1.69v-.04s0-.03,0-.03Z"/>
  <path class="st3" d="M15.64,7.64l.77.03c.33,0,.7,0,1.02.03.15.01.31.03.45.06.65.27,1.16.8,1.62,1.32.37.42.38.51.38,1.09-.05.85-.09,1.74-.11,2.58,0,.09-.02.28-.12.31-.26.07-.52.12-.79.17-.52.09-1.06.16-1.58.23-.3.04-1.27-.6-1.52-.78-.01-.03-.03-.03-.03-.08-.03-.2,0-.54,0-.75-.02-.05-.07-.06-.13-.04-.46.02-1.24.14-1.56.46v.07c-.12.09-.24.2-.31.34h-.07s-.03.02-.03.02c-.01.06-.02.12-.03.18-.13,1.23-.26,2.48-.38,3.67.15.1.32.23.49.4.17.09,1.14-.08,1.29-.2l.19-.22h.04c.08-.05.27.15.22.23.01.02.03.06.01.07-.32.4-.5.49-1.02.55l-1.28.06c-.21-.04-1-.82-1.03-1.03.16-1.45.36-2.93.58-4.39.04-.27.42-.63.63-.82.28-.24.4-.26.77-.31.26-.03.54-.06.8-.04.48-.22,1.3.35,1.4.81v.75c.01.14.02.17.16.16.72-.09,1.43-.22,2.13-.37.03-.06.07-.09.11-.07.06,0,.07.04.08.1.24-.02.45-.16.42.09.1.04.12.23.1.01l.07-.04c.01-.05.03-.07.03-.04,0-.73.03-1.46.07-2.19l-.04-.1s-.07-.06-.07-.14l-.12-.16c-.04-.21-.12-.39-.25-.54-.23-.19-.4-.37-.49-.66-.29-.12-.57-.27-.83-.44.09-.14-.09-.16-.21-.16-.78-.06-1.56-.1-2.33-.09-.1-.02-.14-.09-.04-.13.18,0,.36,0,.54,0Z"/>
  <path class="st47" d="M15.09,7.64c-.02.1.05.06.11.06.76.03,1.52,0,2.27.1.04,0,.39.07.34.13l-.1.08c.17.08.33.18.5.27.12.06.28.07.36.18.05.08.06.18.11.27.13.2.38.31.51.58.05.11.06.25.11.34.07.14.25.16.23.4.04.29,0,.53-.05.84.02.48.11.92.05,1.39,0,.14.15.39-.03.37-.2-.03-.27-.14-.57-.32-.15-.09-.2.06-.22-.17-.08-.18-.1-.38-.07-.61.05-.65.05-1.3,0-1.95-.02-.21-.9-1.16-1.08-1.3-.98-.09-1.97-.15-2.96-.18-.8.15-1.61.41-2.37.71-.6.69-1.2,1.39-1.79,2.11l-.12.2c-.21,1.41-.41,2.84-.58,4.29l-.07.22c-.04.16-.23.3-.26.06l-.02-.21c.13-1.52.33-3.03.6-4.53.47-.68.98-1.32,1.53-1.93v-.06c.06-.07.4-.48.41-.51.23-.07.44-.17.67-.24.75-.23,1.72-.54,2.49-.56Z"/>
  <path class="st47" d="M16.4,7.67c-.25,0-.53.03-.77-.03.25,0,.53-.03.77.03Z"/>
  <path class="st31" d="M18.06,7.83c.47.17,1.48,1.14,1.74,1.57.12.19.12.67.12.91,0,.74-.05,1.62-.1,2.36-.01.17,0,.37-.17.44-.66.26-1.64.22-2.34.41-.31-.04-.58-.19-.85-.34-.17-.09-.62-.34-.7-.5.03-.08.09,0,.11.03.23.2,1.12.68,1.4.7.79-.12,1.58-.22,2.36-.39.13-.05.08-.63.08-.78.02-.36.02-.72.03-1.09.01-.42.15-1.19.05-1.58-.04-.14-.34-.45-.45-.57-.23-.25-.63-.68-.88-.88-.19-.15-.43-.21-.61-.37.07.02.13.04.19.06Z"/>
  <path class="st35" d="M9.03,17.54c0-.28,0-.32-.24-.51-.29-.22-.69-.27-.98-.45-.14-.09-.25-.27-.37-.38.1.02.06-.05.06-.11,0-.15-.01-.3,0-.45.02-.17.15-.63.27-.75.1-.1.82-.39.99-.45.19-.06.39-.13.59-.08l-.32,3.18Z"/>
  <path class="st56" d="M11.52,8.95c.11.04.03.1-.02.16-.48.62-1.04,1.19-1.47,1.85-.27,1.57-.44,3.15-.61,4.73,0,.04.02.07.06.09-.09.73-.17,1.46-.25,2.2.71.79,1.42,1.59,2.14,2.38.06.06.09.14.13.22l.13.05c.09.12.19.22.32.28,1.19.06,2.39.1,3.6.1.8-.02,1.15-.15,1.75-.66.55-.47,1.1-.99,1.61-1.51.1-.1.18-.23.21-.36.04-.76.07-1.52.09-2.28,0-.12-.09-.19-.28-.21l-.02-.08-.11.02c-.52-.3-1.08-.43-1.68-.42-.44.02-.87.02-1.31.02-.17.34-.34.68-.51,1h-.06c-.04.07-.19.27-.25.29-.13.05-.96.2-1.11.2-.23,0-.39-.26-.56-.4-.03-.03-.11-.04-.12-.05-.07-.1.1-.97.12-1.16.09-.88.14-1.77.29-2.65,0-.02.01-.15.06-.08.08.04.06.22-.03.22.02,0,.03.01.03.02.03.15,0,.44,0,.6-.11.99-.22,1.99-.36,2.98,0,0,0-.03.06.01.09.06.3.29.34.38.16,0,.35-.02.53-.05.22-.04.44-.08.65-.15.02.03.04.04.06.04l-.02-.04c.26-.27.44-.6.57-.98.1-.32.28-.45.53-.38.62-.03,1.23-.02,1.84.03.48.13.97.31,1.38.57.08-.06.18-.02.11.06,0,.13,0,.26-.02.39.07.36.07.8-.03,1.15-.01.19-.02.39-.03.57,0,.03,0,.06,0,.1l-.03.45c-.04.11-.16.21-.24.29-.44.43-.96.92-1.42,1.32-.44.38-.88.79-1.49.85-.76.07-1.63,0-2.41,0-.5,0-1.01-.01-1.53-.03-.13,0-.3.01-.42-.08-.08-.07-.22-.28-.3-.37-.65-.69-1.27-1.4-1.9-2.11-.12-.14-.42-.39-.48-.54.02-.12.05-.25.06-.37.21-1.92.36-3.86.64-5.77.08-.54.09-.83.41-1.28.41-.56.9-1.08,1.34-1.61Z"/>
  <path class="st52" d="M19.02,19.04c.08-.02.07.04.08.09.04.23-.07.51.02.77-.04,0-.09,0-.13,0s-.08-.04-.13-.02c-.06.03-.17.23-.16.29,0,.02.06.02.07.04.03.16-.46.81-.42.84.16-.03.16.09.24.16.04.04.1.06.14.1.03.11-.16.07-.13.14,0,.02.13.13.16.16.07.06.23.04.05.15l-2.61,1.16-.16.02-.03-.27,1.02-.31s-.01-.08-.03-.11c-.1-.2-.42-.47-.5-.65-.03-.06-.01-.13-.03-.19s-.11-.16-.11-.18c-.01-.09.42-.25.52-.3.6-.37,1.59-1.36,2.13-1.88Z"/>
  <path class="st49" d="M19.43,17.09c-.01.38-.03.77-.06,1.15l-.03.06h-.03c0-.06,0-.13,0-.19-.03-.19-.02-.38,0-.57,0-.38,0-.77.03-1.15.03-.14.03-.3,0-.45.04-.02.07,0,.1,0,.09.03.07.92.05,1.07l-.07.07Z"/>
  <path class="st48" d="M13.69,21.11c-.47,0-1.01.04-1.47,0-.03,0-.06,0-.06-.03.45.02.91,0,1.36,0,.05,0,.14-.02.18.03Z"/>
  <path class="st48" d="M19.31,18.11h-.03c0-.18-.03-.4.03-.57,0,.19,0,.38,0,.57Z"/>
  <path class="st48" d="M19.24,18.66c.02-.14-.04-.32.03-.45,0,.16.02.3-.03.45Z"/>
  <path class="st35" d="M15.64,11.85c0,.5-.21.81.3,1.12.3.18.76.34,1.02.54.12.09.15.3.26.1.65-.1,1.32-.16,1.96-.31.21-.05.5-.1.65-.24.1,0,.14.81.38.76.12-.03.71-.92.87-.92.07,0,.21.34.24.42-.1-.07-.07.02-.06.07.14.53.35,1.04.5,1.56-.25,0-.5.07-.71.2-.08.05-.17.15-.25.19-.15.07-.54.06-.61.22-.02.05.01.1,0,.15-.03.07-.13.29-.17.34-.13.17-.23.06-.07.33.23.38.52.74.75,1.14.05.09.18.32.14.4-.03.07-.3.3-.38.29-.1-.02.07-.17,0-.22-.12-.08-.48-.75-.57-.73-.04,0-.06.08-.12.06,0-.15-.18-.37-.32-.22,0-.29.03-.69,0-.97,0-.03-.01-.15-.06-.15,0,.11,0,.23,0,.34,0,.04-.03.07-.03.08-.02-.11.03-.3,0-.39,0-.01-.08-.04-.1-.05-.42-.26-.91-.45-1.39-.58-.18-.04-.24-.16-.17-.38-.03-.18-.44-.97-.59-.95-.25.23-.48.5-.67.81-.13.16-.27.32-.45.42-.28.05-.32.13-.44.37-.15.43-.34.77-.58,1.04v.06c-.11.08-1.03.25-1.17.22-.05-.01-.06-.04-.08-.06-.08-.13-.2-.26-.35-.38l-.02-.08c.09-.65.16-1.31.22-1.97,0-.33.14-.48.28-.09.09.4.2.8.34,1.2v.16c.08-.07.54-.72.56-.77.02-.1-.6-1.27-.71-1.35-.17-.06-.28-.15-.33-.27.02-.19,0-.33-.04-.44,0-.08,0-.14.03-.22.05-.15.25-.33.38-.42,0-.01,0-.03,0-.04.08-.18,1.49-.47,1.56-.42.01,0,.02.02.03.04Z"/>
  <path class="st7" d="M20.23,9.88c.19,0,.27.21.44.28s.52.07.58.32c.06.27-.03.31-.12.51-.05.12-.31.79-.38.81-.12.04-.24-.15-.26-.24-.05-.23-.04-.56-.08-.81-.05-.29-.13-.57-.18-.86Z"/>
  <path class="st4" d="M15.73,11.85s-.06,0-.1,0c-.42,0-1.24.19-1.6.42-.09-.07.15-.19.19-.21.37-.18.74-.2,1.13-.24.09,0,.37-.13.4-.01,0,.02-.03.04-.03.04Z"/>
  <path class="st2" d="M18.89,15.91l.07.05-.07.29c.03.77.01,1.54-.05,2.3l-2.22,2.1c-.11.07-.32.12-.41.01-.15,0-.09-.17-.02-.25l1.82-1.72c.03-.12.03-.25,0-.38l.05-.11-.04-.09c.02-.73.03-1.45.04-2.17l-.04-.06c-.67-.05-1.34-.05-2.02-.01-.14.23-.26.48-.37.74-.05.1-.11.15-.18.15l-.22-.22c.22-.34.29-.76.54-1.07.83.02,1.74-.14,2.53.15.21.08.4.19.6.28Z"/>
  <path class="st27" d="M14.61,10.83c.09-.02.2-.04.29,0,.03,0,.03.02,0,.03-.3.02-.7.06-1,.1-.41.05-.64.39-.9.67-.19.2-.21.14-.27.47-.16.94-.24,1.9-.36,2.84-.05.42-.17.9-.19,1.31,0,.12-.01.2.05.3.08.13.61.64.75.75.05.04.11.1.18.11.56-.06,1.51.06,1.98-.29.12-.09.21-.24.3-.35.06-.08.12-.12.18-.22.09-.16.24-.68.36-.72.59.02,1.26-.07,1.84-.02.23.02.28.07.3.3.02.29-.06.69-.07.99,0,.36,0,.74,0,1.1l-.07.13c-.65.61-1.29,1.22-1.95,1.81-.37.11-.76.14-1.18.12l-2.8-.05c-.27.02-.54.03-.79.02-.53-.73-1.09-1.42-1.67-2.07-.08-.09-.16-.19-.18-.31-.03-.11-.01-.48.09-.54.02-.1.07-.17.08-.02,0,.11,0,.23-.02.34l.04.03c0,.11.03.22.05.32.19.11.43.39.48.61l.1.06c.38.45.75.91,1.12,1.37h4.37c.13,0,.23-.08.33-.16.46-.49.97-.97,1.48-1.44.1-.09.27-.24.38-.24.04-.42.06-.85.06-1.28-.11-.3-.08-.69-.02-.99l-.03.06h-1.88l-.04-.06.03.06c-.22.53-.56,1.21-1.12,1.43-.14.06-.37.14-.49.04l-.45.03s-.02.03-.03,0l-.45.03s-.02.03-.03,0c-.12.03-.23.02-.35,0-.03.04-.07.04-.11,0-.39-.29-.77-.64-1.04-1.03.13-1.19.27-2.38.47-3.54,0-.05.04-.08.07-.12.02-.06.04-.16,0-.21l.04-.02-.06-.05c.01-.17.1-.68.18-.82.12-.19.81-.82,1.03-.82.01,0,.02.01.03.02.03-.02.05-.04.06-.08.24-.04.48-.06.73-.08l.08.06Z"/>
  <path class="st8" d="M18.7,12.14c-.11.26-.43.19-.68.23-.45.07-.97.21-1.41.25-.29.03-.3.02-.33-.27-.05-.57.16-.69-.34-1.13-.36-.32-.54-.39-1.04-.35v-.03s.06-.02.1-.03c.02-.06.05-.06.06,0,.13-.03.26-.03.38,0l.07-.04c.12.01.67.48.76.61.07.11.1.16.07.29.03.27.03.55,0,.83.72-.11,1.44-.23,2.17-.38.03-.81.04-1.64.01-2.47l.05-.06c-.3-.29-.57-.61-.83-.96l-.28-.26c-.86-.05-1.72-.1-2.58-.16-.87.06-1.79.35-2.56.7-.63.7-1.3,1.46-1.9,2.23-.24,1.68-.47,3.37-.69,5.05-.02.1-.04.21-.03.32.05.21.03.5-.06.7l-.03.35c.08.02.05.09-.03.06,0-.13,0-.26,0-.38h-.03s-.03.06-.03.06c-.06-.56,0-1.15.16-1.69.12-1.19.29-2.38.47-3.56.05-.3.04-.67.13-.95.11-.33,1-1.24,1.28-1.56.14-.17.53-.72.67-.8.32-.16.86-.27,1.22-.38.51-.16.94-.4,1.51-.31l2.63.18c.13.14.27.26.4.4.17.19.66.73.7.96.08.83-.05,1.73.01,2.56Z"/>
  <path class="st23" d="M9.51,17.31c0,.12-.04.39-.03.49.01.2.35.48.48.64.42.52.83,1.04,1.25,1.56.05.07.03.15.14.18s.21-.03.32-.03c1.31-.03,2.81.11,4.09,0,.14-.01.26-.04.37-.14.62-.63,1.29-1.21,1.95-1.8,0,.16.08.38,0,.53l-1.81,1.71c-.06.06-.11.14-.05.22-.03.04-.08.07-.12.08-1.28.03-2.57,0-3.85-.05-.23,0-.53-.05-.75-.13-.83-.81-1.54-1.73-2.32-2.58.03-.66.15-1.32.22-1.97.01-.11.02-.23.03-.33.08.15.16,0,.26-.06-.06.56-.12,1.13-.16,1.69Z"/>
  <path class="st43" d="M11.49,20.57c.25-.02.5.05.75.07.62.03,1.26.02,1.89.03.69.01,1.41.1,2.09,0,.12-.02.26.01.37-.06l2.2-2.08c.07-.33.03-.67.05-1.01.02-.43-.02-.88,0-1.28,0-.13.08-.22.07-.33.09.04.33.07.35.18.04.19,0,.71,0,.93,0,.25-.05.54-.07.8-.03.55.13.71-.3,1.14-.37.37-.81.79-1.2,1.13-.58.52-.98.92-1.8.97-1.01.06-2.24-.02-3.26-.07-.19,0-.42.02-.61,0-.25-.03-.37-.26-.53-.42Z"/>
  <path class="st7" d="M14.93,16.74c-.14-.06.04-.12.08-.16.25-.3.46-1.1.67-1.27.06-.05.15-.04.22-.07.4-.22.65-.72.93-1.05.13-.15.24-.31.4-.14.15.15.5.75.51.96,0,.08-.06.18-.02.24.02.04.7.25.82.3.26.11.5.26.77.35l-.06.05c-.31-.13-.67-.3-.98-.41-.65-.24-1.58-.12-2.29-.13-.06,0-.14-.04-.18-.03-.19.04-.47.9-.6,1.09-.02.03-.23.26-.25.28Z"/>
  <path class="st7" d="M13.62,12.91c.09-.02.06.05.07.11.01.09.02.34.04.37.03.05.28.14.35.22s.57,1,.62,1.14c.03.07.04.15.06.23l-.61.9c-.07-.03-.04-.21-.06-.29-.05-.18-.14-.38-.19-.57-.08-.28-.06-.47-.2-.75-.01-.02-.01-.1-.07-.05-.05.05-.11,1.14-.13,1.32-.03.24-.21.76-.09.96.04.07.21.18.27.27.02.03.08.11.02.13-.16-.1-.26-.29-.45-.37.16-1.12.26-2.25.39-3.38,0-.08,0-.16,0-.24Z"/>
  <path class="st11" d="M18.03,9.62s.07.05.09.09c.16.28.1,1.34.05,1.69-.05.42-.21.48-.58.61-.25.09-.68.23-.86-.02-.23.24-.33.12-.32-.37l-.05.03s-.02.03-.03,0c-.02-.17-.17-.33-.3-.45-.15-.14-.41-.33-.59-.41-.13-.02-.26-.03-.38,0-.02,0-.04,0-.06,0-.13,0-.25.02-.38.03-.26.01-.61.04-.86.1-.05-.02.01-.07.02-.04-.25.04-.45.2-.62.37-.32.35-.62.61-1.04.82-.25.37-.53.7-.83,1.02-.11.12-.33.41-.12.51l.42-.52s.09-.02.13,0c.07.23.19.39.35.48.03.03.04.05.06.09.04.09.02.58-.09.62.04.11.05.33-.06.38l-.04.08c-.5.15-.94.42-1.31.83-.14.15-.3.21-.47.17v-.16l-.03-.13c.12-1.09.25-2.16.43-3.24.13-.75.43-1.2.92-1.76l.57-.78c.35-.42.51-.49.98-.68.53-.22,1.11-.45,1.7-.4.68.08,1.36.12,2.04.13.42.04.5.05.8.34.17.16.38.36.48.55Z"/>
  <path class="st29" d="M18.57,9.59c-.09.06-.2.01-.32-.14-.16-.27-.36-.41-.61-.43l.44.46c.05.08.05.19-.06.15-.28-.21-.46-.55-.77-.72s-1.19-.12-1.58-.15c-.47-.03-.97-.14-1.44-.1-.27.03-1.56.5-1.77.66-.35.27-.69.82-.96,1.18-.47.62-.71.78-.88,1.61-.23,1.12-.36,2.35-.49,3.49l-.02.3c-.16.19-.16-.5-.11-.56.03-.12.23-1.36.15-1.37-.22,1.15-.35,2.32-.39,3.49-.01.05-.04.1-.08.15.05.02.06.07.03.14.06.18.04.26-.06.24-.11-.18-.09-.14-.1-.35.03-.01.02-.04.03-.06,0-.12.02-.24.03-.35.01-.24.04-.47.06-.7,0-.11,0-.22.03-.32.15-1.7.37-3.39.63-5.07.46-.64,1.01-1.22,1.53-1.82.42-.49.31-.46.96-.67.8-.26,1.48-.52,2.33-.48.76.04,1.53.16,2.3.16.3.19.5.5.72.78.12.15.33.32.38.5Z"/>
  <path class="st54" d="M10.14,18.59c-.02-.13-.09-.24-.18-.35-.07-.16-.03-.28.15-.21l.89,1.03c.07.18.53.67.69.71,0,0,0-.01,0-.03l.06-.06c.76-.05,1.53-.05,2.31,0,1.13.08,2.06-.17,2.81-1.02.19-.29.42-.4.74-.48.07-.06.14-.1.21-.11.04,0,.07,0,.1.03.01,0,.01.03,0,.06-.07.11-.26.21-.35.3-.32.31-.65.6-.97.91-.25.23-.53.67-.86.7h-4.4c-.42-.48-.81-1-1.2-1.5Z"/>
  <path class="st19" d="M12.54,12.81c-.04.48-.16.99-.22,1.45-.09.73-.17,1.47-.26,2.2.02.12.36.46.46.56.14.14.45.43.62.48.12.03.24.03.35,0,.01,0,.02,0,.03,0l.45-.03s.02,0,.03,0l.45-.03c.57-.03.87-.29,1.18-.75.08-.12.34-.78.4-.78h1.95c.09,0,.02.22.01.27,0,.24,0,.48,0,.72,0,.4-.03.81-.06,1.21-.07.05-.11.06-.1-.03-.03-.07-.04-.16-.03-.28-.06-.51-.1-.99.02-1.48l-.19.03c-.45-.03-.89-.01-1.31.06-.36.54-.68.96-1.25,1.33-.12.08-.47.17-.56.04l-.57.03c-.04.06-.09.06-.13,0-.24.02-.49.03-.73,0l-.06.04c-.27-.18-.59-.42-.73-.71-.04-.1.05-.1.12-.06l-.36-.38c.02.1,0,.16-.05.19-.06.06-.1,0-.15-.05-.12-.17-.03-1.12.02-1.36l.07-.03c0-.11,0-.21.03-.32-.09-.07-.1-.41,0-.48,0-.13.05-.27.06-.38.01-.01.02-.02.04-.02.11-.03.09.38.02.44-.02.12-.03.23-.03.35.04.08.02.25-.03.32v.34s0-.04.03-.05c.02-.44.04-.9.08-1.34.02-.22.18-1.54.26-1.62.02-.02.05-.04.08-.04.1-.15.1.06.06.16Z"/>
  <path class="st14" d="M12.03,14.28c.01-.16.07-.48.03-.62-.02-.07-.12-.08-.18-.14-.08-.08-.15-.29-.2-.4-.05-.01-.05,0-.08.03-.08.08-.38.53-.45.54-.43-.28.29-.81.48-1.05.17-.21.28-.5.51-.67.13-.09.27-.12.41-.22.38-.29.75-.86,1.25-.89l-.05.06c-.11.03-.21.06-.3.13-.09.06-.65.62-.7.7-.07.12-.15.66-.18.83-.04.01-.07.03-.1.06-.15.47-.24,1.46-.32,2-.05.33-.06.67-.1,1-.04-.08-.05-.17-.03-.29,0-.12.02-.21.03-.32,0-.12,0-.24.03-.35,0-.12.04-.35-.06-.42Z"/>
  <path class="st34" d="M9.7,17.6c.08-.21.16-.09.18.07.04.1.14.29.24.28h.08c.46.61.97,1.18,1.53,1.71v.07s.09.02.09.06c-.25.06-.35-.16-.51-.3-.18-.17-.27-.13-.31-.43l-.92-1.02c-.06-.02-.08.08-.07.11.01.11.28.28.15.44-.16-.2-.34-.39-.48-.61.07-.05,0-.16,0-.24,0-.07.03-.11.03-.14Z"/>
  <path class="st7" d="M17.93,18.18v-.06c0-.14,0-.29,0-.43l.07-.78c0,.27.05,1.1-.06,1.28Z"/>
  <path class="st41" d="M13.98,17.47c-.12.06-.31.03-.45.03.12-.06.31-.03.45-.03Z"/>
  <path class="st41" d="M14.45,17.44c-.12.06-.31.03-.45.03.12-.06.3-.03.45-.03Z"/>
  <path class="st41" d="M12.57,12.59c0,.07.03.18-.03.22,0-.06,0-.13,0-.19l-.06.03s.04-.15.1-.06Z"/>
  <path class="st3" d="M15,10.8s-.06.03-.1.03c-.1,0-.19,0-.29,0,.1-.06.26-.03.38-.03Z"/>
  <path class="st41" d="M13.5,17.51c-.1.07-.24.03-.35,0,.12,0,.23,0,.35,0Z"/>
  <path class="st19" d="M18.57,9.59c.02.06.03.11.03.17.05.58,0,1.21-.03,1.79,0,.11.02.57-.01.63-.73.15-1.49.26-2.22.38,0-.02,0-.04,0-.06.01-.28.02-.56,0-.84,0-.06.07,0,.07-.04.2.04.04.47.14.47l.14-.11c.01-.05-.14-.13-.1-.17.1-.09.22.24.29.27.2.09,1.03-.17,1.15-.35.06-.1.08-.32.1-.45.05-.59.06-1.07-.1-1.64,0,0,.05-.03.02-.09-.04-.08-.49-.47-.5-.53,0-.07.21-.04.26-.03.31.07.45.55.76.62Z"/>
  <path class="st3" d="M15.44,10.8c-.13,0-.26,0-.38,0,.09-.06.28-.05.38,0Z"/>
  <path class="st7" d="M11.96,14.66c0,.13.01.33,0,.48-.02.1-.03.21-.03.32-.02.29-.14,1.13-.03,1.35.02.05.07.06.09.08.1-.03.24.17.29.26.19.16.37.35.56.51.07.06.15.13.24.16.24.02.5.03.73,0,.04,0,.09,0,.13,0l.57-.03c.25,0,.36,0,.59-.13.34-.22.64-.52.88-.85.09-.12.2-.39.32-.45.08-.04.39-.06.5-.07.28-.02.56,0,.83,0,.07,0,.24-.08.27.02.01.05-.09.43-.09.54-.01.3.05.68.07.99,0,.1.01.15-.03.24-.12.24-.44.2-.64.34-.12.08-.18.22-.27.3-.24.22-.63.58-.9.73-.95.52-2.65.22-3.73.26-.19,0-.39.06-.59.03-.36-.26-1.3-1.39-1.6-1.79-.12,0-.25-.25-.26-.39.05-.56.12-1.11.21-1.66.05-.03.07-.08.07-.15.04-.1.08-.02.16-.04.24-.07.76-.67,1.06-.82.17-.09.41-.15.6-.22Z"/>
  <path class="st13" d="M9.7,17.6c.1-1.12.14-2.56.4-3.64.01-.06.03-.14.06-.19.06.07.08.22.08.3.01.49-.17,1.09-.19,1.6,0,.05,0,.19.06.21l.03-.29c0,.05,0,.11,0,.16-.02.59-.23,1.29-.22,1.87,0,.1.13.25.19.33.01.09-.03.08-.08.03-.11-.1-.24-.29-.24-.45l-.1.06Z"/>
  <path class="st41" d="M12,16.9l-.03-.29c.07-.07.3.26.35.3.16.15.6.58.77.67.24.12.58,0,.84-.01.43-.03.81.04,1.21-.2.06-.04.33-.28.36-.28.04,0,.04.04.02.08-.08.12-.44.43-.58.48-.27.09-.83.07-1.13.08-.19,0-.53.08-.71,0-.2-.09-.55-.5-.75-.6-.04-.02-.06.02-.06.02-.11-.03-.21-.17-.29-.26Z"/>
  <path class="st41" d="M13.82,17.82c-.03.05-.12.03-.18.03-.18,0-.4.02-.56-.03.24,0,.49,0,.73,0Z"/>
  <path class="st41" d="M12.06,15.65c0,.06,0,.14-.06.16l.03-.45c0,.12.03.2.03.29Z"/>
  <path class="st41" d="M14.52,17.79c-.17.06-.39.03-.57.03.17-.06.39-.03.57-.03Z"/>
  <path class="st41" d="M12.06,15.05c.01-.11-.04-.26.03-.35,0,.13-.02.24-.03.35Z"/>
  <path class="st41" d="M11.93,15.46c.01-.1-.04-.24.03-.32,0,.11-.02.22-.03.32Z"/>
</svg>